M48
; DRILL file {KiCad (5.1.4-0-10_14)} date 2021 May 05, Wednesday 22:13:40
; FORMAT={-:-/ absolute / inch / decimal}
; #@! TF.CreationDate,2021-05-05T22:13:40+08:00
; #@! TF.GenerationSoftware,Kicad,Pcbnew,(5.1.4-0-10_14)
; #@! TF.FileFunction,Plated,1,2,PTH
FMAT,2
INCH
T1C0.0157
T2C0.0276
T3C0.0579
%
G90
G05
T1
X6.875Y-5.2188
X7.0266Y-4.5984
X7.1875Y-4.5625
X7.25Y-4.8438
X7.2751Y-5.0563
X7.875Y-5.2812
X8.0Y-4.75
T3
X8.975Y-4.3375
X9.0266Y-4.28
X9.2234Y-4.2603
X9.225Y-4.2375
X8.975Y-5.0875
X9.0266Y-5.03
X9.2234Y-5.0103
X9.225Y-4.9875
X8.225Y-5.0875
X8.2766Y-5.03
X8.4734Y-5.0103
X8.475Y-4.9875
X8.225Y-4.3375
X8.2766Y-4.28
X8.4734Y-4.2603
X8.475Y-4.2375
T2
G00X6.5438Y-4.1014
M15
G01X6.5438Y-4.1486
M16
G05
G00X6.5438Y-4.2785
M15
G01X6.5438Y-4.3258
M16
G05
G00X6.8312Y-4.1014
M15
G01X6.8312Y-4.1486
M16
G05
G00X6.8312Y-4.2785
M15
G01X6.8312Y-4.3258
M16
G05
T0
M30
