G04 #@! TF.GenerationSoftware,KiCad,Pcbnew,(5.1.4-0-10_14)*
G04 #@! TF.CreationDate,2021-05-05T22:13:24+08:00*
G04 #@! TF.ProjectId,pcb-project,7063622d-7072-46f6-9a65-63742e6b6963,rev?*
G04 #@! TF.SameCoordinates,Original*
G04 #@! TF.FileFunction,Copper,L2,Bot*
G04 #@! TF.FilePolarity,Positive*
%FSLAX46Y46*%
G04 Gerber Fmt 4.6, Leading zero omitted, Abs format (unit mm)*
G04 Created by KiCad (PCBNEW (5.1.4-0-10_14)) date 2021-05-05 22:13:24*
%MOMM*%
%LPD*%
G04 APERTURE LIST*
%ADD10O,1.700000X2.700000*%
%ADD11R,0.500000X2.250000*%
%ADD12R,1.400000X1.200000*%
%ADD13R,0.550000X1.500000*%
%ADD14R,1.500000X0.550000*%
%ADD15R,1.800000X1.100000*%
%ADD16C,0.100000*%
%ADD17C,1.025000*%
%ADD18C,2.250000*%
%ADD19C,2.250000*%
%ADD20C,1.250000*%
%ADD21R,1.200000X0.900000*%
%ADD22C,1.000000*%
%ADD23C,0.800000*%
%ADD24C,0.381000*%
%ADD25C,0.200000*%
%ADD26C,0.254000*%
G04 APERTURE END LIST*
D10*
X166212500Y-104775000D03*
X173512500Y-104775000D03*
X173512500Y-109275000D03*
X166212500Y-109275000D03*
D11*
X168262500Y-109275000D03*
X169062500Y-109275000D03*
X169862500Y-109275000D03*
X170662500Y-109275000D03*
X171462500Y-109275000D03*
D12*
X192393750Y-109481250D03*
X190193750Y-109481250D03*
X190193750Y-111181250D03*
X192393750Y-111181250D03*
D13*
X188087500Y-130318750D03*
X188887500Y-130318750D03*
X189687500Y-130318750D03*
X190487500Y-130318750D03*
X191287500Y-130318750D03*
X192087500Y-130318750D03*
X192887500Y-130318750D03*
X193687500Y-130318750D03*
X194487500Y-130318750D03*
X195287500Y-130318750D03*
X196087500Y-130318750D03*
D14*
X197787500Y-128618750D03*
X197787500Y-127818750D03*
X197787500Y-127018750D03*
X197787500Y-126218750D03*
X197787500Y-125418750D03*
X197787500Y-124618750D03*
X197787500Y-123818750D03*
X197787500Y-123018750D03*
X197787500Y-122218750D03*
X197787500Y-121418750D03*
X197787500Y-120618750D03*
D13*
X196087500Y-118918750D03*
X195287500Y-118918750D03*
X194487500Y-118918750D03*
X193687500Y-118918750D03*
X192887500Y-118918750D03*
X192087500Y-118918750D03*
X191287500Y-118918750D03*
X190487500Y-118918750D03*
X189687500Y-118918750D03*
X188887500Y-118918750D03*
X188087500Y-118918750D03*
D14*
X186387500Y-120618750D03*
X186387500Y-121418750D03*
X186387500Y-122218750D03*
X186387500Y-123018750D03*
X186387500Y-123818750D03*
X186387500Y-124618750D03*
X186387500Y-125418750D03*
X186387500Y-126218750D03*
X186387500Y-127018750D03*
X186387500Y-127818750D03*
X186387500Y-128618750D03*
D15*
X172962500Y-137581250D03*
X166762500Y-133881250D03*
X172962500Y-133881250D03*
X166762500Y-137581250D03*
D16*
G36*
X202087005Y-127957454D02*
G01*
X202111273Y-127961054D01*
X202135072Y-127967015D01*
X202158171Y-127975280D01*
X202180350Y-127985770D01*
X202201393Y-127998382D01*
X202221099Y-128012997D01*
X202239277Y-128029473D01*
X202255753Y-128047651D01*
X202270368Y-128067357D01*
X202282980Y-128088400D01*
X202293470Y-128110579D01*
X202301735Y-128133678D01*
X202307696Y-128157477D01*
X202311296Y-128181745D01*
X202312500Y-128206249D01*
X202312500Y-128731251D01*
X202311296Y-128755755D01*
X202307696Y-128780023D01*
X202301735Y-128803822D01*
X202293470Y-128826921D01*
X202282980Y-128849100D01*
X202270368Y-128870143D01*
X202255753Y-128889849D01*
X202239277Y-128908027D01*
X202221099Y-128924503D01*
X202201393Y-128939118D01*
X202180350Y-128951730D01*
X202158171Y-128962220D01*
X202135072Y-128970485D01*
X202111273Y-128976446D01*
X202087005Y-128980046D01*
X202062501Y-128981250D01*
X201162499Y-128981250D01*
X201137995Y-128980046D01*
X201113727Y-128976446D01*
X201089928Y-128970485D01*
X201066829Y-128962220D01*
X201044650Y-128951730D01*
X201023607Y-128939118D01*
X201003901Y-128924503D01*
X200985723Y-128908027D01*
X200969247Y-128889849D01*
X200954632Y-128870143D01*
X200942020Y-128849100D01*
X200931530Y-128826921D01*
X200923265Y-128803822D01*
X200917304Y-128780023D01*
X200913704Y-128755755D01*
X200912500Y-128731251D01*
X200912500Y-128206249D01*
X200913704Y-128181745D01*
X200917304Y-128157477D01*
X200923265Y-128133678D01*
X200931530Y-128110579D01*
X200942020Y-128088400D01*
X200954632Y-128067357D01*
X200969247Y-128047651D01*
X200985723Y-128029473D01*
X201003901Y-128012997D01*
X201023607Y-127998382D01*
X201044650Y-127985770D01*
X201066829Y-127975280D01*
X201089928Y-127967015D01*
X201113727Y-127961054D01*
X201137995Y-127957454D01*
X201162499Y-127956250D01*
X202062501Y-127956250D01*
X202087005Y-127957454D01*
X202087005Y-127957454D01*
G37*
D17*
X201612500Y-128468750D03*
D16*
G36*
X202087005Y-129782454D02*
G01*
X202111273Y-129786054D01*
X202135072Y-129792015D01*
X202158171Y-129800280D01*
X202180350Y-129810770D01*
X202201393Y-129823382D01*
X202221099Y-129837997D01*
X202239277Y-129854473D01*
X202255753Y-129872651D01*
X202270368Y-129892357D01*
X202282980Y-129913400D01*
X202293470Y-129935579D01*
X202301735Y-129958678D01*
X202307696Y-129982477D01*
X202311296Y-130006745D01*
X202312500Y-130031249D01*
X202312500Y-130556251D01*
X202311296Y-130580755D01*
X202307696Y-130605023D01*
X202301735Y-130628822D01*
X202293470Y-130651921D01*
X202282980Y-130674100D01*
X202270368Y-130695143D01*
X202255753Y-130714849D01*
X202239277Y-130733027D01*
X202221099Y-130749503D01*
X202201393Y-130764118D01*
X202180350Y-130776730D01*
X202158171Y-130787220D01*
X202135072Y-130795485D01*
X202111273Y-130801446D01*
X202087005Y-130805046D01*
X202062501Y-130806250D01*
X201162499Y-130806250D01*
X201137995Y-130805046D01*
X201113727Y-130801446D01*
X201089928Y-130795485D01*
X201066829Y-130787220D01*
X201044650Y-130776730D01*
X201023607Y-130764118D01*
X201003901Y-130749503D01*
X200985723Y-130733027D01*
X200969247Y-130714849D01*
X200954632Y-130695143D01*
X200942020Y-130674100D01*
X200931530Y-130651921D01*
X200923265Y-130628822D01*
X200917304Y-130605023D01*
X200913704Y-130580755D01*
X200912500Y-130556251D01*
X200912500Y-130031249D01*
X200913704Y-130006745D01*
X200917304Y-129982477D01*
X200923265Y-129958678D01*
X200931530Y-129935579D01*
X200942020Y-129913400D01*
X200954632Y-129892357D01*
X200969247Y-129872651D01*
X200985723Y-129854473D01*
X201003901Y-129837997D01*
X201023607Y-129823382D01*
X201044650Y-129810770D01*
X201066829Y-129800280D01*
X201089928Y-129792015D01*
X201113727Y-129786054D01*
X201137995Y-129782454D01*
X201162499Y-129781250D01*
X202062501Y-129781250D01*
X202087005Y-129782454D01*
X202087005Y-129782454D01*
G37*
D17*
X201612500Y-130293750D03*
D16*
G36*
X180655755Y-116288704D02*
G01*
X180680023Y-116292304D01*
X180703822Y-116298265D01*
X180726921Y-116306530D01*
X180749100Y-116317020D01*
X180770143Y-116329632D01*
X180789849Y-116344247D01*
X180808027Y-116360723D01*
X180824503Y-116378901D01*
X180839118Y-116398607D01*
X180851730Y-116419650D01*
X180862220Y-116441829D01*
X180870485Y-116464928D01*
X180876446Y-116488727D01*
X180880046Y-116512995D01*
X180881250Y-116537499D01*
X180881250Y-117062501D01*
X180880046Y-117087005D01*
X180876446Y-117111273D01*
X180870485Y-117135072D01*
X180862220Y-117158171D01*
X180851730Y-117180350D01*
X180839118Y-117201393D01*
X180824503Y-117221099D01*
X180808027Y-117239277D01*
X180789849Y-117255753D01*
X180770143Y-117270368D01*
X180749100Y-117282980D01*
X180726921Y-117293470D01*
X180703822Y-117301735D01*
X180680023Y-117307696D01*
X180655755Y-117311296D01*
X180631251Y-117312500D01*
X179731249Y-117312500D01*
X179706745Y-117311296D01*
X179682477Y-117307696D01*
X179658678Y-117301735D01*
X179635579Y-117293470D01*
X179613400Y-117282980D01*
X179592357Y-117270368D01*
X179572651Y-117255753D01*
X179554473Y-117239277D01*
X179537997Y-117221099D01*
X179523382Y-117201393D01*
X179510770Y-117180350D01*
X179500280Y-117158171D01*
X179492015Y-117135072D01*
X179486054Y-117111273D01*
X179482454Y-117087005D01*
X179481250Y-117062501D01*
X179481250Y-116537499D01*
X179482454Y-116512995D01*
X179486054Y-116488727D01*
X179492015Y-116464928D01*
X179500280Y-116441829D01*
X179510770Y-116419650D01*
X179523382Y-116398607D01*
X179537997Y-116378901D01*
X179554473Y-116360723D01*
X179572651Y-116344247D01*
X179592357Y-116329632D01*
X179613400Y-116317020D01*
X179635579Y-116306530D01*
X179658678Y-116298265D01*
X179682477Y-116292304D01*
X179706745Y-116288704D01*
X179731249Y-116287500D01*
X180631251Y-116287500D01*
X180655755Y-116288704D01*
X180655755Y-116288704D01*
G37*
D17*
X180181250Y-116800000D03*
D16*
G36*
X180655755Y-114463704D02*
G01*
X180680023Y-114467304D01*
X180703822Y-114473265D01*
X180726921Y-114481530D01*
X180749100Y-114492020D01*
X180770143Y-114504632D01*
X180789849Y-114519247D01*
X180808027Y-114535723D01*
X180824503Y-114553901D01*
X180839118Y-114573607D01*
X180851730Y-114594650D01*
X180862220Y-114616829D01*
X180870485Y-114639928D01*
X180876446Y-114663727D01*
X180880046Y-114687995D01*
X180881250Y-114712499D01*
X180881250Y-115237501D01*
X180880046Y-115262005D01*
X180876446Y-115286273D01*
X180870485Y-115310072D01*
X180862220Y-115333171D01*
X180851730Y-115355350D01*
X180839118Y-115376393D01*
X180824503Y-115396099D01*
X180808027Y-115414277D01*
X180789849Y-115430753D01*
X180770143Y-115445368D01*
X180749100Y-115457980D01*
X180726921Y-115468470D01*
X180703822Y-115476735D01*
X180680023Y-115482696D01*
X180655755Y-115486296D01*
X180631251Y-115487500D01*
X179731249Y-115487500D01*
X179706745Y-115486296D01*
X179682477Y-115482696D01*
X179658678Y-115476735D01*
X179635579Y-115468470D01*
X179613400Y-115457980D01*
X179592357Y-115445368D01*
X179572651Y-115430753D01*
X179554473Y-115414277D01*
X179537997Y-115396099D01*
X179523382Y-115376393D01*
X179510770Y-115355350D01*
X179500280Y-115333171D01*
X179492015Y-115310072D01*
X179486054Y-115286273D01*
X179482454Y-115262005D01*
X179481250Y-115237501D01*
X179481250Y-114712499D01*
X179482454Y-114687995D01*
X179486054Y-114663727D01*
X179492015Y-114639928D01*
X179500280Y-114616829D01*
X179510770Y-114594650D01*
X179523382Y-114573607D01*
X179537997Y-114553901D01*
X179554473Y-114535723D01*
X179572651Y-114519247D01*
X179592357Y-114504632D01*
X179613400Y-114492020D01*
X179635579Y-114481530D01*
X179658678Y-114473265D01*
X179682477Y-114467304D01*
X179706745Y-114463704D01*
X179731249Y-114462500D01*
X180631251Y-114462500D01*
X180655755Y-114463704D01*
X180655755Y-114463704D01*
G37*
D17*
X180181250Y-114975000D03*
D16*
G36*
X171924505Y-114463704D02*
G01*
X171948773Y-114467304D01*
X171972572Y-114473265D01*
X171995671Y-114481530D01*
X172017850Y-114492020D01*
X172038893Y-114504632D01*
X172058599Y-114519247D01*
X172076777Y-114535723D01*
X172093253Y-114553901D01*
X172107868Y-114573607D01*
X172120480Y-114594650D01*
X172130970Y-114616829D01*
X172139235Y-114639928D01*
X172145196Y-114663727D01*
X172148796Y-114687995D01*
X172150000Y-114712499D01*
X172150000Y-115237501D01*
X172148796Y-115262005D01*
X172145196Y-115286273D01*
X172139235Y-115310072D01*
X172130970Y-115333171D01*
X172120480Y-115355350D01*
X172107868Y-115376393D01*
X172093253Y-115396099D01*
X172076777Y-115414277D01*
X172058599Y-115430753D01*
X172038893Y-115445368D01*
X172017850Y-115457980D01*
X171995671Y-115468470D01*
X171972572Y-115476735D01*
X171948773Y-115482696D01*
X171924505Y-115486296D01*
X171900001Y-115487500D01*
X170999999Y-115487500D01*
X170975495Y-115486296D01*
X170951227Y-115482696D01*
X170927428Y-115476735D01*
X170904329Y-115468470D01*
X170882150Y-115457980D01*
X170861107Y-115445368D01*
X170841401Y-115430753D01*
X170823223Y-115414277D01*
X170806747Y-115396099D01*
X170792132Y-115376393D01*
X170779520Y-115355350D01*
X170769030Y-115333171D01*
X170760765Y-115310072D01*
X170754804Y-115286273D01*
X170751204Y-115262005D01*
X170750000Y-115237501D01*
X170750000Y-114712499D01*
X170751204Y-114687995D01*
X170754804Y-114663727D01*
X170760765Y-114639928D01*
X170769030Y-114616829D01*
X170779520Y-114594650D01*
X170792132Y-114573607D01*
X170806747Y-114553901D01*
X170823223Y-114535723D01*
X170841401Y-114519247D01*
X170861107Y-114504632D01*
X170882150Y-114492020D01*
X170904329Y-114481530D01*
X170927428Y-114473265D01*
X170951227Y-114467304D01*
X170975495Y-114463704D01*
X170999999Y-114462500D01*
X171900001Y-114462500D01*
X171924505Y-114463704D01*
X171924505Y-114463704D01*
G37*
D17*
X171450000Y-114975000D03*
D16*
G36*
X171924505Y-116288704D02*
G01*
X171948773Y-116292304D01*
X171972572Y-116298265D01*
X171995671Y-116306530D01*
X172017850Y-116317020D01*
X172038893Y-116329632D01*
X172058599Y-116344247D01*
X172076777Y-116360723D01*
X172093253Y-116378901D01*
X172107868Y-116398607D01*
X172120480Y-116419650D01*
X172130970Y-116441829D01*
X172139235Y-116464928D01*
X172145196Y-116488727D01*
X172148796Y-116512995D01*
X172150000Y-116537499D01*
X172150000Y-117062501D01*
X172148796Y-117087005D01*
X172145196Y-117111273D01*
X172139235Y-117135072D01*
X172130970Y-117158171D01*
X172120480Y-117180350D01*
X172107868Y-117201393D01*
X172093253Y-117221099D01*
X172076777Y-117239277D01*
X172058599Y-117255753D01*
X172038893Y-117270368D01*
X172017850Y-117282980D01*
X171995671Y-117293470D01*
X171972572Y-117301735D01*
X171948773Y-117307696D01*
X171924505Y-117311296D01*
X171900001Y-117312500D01*
X170999999Y-117312500D01*
X170975495Y-117311296D01*
X170951227Y-117307696D01*
X170927428Y-117301735D01*
X170904329Y-117293470D01*
X170882150Y-117282980D01*
X170861107Y-117270368D01*
X170841401Y-117255753D01*
X170823223Y-117239277D01*
X170806747Y-117221099D01*
X170792132Y-117201393D01*
X170779520Y-117180350D01*
X170769030Y-117158171D01*
X170760765Y-117135072D01*
X170754804Y-117111273D01*
X170751204Y-117087005D01*
X170750000Y-117062501D01*
X170750000Y-116537499D01*
X170751204Y-116512995D01*
X170754804Y-116488727D01*
X170760765Y-116464928D01*
X170769030Y-116441829D01*
X170779520Y-116419650D01*
X170792132Y-116398607D01*
X170806747Y-116378901D01*
X170823223Y-116360723D01*
X170841401Y-116344247D01*
X170861107Y-116329632D01*
X170882150Y-116317020D01*
X170904329Y-116306530D01*
X170927428Y-116298265D01*
X170951227Y-116292304D01*
X170975495Y-116288704D01*
X170999999Y-116287500D01*
X171900001Y-116287500D01*
X171924505Y-116288704D01*
X171924505Y-116288704D01*
G37*
D17*
X171450000Y-116800000D03*
D16*
G36*
X168749505Y-114463704D02*
G01*
X168773773Y-114467304D01*
X168797572Y-114473265D01*
X168820671Y-114481530D01*
X168842850Y-114492020D01*
X168863893Y-114504632D01*
X168883599Y-114519247D01*
X168901777Y-114535723D01*
X168918253Y-114553901D01*
X168932868Y-114573607D01*
X168945480Y-114594650D01*
X168955970Y-114616829D01*
X168964235Y-114639928D01*
X168970196Y-114663727D01*
X168973796Y-114687995D01*
X168975000Y-114712499D01*
X168975000Y-115237501D01*
X168973796Y-115262005D01*
X168970196Y-115286273D01*
X168964235Y-115310072D01*
X168955970Y-115333171D01*
X168945480Y-115355350D01*
X168932868Y-115376393D01*
X168918253Y-115396099D01*
X168901777Y-115414277D01*
X168883599Y-115430753D01*
X168863893Y-115445368D01*
X168842850Y-115457980D01*
X168820671Y-115468470D01*
X168797572Y-115476735D01*
X168773773Y-115482696D01*
X168749505Y-115486296D01*
X168725001Y-115487500D01*
X167824999Y-115487500D01*
X167800495Y-115486296D01*
X167776227Y-115482696D01*
X167752428Y-115476735D01*
X167729329Y-115468470D01*
X167707150Y-115457980D01*
X167686107Y-115445368D01*
X167666401Y-115430753D01*
X167648223Y-115414277D01*
X167631747Y-115396099D01*
X167617132Y-115376393D01*
X167604520Y-115355350D01*
X167594030Y-115333171D01*
X167585765Y-115310072D01*
X167579804Y-115286273D01*
X167576204Y-115262005D01*
X167575000Y-115237501D01*
X167575000Y-114712499D01*
X167576204Y-114687995D01*
X167579804Y-114663727D01*
X167585765Y-114639928D01*
X167594030Y-114616829D01*
X167604520Y-114594650D01*
X167617132Y-114573607D01*
X167631747Y-114553901D01*
X167648223Y-114535723D01*
X167666401Y-114519247D01*
X167686107Y-114504632D01*
X167707150Y-114492020D01*
X167729329Y-114481530D01*
X167752428Y-114473265D01*
X167776227Y-114467304D01*
X167800495Y-114463704D01*
X167824999Y-114462500D01*
X168725001Y-114462500D01*
X168749505Y-114463704D01*
X168749505Y-114463704D01*
G37*
D17*
X168275000Y-114975000D03*
D16*
G36*
X168749505Y-116288704D02*
G01*
X168773773Y-116292304D01*
X168797572Y-116298265D01*
X168820671Y-116306530D01*
X168842850Y-116317020D01*
X168863893Y-116329632D01*
X168883599Y-116344247D01*
X168901777Y-116360723D01*
X168918253Y-116378901D01*
X168932868Y-116398607D01*
X168945480Y-116419650D01*
X168955970Y-116441829D01*
X168964235Y-116464928D01*
X168970196Y-116488727D01*
X168973796Y-116512995D01*
X168975000Y-116537499D01*
X168975000Y-117062501D01*
X168973796Y-117087005D01*
X168970196Y-117111273D01*
X168964235Y-117135072D01*
X168955970Y-117158171D01*
X168945480Y-117180350D01*
X168932868Y-117201393D01*
X168918253Y-117221099D01*
X168901777Y-117239277D01*
X168883599Y-117255753D01*
X168863893Y-117270368D01*
X168842850Y-117282980D01*
X168820671Y-117293470D01*
X168797572Y-117301735D01*
X168773773Y-117307696D01*
X168749505Y-117311296D01*
X168725001Y-117312500D01*
X167824999Y-117312500D01*
X167800495Y-117311296D01*
X167776227Y-117307696D01*
X167752428Y-117301735D01*
X167729329Y-117293470D01*
X167707150Y-117282980D01*
X167686107Y-117270368D01*
X167666401Y-117255753D01*
X167648223Y-117239277D01*
X167631747Y-117221099D01*
X167617132Y-117201393D01*
X167604520Y-117180350D01*
X167594030Y-117158171D01*
X167585765Y-117135072D01*
X167579804Y-117111273D01*
X167576204Y-117087005D01*
X167575000Y-117062501D01*
X167575000Y-116537499D01*
X167576204Y-116512995D01*
X167579804Y-116488727D01*
X167585765Y-116464928D01*
X167594030Y-116441829D01*
X167604520Y-116419650D01*
X167617132Y-116398607D01*
X167631747Y-116378901D01*
X167648223Y-116360723D01*
X167666401Y-116344247D01*
X167686107Y-116329632D01*
X167707150Y-116317020D01*
X167729329Y-116306530D01*
X167752428Y-116298265D01*
X167776227Y-116292304D01*
X167800495Y-116288704D01*
X167824999Y-116287500D01*
X168725001Y-116287500D01*
X168749505Y-116288704D01*
X168749505Y-116288704D01*
G37*
D17*
X168275000Y-116800000D03*
D18*
X229275000Y-127762500D03*
X228620001Y-128492500D03*
D19*
X227965000Y-129222500D02*
X229275002Y-127762500D01*
D18*
X234315000Y-126682500D03*
X234295000Y-126972500D03*
D19*
X234275000Y-127262500D02*
X234315000Y-126682500D01*
D18*
X210225000Y-127762500D03*
X209570001Y-128492500D03*
D19*
X208915000Y-129222500D02*
X210225002Y-127762500D01*
D18*
X215265000Y-126682500D03*
X215245000Y-126972500D03*
D19*
X215225000Y-127262500D02*
X215265000Y-126682500D01*
D18*
X229275000Y-108712500D03*
X228620001Y-109442500D03*
D19*
X227965000Y-110172500D02*
X229275002Y-108712500D01*
D18*
X234315000Y-107632500D03*
X234295000Y-107922500D03*
D19*
X234275000Y-108212500D02*
X234315000Y-107632500D01*
D18*
X210225000Y-108712500D03*
X209570001Y-109442500D03*
D19*
X208915000Y-110172500D02*
X210225002Y-108712500D01*
D18*
X215265000Y-107632500D03*
X215245000Y-107922500D03*
D19*
X215225000Y-108212500D02*
X215265000Y-107632500D01*
D16*
G36*
X164162004Y-119232454D02*
G01*
X164186273Y-119236054D01*
X164210071Y-119242015D01*
X164233171Y-119250280D01*
X164255349Y-119260770D01*
X164276393Y-119273383D01*
X164296098Y-119287997D01*
X164314277Y-119304473D01*
X164330753Y-119322652D01*
X164345367Y-119342357D01*
X164357980Y-119363401D01*
X164368470Y-119385579D01*
X164376735Y-119408679D01*
X164382696Y-119432477D01*
X164386296Y-119456746D01*
X164387500Y-119481250D01*
X164387500Y-120231250D01*
X164386296Y-120255754D01*
X164382696Y-120280023D01*
X164376735Y-120303821D01*
X164368470Y-120326921D01*
X164357980Y-120349099D01*
X164345367Y-120370143D01*
X164330753Y-120389848D01*
X164314277Y-120408027D01*
X164296098Y-120424503D01*
X164276393Y-120439117D01*
X164255349Y-120451730D01*
X164233171Y-120462220D01*
X164210071Y-120470485D01*
X164186273Y-120476446D01*
X164162004Y-120480046D01*
X164137500Y-120481250D01*
X162887500Y-120481250D01*
X162862996Y-120480046D01*
X162838727Y-120476446D01*
X162814929Y-120470485D01*
X162791829Y-120462220D01*
X162769651Y-120451730D01*
X162748607Y-120439117D01*
X162728902Y-120424503D01*
X162710723Y-120408027D01*
X162694247Y-120389848D01*
X162679633Y-120370143D01*
X162667020Y-120349099D01*
X162656530Y-120326921D01*
X162648265Y-120303821D01*
X162642304Y-120280023D01*
X162638704Y-120255754D01*
X162637500Y-120231250D01*
X162637500Y-119481250D01*
X162638704Y-119456746D01*
X162642304Y-119432477D01*
X162648265Y-119408679D01*
X162656530Y-119385579D01*
X162667020Y-119363401D01*
X162679633Y-119342357D01*
X162694247Y-119322652D01*
X162710723Y-119304473D01*
X162728902Y-119287997D01*
X162748607Y-119273383D01*
X162769651Y-119260770D01*
X162791829Y-119250280D01*
X162814929Y-119242015D01*
X162838727Y-119236054D01*
X162862996Y-119232454D01*
X162887500Y-119231250D01*
X164137500Y-119231250D01*
X164162004Y-119232454D01*
X164162004Y-119232454D01*
G37*
D20*
X163512500Y-119856250D03*
D16*
G36*
X164162004Y-122032454D02*
G01*
X164186273Y-122036054D01*
X164210071Y-122042015D01*
X164233171Y-122050280D01*
X164255349Y-122060770D01*
X164276393Y-122073383D01*
X164296098Y-122087997D01*
X164314277Y-122104473D01*
X164330753Y-122122652D01*
X164345367Y-122142357D01*
X164357980Y-122163401D01*
X164368470Y-122185579D01*
X164376735Y-122208679D01*
X164382696Y-122232477D01*
X164386296Y-122256746D01*
X164387500Y-122281250D01*
X164387500Y-123031250D01*
X164386296Y-123055754D01*
X164382696Y-123080023D01*
X164376735Y-123103821D01*
X164368470Y-123126921D01*
X164357980Y-123149099D01*
X164345367Y-123170143D01*
X164330753Y-123189848D01*
X164314277Y-123208027D01*
X164296098Y-123224503D01*
X164276393Y-123239117D01*
X164255349Y-123251730D01*
X164233171Y-123262220D01*
X164210071Y-123270485D01*
X164186273Y-123276446D01*
X164162004Y-123280046D01*
X164137500Y-123281250D01*
X162887500Y-123281250D01*
X162862996Y-123280046D01*
X162838727Y-123276446D01*
X162814929Y-123270485D01*
X162791829Y-123262220D01*
X162769651Y-123251730D01*
X162748607Y-123239117D01*
X162728902Y-123224503D01*
X162710723Y-123208027D01*
X162694247Y-123189848D01*
X162679633Y-123170143D01*
X162667020Y-123149099D01*
X162656530Y-123126921D01*
X162648265Y-123103821D01*
X162642304Y-123080023D01*
X162638704Y-123055754D01*
X162637500Y-123031250D01*
X162637500Y-122281250D01*
X162638704Y-122256746D01*
X162642304Y-122232477D01*
X162648265Y-122208679D01*
X162656530Y-122185579D01*
X162667020Y-122163401D01*
X162679633Y-122142357D01*
X162694247Y-122122652D01*
X162710723Y-122104473D01*
X162728902Y-122087997D01*
X162748607Y-122073383D01*
X162769651Y-122060770D01*
X162791829Y-122050280D01*
X162814929Y-122042015D01*
X162838727Y-122036054D01*
X162862996Y-122032454D01*
X162887500Y-122031250D01*
X164137500Y-122031250D01*
X164162004Y-122032454D01*
X164162004Y-122032454D01*
G37*
D20*
X163512500Y-122656250D03*
D21*
X239712500Y-130112500D03*
X239712500Y-133412500D03*
X239712500Y-111062500D03*
X239712500Y-114362500D03*
X220662500Y-130112500D03*
X220662500Y-133412500D03*
X220662500Y-111062500D03*
X220662500Y-114362500D03*
D16*
G36*
X183062004Y-130626204D02*
G01*
X183086273Y-130629804D01*
X183110071Y-130635765D01*
X183133171Y-130644030D01*
X183155349Y-130654520D01*
X183176393Y-130667133D01*
X183196098Y-130681747D01*
X183214277Y-130698223D01*
X183230753Y-130716402D01*
X183245367Y-130736107D01*
X183257980Y-130757151D01*
X183268470Y-130779329D01*
X183276735Y-130802429D01*
X183282696Y-130826227D01*
X183286296Y-130850496D01*
X183287500Y-130875000D01*
X183287500Y-131375000D01*
X183286296Y-131399504D01*
X183282696Y-131423773D01*
X183276735Y-131447571D01*
X183268470Y-131470671D01*
X183257980Y-131492849D01*
X183245367Y-131513893D01*
X183230753Y-131533598D01*
X183214277Y-131551777D01*
X183196098Y-131568253D01*
X183176393Y-131582867D01*
X183155349Y-131595480D01*
X183133171Y-131605970D01*
X183110071Y-131614235D01*
X183086273Y-131620196D01*
X183062004Y-131623796D01*
X183037500Y-131625000D01*
X182087500Y-131625000D01*
X182062996Y-131623796D01*
X182038727Y-131620196D01*
X182014929Y-131614235D01*
X181991829Y-131605970D01*
X181969651Y-131595480D01*
X181948607Y-131582867D01*
X181928902Y-131568253D01*
X181910723Y-131551777D01*
X181894247Y-131533598D01*
X181879633Y-131513893D01*
X181867020Y-131492849D01*
X181856530Y-131470671D01*
X181848265Y-131447571D01*
X181842304Y-131423773D01*
X181838704Y-131399504D01*
X181837500Y-131375000D01*
X181837500Y-130875000D01*
X181838704Y-130850496D01*
X181842304Y-130826227D01*
X181848265Y-130802429D01*
X181856530Y-130779329D01*
X181867020Y-130757151D01*
X181879633Y-130736107D01*
X181894247Y-130716402D01*
X181910723Y-130698223D01*
X181928902Y-130681747D01*
X181948607Y-130667133D01*
X181969651Y-130654520D01*
X181991829Y-130644030D01*
X182014929Y-130635765D01*
X182038727Y-130629804D01*
X182062996Y-130626204D01*
X182087500Y-130625000D01*
X183037500Y-130625000D01*
X183062004Y-130626204D01*
X183062004Y-130626204D01*
G37*
D22*
X182562500Y-131125000D03*
D16*
G36*
X183062004Y-128726204D02*
G01*
X183086273Y-128729804D01*
X183110071Y-128735765D01*
X183133171Y-128744030D01*
X183155349Y-128754520D01*
X183176393Y-128767133D01*
X183196098Y-128781747D01*
X183214277Y-128798223D01*
X183230753Y-128816402D01*
X183245367Y-128836107D01*
X183257980Y-128857151D01*
X183268470Y-128879329D01*
X183276735Y-128902429D01*
X183282696Y-128926227D01*
X183286296Y-128950496D01*
X183287500Y-128975000D01*
X183287500Y-129475000D01*
X183286296Y-129499504D01*
X183282696Y-129523773D01*
X183276735Y-129547571D01*
X183268470Y-129570671D01*
X183257980Y-129592849D01*
X183245367Y-129613893D01*
X183230753Y-129633598D01*
X183214277Y-129651777D01*
X183196098Y-129668253D01*
X183176393Y-129682867D01*
X183155349Y-129695480D01*
X183133171Y-129705970D01*
X183110071Y-129714235D01*
X183086273Y-129720196D01*
X183062004Y-129723796D01*
X183037500Y-129725000D01*
X182087500Y-129725000D01*
X182062996Y-129723796D01*
X182038727Y-129720196D01*
X182014929Y-129714235D01*
X181991829Y-129705970D01*
X181969651Y-129695480D01*
X181948607Y-129682867D01*
X181928902Y-129668253D01*
X181910723Y-129651777D01*
X181894247Y-129633598D01*
X181879633Y-129613893D01*
X181867020Y-129592849D01*
X181856530Y-129570671D01*
X181848265Y-129547571D01*
X181842304Y-129523773D01*
X181838704Y-129499504D01*
X181837500Y-129475000D01*
X181837500Y-128975000D01*
X181838704Y-128950496D01*
X181842304Y-128926227D01*
X181848265Y-128902429D01*
X181856530Y-128879329D01*
X181867020Y-128857151D01*
X181879633Y-128836107D01*
X181894247Y-128816402D01*
X181910723Y-128798223D01*
X181928902Y-128781747D01*
X181948607Y-128767133D01*
X181969651Y-128754520D01*
X181991829Y-128744030D01*
X182014929Y-128735765D01*
X182038727Y-128729804D01*
X182062996Y-128726204D01*
X182087500Y-128725000D01*
X183037500Y-128725000D01*
X183062004Y-128726204D01*
X183062004Y-128726204D01*
G37*
D22*
X182562500Y-129225000D03*
D16*
G36*
X196174504Y-133419954D02*
G01*
X196198773Y-133423554D01*
X196222571Y-133429515D01*
X196245671Y-133437780D01*
X196267849Y-133448270D01*
X196288893Y-133460883D01*
X196308598Y-133475497D01*
X196326777Y-133491973D01*
X196343253Y-133510152D01*
X196357867Y-133529857D01*
X196370480Y-133550901D01*
X196380970Y-133573079D01*
X196389235Y-133596179D01*
X196395196Y-133619977D01*
X196398796Y-133644246D01*
X196400000Y-133668750D01*
X196400000Y-134618750D01*
X196398796Y-134643254D01*
X196395196Y-134667523D01*
X196389235Y-134691321D01*
X196380970Y-134714421D01*
X196370480Y-134736599D01*
X196357867Y-134757643D01*
X196343253Y-134777348D01*
X196326777Y-134795527D01*
X196308598Y-134812003D01*
X196288893Y-134826617D01*
X196267849Y-134839230D01*
X196245671Y-134849720D01*
X196222571Y-134857985D01*
X196198773Y-134863946D01*
X196174504Y-134867546D01*
X196150000Y-134868750D01*
X195650000Y-134868750D01*
X195625496Y-134867546D01*
X195601227Y-134863946D01*
X195577429Y-134857985D01*
X195554329Y-134849720D01*
X195532151Y-134839230D01*
X195511107Y-134826617D01*
X195491402Y-134812003D01*
X195473223Y-134795527D01*
X195456747Y-134777348D01*
X195442133Y-134757643D01*
X195429520Y-134736599D01*
X195419030Y-134714421D01*
X195410765Y-134691321D01*
X195404804Y-134667523D01*
X195401204Y-134643254D01*
X195400000Y-134618750D01*
X195400000Y-133668750D01*
X195401204Y-133644246D01*
X195404804Y-133619977D01*
X195410765Y-133596179D01*
X195419030Y-133573079D01*
X195429520Y-133550901D01*
X195442133Y-133529857D01*
X195456747Y-133510152D01*
X195473223Y-133491973D01*
X195491402Y-133475497D01*
X195511107Y-133460883D01*
X195532151Y-133448270D01*
X195554329Y-133437780D01*
X195577429Y-133429515D01*
X195601227Y-133423554D01*
X195625496Y-133419954D01*
X195650000Y-133418750D01*
X196150000Y-133418750D01*
X196174504Y-133419954D01*
X196174504Y-133419954D01*
G37*
D22*
X195900000Y-134143750D03*
D16*
G36*
X198074504Y-133419954D02*
G01*
X198098773Y-133423554D01*
X198122571Y-133429515D01*
X198145671Y-133437780D01*
X198167849Y-133448270D01*
X198188893Y-133460883D01*
X198208598Y-133475497D01*
X198226777Y-133491973D01*
X198243253Y-133510152D01*
X198257867Y-133529857D01*
X198270480Y-133550901D01*
X198280970Y-133573079D01*
X198289235Y-133596179D01*
X198295196Y-133619977D01*
X198298796Y-133644246D01*
X198300000Y-133668750D01*
X198300000Y-134618750D01*
X198298796Y-134643254D01*
X198295196Y-134667523D01*
X198289235Y-134691321D01*
X198280970Y-134714421D01*
X198270480Y-134736599D01*
X198257867Y-134757643D01*
X198243253Y-134777348D01*
X198226777Y-134795527D01*
X198208598Y-134812003D01*
X198188893Y-134826617D01*
X198167849Y-134839230D01*
X198145671Y-134849720D01*
X198122571Y-134857985D01*
X198098773Y-134863946D01*
X198074504Y-134867546D01*
X198050000Y-134868750D01*
X197550000Y-134868750D01*
X197525496Y-134867546D01*
X197501227Y-134863946D01*
X197477429Y-134857985D01*
X197454329Y-134849720D01*
X197432151Y-134839230D01*
X197411107Y-134826617D01*
X197391402Y-134812003D01*
X197373223Y-134795527D01*
X197356747Y-134777348D01*
X197342133Y-134757643D01*
X197329520Y-134736599D01*
X197319030Y-134714421D01*
X197310765Y-134691321D01*
X197304804Y-134667523D01*
X197301204Y-134643254D01*
X197300000Y-134618750D01*
X197300000Y-133668750D01*
X197301204Y-133644246D01*
X197304804Y-133619977D01*
X197310765Y-133596179D01*
X197319030Y-133573079D01*
X197329520Y-133550901D01*
X197342133Y-133529857D01*
X197356747Y-133510152D01*
X197373223Y-133491973D01*
X197391402Y-133475497D01*
X197411107Y-133460883D01*
X197432151Y-133448270D01*
X197454329Y-133437780D01*
X197477429Y-133429515D01*
X197501227Y-133423554D01*
X197525496Y-133419954D01*
X197550000Y-133418750D01*
X198050000Y-133418750D01*
X198074504Y-133419954D01*
X198074504Y-133419954D01*
G37*
D22*
X197800000Y-134143750D03*
D16*
G36*
X179505754Y-123101204D02*
G01*
X179530023Y-123104804D01*
X179553821Y-123110765D01*
X179576921Y-123119030D01*
X179599099Y-123129520D01*
X179620143Y-123142133D01*
X179639848Y-123156747D01*
X179658027Y-123173223D01*
X179674503Y-123191402D01*
X179689117Y-123211107D01*
X179701730Y-123232151D01*
X179712220Y-123254329D01*
X179720485Y-123277429D01*
X179726446Y-123301227D01*
X179730046Y-123325496D01*
X179731250Y-123350000D01*
X179731250Y-124300000D01*
X179730046Y-124324504D01*
X179726446Y-124348773D01*
X179720485Y-124372571D01*
X179712220Y-124395671D01*
X179701730Y-124417849D01*
X179689117Y-124438893D01*
X179674503Y-124458598D01*
X179658027Y-124476777D01*
X179639848Y-124493253D01*
X179620143Y-124507867D01*
X179599099Y-124520480D01*
X179576921Y-124530970D01*
X179553821Y-124539235D01*
X179530023Y-124545196D01*
X179505754Y-124548796D01*
X179481250Y-124550000D01*
X178981250Y-124550000D01*
X178956746Y-124548796D01*
X178932477Y-124545196D01*
X178908679Y-124539235D01*
X178885579Y-124530970D01*
X178863401Y-124520480D01*
X178842357Y-124507867D01*
X178822652Y-124493253D01*
X178804473Y-124476777D01*
X178787997Y-124458598D01*
X178773383Y-124438893D01*
X178760770Y-124417849D01*
X178750280Y-124395671D01*
X178742015Y-124372571D01*
X178736054Y-124348773D01*
X178732454Y-124324504D01*
X178731250Y-124300000D01*
X178731250Y-123350000D01*
X178732454Y-123325496D01*
X178736054Y-123301227D01*
X178742015Y-123277429D01*
X178750280Y-123254329D01*
X178760770Y-123232151D01*
X178773383Y-123211107D01*
X178787997Y-123191402D01*
X178804473Y-123173223D01*
X178822652Y-123156747D01*
X178842357Y-123142133D01*
X178863401Y-123129520D01*
X178885579Y-123119030D01*
X178908679Y-123110765D01*
X178932477Y-123104804D01*
X178956746Y-123101204D01*
X178981250Y-123100000D01*
X179481250Y-123100000D01*
X179505754Y-123101204D01*
X179505754Y-123101204D01*
G37*
D22*
X179231250Y-123825000D03*
D16*
G36*
X181405754Y-123101204D02*
G01*
X181430023Y-123104804D01*
X181453821Y-123110765D01*
X181476921Y-123119030D01*
X181499099Y-123129520D01*
X181520143Y-123142133D01*
X181539848Y-123156747D01*
X181558027Y-123173223D01*
X181574503Y-123191402D01*
X181589117Y-123211107D01*
X181601730Y-123232151D01*
X181612220Y-123254329D01*
X181620485Y-123277429D01*
X181626446Y-123301227D01*
X181630046Y-123325496D01*
X181631250Y-123350000D01*
X181631250Y-124300000D01*
X181630046Y-124324504D01*
X181626446Y-124348773D01*
X181620485Y-124372571D01*
X181612220Y-124395671D01*
X181601730Y-124417849D01*
X181589117Y-124438893D01*
X181574503Y-124458598D01*
X181558027Y-124476777D01*
X181539848Y-124493253D01*
X181520143Y-124507867D01*
X181499099Y-124520480D01*
X181476921Y-124530970D01*
X181453821Y-124539235D01*
X181430023Y-124545196D01*
X181405754Y-124548796D01*
X181381250Y-124550000D01*
X180881250Y-124550000D01*
X180856746Y-124548796D01*
X180832477Y-124545196D01*
X180808679Y-124539235D01*
X180785579Y-124530970D01*
X180763401Y-124520480D01*
X180742357Y-124507867D01*
X180722652Y-124493253D01*
X180704473Y-124476777D01*
X180687997Y-124458598D01*
X180673383Y-124438893D01*
X180660770Y-124417849D01*
X180650280Y-124395671D01*
X180642015Y-124372571D01*
X180636054Y-124348773D01*
X180632454Y-124324504D01*
X180631250Y-124300000D01*
X180631250Y-123350000D01*
X180632454Y-123325496D01*
X180636054Y-123301227D01*
X180642015Y-123277429D01*
X180650280Y-123254329D01*
X180660770Y-123232151D01*
X180673383Y-123211107D01*
X180687997Y-123191402D01*
X180704473Y-123173223D01*
X180722652Y-123156747D01*
X180742357Y-123142133D01*
X180763401Y-123129520D01*
X180785579Y-123119030D01*
X180808679Y-123110765D01*
X180832477Y-123104804D01*
X180856746Y-123101204D01*
X180881250Y-123100000D01*
X181381250Y-123100000D01*
X181405754Y-123101204D01*
X181405754Y-123101204D01*
G37*
D22*
X181131250Y-123825000D03*
D16*
G36*
X202112004Y-118407454D02*
G01*
X202136273Y-118411054D01*
X202160071Y-118417015D01*
X202183171Y-118425280D01*
X202205349Y-118435770D01*
X202226393Y-118448383D01*
X202246098Y-118462997D01*
X202264277Y-118479473D01*
X202280753Y-118497652D01*
X202295367Y-118517357D01*
X202307980Y-118538401D01*
X202318470Y-118560579D01*
X202326735Y-118583679D01*
X202332696Y-118607477D01*
X202336296Y-118631746D01*
X202337500Y-118656250D01*
X202337500Y-119156250D01*
X202336296Y-119180754D01*
X202332696Y-119205023D01*
X202326735Y-119228821D01*
X202318470Y-119251921D01*
X202307980Y-119274099D01*
X202295367Y-119295143D01*
X202280753Y-119314848D01*
X202264277Y-119333027D01*
X202246098Y-119349503D01*
X202226393Y-119364117D01*
X202205349Y-119376730D01*
X202183171Y-119387220D01*
X202160071Y-119395485D01*
X202136273Y-119401446D01*
X202112004Y-119405046D01*
X202087500Y-119406250D01*
X201137500Y-119406250D01*
X201112996Y-119405046D01*
X201088727Y-119401446D01*
X201064929Y-119395485D01*
X201041829Y-119387220D01*
X201019651Y-119376730D01*
X200998607Y-119364117D01*
X200978902Y-119349503D01*
X200960723Y-119333027D01*
X200944247Y-119314848D01*
X200929633Y-119295143D01*
X200917020Y-119274099D01*
X200906530Y-119251921D01*
X200898265Y-119228821D01*
X200892304Y-119205023D01*
X200888704Y-119180754D01*
X200887500Y-119156250D01*
X200887500Y-118656250D01*
X200888704Y-118631746D01*
X200892304Y-118607477D01*
X200898265Y-118583679D01*
X200906530Y-118560579D01*
X200917020Y-118538401D01*
X200929633Y-118517357D01*
X200944247Y-118497652D01*
X200960723Y-118479473D01*
X200978902Y-118462997D01*
X200998607Y-118448383D01*
X201019651Y-118435770D01*
X201041829Y-118425280D01*
X201064929Y-118417015D01*
X201088727Y-118411054D01*
X201112996Y-118407454D01*
X201137500Y-118406250D01*
X202087500Y-118406250D01*
X202112004Y-118407454D01*
X202112004Y-118407454D01*
G37*
D22*
X201612500Y-118906250D03*
D16*
G36*
X202112004Y-120307454D02*
G01*
X202136273Y-120311054D01*
X202160071Y-120317015D01*
X202183171Y-120325280D01*
X202205349Y-120335770D01*
X202226393Y-120348383D01*
X202246098Y-120362997D01*
X202264277Y-120379473D01*
X202280753Y-120397652D01*
X202295367Y-120417357D01*
X202307980Y-120438401D01*
X202318470Y-120460579D01*
X202326735Y-120483679D01*
X202332696Y-120507477D01*
X202336296Y-120531746D01*
X202337500Y-120556250D01*
X202337500Y-121056250D01*
X202336296Y-121080754D01*
X202332696Y-121105023D01*
X202326735Y-121128821D01*
X202318470Y-121151921D01*
X202307980Y-121174099D01*
X202295367Y-121195143D01*
X202280753Y-121214848D01*
X202264277Y-121233027D01*
X202246098Y-121249503D01*
X202226393Y-121264117D01*
X202205349Y-121276730D01*
X202183171Y-121287220D01*
X202160071Y-121295485D01*
X202136273Y-121301446D01*
X202112004Y-121305046D01*
X202087500Y-121306250D01*
X201137500Y-121306250D01*
X201112996Y-121305046D01*
X201088727Y-121301446D01*
X201064929Y-121295485D01*
X201041829Y-121287220D01*
X201019651Y-121276730D01*
X200998607Y-121264117D01*
X200978902Y-121249503D01*
X200960723Y-121233027D01*
X200944247Y-121214848D01*
X200929633Y-121195143D01*
X200917020Y-121174099D01*
X200906530Y-121151921D01*
X200898265Y-121128821D01*
X200892304Y-121105023D01*
X200888704Y-121080754D01*
X200887500Y-121056250D01*
X200887500Y-120556250D01*
X200888704Y-120531746D01*
X200892304Y-120507477D01*
X200898265Y-120483679D01*
X200906530Y-120460579D01*
X200917020Y-120438401D01*
X200929633Y-120417357D01*
X200944247Y-120397652D01*
X200960723Y-120379473D01*
X200978902Y-120362997D01*
X200998607Y-120348383D01*
X201019651Y-120335770D01*
X201041829Y-120325280D01*
X201064929Y-120317015D01*
X201088727Y-120311054D01*
X201112996Y-120307454D01*
X201137500Y-120306250D01*
X202087500Y-120306250D01*
X202112004Y-120307454D01*
X202112004Y-120307454D01*
G37*
D22*
X201612500Y-120806250D03*
D16*
G36*
X187030754Y-110782454D02*
G01*
X187055023Y-110786054D01*
X187078821Y-110792015D01*
X187101921Y-110800280D01*
X187124099Y-110810770D01*
X187145143Y-110823383D01*
X187164848Y-110837997D01*
X187183027Y-110854473D01*
X187199503Y-110872652D01*
X187214117Y-110892357D01*
X187226730Y-110913401D01*
X187237220Y-110935579D01*
X187245485Y-110958679D01*
X187251446Y-110982477D01*
X187255046Y-111006746D01*
X187256250Y-111031250D01*
X187256250Y-111531250D01*
X187255046Y-111555754D01*
X187251446Y-111580023D01*
X187245485Y-111603821D01*
X187237220Y-111626921D01*
X187226730Y-111649099D01*
X187214117Y-111670143D01*
X187199503Y-111689848D01*
X187183027Y-111708027D01*
X187164848Y-111724503D01*
X187145143Y-111739117D01*
X187124099Y-111751730D01*
X187101921Y-111762220D01*
X187078821Y-111770485D01*
X187055023Y-111776446D01*
X187030754Y-111780046D01*
X187006250Y-111781250D01*
X186056250Y-111781250D01*
X186031746Y-111780046D01*
X186007477Y-111776446D01*
X185983679Y-111770485D01*
X185960579Y-111762220D01*
X185938401Y-111751730D01*
X185917357Y-111739117D01*
X185897652Y-111724503D01*
X185879473Y-111708027D01*
X185862997Y-111689848D01*
X185848383Y-111670143D01*
X185835770Y-111649099D01*
X185825280Y-111626921D01*
X185817015Y-111603821D01*
X185811054Y-111580023D01*
X185807454Y-111555754D01*
X185806250Y-111531250D01*
X185806250Y-111031250D01*
X185807454Y-111006746D01*
X185811054Y-110982477D01*
X185817015Y-110958679D01*
X185825280Y-110935579D01*
X185835770Y-110913401D01*
X185848383Y-110892357D01*
X185862997Y-110872652D01*
X185879473Y-110854473D01*
X185897652Y-110837997D01*
X185917357Y-110823383D01*
X185938401Y-110810770D01*
X185960579Y-110800280D01*
X185983679Y-110792015D01*
X186007477Y-110786054D01*
X186031746Y-110782454D01*
X186056250Y-110781250D01*
X187006250Y-110781250D01*
X187030754Y-110782454D01*
X187030754Y-110782454D01*
G37*
D22*
X186531250Y-111281250D03*
D16*
G36*
X187030754Y-108882454D02*
G01*
X187055023Y-108886054D01*
X187078821Y-108892015D01*
X187101921Y-108900280D01*
X187124099Y-108910770D01*
X187145143Y-108923383D01*
X187164848Y-108937997D01*
X187183027Y-108954473D01*
X187199503Y-108972652D01*
X187214117Y-108992357D01*
X187226730Y-109013401D01*
X187237220Y-109035579D01*
X187245485Y-109058679D01*
X187251446Y-109082477D01*
X187255046Y-109106746D01*
X187256250Y-109131250D01*
X187256250Y-109631250D01*
X187255046Y-109655754D01*
X187251446Y-109680023D01*
X187245485Y-109703821D01*
X187237220Y-109726921D01*
X187226730Y-109749099D01*
X187214117Y-109770143D01*
X187199503Y-109789848D01*
X187183027Y-109808027D01*
X187164848Y-109824503D01*
X187145143Y-109839117D01*
X187124099Y-109851730D01*
X187101921Y-109862220D01*
X187078821Y-109870485D01*
X187055023Y-109876446D01*
X187030754Y-109880046D01*
X187006250Y-109881250D01*
X186056250Y-109881250D01*
X186031746Y-109880046D01*
X186007477Y-109876446D01*
X185983679Y-109870485D01*
X185960579Y-109862220D01*
X185938401Y-109851730D01*
X185917357Y-109839117D01*
X185897652Y-109824503D01*
X185879473Y-109808027D01*
X185862997Y-109789848D01*
X185848383Y-109770143D01*
X185835770Y-109749099D01*
X185825280Y-109726921D01*
X185817015Y-109703821D01*
X185811054Y-109680023D01*
X185807454Y-109655754D01*
X185806250Y-109631250D01*
X185806250Y-109131250D01*
X185807454Y-109106746D01*
X185811054Y-109082477D01*
X185817015Y-109058679D01*
X185825280Y-109035579D01*
X185835770Y-109013401D01*
X185848383Y-108992357D01*
X185862997Y-108972652D01*
X185879473Y-108954473D01*
X185897652Y-108937997D01*
X185917357Y-108923383D01*
X185938401Y-108910770D01*
X185960579Y-108900280D01*
X185983679Y-108892015D01*
X186007477Y-108886054D01*
X186031746Y-108882454D01*
X186056250Y-108881250D01*
X187006250Y-108881250D01*
X187030754Y-108882454D01*
X187030754Y-108882454D01*
G37*
D22*
X186531250Y-109381250D03*
D16*
G36*
X196555754Y-108882454D02*
G01*
X196580023Y-108886054D01*
X196603821Y-108892015D01*
X196626921Y-108900280D01*
X196649099Y-108910770D01*
X196670143Y-108923383D01*
X196689848Y-108937997D01*
X196708027Y-108954473D01*
X196724503Y-108972652D01*
X196739117Y-108992357D01*
X196751730Y-109013401D01*
X196762220Y-109035579D01*
X196770485Y-109058679D01*
X196776446Y-109082477D01*
X196780046Y-109106746D01*
X196781250Y-109131250D01*
X196781250Y-109631250D01*
X196780046Y-109655754D01*
X196776446Y-109680023D01*
X196770485Y-109703821D01*
X196762220Y-109726921D01*
X196751730Y-109749099D01*
X196739117Y-109770143D01*
X196724503Y-109789848D01*
X196708027Y-109808027D01*
X196689848Y-109824503D01*
X196670143Y-109839117D01*
X196649099Y-109851730D01*
X196626921Y-109862220D01*
X196603821Y-109870485D01*
X196580023Y-109876446D01*
X196555754Y-109880046D01*
X196531250Y-109881250D01*
X195581250Y-109881250D01*
X195556746Y-109880046D01*
X195532477Y-109876446D01*
X195508679Y-109870485D01*
X195485579Y-109862220D01*
X195463401Y-109851730D01*
X195442357Y-109839117D01*
X195422652Y-109824503D01*
X195404473Y-109808027D01*
X195387997Y-109789848D01*
X195373383Y-109770143D01*
X195360770Y-109749099D01*
X195350280Y-109726921D01*
X195342015Y-109703821D01*
X195336054Y-109680023D01*
X195332454Y-109655754D01*
X195331250Y-109631250D01*
X195331250Y-109131250D01*
X195332454Y-109106746D01*
X195336054Y-109082477D01*
X195342015Y-109058679D01*
X195350280Y-109035579D01*
X195360770Y-109013401D01*
X195373383Y-108992357D01*
X195387997Y-108972652D01*
X195404473Y-108954473D01*
X195422652Y-108937997D01*
X195442357Y-108923383D01*
X195463401Y-108910770D01*
X195485579Y-108900280D01*
X195508679Y-108892015D01*
X195532477Y-108886054D01*
X195556746Y-108882454D01*
X195581250Y-108881250D01*
X196531250Y-108881250D01*
X196555754Y-108882454D01*
X196555754Y-108882454D01*
G37*
D22*
X196056250Y-109381250D03*
D16*
G36*
X196555754Y-110782454D02*
G01*
X196580023Y-110786054D01*
X196603821Y-110792015D01*
X196626921Y-110800280D01*
X196649099Y-110810770D01*
X196670143Y-110823383D01*
X196689848Y-110837997D01*
X196708027Y-110854473D01*
X196724503Y-110872652D01*
X196739117Y-110892357D01*
X196751730Y-110913401D01*
X196762220Y-110935579D01*
X196770485Y-110958679D01*
X196776446Y-110982477D01*
X196780046Y-111006746D01*
X196781250Y-111031250D01*
X196781250Y-111531250D01*
X196780046Y-111555754D01*
X196776446Y-111580023D01*
X196770485Y-111603821D01*
X196762220Y-111626921D01*
X196751730Y-111649099D01*
X196739117Y-111670143D01*
X196724503Y-111689848D01*
X196708027Y-111708027D01*
X196689848Y-111724503D01*
X196670143Y-111739117D01*
X196649099Y-111751730D01*
X196626921Y-111762220D01*
X196603821Y-111770485D01*
X196580023Y-111776446D01*
X196555754Y-111780046D01*
X196531250Y-111781250D01*
X195581250Y-111781250D01*
X195556746Y-111780046D01*
X195532477Y-111776446D01*
X195508679Y-111770485D01*
X195485579Y-111762220D01*
X195463401Y-111751730D01*
X195442357Y-111739117D01*
X195422652Y-111724503D01*
X195404473Y-111708027D01*
X195387997Y-111689848D01*
X195373383Y-111670143D01*
X195360770Y-111649099D01*
X195350280Y-111626921D01*
X195342015Y-111603821D01*
X195336054Y-111580023D01*
X195332454Y-111555754D01*
X195331250Y-111531250D01*
X195331250Y-111031250D01*
X195332454Y-111006746D01*
X195336054Y-110982477D01*
X195342015Y-110958679D01*
X195350280Y-110935579D01*
X195360770Y-110913401D01*
X195373383Y-110892357D01*
X195387997Y-110872652D01*
X195404473Y-110854473D01*
X195422652Y-110837997D01*
X195442357Y-110823383D01*
X195463401Y-110810770D01*
X195485579Y-110800280D01*
X195508679Y-110792015D01*
X195532477Y-110786054D01*
X195556746Y-110782454D01*
X195581250Y-110781250D01*
X196531250Y-110781250D01*
X196555754Y-110782454D01*
X196555754Y-110782454D01*
G37*
D22*
X196056250Y-111281250D03*
D16*
G36*
X184649504Y-114438704D02*
G01*
X184673773Y-114442304D01*
X184697571Y-114448265D01*
X184720671Y-114456530D01*
X184742849Y-114467020D01*
X184763893Y-114479633D01*
X184783598Y-114494247D01*
X184801777Y-114510723D01*
X184818253Y-114528902D01*
X184832867Y-114548607D01*
X184845480Y-114569651D01*
X184855970Y-114591829D01*
X184864235Y-114614929D01*
X184870196Y-114638727D01*
X184873796Y-114662996D01*
X184875000Y-114687500D01*
X184875000Y-115187500D01*
X184873796Y-115212004D01*
X184870196Y-115236273D01*
X184864235Y-115260071D01*
X184855970Y-115283171D01*
X184845480Y-115305349D01*
X184832867Y-115326393D01*
X184818253Y-115346098D01*
X184801777Y-115364277D01*
X184783598Y-115380753D01*
X184763893Y-115395367D01*
X184742849Y-115407980D01*
X184720671Y-115418470D01*
X184697571Y-115426735D01*
X184673773Y-115432696D01*
X184649504Y-115436296D01*
X184625000Y-115437500D01*
X183675000Y-115437500D01*
X183650496Y-115436296D01*
X183626227Y-115432696D01*
X183602429Y-115426735D01*
X183579329Y-115418470D01*
X183557151Y-115407980D01*
X183536107Y-115395367D01*
X183516402Y-115380753D01*
X183498223Y-115364277D01*
X183481747Y-115346098D01*
X183467133Y-115326393D01*
X183454520Y-115305349D01*
X183444030Y-115283171D01*
X183435765Y-115260071D01*
X183429804Y-115236273D01*
X183426204Y-115212004D01*
X183425000Y-115187500D01*
X183425000Y-114687500D01*
X183426204Y-114662996D01*
X183429804Y-114638727D01*
X183435765Y-114614929D01*
X183444030Y-114591829D01*
X183454520Y-114569651D01*
X183467133Y-114548607D01*
X183481747Y-114528902D01*
X183498223Y-114510723D01*
X183516402Y-114494247D01*
X183536107Y-114479633D01*
X183557151Y-114467020D01*
X183579329Y-114456530D01*
X183602429Y-114448265D01*
X183626227Y-114442304D01*
X183650496Y-114438704D01*
X183675000Y-114437500D01*
X184625000Y-114437500D01*
X184649504Y-114438704D01*
X184649504Y-114438704D01*
G37*
D22*
X184150000Y-114937500D03*
D16*
G36*
X184649504Y-116338704D02*
G01*
X184673773Y-116342304D01*
X184697571Y-116348265D01*
X184720671Y-116356530D01*
X184742849Y-116367020D01*
X184763893Y-116379633D01*
X184783598Y-116394247D01*
X184801777Y-116410723D01*
X184818253Y-116428902D01*
X184832867Y-116448607D01*
X184845480Y-116469651D01*
X184855970Y-116491829D01*
X184864235Y-116514929D01*
X184870196Y-116538727D01*
X184873796Y-116562996D01*
X184875000Y-116587500D01*
X184875000Y-117087500D01*
X184873796Y-117112004D01*
X184870196Y-117136273D01*
X184864235Y-117160071D01*
X184855970Y-117183171D01*
X184845480Y-117205349D01*
X184832867Y-117226393D01*
X184818253Y-117246098D01*
X184801777Y-117264277D01*
X184783598Y-117280753D01*
X184763893Y-117295367D01*
X184742849Y-117307980D01*
X184720671Y-117318470D01*
X184697571Y-117326735D01*
X184673773Y-117332696D01*
X184649504Y-117336296D01*
X184625000Y-117337500D01*
X183675000Y-117337500D01*
X183650496Y-117336296D01*
X183626227Y-117332696D01*
X183602429Y-117326735D01*
X183579329Y-117318470D01*
X183557151Y-117307980D01*
X183536107Y-117295367D01*
X183516402Y-117280753D01*
X183498223Y-117264277D01*
X183481747Y-117246098D01*
X183467133Y-117226393D01*
X183454520Y-117205349D01*
X183444030Y-117183171D01*
X183435765Y-117160071D01*
X183429804Y-117136273D01*
X183426204Y-117112004D01*
X183425000Y-117087500D01*
X183425000Y-116587500D01*
X183426204Y-116562996D01*
X183429804Y-116538727D01*
X183435765Y-116514929D01*
X183444030Y-116491829D01*
X183454520Y-116469651D01*
X183467133Y-116448607D01*
X183481747Y-116428902D01*
X183498223Y-116410723D01*
X183516402Y-116394247D01*
X183536107Y-116379633D01*
X183557151Y-116367020D01*
X183579329Y-116356530D01*
X183602429Y-116348265D01*
X183626227Y-116342304D01*
X183650496Y-116338704D01*
X183675000Y-116337500D01*
X184625000Y-116337500D01*
X184649504Y-116338704D01*
X184649504Y-116338704D01*
G37*
D22*
X184150000Y-116837500D03*
D23*
X200025000Y-134143750D03*
X203200000Y-120650000D03*
X184150000Y-123031250D03*
X184787500Y-128431250D03*
X182562500Y-115887500D03*
X174625000Y-132556250D03*
X178475000Y-116800000D03*
D24*
X192393750Y-109481250D02*
X192393750Y-108256250D01*
X192393750Y-108256250D02*
X192087500Y-107950000D01*
X192087500Y-107950000D02*
X186531250Y-107950000D01*
X186531250Y-107950000D02*
X185737500Y-107950000D01*
X185737500Y-107950000D02*
X184943750Y-108743750D01*
X184943750Y-108743750D02*
X184943750Y-109693750D01*
X184943750Y-109693750D02*
X184943750Y-111125000D01*
X184943750Y-111125000D02*
X185737500Y-111125000D01*
X192196652Y-109481250D02*
X190496652Y-111181250D01*
X190496652Y-111181250D02*
X190193750Y-111181250D01*
X192393750Y-109481250D02*
X192196652Y-109481250D01*
X195956250Y-109481250D02*
X196056250Y-109381250D01*
X192393750Y-109481250D02*
X195956250Y-109481250D01*
X190487500Y-118918750D02*
X190487500Y-117487500D01*
X190487500Y-117487500D02*
X190500000Y-117475000D01*
X190500000Y-117475000D02*
X190500000Y-116681250D01*
X190500000Y-116681250D02*
X186531250Y-112712500D01*
X186531250Y-112712500D02*
X186531250Y-111281250D01*
X190500000Y-117475000D02*
X189706250Y-116681250D01*
X189706250Y-116681250D02*
X188912500Y-116681250D01*
X188912500Y-116681250D02*
X186531250Y-116681250D01*
X186531250Y-116681250D02*
X185737500Y-115887500D01*
X185737500Y-115887500D02*
X185737500Y-115093750D01*
X185737500Y-115093750D02*
X184943750Y-115093750D01*
D25*
X171462500Y-109275000D02*
X171462500Y-111112500D01*
X171462500Y-111112500D02*
X173062500Y-112712500D01*
X173062500Y-112712500D02*
X173062500Y-112737500D01*
X173062500Y-112737500D02*
X173831250Y-113506250D01*
X173831250Y-113506250D02*
X173831250Y-124618750D01*
X185437500Y-125418750D02*
X186387500Y-125418750D01*
X173831250Y-124618750D02*
X174631250Y-125418750D01*
X179231250Y-125256250D02*
X179393750Y-125418750D01*
X179231250Y-123825000D02*
X179231250Y-125256250D01*
X179393750Y-125418750D02*
X185437500Y-125418750D01*
X174631250Y-125418750D02*
X179393750Y-125418750D01*
X166412500Y-137581250D02*
X166150000Y-137318750D01*
X166762500Y-137581250D02*
X166412500Y-137581250D01*
X166150000Y-137318750D02*
X165100000Y-137318750D01*
X165100000Y-137318750D02*
X164306250Y-136525000D01*
X164306250Y-136525000D02*
X164306250Y-132556250D01*
X164306250Y-132556250D02*
X165893750Y-130968750D01*
X165893750Y-130968750D02*
X180975000Y-130968750D01*
X181131250Y-131125000D02*
X182562500Y-131125000D01*
X180975000Y-130968750D02*
X181131250Y-131125000D01*
X183512500Y-131125000D02*
X184150000Y-131762500D01*
X185737500Y-131762500D02*
X187325000Y-133350000D01*
X184150000Y-131762500D02*
X185737500Y-131762500D01*
X182562500Y-131125000D02*
X183512500Y-131125000D01*
X187325000Y-133350000D02*
X188118750Y-133350000D01*
X188118750Y-133350000D02*
X188912500Y-132556250D01*
X188887500Y-131268750D02*
X188887500Y-130318750D01*
X188887500Y-132531250D02*
X188887500Y-131268750D01*
X188912500Y-132556250D02*
X188887500Y-132531250D01*
X195900000Y-134143750D02*
X195900000Y-133193750D01*
X195287500Y-132581250D02*
X195287500Y-130318750D01*
X195900000Y-133193750D02*
X195287500Y-132581250D01*
X195900000Y-134781250D02*
X195900000Y-134143750D01*
X196850000Y-135731250D02*
X195900000Y-134781250D01*
X200025000Y-135731250D02*
X196850000Y-135731250D01*
X201612500Y-134143750D02*
X200025000Y-135731250D01*
X201612500Y-130293750D02*
X201612500Y-134143750D01*
X197787500Y-120618750D02*
X199200000Y-120618750D01*
X199200000Y-120618750D02*
X199962500Y-119856250D01*
X199962500Y-119856250D02*
X199962500Y-119125000D01*
X200181250Y-118906250D02*
X201612500Y-118906250D01*
X199962500Y-119125000D02*
X200181250Y-118906250D01*
X186387500Y-125418750D02*
X188112500Y-125418750D01*
X188112500Y-125418750D02*
X188900000Y-126206250D01*
X188900000Y-126206250D02*
X188887500Y-126218750D01*
X195287500Y-130318750D02*
X195287500Y-128612500D01*
X195287500Y-128612500D02*
X194468750Y-127793750D01*
X188912500Y-127793750D02*
X188887500Y-127768750D01*
X194468750Y-127793750D02*
X188912500Y-127793750D01*
X188887500Y-127768750D02*
X188887500Y-130318750D01*
X188887500Y-126218750D02*
X188887500Y-127768750D01*
X194468750Y-122237500D02*
X194468750Y-127793750D01*
X196087500Y-120618750D02*
X194468750Y-122237500D01*
X197787500Y-120618750D02*
X196087500Y-120618750D01*
X190487500Y-118918750D02*
X190487500Y-120637500D01*
X192087500Y-122237500D02*
X194468750Y-122237500D01*
X190487500Y-120637500D02*
X192087500Y-122237500D01*
X184306250Y-115093750D02*
X184150000Y-114937500D01*
X184943750Y-115093750D02*
X184306250Y-115093750D01*
X185893750Y-111281250D02*
X185737500Y-111125000D01*
X186531250Y-111281250D02*
X185893750Y-111281250D01*
D24*
X189706250Y-118900000D02*
X189687500Y-118918750D01*
D25*
X181612500Y-129225000D02*
X182562500Y-129225000D01*
X163512500Y-122656250D02*
X165518750Y-122656250D01*
X172087500Y-129225000D02*
X176850000Y-129225000D01*
X165518750Y-122656250D02*
X172087500Y-129225000D01*
X176850000Y-129225000D02*
X181612500Y-129225000D01*
X176368750Y-129225000D02*
X176850000Y-129225000D01*
X197800000Y-134143750D02*
X197800000Y-132712500D01*
X197800000Y-132712500D02*
X197643750Y-132556250D01*
X197643750Y-132556250D02*
X196850000Y-132556250D01*
X196087500Y-131793750D02*
X196087500Y-130318750D01*
X196850000Y-132556250D02*
X196087500Y-131793750D01*
X201456250Y-120650000D02*
X201612500Y-120806250D01*
X200025000Y-120650000D02*
X201456250Y-120650000D01*
X199256250Y-121418750D02*
X200025000Y-120650000D01*
X197787500Y-121418750D02*
X199256250Y-121418750D01*
X180181250Y-114975000D02*
X181650000Y-114975000D01*
X181650000Y-114975000D02*
X182562500Y-115887500D01*
X182562500Y-115887500D02*
X182562500Y-116681250D01*
X182718750Y-116837500D02*
X184150000Y-116837500D01*
X182562500Y-116681250D02*
X182718750Y-116837500D01*
X186328075Y-117171760D02*
X188705512Y-117171760D01*
X188705512Y-117171760D02*
X189687500Y-118153748D01*
X185993816Y-116837500D02*
X186328075Y-117171760D01*
X189687500Y-118153748D02*
X189687500Y-118918750D01*
X184150000Y-116837500D02*
X185993816Y-116837500D01*
X197800000Y-134143750D02*
X200025000Y-134143750D01*
X203043750Y-120806250D02*
X203200000Y-120650000D01*
X201612500Y-120806250D02*
X203043750Y-120806250D01*
X182562500Y-129225000D02*
X183993750Y-129225000D01*
X185400000Y-127818750D02*
X186387500Y-127818750D01*
X184937500Y-123818750D02*
X184150000Y-123031250D01*
X186387500Y-123818750D02*
X184937500Y-123818750D01*
X184787500Y-128431250D02*
X185400000Y-127818750D01*
X183993750Y-129225000D02*
X184787500Y-128431250D01*
X184787500Y-130812500D02*
X184787500Y-128431250D01*
X187096948Y-132556250D02*
X185509448Y-130968750D01*
X185509448Y-130968750D02*
X184943750Y-130968750D01*
X188087500Y-131793750D02*
X187325000Y-132556250D01*
X184943750Y-130968750D02*
X184787500Y-130812500D01*
X187325000Y-132556250D02*
X187096948Y-132556250D01*
X188087500Y-130318750D02*
X188087500Y-131793750D01*
D26*
X192493750Y-111281250D02*
X192393750Y-111181250D01*
X196056250Y-111281250D02*
X192493750Y-111281250D01*
X192393750Y-111181250D02*
X192393750Y-113200000D01*
X192393750Y-113200000D02*
X192087500Y-113506250D01*
X192087500Y-113506250D02*
X192087500Y-118918750D01*
X186531250Y-109381250D02*
X189550000Y-109381250D01*
X189239750Y-109481250D02*
X188912500Y-109808500D01*
X190193750Y-109481250D02*
X189239750Y-109481250D01*
X188912500Y-111788602D02*
X190630148Y-113506250D01*
X188912500Y-109808500D02*
X188912500Y-111788602D01*
X190630148Y-113506250D02*
X191293750Y-113506250D01*
X191287500Y-113512500D02*
X191287500Y-118918750D01*
X191293750Y-113506250D02*
X191287500Y-113512500D01*
D25*
X181131250Y-123825000D02*
X182562500Y-123825000D01*
X182562500Y-123825000D02*
X183356250Y-124618750D01*
X183356250Y-124618750D02*
X186387500Y-124618750D01*
X215225000Y-108212500D02*
X219337500Y-108212500D01*
X220662500Y-109537500D02*
X220662500Y-111062500D01*
X219337500Y-108212500D02*
X220662500Y-109537500D01*
X220662500Y-114362500D02*
X221518750Y-114362500D01*
X221518750Y-114362500D02*
X223043750Y-115887500D01*
X223043750Y-115887500D02*
X236537500Y-115887500D01*
X238062500Y-114362500D02*
X239712500Y-114362500D01*
X236537500Y-115887500D02*
X238062500Y-114362500D01*
X220662500Y-115887500D02*
X220662500Y-114362500D01*
X211931250Y-124618750D02*
X220662500Y-115887500D01*
X199225000Y-123818750D02*
X200025000Y-124618750D01*
X200025000Y-124618750D02*
X211931250Y-124618750D01*
X197787500Y-123818750D02*
X199225000Y-123818750D01*
X215900000Y-127793750D02*
X218425000Y-127793750D01*
X218281250Y-127793750D02*
X219868750Y-127793750D01*
X220662500Y-128587500D02*
X220662500Y-130112500D01*
X219868750Y-127793750D02*
X220662500Y-128587500D01*
X238062500Y-133412500D02*
X239712500Y-133412500D01*
X236537500Y-134937500D02*
X238062500Y-133412500D01*
X222918750Y-134937500D02*
X236537500Y-134937500D01*
X221393750Y-133412500D02*
X222918750Y-134937500D01*
X220662500Y-133412500D02*
X221393750Y-133412500D01*
X205581250Y-133350000D02*
X206375000Y-134143750D01*
X197787500Y-126218750D02*
X203898306Y-126218750D01*
X203898306Y-126218750D02*
X205581250Y-127901694D01*
X205581250Y-127901694D02*
X205581250Y-133350000D01*
D26*
X206375000Y-134143750D02*
X207168750Y-134937500D01*
X207168750Y-134937500D02*
X218281250Y-134937500D01*
X219806250Y-133412500D02*
X220662500Y-133412500D01*
X218281250Y-134937500D02*
X219806250Y-133412500D01*
D25*
X239712500Y-110331250D02*
X239712500Y-111062500D01*
X237593750Y-108212500D02*
X239712500Y-110331250D01*
D26*
X234275000Y-108212500D02*
X237593750Y-108212500D01*
D25*
X234275000Y-127262500D02*
X235212500Y-127262500D01*
X235212500Y-127262500D02*
X236537500Y-128587500D01*
X236537500Y-128587500D02*
X238918750Y-128587500D01*
X239712500Y-129381250D02*
X239712500Y-130112500D01*
X238918750Y-128587500D02*
X239712500Y-129381250D01*
X168262500Y-109275000D02*
X168262500Y-111112500D01*
X168262500Y-111112500D02*
X167456250Y-111918750D01*
X167456250Y-111918750D02*
X166687500Y-111918750D01*
X166687500Y-111918750D02*
X163512500Y-115093750D01*
X163512500Y-115093750D02*
X163512500Y-119062500D01*
X163512500Y-119062500D02*
X163512500Y-119856250D01*
X206546956Y-125584456D02*
X208915000Y-127952500D01*
X199859310Y-125584456D02*
X206546956Y-125584456D01*
X208915000Y-127952500D02*
X208915000Y-129222500D01*
X199693603Y-125418750D02*
X199859310Y-125584456D01*
X197787500Y-125418750D02*
X199693603Y-125418750D01*
X223926948Y-125184448D02*
X227965000Y-129222500D01*
X200025000Y-125184448D02*
X223926948Y-125184448D01*
X199459302Y-124618750D02*
X200025000Y-125184448D01*
X197787500Y-124618750D02*
X199459302Y-124618750D01*
D26*
X169062500Y-114187500D02*
X168275000Y-114975000D01*
X169062500Y-109275000D02*
X169062500Y-114187500D01*
X168275000Y-116800000D02*
X168275000Y-117475000D01*
X168275000Y-117475000D02*
X169068750Y-118268750D01*
X169068750Y-118268750D02*
X169862500Y-118268750D01*
X169862500Y-118268750D02*
X169862500Y-123031250D01*
X169862500Y-123031250D02*
X173831250Y-127000000D01*
X173831250Y-127000000D02*
X184150000Y-127000000D01*
X184150000Y-127000000D02*
X185737500Y-127000000D01*
X169862500Y-113387500D02*
X171450000Y-114975000D01*
X169862500Y-109275000D02*
X169862500Y-113387500D01*
X171450000Y-117584768D02*
X170766018Y-118268750D01*
X171450000Y-116800000D02*
X171450000Y-117584768D01*
X170766018Y-118268750D02*
X170766018Y-123141018D01*
X170766018Y-123141018D02*
X173831250Y-126206250D01*
X173831250Y-126206250D02*
X184150000Y-126206250D01*
X184162500Y-126218750D02*
X185725000Y-126218750D01*
X184150000Y-126206250D02*
X184162500Y-126218750D01*
D25*
X188912500Y-118268750D02*
X188887500Y-118293750D01*
X188215520Y-117571770D02*
X188912500Y-118268750D01*
X182562500Y-117475000D02*
X183356250Y-118268750D01*
X181768750Y-117475000D02*
X182562500Y-117475000D01*
X185737500Y-117475000D02*
X186065618Y-117475000D01*
X180181250Y-116800000D02*
X181093750Y-116800000D01*
X181093750Y-116800000D02*
X181768750Y-117475000D01*
X183356250Y-118268750D02*
X184943750Y-118268750D01*
X188887500Y-118293750D02*
X188887500Y-118918750D01*
X186162386Y-117571770D02*
X188215520Y-117571770D01*
X186065618Y-117475000D02*
X186162386Y-117571770D01*
X184943750Y-118268750D02*
X185737500Y-117475000D01*
X180181250Y-116800000D02*
X178475000Y-116800000D01*
X173312500Y-133881250D02*
X173575000Y-134143750D01*
X172962500Y-133881250D02*
X173312500Y-133881250D01*
X172962500Y-133881250D02*
X174362500Y-133881250D01*
X174362500Y-133881250D02*
X174625000Y-133618750D01*
X174625000Y-133618750D02*
X174625000Y-132556250D01*
X197787500Y-128618750D02*
X199200000Y-128618750D01*
X199350000Y-128468750D02*
X201612500Y-128468750D01*
X199200000Y-128618750D02*
X199350000Y-128468750D01*
D26*
G36*
X164748987Y-103983889D02*
G01*
X164727500Y-104202050D01*
X164727500Y-105347949D01*
X164748987Y-105566110D01*
X164833901Y-105846033D01*
X164971794Y-106104013D01*
X165157366Y-106330134D01*
X165383486Y-106515706D01*
X165641466Y-106653599D01*
X165921389Y-106738513D01*
X166212500Y-106767185D01*
X166503610Y-106738513D01*
X166783533Y-106653599D01*
X167041513Y-106515706D01*
X167267634Y-106330134D01*
X167453206Y-106104014D01*
X167591099Y-105846034D01*
X167676013Y-105566111D01*
X167697500Y-105347950D01*
X167697500Y-104202050D01*
X167676013Y-103983889D01*
X167634640Y-103847500D01*
X172090360Y-103847500D01*
X172048987Y-103983889D01*
X172027500Y-104202050D01*
X172027500Y-105347949D01*
X172048987Y-105566110D01*
X172133901Y-105846033D01*
X172271794Y-106104013D01*
X172457366Y-106330134D01*
X172683486Y-106515706D01*
X172941466Y-106653599D01*
X173221389Y-106738513D01*
X173512500Y-106767185D01*
X173803610Y-106738513D01*
X174083533Y-106653599D01*
X174341513Y-106515706D01*
X174567634Y-106330134D01*
X174753206Y-106104014D01*
X174891099Y-105846034D01*
X174976013Y-105566111D01*
X174997500Y-105347950D01*
X174997500Y-104202050D01*
X174976013Y-103983889D01*
X174934640Y-103847500D01*
X203073000Y-103847500D01*
X203073000Y-119619985D01*
X202898102Y-119654774D01*
X202782335Y-119702727D01*
X202825905Y-119649636D01*
X202907972Y-119496100D01*
X202958508Y-119329504D01*
X202975572Y-119156250D01*
X202975572Y-118656250D01*
X202958508Y-118482996D01*
X202907972Y-118316400D01*
X202825905Y-118162864D01*
X202715462Y-118028288D01*
X202580886Y-117917845D01*
X202427350Y-117835778D01*
X202260754Y-117785242D01*
X202087500Y-117768178D01*
X201137500Y-117768178D01*
X200964246Y-117785242D01*
X200797650Y-117835778D01*
X200644114Y-117917845D01*
X200509538Y-118028288D01*
X200399095Y-118162864D01*
X200394613Y-118171250D01*
X200217344Y-118171250D01*
X200181249Y-118167695D01*
X200145154Y-118171250D01*
X200145145Y-118171250D01*
X200037165Y-118181885D01*
X199898617Y-118223913D01*
X199770930Y-118292163D01*
X199659012Y-118384012D01*
X199635991Y-118412063D01*
X199468308Y-118579746D01*
X199440263Y-118602762D01*
X199348414Y-118714680D01*
X199307627Y-118790987D01*
X199280164Y-118842367D01*
X199238135Y-118980915D01*
X199223944Y-119125000D01*
X199227500Y-119161105D01*
X199227500Y-119551803D01*
X198932691Y-119846612D01*
X198891994Y-119813213D01*
X198781680Y-119754248D01*
X198661982Y-119717938D01*
X198537500Y-119705678D01*
X197037500Y-119705678D01*
X196996538Y-119709712D01*
X197000572Y-119668750D01*
X197000572Y-118168750D01*
X196988312Y-118044268D01*
X196952002Y-117924570D01*
X196893037Y-117814256D01*
X196813685Y-117717565D01*
X196716994Y-117638213D01*
X196606680Y-117579248D01*
X196486982Y-117542938D01*
X196362500Y-117530678D01*
X195812500Y-117530678D01*
X195688018Y-117542938D01*
X195687500Y-117543095D01*
X195686982Y-117542938D01*
X195562500Y-117530678D01*
X195012500Y-117530678D01*
X194888018Y-117542938D01*
X194887500Y-117543095D01*
X194886982Y-117542938D01*
X194762500Y-117530678D01*
X194212500Y-117530678D01*
X194088018Y-117542938D01*
X194087500Y-117543095D01*
X194086982Y-117542938D01*
X193962500Y-117530678D01*
X193412500Y-117530678D01*
X193288018Y-117542938D01*
X193287500Y-117543095D01*
X193286982Y-117542938D01*
X193162500Y-117530678D01*
X192849500Y-117530678D01*
X192849500Y-113821880D01*
X192906096Y-113765284D01*
X192935172Y-113741422D01*
X193030395Y-113625392D01*
X193101152Y-113493015D01*
X193144724Y-113349378D01*
X193155750Y-113237426D01*
X193155750Y-113237423D01*
X193159436Y-113200000D01*
X193155750Y-113162577D01*
X193155750Y-112413216D01*
X193218232Y-112407062D01*
X193337930Y-112370752D01*
X193448244Y-112311787D01*
X193544935Y-112232435D01*
X193624287Y-112135744D01*
X193673727Y-112043250D01*
X194858121Y-112043250D01*
X194953288Y-112159212D01*
X195087864Y-112269655D01*
X195241400Y-112351722D01*
X195407996Y-112402258D01*
X195581250Y-112419322D01*
X196531250Y-112419322D01*
X196704504Y-112402258D01*
X196871100Y-112351722D01*
X197024636Y-112269655D01*
X197159212Y-112159212D01*
X197269655Y-112024636D01*
X197351722Y-111871100D01*
X197402258Y-111704504D01*
X197419322Y-111531250D01*
X197419322Y-111031250D01*
X197402258Y-110857996D01*
X197351722Y-110691400D01*
X197269655Y-110537864D01*
X197159212Y-110403288D01*
X197071433Y-110331250D01*
X197159212Y-110259212D01*
X197269655Y-110124636D01*
X197351722Y-109971100D01*
X197402258Y-109804504D01*
X197419322Y-109631250D01*
X197419322Y-109131250D01*
X197402258Y-108957996D01*
X197351722Y-108791400D01*
X197269655Y-108637864D01*
X197159212Y-108503288D01*
X197024636Y-108392845D01*
X196871100Y-108310778D01*
X196704504Y-108260242D01*
X196531250Y-108243178D01*
X195581250Y-108243178D01*
X195407996Y-108260242D01*
X195241400Y-108310778D01*
X195087864Y-108392845D01*
X194953288Y-108503288D01*
X194842845Y-108637864D01*
X194833285Y-108655750D01*
X193688919Y-108655750D01*
X193683252Y-108637070D01*
X193624287Y-108526756D01*
X193544935Y-108430065D01*
X193448244Y-108350713D01*
X193337930Y-108291748D01*
X193223176Y-108256938D01*
X193223244Y-108256250D01*
X193219250Y-108215697D01*
X193207306Y-108094424D01*
X193160103Y-107938816D01*
X193083449Y-107795408D01*
X192980291Y-107669709D01*
X192948789Y-107643856D01*
X192699897Y-107394965D01*
X192674041Y-107363459D01*
X192548342Y-107260301D01*
X192404934Y-107183647D01*
X192249326Y-107136444D01*
X192128053Y-107124500D01*
X192128050Y-107124500D01*
X192087500Y-107120506D01*
X192046950Y-107124500D01*
X185778050Y-107124500D01*
X185737499Y-107120506D01*
X185696949Y-107124500D01*
X185696947Y-107124500D01*
X185575674Y-107136444D01*
X185420066Y-107183647D01*
X185276657Y-107260301D01*
X185249224Y-107282815D01*
X185150959Y-107363459D01*
X185125106Y-107394961D01*
X184388716Y-108131352D01*
X184357209Y-108157209D01*
X184309210Y-108215697D01*
X184254051Y-108282908D01*
X184195288Y-108392845D01*
X184177397Y-108426317D01*
X184130194Y-108581925D01*
X184122415Y-108660913D01*
X184114256Y-108743750D01*
X184118250Y-108784301D01*
X184118251Y-109653189D01*
X184118250Y-109653198D01*
X184118251Y-111084437D01*
X184114256Y-111125000D01*
X184130194Y-111286826D01*
X184177397Y-111442434D01*
X184254051Y-111585842D01*
X184357209Y-111711541D01*
X184482908Y-111814699D01*
X184626316Y-111891353D01*
X184781924Y-111938556D01*
X184903197Y-111950500D01*
X184943750Y-111954494D01*
X184984303Y-111950500D01*
X185278218Y-111950500D01*
X185317845Y-112024636D01*
X185428288Y-112159212D01*
X185562864Y-112269655D01*
X185705750Y-112346030D01*
X185705750Y-112671949D01*
X185701756Y-112712500D01*
X185705750Y-112753050D01*
X185705750Y-112753052D01*
X185717694Y-112874325D01*
X185753966Y-112993898D01*
X185764897Y-113029933D01*
X185841551Y-113173342D01*
X185863429Y-113200000D01*
X185944709Y-113299041D01*
X185976216Y-113324898D01*
X188507067Y-115855750D01*
X186873183Y-115855750D01*
X186563000Y-115545568D01*
X186563000Y-115134303D01*
X186566994Y-115093750D01*
X186551056Y-114931924D01*
X186503853Y-114776316D01*
X186427199Y-114632908D01*
X186324041Y-114507209D01*
X186198342Y-114404051D01*
X186054934Y-114327397D01*
X185899326Y-114280194D01*
X185778053Y-114268250D01*
X185737500Y-114264256D01*
X185696947Y-114268250D01*
X185403032Y-114268250D01*
X185363405Y-114194114D01*
X185252962Y-114059538D01*
X185118386Y-113949095D01*
X184964850Y-113867028D01*
X184798254Y-113816492D01*
X184625000Y-113799428D01*
X183675000Y-113799428D01*
X183501746Y-113816492D01*
X183335150Y-113867028D01*
X183181614Y-113949095D01*
X183047038Y-114059538D01*
X182936595Y-114194114D01*
X182854528Y-114347650D01*
X182803992Y-114514246D01*
X182786928Y-114687500D01*
X182786928Y-114876864D01*
X182664439Y-114852500D01*
X182566946Y-114852500D01*
X182195258Y-114480812D01*
X182172238Y-114452762D01*
X182060320Y-114360913D01*
X181932633Y-114292663D01*
X181794085Y-114250635D01*
X181686105Y-114240000D01*
X181650000Y-114236444D01*
X181613895Y-114240000D01*
X181380819Y-114240000D01*
X181369655Y-114219113D01*
X181259212Y-114084538D01*
X181124637Y-113974095D01*
X180971101Y-113892028D01*
X180804505Y-113841492D01*
X180631251Y-113824428D01*
X179731249Y-113824428D01*
X179557995Y-113841492D01*
X179391399Y-113892028D01*
X179237863Y-113974095D01*
X179103288Y-114084538D01*
X178992845Y-114219113D01*
X178910778Y-114372649D01*
X178860242Y-114539245D01*
X178843178Y-114712499D01*
X178843178Y-115237501D01*
X178860242Y-115410755D01*
X178910778Y-115577351D01*
X178992845Y-115730887D01*
X179103288Y-115865462D01*
X179130141Y-115887500D01*
X179103288Y-115909538D01*
X179068578Y-115951832D01*
X178965256Y-115882795D01*
X178776898Y-115804774D01*
X178576939Y-115765000D01*
X178373061Y-115765000D01*
X178173102Y-115804774D01*
X177984744Y-115882795D01*
X177815226Y-115996063D01*
X177671063Y-116140226D01*
X177557795Y-116309744D01*
X177479774Y-116498102D01*
X177440000Y-116698061D01*
X177440000Y-116901939D01*
X177479774Y-117101898D01*
X177557795Y-117290256D01*
X177671063Y-117459774D01*
X177815226Y-117603937D01*
X177984744Y-117717205D01*
X178173102Y-117795226D01*
X178373061Y-117835000D01*
X178576939Y-117835000D01*
X178776898Y-117795226D01*
X178965256Y-117717205D01*
X179068578Y-117648168D01*
X179103288Y-117690462D01*
X179237863Y-117800905D01*
X179391399Y-117882972D01*
X179557995Y-117933508D01*
X179731249Y-117950572D01*
X180631251Y-117950572D01*
X180804505Y-117933508D01*
X180971101Y-117882972D01*
X181079392Y-117825089D01*
X181223496Y-117969193D01*
X181246512Y-117997238D01*
X181358430Y-118089087D01*
X181486117Y-118157337D01*
X181580119Y-118185852D01*
X181624664Y-118199365D01*
X181638882Y-118200765D01*
X181732645Y-118210000D01*
X181732652Y-118210000D01*
X181768749Y-118213555D01*
X181804846Y-118210000D01*
X182258054Y-118210000D01*
X182810996Y-118762943D01*
X182834012Y-118790988D01*
X182945930Y-118882837D01*
X183073617Y-118951087D01*
X183170136Y-118980366D01*
X183212164Y-118993115D01*
X183356249Y-119007306D01*
X183392354Y-119003750D01*
X184907645Y-119003750D01*
X184943750Y-119007306D01*
X184979855Y-119003750D01*
X185087835Y-118993115D01*
X185226383Y-118951087D01*
X185354070Y-118882837D01*
X185465988Y-118790988D01*
X185489008Y-118762938D01*
X185970356Y-118281591D01*
X186018301Y-118296135D01*
X186108197Y-118304989D01*
X186162378Y-118310326D01*
X186198486Y-118306770D01*
X187174428Y-118306770D01*
X187174428Y-119668750D01*
X187178462Y-119709712D01*
X187137500Y-119705678D01*
X185637500Y-119705678D01*
X185513018Y-119717938D01*
X185393320Y-119754248D01*
X185283006Y-119813213D01*
X185186315Y-119892565D01*
X185106963Y-119989256D01*
X185047998Y-120099570D01*
X185011688Y-120219268D01*
X184999428Y-120343750D01*
X184999428Y-120893750D01*
X185011688Y-121018232D01*
X185011845Y-121018750D01*
X185011688Y-121019268D01*
X184999428Y-121143750D01*
X184999428Y-121693750D01*
X185011688Y-121818232D01*
X185011845Y-121818750D01*
X185011688Y-121819268D01*
X184999428Y-121943750D01*
X184999428Y-122439558D01*
X184953937Y-122371476D01*
X184809774Y-122227313D01*
X184640256Y-122114045D01*
X184451898Y-122036024D01*
X184251939Y-121996250D01*
X184048061Y-121996250D01*
X183848102Y-122036024D01*
X183659744Y-122114045D01*
X183490226Y-122227313D01*
X183346063Y-122371476D01*
X183232795Y-122540994D01*
X183154774Y-122729352D01*
X183115000Y-122929311D01*
X183115000Y-123133189D01*
X183154774Y-123333148D01*
X183186368Y-123409422D01*
X183107758Y-123330812D01*
X183084738Y-123302762D01*
X182972820Y-123210913D01*
X182845133Y-123142663D01*
X182706585Y-123100635D01*
X182598605Y-123090000D01*
X182562500Y-123086444D01*
X182526395Y-123090000D01*
X182225944Y-123090000D01*
X182201722Y-123010150D01*
X182119655Y-122856614D01*
X182009212Y-122722038D01*
X181874636Y-122611595D01*
X181721100Y-122529528D01*
X181554504Y-122478992D01*
X181381250Y-122461928D01*
X180881250Y-122461928D01*
X180707996Y-122478992D01*
X180541400Y-122529528D01*
X180387864Y-122611595D01*
X180253288Y-122722038D01*
X180181250Y-122809817D01*
X180109212Y-122722038D01*
X179974636Y-122611595D01*
X179821100Y-122529528D01*
X179654504Y-122478992D01*
X179481250Y-122461928D01*
X178981250Y-122461928D01*
X178807996Y-122478992D01*
X178641400Y-122529528D01*
X178487864Y-122611595D01*
X178353288Y-122722038D01*
X178242845Y-122856614D01*
X178160778Y-123010150D01*
X178110242Y-123176746D01*
X178093178Y-123350000D01*
X178093178Y-124300000D01*
X178110242Y-124473254D01*
X178160778Y-124639850D01*
X178184243Y-124683750D01*
X174935697Y-124683750D01*
X174566250Y-124314304D01*
X174566250Y-113542355D01*
X174569806Y-113506250D01*
X174555615Y-113362165D01*
X174513587Y-113223616D01*
X174445337Y-113095930D01*
X174376503Y-113012056D01*
X174376500Y-113012053D01*
X174353487Y-112984012D01*
X174325447Y-112961000D01*
X173688025Y-112323579D01*
X173676587Y-112302180D01*
X173607753Y-112218306D01*
X173607750Y-112218303D01*
X173584737Y-112190262D01*
X173556697Y-112167250D01*
X172198369Y-110808923D01*
X172243037Y-110754494D01*
X172302002Y-110644180D01*
X172302746Y-110641728D01*
X172457366Y-110830134D01*
X172683486Y-111015706D01*
X172941466Y-111153599D01*
X173221389Y-111238513D01*
X173512500Y-111267185D01*
X173803610Y-111238513D01*
X174083533Y-111153599D01*
X174341513Y-111015706D01*
X174567634Y-110830134D01*
X174753206Y-110604014D01*
X174891099Y-110346034D01*
X174976013Y-110066111D01*
X174997500Y-109847950D01*
X174997500Y-108702050D01*
X174976013Y-108483889D01*
X174891099Y-108203966D01*
X174753206Y-107945986D01*
X174567634Y-107719866D01*
X174341514Y-107534294D01*
X174083534Y-107396401D01*
X173803611Y-107311487D01*
X173512500Y-107282815D01*
X173221390Y-107311487D01*
X172941467Y-107396401D01*
X172683487Y-107534294D01*
X172457367Y-107719866D01*
X172302746Y-107908272D01*
X172302002Y-107905820D01*
X172243037Y-107795506D01*
X172163685Y-107698815D01*
X172066994Y-107619463D01*
X171956680Y-107560498D01*
X171836982Y-107524188D01*
X171712500Y-107511928D01*
X171212500Y-107511928D01*
X171088018Y-107524188D01*
X171062500Y-107531929D01*
X171036982Y-107524188D01*
X170912500Y-107511928D01*
X170412500Y-107511928D01*
X170288018Y-107524188D01*
X170262500Y-107531929D01*
X170236982Y-107524188D01*
X170112500Y-107511928D01*
X169612500Y-107511928D01*
X169488018Y-107524188D01*
X169462500Y-107531929D01*
X169436982Y-107524188D01*
X169312500Y-107511928D01*
X168812500Y-107511928D01*
X168688018Y-107524188D01*
X168662500Y-107531929D01*
X168636982Y-107524188D01*
X168512500Y-107511928D01*
X168012500Y-107511928D01*
X167888018Y-107524188D01*
X167768320Y-107560498D01*
X167658006Y-107619463D01*
X167561315Y-107698815D01*
X167481963Y-107795506D01*
X167422998Y-107905820D01*
X167422254Y-107908271D01*
X167267634Y-107719866D01*
X167041514Y-107534294D01*
X166783534Y-107396401D01*
X166503611Y-107311487D01*
X166212500Y-107282815D01*
X165921390Y-107311487D01*
X165641467Y-107396401D01*
X165383487Y-107534294D01*
X165157367Y-107719866D01*
X164971794Y-107945986D01*
X164833901Y-108203966D01*
X164748987Y-108483889D01*
X164727500Y-108702050D01*
X164727500Y-109847949D01*
X164748987Y-110066110D01*
X164833901Y-110346033D01*
X164971794Y-110604013D01*
X165157366Y-110830134D01*
X165383486Y-111015706D01*
X165641466Y-111153599D01*
X165921389Y-111238513D01*
X166212500Y-111267185D01*
X166377746Y-111250910D01*
X166277180Y-111304663D01*
X166165262Y-111396512D01*
X166142246Y-111424557D01*
X163018308Y-114548496D01*
X162990262Y-114571513D01*
X162898413Y-114683431D01*
X162830163Y-114811118D01*
X162800884Y-114907637D01*
X162788135Y-114949665D01*
X162773944Y-115093750D01*
X162777500Y-115129855D01*
X162777501Y-118604012D01*
X162714246Y-118610242D01*
X162547650Y-118660778D01*
X162394114Y-118742845D01*
X162259538Y-118853288D01*
X162149095Y-118987864D01*
X162067028Y-119141400D01*
X162016492Y-119307996D01*
X161999428Y-119481250D01*
X161999428Y-120231250D01*
X162016492Y-120404504D01*
X162067028Y-120571100D01*
X162149095Y-120724636D01*
X162259538Y-120859212D01*
X162394114Y-120969655D01*
X162547650Y-121051722D01*
X162714246Y-121102258D01*
X162887500Y-121119322D01*
X164137500Y-121119322D01*
X164310754Y-121102258D01*
X164477350Y-121051722D01*
X164630886Y-120969655D01*
X164765462Y-120859212D01*
X164875905Y-120724636D01*
X164957972Y-120571100D01*
X165008508Y-120404504D01*
X165025572Y-120231250D01*
X165025572Y-119481250D01*
X165008508Y-119307996D01*
X164957972Y-119141400D01*
X164875905Y-118987864D01*
X164765462Y-118853288D01*
X164630886Y-118742845D01*
X164477350Y-118660778D01*
X164310754Y-118610242D01*
X164247500Y-118604012D01*
X164247500Y-115398196D01*
X166991947Y-112653750D01*
X167420145Y-112653750D01*
X167456250Y-112657306D01*
X167492355Y-112653750D01*
X167600335Y-112643115D01*
X167738883Y-112601087D01*
X167866570Y-112532837D01*
X167978488Y-112440988D01*
X168001508Y-112412938D01*
X168300501Y-112113946D01*
X168300501Y-113824428D01*
X167824999Y-113824428D01*
X167651745Y-113841492D01*
X167485149Y-113892028D01*
X167331613Y-113974095D01*
X167197038Y-114084538D01*
X167086595Y-114219113D01*
X167004528Y-114372649D01*
X166953992Y-114539245D01*
X166936928Y-114712499D01*
X166936928Y-115237501D01*
X166953992Y-115410755D01*
X167004528Y-115577351D01*
X167086595Y-115730887D01*
X167197038Y-115865462D01*
X167223891Y-115887500D01*
X167197038Y-115909538D01*
X167086595Y-116044113D01*
X167004528Y-116197649D01*
X166953992Y-116364245D01*
X166936928Y-116537499D01*
X166936928Y-117062501D01*
X166953992Y-117235755D01*
X167004528Y-117402351D01*
X167086595Y-117555887D01*
X167197038Y-117690462D01*
X167331613Y-117800905D01*
X167485149Y-117882972D01*
X167651745Y-117933508D01*
X167666745Y-117934985D01*
X167708708Y-117986117D01*
X167733579Y-118016422D01*
X167762649Y-118040279D01*
X168503470Y-118781101D01*
X168527328Y-118810172D01*
X168643358Y-118905395D01*
X168775735Y-118976152D01*
X168919372Y-119019724D01*
X169031324Y-119030750D01*
X169031326Y-119030750D01*
X169068749Y-119034436D01*
X169100500Y-119031309D01*
X169100501Y-122993817D01*
X169096814Y-123031250D01*
X169111527Y-123180628D01*
X169155099Y-123324265D01*
X169225855Y-123456642D01*
X169279088Y-123521506D01*
X169321079Y-123572672D01*
X169350149Y-123596529D01*
X173265971Y-127512352D01*
X173289828Y-127541422D01*
X173405858Y-127636645D01*
X173538235Y-127707402D01*
X173681872Y-127750974D01*
X173793824Y-127762000D01*
X173793826Y-127762000D01*
X173831249Y-127765686D01*
X173868672Y-127762000D01*
X183993039Y-127762000D01*
X183983563Y-127771476D01*
X183870295Y-127940994D01*
X183792274Y-128129352D01*
X183752500Y-128329311D01*
X183752500Y-128426804D01*
X183740649Y-128438654D01*
X183665462Y-128347038D01*
X183530886Y-128236595D01*
X183377350Y-128154528D01*
X183210754Y-128103992D01*
X183037500Y-128086928D01*
X182087500Y-128086928D01*
X181914246Y-128103992D01*
X181747650Y-128154528D01*
X181594114Y-128236595D01*
X181459538Y-128347038D01*
X181349095Y-128481614D01*
X181344613Y-128490000D01*
X172391947Y-128490000D01*
X166064009Y-122162063D01*
X166040988Y-122134012D01*
X165929070Y-122042163D01*
X165801383Y-121973913D01*
X165662835Y-121931885D01*
X165554855Y-121921250D01*
X165518750Y-121917694D01*
X165482645Y-121921250D01*
X164947202Y-121921250D01*
X164875905Y-121787864D01*
X164765462Y-121653288D01*
X164630886Y-121542845D01*
X164477350Y-121460778D01*
X164310754Y-121410242D01*
X164137500Y-121393178D01*
X162887500Y-121393178D01*
X162714246Y-121410242D01*
X162547650Y-121460778D01*
X162394114Y-121542845D01*
X162259538Y-121653288D01*
X162149095Y-121787864D01*
X162067028Y-121941400D01*
X162016492Y-122107996D01*
X161999428Y-122281250D01*
X161999428Y-123031250D01*
X162016492Y-123204504D01*
X162067028Y-123371100D01*
X162149095Y-123524636D01*
X162259538Y-123659212D01*
X162394114Y-123769655D01*
X162547650Y-123851722D01*
X162714246Y-123902258D01*
X162887500Y-123919322D01*
X164137500Y-123919322D01*
X164310754Y-123902258D01*
X164477350Y-123851722D01*
X164630886Y-123769655D01*
X164765462Y-123659212D01*
X164875905Y-123524636D01*
X164947202Y-123391250D01*
X165214304Y-123391250D01*
X171542246Y-129719193D01*
X171565262Y-129747238D01*
X171677180Y-129839087D01*
X171804867Y-129907337D01*
X171943415Y-129949365D01*
X172051395Y-129960000D01*
X172051404Y-129960000D01*
X172087499Y-129963555D01*
X172123594Y-129960000D01*
X181344613Y-129960000D01*
X181349095Y-129968386D01*
X181459538Y-130102962D01*
X181547317Y-130175000D01*
X181459538Y-130247038D01*
X181375514Y-130349422D01*
X181257633Y-130286413D01*
X181119085Y-130244385D01*
X181011105Y-130233750D01*
X180975000Y-130230194D01*
X180938895Y-130233750D01*
X165929854Y-130233750D01*
X165893749Y-130230194D01*
X165749664Y-130244385D01*
X165707636Y-130257134D01*
X165611117Y-130286413D01*
X165483430Y-130354663D01*
X165371512Y-130446512D01*
X165348496Y-130474557D01*
X163812058Y-132010996D01*
X163784013Y-132034012D01*
X163692164Y-132145930D01*
X163661088Y-132204069D01*
X163623914Y-132273617D01*
X163581885Y-132412165D01*
X163567694Y-132556250D01*
X163571251Y-132592365D01*
X163571250Y-136488895D01*
X163567694Y-136525000D01*
X163571250Y-136561104D01*
X163581885Y-136669084D01*
X163623913Y-136807632D01*
X163692163Y-136935319D01*
X163784012Y-137047237D01*
X163812058Y-137070254D01*
X164554746Y-137812943D01*
X164577762Y-137840988D01*
X164689680Y-137932837D01*
X164817367Y-138001087D01*
X164913886Y-138030366D01*
X164955914Y-138043115D01*
X165099999Y-138057306D01*
X165136104Y-138053750D01*
X165224428Y-138053750D01*
X165224428Y-138131250D01*
X165236688Y-138255732D01*
X165272998Y-138375430D01*
X165331963Y-138485744D01*
X165411315Y-138582435D01*
X165508006Y-138661787D01*
X165618320Y-138720752D01*
X165738018Y-138757062D01*
X165862500Y-138769322D01*
X167662500Y-138769322D01*
X167786982Y-138757062D01*
X167906680Y-138720752D01*
X168016994Y-138661787D01*
X168113685Y-138582435D01*
X168193037Y-138485744D01*
X168252002Y-138375430D01*
X168288312Y-138255732D01*
X168300572Y-138131250D01*
X168300572Y-137031250D01*
X171424428Y-137031250D01*
X171424428Y-138131250D01*
X171436688Y-138255732D01*
X171472998Y-138375430D01*
X171531963Y-138485744D01*
X171611315Y-138582435D01*
X171708006Y-138661787D01*
X171818320Y-138720752D01*
X171938018Y-138757062D01*
X172062500Y-138769322D01*
X173862500Y-138769322D01*
X173986982Y-138757062D01*
X174106680Y-138720752D01*
X174216994Y-138661787D01*
X174313685Y-138582435D01*
X174393037Y-138485744D01*
X174452002Y-138375430D01*
X174488312Y-138255732D01*
X174500572Y-138131250D01*
X174500572Y-137031250D01*
X174488312Y-136906768D01*
X174452002Y-136787070D01*
X174393037Y-136676756D01*
X174313685Y-136580065D01*
X174216994Y-136500713D01*
X174106680Y-136441748D01*
X173986982Y-136405438D01*
X173862500Y-136393178D01*
X172062500Y-136393178D01*
X171938018Y-136405438D01*
X171818320Y-136441748D01*
X171708006Y-136500713D01*
X171611315Y-136580065D01*
X171531963Y-136676756D01*
X171472998Y-136787070D01*
X171436688Y-136906768D01*
X171424428Y-137031250D01*
X168300572Y-137031250D01*
X168288312Y-136906768D01*
X168252002Y-136787070D01*
X168193037Y-136676756D01*
X168113685Y-136580065D01*
X168016994Y-136500713D01*
X167906680Y-136441748D01*
X167786982Y-136405438D01*
X167662500Y-136393178D01*
X165862500Y-136393178D01*
X165738018Y-136405438D01*
X165618320Y-136441748D01*
X165508006Y-136500713D01*
X165411315Y-136580065D01*
X165408291Y-136583750D01*
X165404447Y-136583750D01*
X165041250Y-136220554D01*
X165041250Y-133331250D01*
X165224428Y-133331250D01*
X165224428Y-134431250D01*
X165236688Y-134555732D01*
X165272998Y-134675430D01*
X165331963Y-134785744D01*
X165411315Y-134882435D01*
X165508006Y-134961787D01*
X165618320Y-135020752D01*
X165738018Y-135057062D01*
X165862500Y-135069322D01*
X167662500Y-135069322D01*
X167786982Y-135057062D01*
X167906680Y-135020752D01*
X168016994Y-134961787D01*
X168113685Y-134882435D01*
X168193037Y-134785744D01*
X168252002Y-134675430D01*
X168288312Y-134555732D01*
X168300572Y-134431250D01*
X168300572Y-133331250D01*
X168288312Y-133206768D01*
X168252002Y-133087070D01*
X168193037Y-132976756D01*
X168113685Y-132880065D01*
X168016994Y-132800713D01*
X167906680Y-132741748D01*
X167786982Y-132705438D01*
X167662500Y-132693178D01*
X165862500Y-132693178D01*
X165738018Y-132705438D01*
X165618320Y-132741748D01*
X165508006Y-132800713D01*
X165411315Y-132880065D01*
X165331963Y-132976756D01*
X165272998Y-133087070D01*
X165236688Y-133206768D01*
X165224428Y-133331250D01*
X165041250Y-133331250D01*
X165041250Y-132860696D01*
X166198197Y-131703750D01*
X174037906Y-131703750D01*
X173965226Y-131752313D01*
X173821063Y-131896476D01*
X173707795Y-132065994D01*
X173629774Y-132254352D01*
X173590000Y-132454311D01*
X173590000Y-132658189D01*
X173596960Y-132693178D01*
X172062500Y-132693178D01*
X171938018Y-132705438D01*
X171818320Y-132741748D01*
X171708006Y-132800713D01*
X171611315Y-132880065D01*
X171531963Y-132976756D01*
X171472998Y-133087070D01*
X171436688Y-133206768D01*
X171424428Y-133331250D01*
X171424428Y-134431250D01*
X171436688Y-134555732D01*
X171472998Y-134675430D01*
X171531963Y-134785744D01*
X171611315Y-134882435D01*
X171708006Y-134961787D01*
X171818320Y-135020752D01*
X171938018Y-135057062D01*
X172062500Y-135069322D01*
X173862500Y-135069322D01*
X173986982Y-135057062D01*
X174106680Y-135020752D01*
X174216994Y-134961787D01*
X174313685Y-134882435D01*
X174393037Y-134785744D01*
X174452002Y-134675430D01*
X174472151Y-134609006D01*
X174506585Y-134605615D01*
X174645133Y-134563587D01*
X174772820Y-134495337D01*
X174884738Y-134403488D01*
X174907759Y-134375437D01*
X175119192Y-134164004D01*
X175147237Y-134140988D01*
X175239087Y-134029070D01*
X175307337Y-133901383D01*
X175349365Y-133762835D01*
X175353979Y-133715988D01*
X175363556Y-133618751D01*
X175360000Y-133582646D01*
X175360000Y-133284961D01*
X175428937Y-133216024D01*
X175542205Y-133046506D01*
X175620226Y-132858148D01*
X175660000Y-132658189D01*
X175660000Y-132454311D01*
X175620226Y-132254352D01*
X175542205Y-132065994D01*
X175428937Y-131896476D01*
X175284774Y-131752313D01*
X175212094Y-131703750D01*
X180677872Y-131703750D01*
X180720930Y-131739087D01*
X180848617Y-131807337D01*
X180965174Y-131842694D01*
X180987165Y-131849365D01*
X181131250Y-131863556D01*
X181167355Y-131860000D01*
X181344613Y-131860000D01*
X181349095Y-131868386D01*
X181459538Y-132002962D01*
X181594114Y-132113405D01*
X181747650Y-132195472D01*
X181914246Y-132246008D01*
X182087500Y-132263072D01*
X183037500Y-132263072D01*
X183210754Y-132246008D01*
X183377350Y-132195472D01*
X183485642Y-132137589D01*
X183604746Y-132256693D01*
X183627762Y-132284738D01*
X183739680Y-132376587D01*
X183867367Y-132444837D01*
X183948291Y-132469385D01*
X184005914Y-132486865D01*
X184020132Y-132488265D01*
X184113895Y-132497500D01*
X184113902Y-132497500D01*
X184149999Y-132501055D01*
X184186096Y-132497500D01*
X185433054Y-132497500D01*
X186779746Y-133844193D01*
X186802762Y-133872238D01*
X186914680Y-133964087D01*
X187042367Y-134032337D01*
X187123291Y-134056885D01*
X187180914Y-134074365D01*
X187324999Y-134088556D01*
X187361104Y-134085000D01*
X188082645Y-134085000D01*
X188118750Y-134088556D01*
X188154855Y-134085000D01*
X188262835Y-134074365D01*
X188401383Y-134032337D01*
X188529070Y-133964087D01*
X188640988Y-133872238D01*
X188664008Y-133844188D01*
X189406703Y-133101494D01*
X189434737Y-133078487D01*
X189457744Y-133050453D01*
X189457753Y-133050444D01*
X189526586Y-132966570D01*
X189594836Y-132838884D01*
X189636865Y-132700336D01*
X189651056Y-132556251D01*
X189636865Y-132412165D01*
X189622500Y-132364811D01*
X189622500Y-131706822D01*
X189962500Y-131706822D01*
X190086982Y-131694562D01*
X190087500Y-131694405D01*
X190088018Y-131694562D01*
X190212500Y-131706822D01*
X190762500Y-131706822D01*
X190886982Y-131694562D01*
X190887500Y-131694405D01*
X190888018Y-131694562D01*
X191012500Y-131706822D01*
X191562500Y-131706822D01*
X191686982Y-131694562D01*
X191687500Y-131694405D01*
X191688018Y-131694562D01*
X191812500Y-131706822D01*
X192362500Y-131706822D01*
X192486982Y-131694562D01*
X192487500Y-131694405D01*
X192488018Y-131694562D01*
X192612500Y-131706822D01*
X193162500Y-131706822D01*
X193286982Y-131694562D01*
X193287500Y-131694405D01*
X193288018Y-131694562D01*
X193412500Y-131706822D01*
X193962500Y-131706822D01*
X194086982Y-131694562D01*
X194087500Y-131694405D01*
X194088018Y-131694562D01*
X194212500Y-131706822D01*
X194552500Y-131706822D01*
X194552500Y-132545145D01*
X194548944Y-132581250D01*
X194558315Y-132676395D01*
X194563135Y-132725334D01*
X194605163Y-132863882D01*
X194673413Y-132991569D01*
X194765262Y-133103487D01*
X194793308Y-133126504D01*
X194887412Y-133220608D01*
X194829528Y-133328900D01*
X194778992Y-133495496D01*
X194761928Y-133668750D01*
X194761928Y-134618750D01*
X194778992Y-134792004D01*
X194829528Y-134958600D01*
X194911595Y-135112136D01*
X195022038Y-135246712D01*
X195156614Y-135357155D01*
X195310150Y-135439222D01*
X195476746Y-135489758D01*
X195579147Y-135499844D01*
X196304746Y-136225443D01*
X196327762Y-136253488D01*
X196439680Y-136345337D01*
X196567367Y-136413587D01*
X196660202Y-136441748D01*
X196705915Y-136455615D01*
X196850000Y-136469806D01*
X196886105Y-136466250D01*
X199988895Y-136466250D01*
X200025000Y-136469806D01*
X200061105Y-136466250D01*
X200169085Y-136455615D01*
X200307633Y-136413587D01*
X200435320Y-136345337D01*
X200547238Y-136253488D01*
X200570258Y-136225438D01*
X202106694Y-134689003D01*
X202134738Y-134665988D01*
X202226587Y-134554070D01*
X202294837Y-134426383D01*
X202335732Y-134291570D01*
X202336865Y-134287836D01*
X202351056Y-134143751D01*
X202347500Y-134107645D01*
X202347500Y-131393361D01*
X202402351Y-131376722D01*
X202555887Y-131294655D01*
X202690462Y-131184212D01*
X202800905Y-131049637D01*
X202882972Y-130896101D01*
X202933508Y-130729505D01*
X202950572Y-130556251D01*
X202950572Y-130031249D01*
X202933508Y-129857995D01*
X202882972Y-129691399D01*
X202800905Y-129537863D01*
X202690462Y-129403288D01*
X202663609Y-129381250D01*
X202690462Y-129359212D01*
X202800905Y-129224637D01*
X202882972Y-129071101D01*
X202933508Y-128904505D01*
X202950572Y-128731251D01*
X202950572Y-128206249D01*
X202933508Y-128032995D01*
X202882972Y-127866399D01*
X202800905Y-127712863D01*
X202690462Y-127578288D01*
X202555887Y-127467845D01*
X202402351Y-127385778D01*
X202235755Y-127335242D01*
X202062501Y-127318178D01*
X201162499Y-127318178D01*
X200989245Y-127335242D01*
X200822649Y-127385778D01*
X200669113Y-127467845D01*
X200534538Y-127578288D01*
X200424095Y-127712863D01*
X200412931Y-127733750D01*
X199386104Y-127733750D01*
X199349999Y-127730194D01*
X199205914Y-127744385D01*
X199184197Y-127750973D01*
X199175572Y-127753589D01*
X199175572Y-127543750D01*
X199163312Y-127419268D01*
X199163155Y-127418750D01*
X199163312Y-127418232D01*
X199175572Y-127293750D01*
X199175572Y-126953750D01*
X203073000Y-126953750D01*
X203073000Y-140627500D01*
X161957279Y-140627500D01*
X161591290Y-140591614D01*
X161270288Y-140494698D01*
X160974225Y-140337279D01*
X160714377Y-140125351D01*
X160500644Y-139866992D01*
X160341162Y-139572036D01*
X160242007Y-139251719D01*
X160203750Y-138887729D01*
X160203750Y-104807279D01*
X160224519Y-104595462D01*
X160276660Y-104422763D01*
X160361352Y-104263482D01*
X160475369Y-104123681D01*
X160614367Y-104008692D01*
X160773055Y-103922890D01*
X160945385Y-103869545D01*
X161155130Y-103847500D01*
X164790360Y-103847500D01*
X164748987Y-103983889D01*
X164748987Y-103983889D01*
G37*
X164748987Y-103983889D02*
X164727500Y-104202050D01*
X164727500Y-105347949D01*
X164748987Y-105566110D01*
X164833901Y-105846033D01*
X164971794Y-106104013D01*
X165157366Y-106330134D01*
X165383486Y-106515706D01*
X165641466Y-106653599D01*
X165921389Y-106738513D01*
X166212500Y-106767185D01*
X166503610Y-106738513D01*
X166783533Y-106653599D01*
X167041513Y-106515706D01*
X167267634Y-106330134D01*
X167453206Y-106104014D01*
X167591099Y-105846034D01*
X167676013Y-105566111D01*
X167697500Y-105347950D01*
X167697500Y-104202050D01*
X167676013Y-103983889D01*
X167634640Y-103847500D01*
X172090360Y-103847500D01*
X172048987Y-103983889D01*
X172027500Y-104202050D01*
X172027500Y-105347949D01*
X172048987Y-105566110D01*
X172133901Y-105846033D01*
X172271794Y-106104013D01*
X172457366Y-106330134D01*
X172683486Y-106515706D01*
X172941466Y-106653599D01*
X173221389Y-106738513D01*
X173512500Y-106767185D01*
X173803610Y-106738513D01*
X174083533Y-106653599D01*
X174341513Y-106515706D01*
X174567634Y-106330134D01*
X174753206Y-106104014D01*
X174891099Y-105846034D01*
X174976013Y-105566111D01*
X174997500Y-105347950D01*
X174997500Y-104202050D01*
X174976013Y-103983889D01*
X174934640Y-103847500D01*
X203073000Y-103847500D01*
X203073000Y-119619985D01*
X202898102Y-119654774D01*
X202782335Y-119702727D01*
X202825905Y-119649636D01*
X202907972Y-119496100D01*
X202958508Y-119329504D01*
X202975572Y-119156250D01*
X202975572Y-118656250D01*
X202958508Y-118482996D01*
X202907972Y-118316400D01*
X202825905Y-118162864D01*
X202715462Y-118028288D01*
X202580886Y-117917845D01*
X202427350Y-117835778D01*
X202260754Y-117785242D01*
X202087500Y-117768178D01*
X201137500Y-117768178D01*
X200964246Y-117785242D01*
X200797650Y-117835778D01*
X200644114Y-117917845D01*
X200509538Y-118028288D01*
X200399095Y-118162864D01*
X200394613Y-118171250D01*
X200217344Y-118171250D01*
X200181249Y-118167695D01*
X200145154Y-118171250D01*
X200145145Y-118171250D01*
X200037165Y-118181885D01*
X199898617Y-118223913D01*
X199770930Y-118292163D01*
X199659012Y-118384012D01*
X199635991Y-118412063D01*
X199468308Y-118579746D01*
X199440263Y-118602762D01*
X199348414Y-118714680D01*
X199307627Y-118790987D01*
X199280164Y-118842367D01*
X199238135Y-118980915D01*
X199223944Y-119125000D01*
X199227500Y-119161105D01*
X199227500Y-119551803D01*
X198932691Y-119846612D01*
X198891994Y-119813213D01*
X198781680Y-119754248D01*
X198661982Y-119717938D01*
X198537500Y-119705678D01*
X197037500Y-119705678D01*
X196996538Y-119709712D01*
X197000572Y-119668750D01*
X197000572Y-118168750D01*
X196988312Y-118044268D01*
X196952002Y-117924570D01*
X196893037Y-117814256D01*
X196813685Y-117717565D01*
X196716994Y-117638213D01*
X196606680Y-117579248D01*
X196486982Y-117542938D01*
X196362500Y-117530678D01*
X195812500Y-117530678D01*
X195688018Y-117542938D01*
X195687500Y-117543095D01*
X195686982Y-117542938D01*
X195562500Y-117530678D01*
X195012500Y-117530678D01*
X194888018Y-117542938D01*
X194887500Y-117543095D01*
X194886982Y-117542938D01*
X194762500Y-117530678D01*
X194212500Y-117530678D01*
X194088018Y-117542938D01*
X194087500Y-117543095D01*
X194086982Y-117542938D01*
X193962500Y-117530678D01*
X193412500Y-117530678D01*
X193288018Y-117542938D01*
X193287500Y-117543095D01*
X193286982Y-117542938D01*
X193162500Y-117530678D01*
X192849500Y-117530678D01*
X192849500Y-113821880D01*
X192906096Y-113765284D01*
X192935172Y-113741422D01*
X193030395Y-113625392D01*
X193101152Y-113493015D01*
X193144724Y-113349378D01*
X193155750Y-113237426D01*
X193155750Y-113237423D01*
X193159436Y-113200000D01*
X193155750Y-113162577D01*
X193155750Y-112413216D01*
X193218232Y-112407062D01*
X193337930Y-112370752D01*
X193448244Y-112311787D01*
X193544935Y-112232435D01*
X193624287Y-112135744D01*
X193673727Y-112043250D01*
X194858121Y-112043250D01*
X194953288Y-112159212D01*
X195087864Y-112269655D01*
X195241400Y-112351722D01*
X195407996Y-112402258D01*
X195581250Y-112419322D01*
X196531250Y-112419322D01*
X196704504Y-112402258D01*
X196871100Y-112351722D01*
X197024636Y-112269655D01*
X197159212Y-112159212D01*
X197269655Y-112024636D01*
X197351722Y-111871100D01*
X197402258Y-111704504D01*
X197419322Y-111531250D01*
X197419322Y-111031250D01*
X197402258Y-110857996D01*
X197351722Y-110691400D01*
X197269655Y-110537864D01*
X197159212Y-110403288D01*
X197071433Y-110331250D01*
X197159212Y-110259212D01*
X197269655Y-110124636D01*
X197351722Y-109971100D01*
X197402258Y-109804504D01*
X197419322Y-109631250D01*
X197419322Y-109131250D01*
X197402258Y-108957996D01*
X197351722Y-108791400D01*
X197269655Y-108637864D01*
X197159212Y-108503288D01*
X197024636Y-108392845D01*
X196871100Y-108310778D01*
X196704504Y-108260242D01*
X196531250Y-108243178D01*
X195581250Y-108243178D01*
X195407996Y-108260242D01*
X195241400Y-108310778D01*
X195087864Y-108392845D01*
X194953288Y-108503288D01*
X194842845Y-108637864D01*
X194833285Y-108655750D01*
X193688919Y-108655750D01*
X193683252Y-108637070D01*
X193624287Y-108526756D01*
X193544935Y-108430065D01*
X193448244Y-108350713D01*
X193337930Y-108291748D01*
X193223176Y-108256938D01*
X193223244Y-108256250D01*
X193219250Y-108215697D01*
X193207306Y-108094424D01*
X193160103Y-107938816D01*
X193083449Y-107795408D01*
X192980291Y-107669709D01*
X192948789Y-107643856D01*
X192699897Y-107394965D01*
X192674041Y-107363459D01*
X192548342Y-107260301D01*
X192404934Y-107183647D01*
X192249326Y-107136444D01*
X192128053Y-107124500D01*
X192128050Y-107124500D01*
X192087500Y-107120506D01*
X192046950Y-107124500D01*
X185778050Y-107124500D01*
X185737499Y-107120506D01*
X185696949Y-107124500D01*
X185696947Y-107124500D01*
X185575674Y-107136444D01*
X185420066Y-107183647D01*
X185276657Y-107260301D01*
X185249224Y-107282815D01*
X185150959Y-107363459D01*
X185125106Y-107394961D01*
X184388716Y-108131352D01*
X184357209Y-108157209D01*
X184309210Y-108215697D01*
X184254051Y-108282908D01*
X184195288Y-108392845D01*
X184177397Y-108426317D01*
X184130194Y-108581925D01*
X184122415Y-108660913D01*
X184114256Y-108743750D01*
X184118250Y-108784301D01*
X184118251Y-109653189D01*
X184118250Y-109653198D01*
X184118251Y-111084437D01*
X184114256Y-111125000D01*
X184130194Y-111286826D01*
X184177397Y-111442434D01*
X184254051Y-111585842D01*
X184357209Y-111711541D01*
X184482908Y-111814699D01*
X184626316Y-111891353D01*
X184781924Y-111938556D01*
X184903197Y-111950500D01*
X184943750Y-111954494D01*
X184984303Y-111950500D01*
X185278218Y-111950500D01*
X185317845Y-112024636D01*
X185428288Y-112159212D01*
X185562864Y-112269655D01*
X185705750Y-112346030D01*
X185705750Y-112671949D01*
X185701756Y-112712500D01*
X185705750Y-112753050D01*
X185705750Y-112753052D01*
X185717694Y-112874325D01*
X185753966Y-112993898D01*
X185764897Y-113029933D01*
X185841551Y-113173342D01*
X185863429Y-113200000D01*
X185944709Y-113299041D01*
X185976216Y-113324898D01*
X188507067Y-115855750D01*
X186873183Y-115855750D01*
X186563000Y-115545568D01*
X186563000Y-115134303D01*
X186566994Y-115093750D01*
X186551056Y-114931924D01*
X186503853Y-114776316D01*
X186427199Y-114632908D01*
X186324041Y-114507209D01*
X186198342Y-114404051D01*
X186054934Y-114327397D01*
X185899326Y-114280194D01*
X185778053Y-114268250D01*
X185737500Y-114264256D01*
X185696947Y-114268250D01*
X185403032Y-114268250D01*
X185363405Y-114194114D01*
X185252962Y-114059538D01*
X185118386Y-113949095D01*
X184964850Y-113867028D01*
X184798254Y-113816492D01*
X184625000Y-113799428D01*
X183675000Y-113799428D01*
X183501746Y-113816492D01*
X183335150Y-113867028D01*
X183181614Y-113949095D01*
X183047038Y-114059538D01*
X182936595Y-114194114D01*
X182854528Y-114347650D01*
X182803992Y-114514246D01*
X182786928Y-114687500D01*
X182786928Y-114876864D01*
X182664439Y-114852500D01*
X182566946Y-114852500D01*
X182195258Y-114480812D01*
X182172238Y-114452762D01*
X182060320Y-114360913D01*
X181932633Y-114292663D01*
X181794085Y-114250635D01*
X181686105Y-114240000D01*
X181650000Y-114236444D01*
X181613895Y-114240000D01*
X181380819Y-114240000D01*
X181369655Y-114219113D01*
X181259212Y-114084538D01*
X181124637Y-113974095D01*
X180971101Y-113892028D01*
X180804505Y-113841492D01*
X180631251Y-113824428D01*
X179731249Y-113824428D01*
X179557995Y-113841492D01*
X179391399Y-113892028D01*
X179237863Y-113974095D01*
X179103288Y-114084538D01*
X178992845Y-114219113D01*
X178910778Y-114372649D01*
X178860242Y-114539245D01*
X178843178Y-114712499D01*
X178843178Y-115237501D01*
X178860242Y-115410755D01*
X178910778Y-115577351D01*
X178992845Y-115730887D01*
X179103288Y-115865462D01*
X179130141Y-115887500D01*
X179103288Y-115909538D01*
X179068578Y-115951832D01*
X178965256Y-115882795D01*
X178776898Y-115804774D01*
X178576939Y-115765000D01*
X178373061Y-115765000D01*
X178173102Y-115804774D01*
X177984744Y-115882795D01*
X177815226Y-115996063D01*
X177671063Y-116140226D01*
X177557795Y-116309744D01*
X177479774Y-116498102D01*
X177440000Y-116698061D01*
X177440000Y-116901939D01*
X177479774Y-117101898D01*
X177557795Y-117290256D01*
X177671063Y-117459774D01*
X177815226Y-117603937D01*
X177984744Y-117717205D01*
X178173102Y-117795226D01*
X178373061Y-117835000D01*
X178576939Y-117835000D01*
X178776898Y-117795226D01*
X178965256Y-117717205D01*
X179068578Y-117648168D01*
X179103288Y-117690462D01*
X179237863Y-117800905D01*
X179391399Y-117882972D01*
X179557995Y-117933508D01*
X179731249Y-117950572D01*
X180631251Y-117950572D01*
X180804505Y-117933508D01*
X180971101Y-117882972D01*
X181079392Y-117825089D01*
X181223496Y-117969193D01*
X181246512Y-117997238D01*
X181358430Y-118089087D01*
X181486117Y-118157337D01*
X181580119Y-118185852D01*
X181624664Y-118199365D01*
X181638882Y-118200765D01*
X181732645Y-118210000D01*
X181732652Y-118210000D01*
X181768749Y-118213555D01*
X181804846Y-118210000D01*
X182258054Y-118210000D01*
X182810996Y-118762943D01*
X182834012Y-118790988D01*
X182945930Y-118882837D01*
X183073617Y-118951087D01*
X183170136Y-118980366D01*
X183212164Y-118993115D01*
X183356249Y-119007306D01*
X183392354Y-119003750D01*
X184907645Y-119003750D01*
X184943750Y-119007306D01*
X184979855Y-119003750D01*
X185087835Y-118993115D01*
X185226383Y-118951087D01*
X185354070Y-118882837D01*
X185465988Y-118790988D01*
X185489008Y-118762938D01*
X185970356Y-118281591D01*
X186018301Y-118296135D01*
X186108197Y-118304989D01*
X186162378Y-118310326D01*
X186198486Y-118306770D01*
X187174428Y-118306770D01*
X187174428Y-119668750D01*
X187178462Y-119709712D01*
X187137500Y-119705678D01*
X185637500Y-119705678D01*
X185513018Y-119717938D01*
X185393320Y-119754248D01*
X185283006Y-119813213D01*
X185186315Y-119892565D01*
X185106963Y-119989256D01*
X185047998Y-120099570D01*
X185011688Y-120219268D01*
X184999428Y-120343750D01*
X184999428Y-120893750D01*
X185011688Y-121018232D01*
X185011845Y-121018750D01*
X185011688Y-121019268D01*
X184999428Y-121143750D01*
X184999428Y-121693750D01*
X185011688Y-121818232D01*
X185011845Y-121818750D01*
X185011688Y-121819268D01*
X184999428Y-121943750D01*
X184999428Y-122439558D01*
X184953937Y-122371476D01*
X184809774Y-122227313D01*
X184640256Y-122114045D01*
X184451898Y-122036024D01*
X184251939Y-121996250D01*
X184048061Y-121996250D01*
X183848102Y-122036024D01*
X183659744Y-122114045D01*
X183490226Y-122227313D01*
X183346063Y-122371476D01*
X183232795Y-122540994D01*
X183154774Y-122729352D01*
X183115000Y-122929311D01*
X183115000Y-123133189D01*
X183154774Y-123333148D01*
X183186368Y-123409422D01*
X183107758Y-123330812D01*
X183084738Y-123302762D01*
X182972820Y-123210913D01*
X182845133Y-123142663D01*
X182706585Y-123100635D01*
X182598605Y-123090000D01*
X182562500Y-123086444D01*
X182526395Y-123090000D01*
X182225944Y-123090000D01*
X182201722Y-123010150D01*
X182119655Y-122856614D01*
X182009212Y-122722038D01*
X181874636Y-122611595D01*
X181721100Y-122529528D01*
X181554504Y-122478992D01*
X181381250Y-122461928D01*
X180881250Y-122461928D01*
X180707996Y-122478992D01*
X180541400Y-122529528D01*
X180387864Y-122611595D01*
X180253288Y-122722038D01*
X180181250Y-122809817D01*
X180109212Y-122722038D01*
X179974636Y-122611595D01*
X179821100Y-122529528D01*
X179654504Y-122478992D01*
X179481250Y-122461928D01*
X178981250Y-122461928D01*
X178807996Y-122478992D01*
X178641400Y-122529528D01*
X178487864Y-122611595D01*
X178353288Y-122722038D01*
X178242845Y-122856614D01*
X178160778Y-123010150D01*
X178110242Y-123176746D01*
X178093178Y-123350000D01*
X178093178Y-124300000D01*
X178110242Y-124473254D01*
X178160778Y-124639850D01*
X178184243Y-124683750D01*
X174935697Y-124683750D01*
X174566250Y-124314304D01*
X174566250Y-113542355D01*
X174569806Y-113506250D01*
X174555615Y-113362165D01*
X174513587Y-113223616D01*
X174445337Y-113095930D01*
X174376503Y-113012056D01*
X174376500Y-113012053D01*
X174353487Y-112984012D01*
X174325447Y-112961000D01*
X173688025Y-112323579D01*
X173676587Y-112302180D01*
X173607753Y-112218306D01*
X173607750Y-112218303D01*
X173584737Y-112190262D01*
X173556697Y-112167250D01*
X172198369Y-110808923D01*
X172243037Y-110754494D01*
X172302002Y-110644180D01*
X172302746Y-110641728D01*
X172457366Y-110830134D01*
X172683486Y-111015706D01*
X172941466Y-111153599D01*
X173221389Y-111238513D01*
X173512500Y-111267185D01*
X173803610Y-111238513D01*
X174083533Y-111153599D01*
X174341513Y-111015706D01*
X174567634Y-110830134D01*
X174753206Y-110604014D01*
X174891099Y-110346034D01*
X174976013Y-110066111D01*
X174997500Y-109847950D01*
X174997500Y-108702050D01*
X174976013Y-108483889D01*
X174891099Y-108203966D01*
X174753206Y-107945986D01*
X174567634Y-107719866D01*
X174341514Y-107534294D01*
X174083534Y-107396401D01*
X173803611Y-107311487D01*
X173512500Y-107282815D01*
X173221390Y-107311487D01*
X172941467Y-107396401D01*
X172683487Y-107534294D01*
X172457367Y-107719866D01*
X172302746Y-107908272D01*
X172302002Y-107905820D01*
X172243037Y-107795506D01*
X172163685Y-107698815D01*
X172066994Y-107619463D01*
X171956680Y-107560498D01*
X171836982Y-107524188D01*
X171712500Y-107511928D01*
X171212500Y-107511928D01*
X171088018Y-107524188D01*
X171062500Y-107531929D01*
X171036982Y-107524188D01*
X170912500Y-107511928D01*
X170412500Y-107511928D01*
X170288018Y-107524188D01*
X170262500Y-107531929D01*
X170236982Y-107524188D01*
X170112500Y-107511928D01*
X169612500Y-107511928D01*
X169488018Y-107524188D01*
X169462500Y-107531929D01*
X169436982Y-107524188D01*
X169312500Y-107511928D01*
X168812500Y-107511928D01*
X168688018Y-107524188D01*
X168662500Y-107531929D01*
X168636982Y-107524188D01*
X168512500Y-107511928D01*
X168012500Y-107511928D01*
X167888018Y-107524188D01*
X167768320Y-107560498D01*
X167658006Y-107619463D01*
X167561315Y-107698815D01*
X167481963Y-107795506D01*
X167422998Y-107905820D01*
X167422254Y-107908271D01*
X167267634Y-107719866D01*
X167041514Y-107534294D01*
X166783534Y-107396401D01*
X166503611Y-107311487D01*
X166212500Y-107282815D01*
X165921390Y-107311487D01*
X165641467Y-107396401D01*
X165383487Y-107534294D01*
X165157367Y-107719866D01*
X164971794Y-107945986D01*
X164833901Y-108203966D01*
X164748987Y-108483889D01*
X164727500Y-108702050D01*
X164727500Y-109847949D01*
X164748987Y-110066110D01*
X164833901Y-110346033D01*
X164971794Y-110604013D01*
X165157366Y-110830134D01*
X165383486Y-111015706D01*
X165641466Y-111153599D01*
X165921389Y-111238513D01*
X166212500Y-111267185D01*
X166377746Y-111250910D01*
X166277180Y-111304663D01*
X166165262Y-111396512D01*
X166142246Y-111424557D01*
X163018308Y-114548496D01*
X162990262Y-114571513D01*
X162898413Y-114683431D01*
X162830163Y-114811118D01*
X162800884Y-114907637D01*
X162788135Y-114949665D01*
X162773944Y-115093750D01*
X162777500Y-115129855D01*
X162777501Y-118604012D01*
X162714246Y-118610242D01*
X162547650Y-118660778D01*
X162394114Y-118742845D01*
X162259538Y-118853288D01*
X162149095Y-118987864D01*
X162067028Y-119141400D01*
X162016492Y-119307996D01*
X161999428Y-119481250D01*
X161999428Y-120231250D01*
X162016492Y-120404504D01*
X162067028Y-120571100D01*
X162149095Y-120724636D01*
X162259538Y-120859212D01*
X162394114Y-120969655D01*
X162547650Y-121051722D01*
X162714246Y-121102258D01*
X162887500Y-121119322D01*
X164137500Y-121119322D01*
X164310754Y-121102258D01*
X164477350Y-121051722D01*
X164630886Y-120969655D01*
X164765462Y-120859212D01*
X164875905Y-120724636D01*
X164957972Y-120571100D01*
X165008508Y-120404504D01*
X165025572Y-120231250D01*
X165025572Y-119481250D01*
X165008508Y-119307996D01*
X164957972Y-119141400D01*
X164875905Y-118987864D01*
X164765462Y-118853288D01*
X164630886Y-118742845D01*
X164477350Y-118660778D01*
X164310754Y-118610242D01*
X164247500Y-118604012D01*
X164247500Y-115398196D01*
X166991947Y-112653750D01*
X167420145Y-112653750D01*
X167456250Y-112657306D01*
X167492355Y-112653750D01*
X167600335Y-112643115D01*
X167738883Y-112601087D01*
X167866570Y-112532837D01*
X167978488Y-112440988D01*
X168001508Y-112412938D01*
X168300501Y-112113946D01*
X168300501Y-113824428D01*
X167824999Y-113824428D01*
X167651745Y-113841492D01*
X167485149Y-113892028D01*
X167331613Y-113974095D01*
X167197038Y-114084538D01*
X167086595Y-114219113D01*
X167004528Y-114372649D01*
X166953992Y-114539245D01*
X166936928Y-114712499D01*
X166936928Y-115237501D01*
X166953992Y-115410755D01*
X167004528Y-115577351D01*
X167086595Y-115730887D01*
X167197038Y-115865462D01*
X167223891Y-115887500D01*
X167197038Y-115909538D01*
X167086595Y-116044113D01*
X167004528Y-116197649D01*
X166953992Y-116364245D01*
X166936928Y-116537499D01*
X166936928Y-117062501D01*
X166953992Y-117235755D01*
X167004528Y-117402351D01*
X167086595Y-117555887D01*
X167197038Y-117690462D01*
X167331613Y-117800905D01*
X167485149Y-117882972D01*
X167651745Y-117933508D01*
X167666745Y-117934985D01*
X167708708Y-117986117D01*
X167733579Y-118016422D01*
X167762649Y-118040279D01*
X168503470Y-118781101D01*
X168527328Y-118810172D01*
X168643358Y-118905395D01*
X168775735Y-118976152D01*
X168919372Y-119019724D01*
X169031324Y-119030750D01*
X169031326Y-119030750D01*
X169068749Y-119034436D01*
X169100500Y-119031309D01*
X169100501Y-122993817D01*
X169096814Y-123031250D01*
X169111527Y-123180628D01*
X169155099Y-123324265D01*
X169225855Y-123456642D01*
X169279088Y-123521506D01*
X169321079Y-123572672D01*
X169350149Y-123596529D01*
X173265971Y-127512352D01*
X173289828Y-127541422D01*
X173405858Y-127636645D01*
X173538235Y-127707402D01*
X173681872Y-127750974D01*
X173793824Y-127762000D01*
X173793826Y-127762000D01*
X173831249Y-127765686D01*
X173868672Y-127762000D01*
X183993039Y-127762000D01*
X183983563Y-127771476D01*
X183870295Y-127940994D01*
X183792274Y-128129352D01*
X183752500Y-128329311D01*
X183752500Y-128426804D01*
X183740649Y-128438654D01*
X183665462Y-128347038D01*
X183530886Y-128236595D01*
X183377350Y-128154528D01*
X183210754Y-128103992D01*
X183037500Y-128086928D01*
X182087500Y-128086928D01*
X181914246Y-128103992D01*
X181747650Y-128154528D01*
X181594114Y-128236595D01*
X181459538Y-128347038D01*
X181349095Y-128481614D01*
X181344613Y-128490000D01*
X172391947Y-128490000D01*
X166064009Y-122162063D01*
X166040988Y-122134012D01*
X165929070Y-122042163D01*
X165801383Y-121973913D01*
X165662835Y-121931885D01*
X165554855Y-121921250D01*
X165518750Y-121917694D01*
X165482645Y-121921250D01*
X164947202Y-121921250D01*
X164875905Y-121787864D01*
X164765462Y-121653288D01*
X164630886Y-121542845D01*
X164477350Y-121460778D01*
X164310754Y-121410242D01*
X164137500Y-121393178D01*
X162887500Y-121393178D01*
X162714246Y-121410242D01*
X162547650Y-121460778D01*
X162394114Y-121542845D01*
X162259538Y-121653288D01*
X162149095Y-121787864D01*
X162067028Y-121941400D01*
X162016492Y-122107996D01*
X161999428Y-122281250D01*
X161999428Y-123031250D01*
X162016492Y-123204504D01*
X162067028Y-123371100D01*
X162149095Y-123524636D01*
X162259538Y-123659212D01*
X162394114Y-123769655D01*
X162547650Y-123851722D01*
X162714246Y-123902258D01*
X162887500Y-123919322D01*
X164137500Y-123919322D01*
X164310754Y-123902258D01*
X164477350Y-123851722D01*
X164630886Y-123769655D01*
X164765462Y-123659212D01*
X164875905Y-123524636D01*
X164947202Y-123391250D01*
X165214304Y-123391250D01*
X171542246Y-129719193D01*
X171565262Y-129747238D01*
X171677180Y-129839087D01*
X171804867Y-129907337D01*
X171943415Y-129949365D01*
X172051395Y-129960000D01*
X172051404Y-129960000D01*
X172087499Y-129963555D01*
X172123594Y-129960000D01*
X181344613Y-129960000D01*
X181349095Y-129968386D01*
X181459538Y-130102962D01*
X181547317Y-130175000D01*
X181459538Y-130247038D01*
X181375514Y-130349422D01*
X181257633Y-130286413D01*
X181119085Y-130244385D01*
X181011105Y-130233750D01*
X180975000Y-130230194D01*
X180938895Y-130233750D01*
X165929854Y-130233750D01*
X165893749Y-130230194D01*
X165749664Y-130244385D01*
X165707636Y-130257134D01*
X165611117Y-130286413D01*
X165483430Y-130354663D01*
X165371512Y-130446512D01*
X165348496Y-130474557D01*
X163812058Y-132010996D01*
X163784013Y-132034012D01*
X163692164Y-132145930D01*
X163661088Y-132204069D01*
X163623914Y-132273617D01*
X163581885Y-132412165D01*
X163567694Y-132556250D01*
X163571251Y-132592365D01*
X163571250Y-136488895D01*
X163567694Y-136525000D01*
X163571250Y-136561104D01*
X163581885Y-136669084D01*
X163623913Y-136807632D01*
X163692163Y-136935319D01*
X163784012Y-137047237D01*
X163812058Y-137070254D01*
X164554746Y-137812943D01*
X164577762Y-137840988D01*
X164689680Y-137932837D01*
X164817367Y-138001087D01*
X164913886Y-138030366D01*
X164955914Y-138043115D01*
X165099999Y-138057306D01*
X165136104Y-138053750D01*
X165224428Y-138053750D01*
X165224428Y-138131250D01*
X165236688Y-138255732D01*
X165272998Y-138375430D01*
X165331963Y-138485744D01*
X165411315Y-138582435D01*
X165508006Y-138661787D01*
X165618320Y-138720752D01*
X165738018Y-138757062D01*
X165862500Y-138769322D01*
X167662500Y-138769322D01*
X167786982Y-138757062D01*
X167906680Y-138720752D01*
X168016994Y-138661787D01*
X168113685Y-138582435D01*
X168193037Y-138485744D01*
X168252002Y-138375430D01*
X168288312Y-138255732D01*
X168300572Y-138131250D01*
X168300572Y-137031250D01*
X171424428Y-137031250D01*
X171424428Y-138131250D01*
X171436688Y-138255732D01*
X171472998Y-138375430D01*
X171531963Y-138485744D01*
X171611315Y-138582435D01*
X171708006Y-138661787D01*
X171818320Y-138720752D01*
X171938018Y-138757062D01*
X172062500Y-138769322D01*
X173862500Y-138769322D01*
X173986982Y-138757062D01*
X174106680Y-138720752D01*
X174216994Y-138661787D01*
X174313685Y-138582435D01*
X174393037Y-138485744D01*
X174452002Y-138375430D01*
X174488312Y-138255732D01*
X174500572Y-138131250D01*
X174500572Y-137031250D01*
X174488312Y-136906768D01*
X174452002Y-136787070D01*
X174393037Y-136676756D01*
X174313685Y-136580065D01*
X174216994Y-136500713D01*
X174106680Y-136441748D01*
X173986982Y-136405438D01*
X173862500Y-136393178D01*
X172062500Y-136393178D01*
X171938018Y-136405438D01*
X171818320Y-136441748D01*
X171708006Y-136500713D01*
X171611315Y-136580065D01*
X171531963Y-136676756D01*
X171472998Y-136787070D01*
X171436688Y-136906768D01*
X171424428Y-137031250D01*
X168300572Y-137031250D01*
X168288312Y-136906768D01*
X168252002Y-136787070D01*
X168193037Y-136676756D01*
X168113685Y-136580065D01*
X168016994Y-136500713D01*
X167906680Y-136441748D01*
X167786982Y-136405438D01*
X167662500Y-136393178D01*
X165862500Y-136393178D01*
X165738018Y-136405438D01*
X165618320Y-136441748D01*
X165508006Y-136500713D01*
X165411315Y-136580065D01*
X165408291Y-136583750D01*
X165404447Y-136583750D01*
X165041250Y-136220554D01*
X165041250Y-133331250D01*
X165224428Y-133331250D01*
X165224428Y-134431250D01*
X165236688Y-134555732D01*
X165272998Y-134675430D01*
X165331963Y-134785744D01*
X165411315Y-134882435D01*
X165508006Y-134961787D01*
X165618320Y-135020752D01*
X165738018Y-135057062D01*
X165862500Y-135069322D01*
X167662500Y-135069322D01*
X167786982Y-135057062D01*
X167906680Y-135020752D01*
X168016994Y-134961787D01*
X168113685Y-134882435D01*
X168193037Y-134785744D01*
X168252002Y-134675430D01*
X168288312Y-134555732D01*
X168300572Y-134431250D01*
X168300572Y-133331250D01*
X168288312Y-133206768D01*
X168252002Y-133087070D01*
X168193037Y-132976756D01*
X168113685Y-132880065D01*
X168016994Y-132800713D01*
X167906680Y-132741748D01*
X167786982Y-132705438D01*
X167662500Y-132693178D01*
X165862500Y-132693178D01*
X165738018Y-132705438D01*
X165618320Y-132741748D01*
X165508006Y-132800713D01*
X165411315Y-132880065D01*
X165331963Y-132976756D01*
X165272998Y-133087070D01*
X165236688Y-133206768D01*
X165224428Y-133331250D01*
X165041250Y-133331250D01*
X165041250Y-132860696D01*
X166198197Y-131703750D01*
X174037906Y-131703750D01*
X173965226Y-131752313D01*
X173821063Y-131896476D01*
X173707795Y-132065994D01*
X173629774Y-132254352D01*
X173590000Y-132454311D01*
X173590000Y-132658189D01*
X173596960Y-132693178D01*
X172062500Y-132693178D01*
X171938018Y-132705438D01*
X171818320Y-132741748D01*
X171708006Y-132800713D01*
X171611315Y-132880065D01*
X171531963Y-132976756D01*
X171472998Y-133087070D01*
X171436688Y-133206768D01*
X171424428Y-133331250D01*
X171424428Y-134431250D01*
X171436688Y-134555732D01*
X171472998Y-134675430D01*
X171531963Y-134785744D01*
X171611315Y-134882435D01*
X171708006Y-134961787D01*
X171818320Y-135020752D01*
X171938018Y-135057062D01*
X172062500Y-135069322D01*
X173862500Y-135069322D01*
X173986982Y-135057062D01*
X174106680Y-135020752D01*
X174216994Y-134961787D01*
X174313685Y-134882435D01*
X174393037Y-134785744D01*
X174452002Y-134675430D01*
X174472151Y-134609006D01*
X174506585Y-134605615D01*
X174645133Y-134563587D01*
X174772820Y-134495337D01*
X174884738Y-134403488D01*
X174907759Y-134375437D01*
X175119192Y-134164004D01*
X175147237Y-134140988D01*
X175239087Y-134029070D01*
X175307337Y-133901383D01*
X175349365Y-133762835D01*
X175353979Y-133715988D01*
X175363556Y-133618751D01*
X175360000Y-133582646D01*
X175360000Y-133284961D01*
X175428937Y-133216024D01*
X175542205Y-133046506D01*
X175620226Y-132858148D01*
X175660000Y-132658189D01*
X175660000Y-132454311D01*
X175620226Y-132254352D01*
X175542205Y-132065994D01*
X175428937Y-131896476D01*
X175284774Y-131752313D01*
X175212094Y-131703750D01*
X180677872Y-131703750D01*
X180720930Y-131739087D01*
X180848617Y-131807337D01*
X180965174Y-131842694D01*
X180987165Y-131849365D01*
X181131250Y-131863556D01*
X181167355Y-131860000D01*
X181344613Y-131860000D01*
X181349095Y-131868386D01*
X181459538Y-132002962D01*
X181594114Y-132113405D01*
X181747650Y-132195472D01*
X181914246Y-132246008D01*
X182087500Y-132263072D01*
X183037500Y-132263072D01*
X183210754Y-132246008D01*
X183377350Y-132195472D01*
X183485642Y-132137589D01*
X183604746Y-132256693D01*
X183627762Y-132284738D01*
X183739680Y-132376587D01*
X183867367Y-132444837D01*
X183948291Y-132469385D01*
X184005914Y-132486865D01*
X184020132Y-132488265D01*
X184113895Y-132497500D01*
X184113902Y-132497500D01*
X184149999Y-132501055D01*
X184186096Y-132497500D01*
X185433054Y-132497500D01*
X186779746Y-133844193D01*
X186802762Y-133872238D01*
X186914680Y-133964087D01*
X187042367Y-134032337D01*
X187123291Y-134056885D01*
X187180914Y-134074365D01*
X187324999Y-134088556D01*
X187361104Y-134085000D01*
X188082645Y-134085000D01*
X188118750Y-134088556D01*
X188154855Y-134085000D01*
X188262835Y-134074365D01*
X188401383Y-134032337D01*
X188529070Y-133964087D01*
X188640988Y-133872238D01*
X188664008Y-133844188D01*
X189406703Y-133101494D01*
X189434737Y-133078487D01*
X189457744Y-133050453D01*
X189457753Y-133050444D01*
X189526586Y-132966570D01*
X189594836Y-132838884D01*
X189636865Y-132700336D01*
X189651056Y-132556251D01*
X189636865Y-132412165D01*
X189622500Y-132364811D01*
X189622500Y-131706822D01*
X189962500Y-131706822D01*
X190086982Y-131694562D01*
X190087500Y-131694405D01*
X190088018Y-131694562D01*
X190212500Y-131706822D01*
X190762500Y-131706822D01*
X190886982Y-131694562D01*
X190887500Y-131694405D01*
X190888018Y-131694562D01*
X191012500Y-131706822D01*
X191562500Y-131706822D01*
X191686982Y-131694562D01*
X191687500Y-131694405D01*
X191688018Y-131694562D01*
X191812500Y-131706822D01*
X192362500Y-131706822D01*
X192486982Y-131694562D01*
X192487500Y-131694405D01*
X192488018Y-131694562D01*
X192612500Y-131706822D01*
X193162500Y-131706822D01*
X193286982Y-131694562D01*
X193287500Y-131694405D01*
X193288018Y-131694562D01*
X193412500Y-131706822D01*
X193962500Y-131706822D01*
X194086982Y-131694562D01*
X194087500Y-131694405D01*
X194088018Y-131694562D01*
X194212500Y-131706822D01*
X194552500Y-131706822D01*
X194552500Y-132545145D01*
X194548944Y-132581250D01*
X194558315Y-132676395D01*
X194563135Y-132725334D01*
X194605163Y-132863882D01*
X194673413Y-132991569D01*
X194765262Y-133103487D01*
X194793308Y-133126504D01*
X194887412Y-133220608D01*
X194829528Y-133328900D01*
X194778992Y-133495496D01*
X194761928Y-133668750D01*
X194761928Y-134618750D01*
X194778992Y-134792004D01*
X194829528Y-134958600D01*
X194911595Y-135112136D01*
X195022038Y-135246712D01*
X195156614Y-135357155D01*
X195310150Y-135439222D01*
X195476746Y-135489758D01*
X195579147Y-135499844D01*
X196304746Y-136225443D01*
X196327762Y-136253488D01*
X196439680Y-136345337D01*
X196567367Y-136413587D01*
X196660202Y-136441748D01*
X196705915Y-136455615D01*
X196850000Y-136469806D01*
X196886105Y-136466250D01*
X199988895Y-136466250D01*
X200025000Y-136469806D01*
X200061105Y-136466250D01*
X200169085Y-136455615D01*
X200307633Y-136413587D01*
X200435320Y-136345337D01*
X200547238Y-136253488D01*
X200570258Y-136225438D01*
X202106694Y-134689003D01*
X202134738Y-134665988D01*
X202226587Y-134554070D01*
X202294837Y-134426383D01*
X202335732Y-134291570D01*
X202336865Y-134287836D01*
X202351056Y-134143751D01*
X202347500Y-134107645D01*
X202347500Y-131393361D01*
X202402351Y-131376722D01*
X202555887Y-131294655D01*
X202690462Y-131184212D01*
X202800905Y-131049637D01*
X202882972Y-130896101D01*
X202933508Y-130729505D01*
X202950572Y-130556251D01*
X202950572Y-130031249D01*
X202933508Y-129857995D01*
X202882972Y-129691399D01*
X202800905Y-129537863D01*
X202690462Y-129403288D01*
X202663609Y-129381250D01*
X202690462Y-129359212D01*
X202800905Y-129224637D01*
X202882972Y-129071101D01*
X202933508Y-128904505D01*
X202950572Y-128731251D01*
X202950572Y-128206249D01*
X202933508Y-128032995D01*
X202882972Y-127866399D01*
X202800905Y-127712863D01*
X202690462Y-127578288D01*
X202555887Y-127467845D01*
X202402351Y-127385778D01*
X202235755Y-127335242D01*
X202062501Y-127318178D01*
X201162499Y-127318178D01*
X200989245Y-127335242D01*
X200822649Y-127385778D01*
X200669113Y-127467845D01*
X200534538Y-127578288D01*
X200424095Y-127712863D01*
X200412931Y-127733750D01*
X199386104Y-127733750D01*
X199349999Y-127730194D01*
X199205914Y-127744385D01*
X199184197Y-127750973D01*
X199175572Y-127753589D01*
X199175572Y-127543750D01*
X199163312Y-127419268D01*
X199163155Y-127418750D01*
X199163312Y-127418232D01*
X199175572Y-127293750D01*
X199175572Y-126953750D01*
X203073000Y-126953750D01*
X203073000Y-140627500D01*
X161957279Y-140627500D01*
X161591290Y-140591614D01*
X161270288Y-140494698D01*
X160974225Y-140337279D01*
X160714377Y-140125351D01*
X160500644Y-139866992D01*
X160341162Y-139572036D01*
X160242007Y-139251719D01*
X160203750Y-138887729D01*
X160203750Y-104807279D01*
X160224519Y-104595462D01*
X160276660Y-104422763D01*
X160361352Y-104263482D01*
X160475369Y-104123681D01*
X160614367Y-104008692D01*
X160773055Y-103922890D01*
X160945385Y-103869545D01*
X161155130Y-103847500D01*
X164790360Y-103847500D01*
X164748987Y-103983889D01*
G36*
X199365226Y-134947687D02*
G01*
X199437906Y-134996250D01*
X198850348Y-134996250D01*
X198870472Y-134958600D01*
X198894694Y-134878750D01*
X199296289Y-134878750D01*
X199365226Y-134947687D01*
X199365226Y-134947687D01*
G37*
X199365226Y-134947687D02*
X199437906Y-134996250D01*
X198850348Y-134996250D01*
X198870472Y-134958600D01*
X198894694Y-134878750D01*
X199296289Y-134878750D01*
X199365226Y-134947687D01*
G36*
X200424095Y-129224637D02*
G01*
X200534538Y-129359212D01*
X200561391Y-129381250D01*
X200534538Y-129403288D01*
X200424095Y-129537863D01*
X200342028Y-129691399D01*
X200291492Y-129857995D01*
X200274428Y-130031249D01*
X200274428Y-130556251D01*
X200291492Y-130729505D01*
X200342028Y-130896101D01*
X200424095Y-131049637D01*
X200534538Y-131184212D01*
X200669113Y-131294655D01*
X200822649Y-131376722D01*
X200877500Y-131393361D01*
X200877501Y-133556657D01*
X200828937Y-133483976D01*
X200684774Y-133339813D01*
X200515256Y-133226545D01*
X200326898Y-133148524D01*
X200126939Y-133108750D01*
X199923061Y-133108750D01*
X199723102Y-133148524D01*
X199534744Y-133226545D01*
X199365226Y-133339813D01*
X199296289Y-133408750D01*
X198894694Y-133408750D01*
X198870472Y-133328900D01*
X198788405Y-133175364D01*
X198677962Y-133040788D01*
X198543386Y-132930345D01*
X198535000Y-132925863D01*
X198535000Y-132748605D01*
X198538556Y-132712500D01*
X198524365Y-132568415D01*
X198509722Y-132520145D01*
X198482337Y-132429867D01*
X198414087Y-132302180D01*
X198322238Y-132190262D01*
X198294187Y-132167241D01*
X198189009Y-132062063D01*
X198165988Y-132034012D01*
X198054070Y-131942163D01*
X197926383Y-131873913D01*
X197787835Y-131831885D01*
X197679855Y-131821250D01*
X197643750Y-131817694D01*
X197607645Y-131821250D01*
X197154447Y-131821250D01*
X196831466Y-131498269D01*
X196893037Y-131423244D01*
X196952002Y-131312930D01*
X196988312Y-131193232D01*
X197000572Y-131068750D01*
X197000572Y-129568750D01*
X196996538Y-129527788D01*
X197037500Y-129531822D01*
X198537500Y-129531822D01*
X198661982Y-129519562D01*
X198781680Y-129483252D01*
X198891994Y-129424287D01*
X198977944Y-129353750D01*
X199163895Y-129353750D01*
X199200000Y-129357306D01*
X199236105Y-129353750D01*
X199344085Y-129343115D01*
X199482633Y-129301087D01*
X199610320Y-129232837D01*
X199645763Y-129203750D01*
X200412931Y-129203750D01*
X200424095Y-129224637D01*
X200424095Y-129224637D01*
G37*
X200424095Y-129224637D02*
X200534538Y-129359212D01*
X200561391Y-129381250D01*
X200534538Y-129403288D01*
X200424095Y-129537863D01*
X200342028Y-129691399D01*
X200291492Y-129857995D01*
X200274428Y-130031249D01*
X200274428Y-130556251D01*
X200291492Y-130729505D01*
X200342028Y-130896101D01*
X200424095Y-131049637D01*
X200534538Y-131184212D01*
X200669113Y-131294655D01*
X200822649Y-131376722D01*
X200877500Y-131393361D01*
X200877501Y-133556657D01*
X200828937Y-133483976D01*
X200684774Y-133339813D01*
X200515256Y-133226545D01*
X200326898Y-133148524D01*
X200126939Y-133108750D01*
X199923061Y-133108750D01*
X199723102Y-133148524D01*
X199534744Y-133226545D01*
X199365226Y-133339813D01*
X199296289Y-133408750D01*
X198894694Y-133408750D01*
X198870472Y-133328900D01*
X198788405Y-133175364D01*
X198677962Y-133040788D01*
X198543386Y-132930345D01*
X198535000Y-132925863D01*
X198535000Y-132748605D01*
X198538556Y-132712500D01*
X198524365Y-132568415D01*
X198509722Y-132520145D01*
X198482337Y-132429867D01*
X198414087Y-132302180D01*
X198322238Y-132190262D01*
X198294187Y-132167241D01*
X198189009Y-132062063D01*
X198165988Y-132034012D01*
X198054070Y-131942163D01*
X197926383Y-131873913D01*
X197787835Y-131831885D01*
X197679855Y-131821250D01*
X197643750Y-131817694D01*
X197607645Y-131821250D01*
X197154447Y-131821250D01*
X196831466Y-131498269D01*
X196893037Y-131423244D01*
X196952002Y-131312930D01*
X196988312Y-131193232D01*
X197000572Y-131068750D01*
X197000572Y-129568750D01*
X196996538Y-129527788D01*
X197037500Y-129531822D01*
X198537500Y-129531822D01*
X198661982Y-129519562D01*
X198781680Y-129483252D01*
X198891994Y-129424287D01*
X198977944Y-129353750D01*
X199163895Y-129353750D01*
X199200000Y-129357306D01*
X199236105Y-129353750D01*
X199344085Y-129343115D01*
X199482633Y-129301087D01*
X199610320Y-129232837D01*
X199645763Y-129203750D01*
X200412931Y-129203750D01*
X200424095Y-129224637D01*
G36*
X185637500Y-129531822D02*
G01*
X187137500Y-129531822D01*
X187178462Y-129527788D01*
X187174428Y-129568750D01*
X187174428Y-131068750D01*
X187186688Y-131193232D01*
X187222998Y-131312930D01*
X187281963Y-131423244D01*
X187343534Y-131498269D01*
X187210974Y-131630829D01*
X186054706Y-130474562D01*
X186031686Y-130446512D01*
X185919768Y-130354663D01*
X185792081Y-130286413D01*
X185653533Y-130244385D01*
X185545553Y-130233750D01*
X185522500Y-130231479D01*
X185522500Y-129520496D01*
X185637500Y-129531822D01*
X185637500Y-129531822D01*
G37*
X185637500Y-129531822D02*
X187137500Y-129531822D01*
X187178462Y-129527788D01*
X187174428Y-129568750D01*
X187174428Y-131068750D01*
X187186688Y-131193232D01*
X187222998Y-131312930D01*
X187281963Y-131423244D01*
X187343534Y-131498269D01*
X187210974Y-131630829D01*
X186054706Y-130474562D01*
X186031686Y-130446512D01*
X185919768Y-130354663D01*
X185792081Y-130286413D01*
X185653533Y-130244385D01*
X185545553Y-130233750D01*
X185522500Y-130231479D01*
X185522500Y-129520496D01*
X185637500Y-129531822D01*
G36*
X184052500Y-130624405D02*
G01*
X184034738Y-130602762D01*
X183922820Y-130510913D01*
X183813898Y-130452693D01*
X183775905Y-130381614D01*
X183665462Y-130247038D01*
X183577683Y-130175000D01*
X183665462Y-130102962D01*
X183775905Y-129968386D01*
X183780387Y-129960000D01*
X183957645Y-129960000D01*
X183993750Y-129963556D01*
X184029855Y-129960000D01*
X184052500Y-129957770D01*
X184052500Y-130624405D01*
X184052500Y-130624405D01*
G37*
X184052500Y-130624405D02*
X184034738Y-130602762D01*
X183922820Y-130510913D01*
X183813898Y-130452693D01*
X183775905Y-130381614D01*
X183665462Y-130247038D01*
X183577683Y-130175000D01*
X183665462Y-130102962D01*
X183775905Y-129968386D01*
X183780387Y-129960000D01*
X183957645Y-129960000D01*
X183993750Y-129963556D01*
X184029855Y-129960000D01*
X184052500Y-129957770D01*
X184052500Y-130624405D01*
G36*
X194552501Y-128916948D02*
G01*
X194552501Y-128930678D01*
X194212500Y-128930678D01*
X194088018Y-128942938D01*
X194087500Y-128943095D01*
X194086982Y-128942938D01*
X193962500Y-128930678D01*
X193412500Y-128930678D01*
X193288018Y-128942938D01*
X193287500Y-128943095D01*
X193286982Y-128942938D01*
X193162500Y-128930678D01*
X192612500Y-128930678D01*
X192488018Y-128942938D01*
X192487500Y-128943095D01*
X192486982Y-128942938D01*
X192362500Y-128930678D01*
X191812500Y-128930678D01*
X191688018Y-128942938D01*
X191687500Y-128943095D01*
X191686982Y-128942938D01*
X191562500Y-128930678D01*
X191012500Y-128930678D01*
X190888018Y-128942938D01*
X190887500Y-128943095D01*
X190886982Y-128942938D01*
X190762500Y-128930678D01*
X190212500Y-128930678D01*
X190088018Y-128942938D01*
X190087500Y-128943095D01*
X190086982Y-128942938D01*
X189962500Y-128930678D01*
X189622500Y-128930678D01*
X189622500Y-128528750D01*
X194164304Y-128528750D01*
X194552501Y-128916948D01*
X194552501Y-128916948D01*
G37*
X194552501Y-128916948D02*
X194552501Y-128930678D01*
X194212500Y-128930678D01*
X194088018Y-128942938D01*
X194087500Y-128943095D01*
X194086982Y-128942938D01*
X193962500Y-128930678D01*
X193412500Y-128930678D01*
X193288018Y-128942938D01*
X193287500Y-128943095D01*
X193286982Y-128942938D01*
X193162500Y-128930678D01*
X192612500Y-128930678D01*
X192488018Y-128942938D01*
X192487500Y-128943095D01*
X192486982Y-128942938D01*
X192362500Y-128930678D01*
X191812500Y-128930678D01*
X191688018Y-128942938D01*
X191687500Y-128943095D01*
X191686982Y-128942938D01*
X191562500Y-128930678D01*
X191012500Y-128930678D01*
X190888018Y-128942938D01*
X190887500Y-128943095D01*
X190886982Y-128942938D01*
X190762500Y-128930678D01*
X190212500Y-128930678D01*
X190088018Y-128942938D01*
X190087500Y-128943095D01*
X190086982Y-128942938D01*
X189962500Y-128930678D01*
X189622500Y-128930678D01*
X189622500Y-128528750D01*
X194164304Y-128528750D01*
X194552501Y-128916948D01*
G36*
X188152500Y-126498197D02*
G01*
X188152501Y-127732635D01*
X188148944Y-127768750D01*
X188152500Y-127804855D01*
X188152500Y-128930678D01*
X187812500Y-128930678D01*
X187771538Y-128934712D01*
X187775572Y-128893750D01*
X187775572Y-128343750D01*
X187763312Y-128219268D01*
X187763155Y-128218750D01*
X187763312Y-128218232D01*
X187775572Y-128093750D01*
X187775572Y-127543750D01*
X187763312Y-127419268D01*
X187763155Y-127418750D01*
X187763312Y-127418232D01*
X187775572Y-127293750D01*
X187775572Y-126743750D01*
X187763312Y-126619268D01*
X187763155Y-126618750D01*
X187763312Y-126618232D01*
X187775572Y-126493750D01*
X187775572Y-126153750D01*
X187808054Y-126153750D01*
X188152500Y-126498197D01*
X188152500Y-126498197D01*
G37*
X188152500Y-126498197D02*
X188152501Y-127732635D01*
X188148944Y-127768750D01*
X188152500Y-127804855D01*
X188152500Y-128930678D01*
X187812500Y-128930678D01*
X187771538Y-128934712D01*
X187775572Y-128893750D01*
X187775572Y-128343750D01*
X187763312Y-128219268D01*
X187763155Y-128218750D01*
X187763312Y-128218232D01*
X187775572Y-128093750D01*
X187775572Y-127543750D01*
X187763312Y-127419268D01*
X187763155Y-127418750D01*
X187763312Y-127418232D01*
X187775572Y-127293750D01*
X187775572Y-126743750D01*
X187763312Y-126619268D01*
X187763155Y-126618750D01*
X187763312Y-126618232D01*
X187775572Y-126493750D01*
X187775572Y-126153750D01*
X187808054Y-126153750D01*
X188152500Y-126498197D01*
G36*
X196399428Y-121693750D02*
G01*
X196411688Y-121818232D01*
X196411845Y-121818750D01*
X196411688Y-121819268D01*
X196399428Y-121943750D01*
X196399428Y-122493750D01*
X196411688Y-122618232D01*
X196411845Y-122618750D01*
X196411688Y-122619268D01*
X196399428Y-122743750D01*
X196399428Y-123293750D01*
X196411688Y-123418232D01*
X196411845Y-123418750D01*
X196411688Y-123419268D01*
X196399428Y-123543750D01*
X196399428Y-124093750D01*
X196411688Y-124218232D01*
X196411845Y-124218750D01*
X196411688Y-124219268D01*
X196399428Y-124343750D01*
X196399428Y-124893750D01*
X196411688Y-125018232D01*
X196411845Y-125018750D01*
X196411688Y-125019268D01*
X196399428Y-125143750D01*
X196399428Y-125693750D01*
X196411688Y-125818232D01*
X196411845Y-125818750D01*
X196411688Y-125819268D01*
X196399428Y-125943750D01*
X196399428Y-126493750D01*
X196411688Y-126618232D01*
X196411845Y-126618750D01*
X196411688Y-126619268D01*
X196399428Y-126743750D01*
X196399428Y-127293750D01*
X196411688Y-127418232D01*
X196411845Y-127418750D01*
X196411688Y-127419268D01*
X196399428Y-127543750D01*
X196399428Y-128093750D01*
X196411688Y-128218232D01*
X196411845Y-128218750D01*
X196411688Y-128219268D01*
X196399428Y-128343750D01*
X196399428Y-128893750D01*
X196403462Y-128934712D01*
X196362500Y-128930678D01*
X196022500Y-128930678D01*
X196022500Y-128648594D01*
X196026055Y-128612499D01*
X196022500Y-128576404D01*
X196022500Y-128576395D01*
X196011865Y-128468415D01*
X195969837Y-128329867D01*
X195901587Y-128202180D01*
X195809738Y-128090262D01*
X195781693Y-128067246D01*
X195203750Y-127489304D01*
X195203750Y-122541946D01*
X196391947Y-121353750D01*
X196399428Y-121353750D01*
X196399428Y-121693750D01*
X196399428Y-121693750D01*
G37*
X196399428Y-121693750D02*
X196411688Y-121818232D01*
X196411845Y-121818750D01*
X196411688Y-121819268D01*
X196399428Y-121943750D01*
X196399428Y-122493750D01*
X196411688Y-122618232D01*
X196411845Y-122618750D01*
X196411688Y-122619268D01*
X196399428Y-122743750D01*
X196399428Y-123293750D01*
X196411688Y-123418232D01*
X196411845Y-123418750D01*
X196411688Y-123419268D01*
X196399428Y-123543750D01*
X196399428Y-124093750D01*
X196411688Y-124218232D01*
X196411845Y-124218750D01*
X196411688Y-124219268D01*
X196399428Y-124343750D01*
X196399428Y-124893750D01*
X196411688Y-125018232D01*
X196411845Y-125018750D01*
X196411688Y-125019268D01*
X196399428Y-125143750D01*
X196399428Y-125693750D01*
X196411688Y-125818232D01*
X196411845Y-125818750D01*
X196411688Y-125819268D01*
X196399428Y-125943750D01*
X196399428Y-126493750D01*
X196411688Y-126618232D01*
X196411845Y-126618750D01*
X196411688Y-126619268D01*
X196399428Y-126743750D01*
X196399428Y-127293750D01*
X196411688Y-127418232D01*
X196411845Y-127418750D01*
X196411688Y-127419268D01*
X196399428Y-127543750D01*
X196399428Y-128093750D01*
X196411688Y-128218232D01*
X196411845Y-128218750D01*
X196411688Y-128219268D01*
X196399428Y-128343750D01*
X196399428Y-128893750D01*
X196403462Y-128934712D01*
X196362500Y-128930678D01*
X196022500Y-128930678D01*
X196022500Y-128648594D01*
X196026055Y-128612499D01*
X196022500Y-128576404D01*
X196022500Y-128576395D01*
X196011865Y-128468415D01*
X195969837Y-128329867D01*
X195901587Y-128202180D01*
X195809738Y-128090262D01*
X195781693Y-128067246D01*
X195203750Y-127489304D01*
X195203750Y-122541946D01*
X196391947Y-121353750D01*
X196399428Y-121353750D01*
X196399428Y-121693750D01*
G36*
X189288018Y-120294562D02*
G01*
X189412500Y-120306822D01*
X189752501Y-120306822D01*
X189752501Y-120601385D01*
X189748944Y-120637500D01*
X189763135Y-120781585D01*
X189805164Y-120920133D01*
X189873414Y-121047820D01*
X189965263Y-121159738D01*
X189993308Y-121182754D01*
X191542246Y-122731693D01*
X191565262Y-122759738D01*
X191672813Y-122848003D01*
X191677180Y-122851587D01*
X191804866Y-122919837D01*
X191943415Y-122961865D01*
X192087500Y-122976056D01*
X192123605Y-122972500D01*
X193733750Y-122972500D01*
X193733751Y-127058750D01*
X189622500Y-127058750D01*
X189622500Y-126356482D01*
X189624365Y-126350334D01*
X189638556Y-126206250D01*
X189624365Y-126062165D01*
X189622760Y-126056872D01*
X189586878Y-125938587D01*
X189582337Y-125923617D01*
X189514087Y-125795930D01*
X189422238Y-125684012D01*
X189394193Y-125660996D01*
X188657758Y-124924562D01*
X188634738Y-124896512D01*
X188522820Y-124804663D01*
X188395133Y-124736413D01*
X188256585Y-124694385D01*
X188148605Y-124683750D01*
X188112500Y-124680194D01*
X188076395Y-124683750D01*
X187775572Y-124683750D01*
X187775572Y-124343750D01*
X187763312Y-124219268D01*
X187763155Y-124218750D01*
X187763312Y-124218232D01*
X187775572Y-124093750D01*
X187775572Y-123543750D01*
X187763312Y-123419268D01*
X187763155Y-123418750D01*
X187763312Y-123418232D01*
X187775572Y-123293750D01*
X187775572Y-122743750D01*
X187763312Y-122619268D01*
X187763155Y-122618750D01*
X187763312Y-122618232D01*
X187775572Y-122493750D01*
X187775572Y-121943750D01*
X187763312Y-121819268D01*
X187763155Y-121818750D01*
X187763312Y-121818232D01*
X187775572Y-121693750D01*
X187775572Y-121143750D01*
X187763312Y-121019268D01*
X187763155Y-121018750D01*
X187763312Y-121018232D01*
X187775572Y-120893750D01*
X187775572Y-120343750D01*
X187771538Y-120302788D01*
X187812500Y-120306822D01*
X188362500Y-120306822D01*
X188486982Y-120294562D01*
X188487500Y-120294405D01*
X188488018Y-120294562D01*
X188612500Y-120306822D01*
X189162500Y-120306822D01*
X189286982Y-120294562D01*
X189287500Y-120294405D01*
X189288018Y-120294562D01*
X189288018Y-120294562D01*
G37*
X189288018Y-120294562D02*
X189412500Y-120306822D01*
X189752501Y-120306822D01*
X189752501Y-120601385D01*
X189748944Y-120637500D01*
X189763135Y-120781585D01*
X189805164Y-120920133D01*
X189873414Y-121047820D01*
X189965263Y-121159738D01*
X189993308Y-121182754D01*
X191542246Y-122731693D01*
X191565262Y-122759738D01*
X191672813Y-122848003D01*
X191677180Y-122851587D01*
X191804866Y-122919837D01*
X191943415Y-122961865D01*
X192087500Y-122976056D01*
X192123605Y-122972500D01*
X193733750Y-122972500D01*
X193733751Y-127058750D01*
X189622500Y-127058750D01*
X189622500Y-126356482D01*
X189624365Y-126350334D01*
X189638556Y-126206250D01*
X189624365Y-126062165D01*
X189622760Y-126056872D01*
X189586878Y-125938587D01*
X189582337Y-125923617D01*
X189514087Y-125795930D01*
X189422238Y-125684012D01*
X189394193Y-125660996D01*
X188657758Y-124924562D01*
X188634738Y-124896512D01*
X188522820Y-124804663D01*
X188395133Y-124736413D01*
X188256585Y-124694385D01*
X188148605Y-124683750D01*
X188112500Y-124680194D01*
X188076395Y-124683750D01*
X187775572Y-124683750D01*
X187775572Y-124343750D01*
X187763312Y-124219268D01*
X187763155Y-124218750D01*
X187763312Y-124218232D01*
X187775572Y-124093750D01*
X187775572Y-123543750D01*
X187763312Y-123419268D01*
X187763155Y-123418750D01*
X187763312Y-123418232D01*
X187775572Y-123293750D01*
X187775572Y-122743750D01*
X187763312Y-122619268D01*
X187763155Y-122618750D01*
X187763312Y-122618232D01*
X187775572Y-122493750D01*
X187775572Y-121943750D01*
X187763312Y-121819268D01*
X187763155Y-121818750D01*
X187763312Y-121818232D01*
X187775572Y-121693750D01*
X187775572Y-121143750D01*
X187763312Y-121019268D01*
X187763155Y-121018750D01*
X187763312Y-121018232D01*
X187775572Y-120893750D01*
X187775572Y-120343750D01*
X187771538Y-120302788D01*
X187812500Y-120306822D01*
X188362500Y-120306822D01*
X188486982Y-120294562D01*
X188487500Y-120294405D01*
X188488018Y-120294562D01*
X188612500Y-120306822D01*
X189162500Y-120306822D01*
X189286982Y-120294562D01*
X189287500Y-120294405D01*
X189288018Y-120294562D01*
G36*
X182381804Y-124683750D02*
G01*
X182178257Y-124683750D01*
X182201722Y-124639850D01*
X182225944Y-124560000D01*
X182258054Y-124560000D01*
X182381804Y-124683750D01*
X182381804Y-124683750D01*
G37*
X182381804Y-124683750D02*
X182178257Y-124683750D01*
X182201722Y-124639850D01*
X182225944Y-124560000D01*
X182258054Y-124560000D01*
X182381804Y-124683750D01*
G36*
X170727501Y-111076385D02*
G01*
X170723944Y-111112500D01*
X170738135Y-111256585D01*
X170770480Y-111363210D01*
X170780164Y-111395133D01*
X170848414Y-111522820D01*
X170940263Y-111634738D01*
X170968308Y-111657754D01*
X172436976Y-113126423D01*
X172448413Y-113147820D01*
X172540263Y-113259738D01*
X172568308Y-113282754D01*
X173096250Y-113810697D01*
X173096251Y-124393621D01*
X171528018Y-122825388D01*
X171528018Y-118584380D01*
X171962346Y-118150052D01*
X171991422Y-118126190D01*
X172051857Y-118052549D01*
X172086645Y-118010161D01*
X172138136Y-117913827D01*
X172239851Y-117882972D01*
X172393387Y-117800905D01*
X172527962Y-117690462D01*
X172638405Y-117555887D01*
X172720472Y-117402351D01*
X172771008Y-117235755D01*
X172788072Y-117062501D01*
X172788072Y-116537499D01*
X172771008Y-116364245D01*
X172720472Y-116197649D01*
X172638405Y-116044113D01*
X172527962Y-115909538D01*
X172501109Y-115887500D01*
X172527962Y-115865462D01*
X172638405Y-115730887D01*
X172720472Y-115577351D01*
X172771008Y-115410755D01*
X172788072Y-115237501D01*
X172788072Y-114712499D01*
X172771008Y-114539245D01*
X172720472Y-114372649D01*
X172638405Y-114219113D01*
X172527962Y-114084538D01*
X172393387Y-113974095D01*
X172239851Y-113892028D01*
X172073255Y-113841492D01*
X171900001Y-113824428D01*
X171377059Y-113824428D01*
X170624500Y-113071870D01*
X170624500Y-111038072D01*
X170727501Y-111038072D01*
X170727501Y-111076385D01*
X170727501Y-111076385D01*
G37*
X170727501Y-111076385D02*
X170723944Y-111112500D01*
X170738135Y-111256585D01*
X170770480Y-111363210D01*
X170780164Y-111395133D01*
X170848414Y-111522820D01*
X170940263Y-111634738D01*
X170968308Y-111657754D01*
X172436976Y-113126423D01*
X172448413Y-113147820D01*
X172540263Y-113259738D01*
X172568308Y-113282754D01*
X173096250Y-113810697D01*
X173096251Y-124393621D01*
X171528018Y-122825388D01*
X171528018Y-118584380D01*
X171962346Y-118150052D01*
X171991422Y-118126190D01*
X172051857Y-118052549D01*
X172086645Y-118010161D01*
X172138136Y-117913827D01*
X172239851Y-117882972D01*
X172393387Y-117800905D01*
X172527962Y-117690462D01*
X172638405Y-117555887D01*
X172720472Y-117402351D01*
X172771008Y-117235755D01*
X172788072Y-117062501D01*
X172788072Y-116537499D01*
X172771008Y-116364245D01*
X172720472Y-116197649D01*
X172638405Y-116044113D01*
X172527962Y-115909538D01*
X172501109Y-115887500D01*
X172527962Y-115865462D01*
X172638405Y-115730887D01*
X172720472Y-115577351D01*
X172771008Y-115410755D01*
X172788072Y-115237501D01*
X172788072Y-114712499D01*
X172771008Y-114539245D01*
X172720472Y-114372649D01*
X172638405Y-114219113D01*
X172527962Y-114084538D01*
X172393387Y-113974095D01*
X172239851Y-113892028D01*
X172073255Y-113841492D01*
X171900001Y-113824428D01*
X171377059Y-113824428D01*
X170624500Y-113071870D01*
X170624500Y-111038072D01*
X170727501Y-111038072D01*
X170727501Y-111076385D01*
G36*
X200399095Y-121549636D02*
G01*
X200509538Y-121684212D01*
X200644114Y-121794655D01*
X200797650Y-121876722D01*
X200964246Y-121927258D01*
X201137500Y-121944322D01*
X202087500Y-121944322D01*
X202260754Y-121927258D01*
X202427350Y-121876722D01*
X202580886Y-121794655D01*
X202715462Y-121684212D01*
X202785675Y-121598657D01*
X202898102Y-121645226D01*
X203073000Y-121680015D01*
X203073000Y-123883750D01*
X200329447Y-123883750D01*
X199770258Y-123324562D01*
X199747238Y-123296512D01*
X199635320Y-123204663D01*
X199507633Y-123136413D01*
X199369085Y-123094385D01*
X199261105Y-123083750D01*
X199225000Y-123080194D01*
X199188895Y-123083750D01*
X199175572Y-123083750D01*
X199175572Y-122743750D01*
X199163312Y-122619268D01*
X199163155Y-122618750D01*
X199163312Y-122618232D01*
X199175572Y-122493750D01*
X199175572Y-122153750D01*
X199220145Y-122153750D01*
X199256250Y-122157306D01*
X199292355Y-122153750D01*
X199400335Y-122143115D01*
X199538883Y-122101087D01*
X199666570Y-122032837D01*
X199778488Y-121940988D01*
X199801508Y-121912938D01*
X200317487Y-121396959D01*
X200399095Y-121549636D01*
X200399095Y-121549636D01*
G37*
X200399095Y-121549636D02*
X200509538Y-121684212D01*
X200644114Y-121794655D01*
X200797650Y-121876722D01*
X200964246Y-121927258D01*
X201137500Y-121944322D01*
X202087500Y-121944322D01*
X202260754Y-121927258D01*
X202427350Y-121876722D01*
X202580886Y-121794655D01*
X202715462Y-121684212D01*
X202785675Y-121598657D01*
X202898102Y-121645226D01*
X203073000Y-121680015D01*
X203073000Y-123883750D01*
X200329447Y-123883750D01*
X199770258Y-123324562D01*
X199747238Y-123296512D01*
X199635320Y-123204663D01*
X199507633Y-123136413D01*
X199369085Y-123094385D01*
X199261105Y-123083750D01*
X199225000Y-123080194D01*
X199188895Y-123083750D01*
X199175572Y-123083750D01*
X199175572Y-122743750D01*
X199163312Y-122619268D01*
X199163155Y-122618750D01*
X199163312Y-122618232D01*
X199175572Y-122493750D01*
X199175572Y-122153750D01*
X199220145Y-122153750D01*
X199256250Y-122157306D01*
X199292355Y-122153750D01*
X199400335Y-122143115D01*
X199538883Y-122101087D01*
X199666570Y-122032837D01*
X199778488Y-121940988D01*
X199801508Y-121912938D01*
X200317487Y-121396959D01*
X200399095Y-121549636D01*
G36*
X194888018Y-120294562D02*
G01*
X195012500Y-120306822D01*
X195359981Y-120306822D01*
X194164304Y-121502500D01*
X192391947Y-121502500D01*
X191222500Y-120333054D01*
X191222500Y-120306822D01*
X191562500Y-120306822D01*
X191686982Y-120294562D01*
X191687500Y-120294405D01*
X191688018Y-120294562D01*
X191812500Y-120306822D01*
X192362500Y-120306822D01*
X192486982Y-120294562D01*
X192487500Y-120294405D01*
X192488018Y-120294562D01*
X192612500Y-120306822D01*
X193162500Y-120306822D01*
X193286982Y-120294562D01*
X193287500Y-120294405D01*
X193288018Y-120294562D01*
X193412500Y-120306822D01*
X193962500Y-120306822D01*
X194086982Y-120294562D01*
X194087500Y-120294405D01*
X194088018Y-120294562D01*
X194212500Y-120306822D01*
X194762500Y-120306822D01*
X194886982Y-120294562D01*
X194887500Y-120294405D01*
X194888018Y-120294562D01*
X194888018Y-120294562D01*
G37*
X194888018Y-120294562D02*
X195012500Y-120306822D01*
X195359981Y-120306822D01*
X194164304Y-121502500D01*
X192391947Y-121502500D01*
X191222500Y-120333054D01*
X191222500Y-120306822D01*
X191562500Y-120306822D01*
X191686982Y-120294562D01*
X191687500Y-120294405D01*
X191688018Y-120294562D01*
X191812500Y-120306822D01*
X192362500Y-120306822D01*
X192486982Y-120294562D01*
X192487500Y-120294405D01*
X192488018Y-120294562D01*
X192612500Y-120306822D01*
X193162500Y-120306822D01*
X193286982Y-120294562D01*
X193287500Y-120294405D01*
X193288018Y-120294562D01*
X193412500Y-120306822D01*
X193962500Y-120306822D01*
X194086982Y-120294562D01*
X194087500Y-120294405D01*
X194088018Y-120294562D01*
X194212500Y-120306822D01*
X194762500Y-120306822D01*
X194886982Y-120294562D01*
X194887500Y-120294405D01*
X194888018Y-120294562D01*
G36*
X170111928Y-114714558D02*
G01*
X170111928Y-115237501D01*
X170128992Y-115410755D01*
X170179528Y-115577351D01*
X170261595Y-115730887D01*
X170372038Y-115865462D01*
X170398891Y-115887500D01*
X170372038Y-115909538D01*
X170261595Y-116044113D01*
X170179528Y-116197649D01*
X170128992Y-116364245D01*
X170111928Y-116537499D01*
X170111928Y-117062501D01*
X170128992Y-117235755D01*
X170179528Y-117402351D01*
X170261595Y-117555887D01*
X170324546Y-117632592D01*
X170308292Y-117648846D01*
X170287892Y-117632105D01*
X170155515Y-117561348D01*
X170011878Y-117517776D01*
X169899926Y-117506750D01*
X169899925Y-117506750D01*
X169862500Y-117503064D01*
X169825074Y-117506750D01*
X169489669Y-117506750D01*
X169545472Y-117402351D01*
X169596008Y-117235755D01*
X169613072Y-117062501D01*
X169613072Y-116537499D01*
X169596008Y-116364245D01*
X169545472Y-116197649D01*
X169463405Y-116044113D01*
X169352962Y-115909538D01*
X169326109Y-115887500D01*
X169352962Y-115865462D01*
X169463405Y-115730887D01*
X169545472Y-115577351D01*
X169596008Y-115410755D01*
X169613072Y-115237501D01*
X169613072Y-114717773D01*
X169699145Y-114612892D01*
X169769902Y-114480515D01*
X169795034Y-114397665D01*
X170111928Y-114714558D01*
X170111928Y-114714558D01*
G37*
X170111928Y-114714558D02*
X170111928Y-115237501D01*
X170128992Y-115410755D01*
X170179528Y-115577351D01*
X170261595Y-115730887D01*
X170372038Y-115865462D01*
X170398891Y-115887500D01*
X170372038Y-115909538D01*
X170261595Y-116044113D01*
X170179528Y-116197649D01*
X170128992Y-116364245D01*
X170111928Y-116537499D01*
X170111928Y-117062501D01*
X170128992Y-117235755D01*
X170179528Y-117402351D01*
X170261595Y-117555887D01*
X170324546Y-117632592D01*
X170308292Y-117648846D01*
X170287892Y-117632105D01*
X170155515Y-117561348D01*
X170011878Y-117517776D01*
X169899926Y-117506750D01*
X169899925Y-117506750D01*
X169862500Y-117503064D01*
X169825074Y-117506750D01*
X169489669Y-117506750D01*
X169545472Y-117402351D01*
X169596008Y-117235755D01*
X169613072Y-117062501D01*
X169613072Y-116537499D01*
X169596008Y-116364245D01*
X169545472Y-116197649D01*
X169463405Y-116044113D01*
X169352962Y-115909538D01*
X169326109Y-115887500D01*
X169352962Y-115865462D01*
X169463405Y-115730887D01*
X169545472Y-115577351D01*
X169596008Y-115410755D01*
X169613072Y-115237501D01*
X169613072Y-114717773D01*
X169699145Y-114612892D01*
X169769902Y-114480515D01*
X169795034Y-114397665D01*
X170111928Y-114714558D01*
G36*
X181527500Y-115891946D02*
G01*
X181527500Y-115989439D01*
X181567274Y-116189398D01*
X181597638Y-116262702D01*
X181504070Y-116185913D01*
X181422002Y-116142047D01*
X181369655Y-116044113D01*
X181259212Y-115909538D01*
X181232359Y-115887500D01*
X181259212Y-115865462D01*
X181368206Y-115732652D01*
X181527500Y-115891946D01*
X181527500Y-115891946D01*
G37*
X181527500Y-115891946D02*
X181527500Y-115989439D01*
X181567274Y-116189398D01*
X181597638Y-116262702D01*
X181504070Y-116185913D01*
X181422002Y-116142047D01*
X181369655Y-116044113D01*
X181259212Y-115909538D01*
X181232359Y-115887500D01*
X181259212Y-115865462D01*
X181368206Y-115732652D01*
X181527500Y-115891946D01*
G36*
X188150501Y-111751169D02*
G01*
X188146814Y-111788602D01*
X188161527Y-111937980D01*
X188205099Y-112081617D01*
X188275855Y-112213994D01*
X188347221Y-112300953D01*
X188371079Y-112330024D01*
X188400149Y-112353881D01*
X190064868Y-114018601D01*
X190088726Y-114047672D01*
X190204756Y-114142895D01*
X190337133Y-114213652D01*
X190480770Y-114257224D01*
X190525500Y-114261629D01*
X190525500Y-115539318D01*
X187356750Y-112370568D01*
X187356750Y-112346029D01*
X187499636Y-112269655D01*
X187634212Y-112159212D01*
X187744655Y-112024636D01*
X187826722Y-111871100D01*
X187877258Y-111704504D01*
X187894322Y-111531250D01*
X187894322Y-111031250D01*
X187877258Y-110857996D01*
X187826722Y-110691400D01*
X187744655Y-110537864D01*
X187634212Y-110403288D01*
X187546433Y-110331250D01*
X187634212Y-110259212D01*
X187729379Y-110143250D01*
X188150500Y-110143250D01*
X188150501Y-111751169D01*
X188150501Y-111751169D01*
G37*
X188150501Y-111751169D02*
X188146814Y-111788602D01*
X188161527Y-111937980D01*
X188205099Y-112081617D01*
X188275855Y-112213994D01*
X188347221Y-112300953D01*
X188371079Y-112330024D01*
X188400149Y-112353881D01*
X190064868Y-114018601D01*
X190088726Y-114047672D01*
X190204756Y-114142895D01*
X190337133Y-114213652D01*
X190480770Y-114257224D01*
X190525500Y-114261629D01*
X190525500Y-115539318D01*
X187356750Y-112370568D01*
X187356750Y-112346029D01*
X187499636Y-112269655D01*
X187634212Y-112159212D01*
X187744655Y-112024636D01*
X187826722Y-111871100D01*
X187877258Y-111704504D01*
X187894322Y-111531250D01*
X187894322Y-111031250D01*
X187877258Y-110857996D01*
X187826722Y-110691400D01*
X187744655Y-110537864D01*
X187634212Y-110403288D01*
X187546433Y-110331250D01*
X187634212Y-110259212D01*
X187729379Y-110143250D01*
X188150500Y-110143250D01*
X188150501Y-111751169D01*
G36*
X191339256Y-112311787D02*
G01*
X191449570Y-112370752D01*
X191569268Y-112407062D01*
X191631751Y-112413216D01*
X191631751Y-112822893D01*
X191586765Y-112798848D01*
X191443128Y-112755276D01*
X191331176Y-112744250D01*
X191331173Y-112744250D01*
X191293750Y-112740564D01*
X191256327Y-112744250D01*
X190945779Y-112744250D01*
X190620851Y-112419322D01*
X190893750Y-112419322D01*
X191018232Y-112407062D01*
X191137930Y-112370752D01*
X191248244Y-112311787D01*
X191293750Y-112274441D01*
X191339256Y-112311787D01*
X191339256Y-112311787D01*
G37*
X191339256Y-112311787D02*
X191449570Y-112370752D01*
X191569268Y-112407062D01*
X191631751Y-112413216D01*
X191631751Y-112822893D01*
X191586765Y-112798848D01*
X191443128Y-112755276D01*
X191331176Y-112744250D01*
X191331173Y-112744250D01*
X191293750Y-112740564D01*
X191256327Y-112744250D01*
X190945779Y-112744250D01*
X190620851Y-112419322D01*
X190893750Y-112419322D01*
X191018232Y-112407062D01*
X191137930Y-112370752D01*
X191248244Y-112311787D01*
X191293750Y-112274441D01*
X191339256Y-112311787D01*
G36*
X167422998Y-110644180D02*
G01*
X167481963Y-110754494D01*
X167526631Y-110808922D01*
X167151804Y-111183750D01*
X166723604Y-111183750D01*
X166693812Y-111180816D01*
X166783533Y-111153599D01*
X167041513Y-111015706D01*
X167267634Y-110830134D01*
X167422254Y-110641729D01*
X167422998Y-110644180D01*
X167422998Y-110644180D01*
G37*
X167422998Y-110644180D02*
X167481963Y-110754494D01*
X167526631Y-110808922D01*
X167151804Y-111183750D01*
X166723604Y-111183750D01*
X166693812Y-111180816D01*
X166783533Y-111153599D01*
X167041513Y-111015706D01*
X167267634Y-110830134D01*
X167422254Y-110641729D01*
X167422998Y-110644180D01*
G36*
X195041067Y-110331250D02*
G01*
X194953288Y-110403288D01*
X194858121Y-110519250D01*
X193725716Y-110519250D01*
X193719562Y-110456768D01*
X193683252Y-110337070D01*
X193680141Y-110331250D01*
X193683252Y-110325430D01*
X193688919Y-110306750D01*
X195011214Y-110306750D01*
X195041067Y-110331250D01*
X195041067Y-110331250D01*
G37*
X195041067Y-110331250D02*
X194953288Y-110403288D01*
X194858121Y-110519250D01*
X193725716Y-110519250D01*
X193719562Y-110456768D01*
X193683252Y-110337070D01*
X193680141Y-110331250D01*
X193683252Y-110325430D01*
X193688919Y-110306750D01*
X195011214Y-110306750D01*
X195041067Y-110331250D01*
M02*
