G04 #@! TF.GenerationSoftware,KiCad,Pcbnew,(5.1.4-0-10_14)*
G04 #@! TF.CreationDate,2021-05-05T22:13:24+08:00*
G04 #@! TF.ProjectId,pcb-project,7063622d-7072-46f6-9a65-63742e6b6963,rev?*
G04 #@! TF.SameCoordinates,Original*
G04 #@! TF.FileFunction,Soldermask,Top*
G04 #@! TF.FilePolarity,Negative*
%FSLAX46Y46*%
G04 Gerber Fmt 4.6, Leading zero omitted, Abs format (unit mm)*
G04 Created by KiCad (PCBNEW (5.1.4-0-10_14)) date 2021-05-05 22:13:24*
%MOMM*%
%LPD*%
G04 APERTURE LIST*
%ADD10C,0.100000*%
G04 APERTURE END LIST*
D10*
G36*
X232371474Y-129796184D02*
G01*
X232589474Y-129886483D01*
X232743623Y-129950333D01*
X233078548Y-130174123D01*
X233363377Y-130458952D01*
X233587167Y-130793877D01*
X233619562Y-130872086D01*
X233741316Y-131166026D01*
X233819900Y-131561094D01*
X233819900Y-131963906D01*
X233741316Y-132358974D01*
X233690451Y-132481772D01*
X233587167Y-132731123D01*
X233363377Y-133066048D01*
X233078548Y-133350877D01*
X232743623Y-133574667D01*
X232589474Y-133638517D01*
X232371474Y-133728816D01*
X231976406Y-133807400D01*
X231573594Y-133807400D01*
X231178526Y-133728816D01*
X230960526Y-133638517D01*
X230806377Y-133574667D01*
X230471452Y-133350877D01*
X230186623Y-133066048D01*
X229962833Y-132731123D01*
X229859549Y-132481772D01*
X229808684Y-132358974D01*
X229730100Y-131963906D01*
X229730100Y-131561094D01*
X229808684Y-131166026D01*
X229930438Y-130872086D01*
X229962833Y-130793877D01*
X230186623Y-130458952D01*
X230471452Y-130174123D01*
X230806377Y-129950333D01*
X230960526Y-129886483D01*
X231178526Y-129796184D01*
X231573594Y-129717600D01*
X231976406Y-129717600D01*
X232371474Y-129796184D01*
X232371474Y-129796184D01*
G37*
G36*
X213321474Y-129796184D02*
G01*
X213539474Y-129886483D01*
X213693623Y-129950333D01*
X214028548Y-130174123D01*
X214313377Y-130458952D01*
X214537167Y-130793877D01*
X214569562Y-130872086D01*
X214691316Y-131166026D01*
X214769900Y-131561094D01*
X214769900Y-131963906D01*
X214691316Y-132358974D01*
X214640451Y-132481772D01*
X214537167Y-132731123D01*
X214313377Y-133066048D01*
X214028548Y-133350877D01*
X213693623Y-133574667D01*
X213539474Y-133638517D01*
X213321474Y-133728816D01*
X212926406Y-133807400D01*
X212523594Y-133807400D01*
X212128526Y-133728816D01*
X211910526Y-133638517D01*
X211756377Y-133574667D01*
X211421452Y-133350877D01*
X211136623Y-133066048D01*
X210912833Y-132731123D01*
X210809549Y-132481772D01*
X210758684Y-132358974D01*
X210680100Y-131963906D01*
X210680100Y-131561094D01*
X210758684Y-131166026D01*
X210880438Y-130872086D01*
X210912833Y-130793877D01*
X211136623Y-130458952D01*
X211421452Y-130174123D01*
X211756377Y-129950333D01*
X211910526Y-129886483D01*
X212128526Y-129796184D01*
X212523594Y-129717600D01*
X212926406Y-129717600D01*
X213321474Y-129796184D01*
X213321474Y-129796184D01*
G37*
G36*
X237125104Y-130872085D02*
G01*
X237293626Y-130941889D01*
X237445291Y-131043228D01*
X237574272Y-131172209D01*
X237675611Y-131323874D01*
X237745415Y-131492396D01*
X237781000Y-131671297D01*
X237781000Y-131853703D01*
X237745415Y-132032604D01*
X237675611Y-132201126D01*
X237574272Y-132352791D01*
X237445291Y-132481772D01*
X237293626Y-132583111D01*
X237125104Y-132652915D01*
X236946203Y-132688500D01*
X236763797Y-132688500D01*
X236584896Y-132652915D01*
X236416374Y-132583111D01*
X236264709Y-132481772D01*
X236135728Y-132352791D01*
X236034389Y-132201126D01*
X235964585Y-132032604D01*
X235929000Y-131853703D01*
X235929000Y-131671297D01*
X235964585Y-131492396D01*
X236034389Y-131323874D01*
X236135728Y-131172209D01*
X236264709Y-131043228D01*
X236416374Y-130941889D01*
X236584896Y-130872085D01*
X236763797Y-130836500D01*
X236946203Y-130836500D01*
X237125104Y-130872085D01*
X237125104Y-130872085D01*
G37*
G36*
X226965104Y-130872085D02*
G01*
X227133626Y-130941889D01*
X227285291Y-131043228D01*
X227414272Y-131172209D01*
X227515611Y-131323874D01*
X227585415Y-131492396D01*
X227621000Y-131671297D01*
X227621000Y-131853703D01*
X227585415Y-132032604D01*
X227515611Y-132201126D01*
X227414272Y-132352791D01*
X227285291Y-132481772D01*
X227133626Y-132583111D01*
X226965104Y-132652915D01*
X226786203Y-132688500D01*
X226603797Y-132688500D01*
X226424896Y-132652915D01*
X226256374Y-132583111D01*
X226104709Y-132481772D01*
X225975728Y-132352791D01*
X225874389Y-132201126D01*
X225804585Y-132032604D01*
X225769000Y-131853703D01*
X225769000Y-131671297D01*
X225804585Y-131492396D01*
X225874389Y-131323874D01*
X225975728Y-131172209D01*
X226104709Y-131043228D01*
X226256374Y-130941889D01*
X226424896Y-130872085D01*
X226603797Y-130836500D01*
X226786203Y-130836500D01*
X226965104Y-130872085D01*
X226965104Y-130872085D01*
G37*
G36*
X218075104Y-130872085D02*
G01*
X218243626Y-130941889D01*
X218395291Y-131043228D01*
X218524272Y-131172209D01*
X218625611Y-131323874D01*
X218695415Y-131492396D01*
X218731000Y-131671297D01*
X218731000Y-131853703D01*
X218695415Y-132032604D01*
X218625611Y-132201126D01*
X218524272Y-132352791D01*
X218395291Y-132481772D01*
X218243626Y-132583111D01*
X218075104Y-132652915D01*
X217896203Y-132688500D01*
X217713797Y-132688500D01*
X217534896Y-132652915D01*
X217366374Y-132583111D01*
X217214709Y-132481772D01*
X217085728Y-132352791D01*
X216984389Y-132201126D01*
X216914585Y-132032604D01*
X216879000Y-131853703D01*
X216879000Y-131671297D01*
X216914585Y-131492396D01*
X216984389Y-131323874D01*
X217085728Y-131172209D01*
X217214709Y-131043228D01*
X217366374Y-130941889D01*
X217534896Y-130872085D01*
X217713797Y-130836500D01*
X217896203Y-130836500D01*
X218075104Y-130872085D01*
X218075104Y-130872085D01*
G37*
G36*
X207915104Y-130872085D02*
G01*
X208083626Y-130941889D01*
X208235291Y-131043228D01*
X208364272Y-131172209D01*
X208465611Y-131323874D01*
X208535415Y-131492396D01*
X208571000Y-131671297D01*
X208571000Y-131853703D01*
X208535415Y-132032604D01*
X208465611Y-132201126D01*
X208364272Y-132352791D01*
X208235291Y-132481772D01*
X208083626Y-132583111D01*
X207915104Y-132652915D01*
X207736203Y-132688500D01*
X207553797Y-132688500D01*
X207374896Y-132652915D01*
X207206374Y-132583111D01*
X207054709Y-132481772D01*
X206925728Y-132352791D01*
X206824389Y-132201126D01*
X206754585Y-132032604D01*
X206719000Y-131853703D01*
X206719000Y-131671297D01*
X206754585Y-131492396D01*
X206824389Y-131323874D01*
X206925728Y-131172209D01*
X207054709Y-131043228D01*
X207206374Y-130941889D01*
X207374896Y-130872085D01*
X207553797Y-130836500D01*
X207736203Y-130836500D01*
X207915104Y-130872085D01*
X207915104Y-130872085D01*
G37*
G36*
X213321474Y-110746184D02*
G01*
X213539474Y-110836483D01*
X213693623Y-110900333D01*
X214028548Y-111124123D01*
X214313377Y-111408952D01*
X214537167Y-111743877D01*
X214569562Y-111822086D01*
X214691316Y-112116026D01*
X214769900Y-112511094D01*
X214769900Y-112913906D01*
X214691316Y-113308974D01*
X214640451Y-113431772D01*
X214537167Y-113681123D01*
X214313377Y-114016048D01*
X214028548Y-114300877D01*
X213693623Y-114524667D01*
X213539474Y-114588517D01*
X213321474Y-114678816D01*
X212926406Y-114757400D01*
X212523594Y-114757400D01*
X212128526Y-114678816D01*
X211910526Y-114588517D01*
X211756377Y-114524667D01*
X211421452Y-114300877D01*
X211136623Y-114016048D01*
X210912833Y-113681123D01*
X210809549Y-113431772D01*
X210758684Y-113308974D01*
X210680100Y-112913906D01*
X210680100Y-112511094D01*
X210758684Y-112116026D01*
X210880438Y-111822086D01*
X210912833Y-111743877D01*
X211136623Y-111408952D01*
X211421452Y-111124123D01*
X211756377Y-110900333D01*
X211910526Y-110836483D01*
X212128526Y-110746184D01*
X212523594Y-110667600D01*
X212926406Y-110667600D01*
X213321474Y-110746184D01*
X213321474Y-110746184D01*
G37*
G36*
X232371474Y-110746184D02*
G01*
X232589474Y-110836483D01*
X232743623Y-110900333D01*
X233078548Y-111124123D01*
X233363377Y-111408952D01*
X233587167Y-111743877D01*
X233619562Y-111822086D01*
X233741316Y-112116026D01*
X233819900Y-112511094D01*
X233819900Y-112913906D01*
X233741316Y-113308974D01*
X233690451Y-113431772D01*
X233587167Y-113681123D01*
X233363377Y-114016048D01*
X233078548Y-114300877D01*
X232743623Y-114524667D01*
X232589474Y-114588517D01*
X232371474Y-114678816D01*
X231976406Y-114757400D01*
X231573594Y-114757400D01*
X231178526Y-114678816D01*
X230960526Y-114588517D01*
X230806377Y-114524667D01*
X230471452Y-114300877D01*
X230186623Y-114016048D01*
X229962833Y-113681123D01*
X229859549Y-113431772D01*
X229808684Y-113308974D01*
X229730100Y-112913906D01*
X229730100Y-112511094D01*
X229808684Y-112116026D01*
X229930438Y-111822086D01*
X229962833Y-111743877D01*
X230186623Y-111408952D01*
X230471452Y-111124123D01*
X230806377Y-110900333D01*
X230960526Y-110836483D01*
X231178526Y-110746184D01*
X231573594Y-110667600D01*
X231976406Y-110667600D01*
X232371474Y-110746184D01*
X232371474Y-110746184D01*
G37*
G36*
X207915104Y-111822085D02*
G01*
X208083626Y-111891889D01*
X208235291Y-111993228D01*
X208364272Y-112122209D01*
X208465611Y-112273874D01*
X208535415Y-112442396D01*
X208571000Y-112621297D01*
X208571000Y-112803703D01*
X208535415Y-112982604D01*
X208465611Y-113151126D01*
X208364272Y-113302791D01*
X208235291Y-113431772D01*
X208083626Y-113533111D01*
X207915104Y-113602915D01*
X207736203Y-113638500D01*
X207553797Y-113638500D01*
X207374896Y-113602915D01*
X207206374Y-113533111D01*
X207054709Y-113431772D01*
X206925728Y-113302791D01*
X206824389Y-113151126D01*
X206754585Y-112982604D01*
X206719000Y-112803703D01*
X206719000Y-112621297D01*
X206754585Y-112442396D01*
X206824389Y-112273874D01*
X206925728Y-112122209D01*
X207054709Y-111993228D01*
X207206374Y-111891889D01*
X207374896Y-111822085D01*
X207553797Y-111786500D01*
X207736203Y-111786500D01*
X207915104Y-111822085D01*
X207915104Y-111822085D01*
G37*
G36*
X218075104Y-111822085D02*
G01*
X218243626Y-111891889D01*
X218395291Y-111993228D01*
X218524272Y-112122209D01*
X218625611Y-112273874D01*
X218695415Y-112442396D01*
X218731000Y-112621297D01*
X218731000Y-112803703D01*
X218695415Y-112982604D01*
X218625611Y-113151126D01*
X218524272Y-113302791D01*
X218395291Y-113431772D01*
X218243626Y-113533111D01*
X218075104Y-113602915D01*
X217896203Y-113638500D01*
X217713797Y-113638500D01*
X217534896Y-113602915D01*
X217366374Y-113533111D01*
X217214709Y-113431772D01*
X217085728Y-113302791D01*
X216984389Y-113151126D01*
X216914585Y-112982604D01*
X216879000Y-112803703D01*
X216879000Y-112621297D01*
X216914585Y-112442396D01*
X216984389Y-112273874D01*
X217085728Y-112122209D01*
X217214709Y-111993228D01*
X217366374Y-111891889D01*
X217534896Y-111822085D01*
X217713797Y-111786500D01*
X217896203Y-111786500D01*
X218075104Y-111822085D01*
X218075104Y-111822085D01*
G37*
G36*
X226965104Y-111822085D02*
G01*
X227133626Y-111891889D01*
X227285291Y-111993228D01*
X227414272Y-112122209D01*
X227515611Y-112273874D01*
X227585415Y-112442396D01*
X227621000Y-112621297D01*
X227621000Y-112803703D01*
X227585415Y-112982604D01*
X227515611Y-113151126D01*
X227414272Y-113302791D01*
X227285291Y-113431772D01*
X227133626Y-113533111D01*
X226965104Y-113602915D01*
X226786203Y-113638500D01*
X226603797Y-113638500D01*
X226424896Y-113602915D01*
X226256374Y-113533111D01*
X226104709Y-113431772D01*
X225975728Y-113302791D01*
X225874389Y-113151126D01*
X225804585Y-112982604D01*
X225769000Y-112803703D01*
X225769000Y-112621297D01*
X225804585Y-112442396D01*
X225874389Y-112273874D01*
X225975728Y-112122209D01*
X226104709Y-111993228D01*
X226256374Y-111891889D01*
X226424896Y-111822085D01*
X226603797Y-111786500D01*
X226786203Y-111786500D01*
X226965104Y-111822085D01*
X226965104Y-111822085D01*
G37*
G36*
X237125104Y-111822085D02*
G01*
X237293626Y-111891889D01*
X237445291Y-111993228D01*
X237574272Y-112122209D01*
X237675611Y-112273874D01*
X237745415Y-112442396D01*
X237781000Y-112621297D01*
X237781000Y-112803703D01*
X237745415Y-112982604D01*
X237675611Y-113151126D01*
X237574272Y-113302791D01*
X237445291Y-113431772D01*
X237293626Y-113533111D01*
X237125104Y-113602915D01*
X236946203Y-113638500D01*
X236763797Y-113638500D01*
X236584896Y-113602915D01*
X236416374Y-113533111D01*
X236264709Y-113431772D01*
X236135728Y-113302791D01*
X236034389Y-113151126D01*
X235964585Y-112982604D01*
X235929000Y-112803703D01*
X235929000Y-112621297D01*
X235964585Y-112442396D01*
X236034389Y-112273874D01*
X236135728Y-112122209D01*
X236264709Y-111993228D01*
X236416374Y-111891889D01*
X236584896Y-111822085D01*
X236763797Y-111786500D01*
X236946203Y-111786500D01*
X237125104Y-111822085D01*
X237125104Y-111822085D01*
G37*
G36*
X173689127Y-107887037D02*
G01*
X173858966Y-107938557D01*
X174015491Y-108022222D01*
X174051229Y-108051552D01*
X174152686Y-108134814D01*
X174235948Y-108236271D01*
X174265278Y-108272009D01*
X174348943Y-108428534D01*
X174400463Y-108598373D01*
X174413500Y-108730742D01*
X174413500Y-109819258D01*
X174400463Y-109951627D01*
X174348943Y-110121466D01*
X174265278Y-110277991D01*
X174235948Y-110313729D01*
X174152686Y-110415186D01*
X174015489Y-110527779D01*
X173858967Y-110611442D01*
X173858965Y-110611443D01*
X173689126Y-110662963D01*
X173512500Y-110680359D01*
X173335873Y-110662963D01*
X173166034Y-110611443D01*
X173009509Y-110527778D01*
X172973771Y-110498448D01*
X172872314Y-110415186D01*
X172759721Y-110277989D01*
X172676058Y-110121467D01*
X172676057Y-110121465D01*
X172624537Y-109951626D01*
X172611500Y-109819257D01*
X172611501Y-108730742D01*
X172624538Y-108598373D01*
X172676058Y-108428534D01*
X172759723Y-108272009D01*
X172789053Y-108236271D01*
X172872315Y-108134814D01*
X172973772Y-108051552D01*
X173009510Y-108022222D01*
X173166035Y-107938557D01*
X173335874Y-107887037D01*
X173512500Y-107869641D01*
X173689127Y-107887037D01*
X173689127Y-107887037D01*
G37*
G36*
X166389127Y-107887037D02*
G01*
X166558966Y-107938557D01*
X166715491Y-108022222D01*
X166751229Y-108051552D01*
X166852686Y-108134814D01*
X166935948Y-108236271D01*
X166965278Y-108272009D01*
X167048943Y-108428534D01*
X167100463Y-108598373D01*
X167113500Y-108730742D01*
X167113500Y-109819258D01*
X167100463Y-109951627D01*
X167048943Y-110121466D01*
X166965278Y-110277991D01*
X166935948Y-110313729D01*
X166852686Y-110415186D01*
X166715489Y-110527779D01*
X166558967Y-110611442D01*
X166558965Y-110611443D01*
X166389126Y-110662963D01*
X166212500Y-110680359D01*
X166035873Y-110662963D01*
X165866034Y-110611443D01*
X165709509Y-110527778D01*
X165673771Y-110498448D01*
X165572314Y-110415186D01*
X165459721Y-110277989D01*
X165376058Y-110121467D01*
X165376057Y-110121465D01*
X165324537Y-109951626D01*
X165311500Y-109819257D01*
X165311501Y-108730742D01*
X165324538Y-108598373D01*
X165376058Y-108428534D01*
X165459723Y-108272009D01*
X165489053Y-108236271D01*
X165572315Y-108134814D01*
X165673772Y-108051552D01*
X165709510Y-108022222D01*
X165866035Y-107938557D01*
X166035874Y-107887037D01*
X166212500Y-107869641D01*
X166389127Y-107887037D01*
X166389127Y-107887037D01*
G37*
G36*
X166389127Y-103387037D02*
G01*
X166558966Y-103438557D01*
X166715491Y-103522222D01*
X166751229Y-103551552D01*
X166852686Y-103634814D01*
X166935948Y-103736271D01*
X166965278Y-103772009D01*
X167048943Y-103928534D01*
X167100463Y-104098373D01*
X167113500Y-104230742D01*
X167113500Y-105319258D01*
X167100463Y-105451627D01*
X167048943Y-105621466D01*
X166965278Y-105777991D01*
X166935948Y-105813729D01*
X166852686Y-105915186D01*
X166715489Y-106027779D01*
X166558967Y-106111442D01*
X166558965Y-106111443D01*
X166389126Y-106162963D01*
X166212500Y-106180359D01*
X166035873Y-106162963D01*
X165866034Y-106111443D01*
X165709509Y-106027778D01*
X165673771Y-105998448D01*
X165572314Y-105915186D01*
X165459721Y-105777989D01*
X165376058Y-105621467D01*
X165376057Y-105621465D01*
X165324537Y-105451626D01*
X165311500Y-105319257D01*
X165311501Y-104230742D01*
X165324538Y-104098373D01*
X165376058Y-103928534D01*
X165459723Y-103772009D01*
X165489053Y-103736271D01*
X165572315Y-103634814D01*
X165673772Y-103551552D01*
X165709510Y-103522222D01*
X165866035Y-103438557D01*
X166035874Y-103387037D01*
X166212500Y-103369641D01*
X166389127Y-103387037D01*
X166389127Y-103387037D01*
G37*
G36*
X173689127Y-103387037D02*
G01*
X173858966Y-103438557D01*
X174015491Y-103522222D01*
X174051229Y-103551552D01*
X174152686Y-103634814D01*
X174235948Y-103736271D01*
X174265278Y-103772009D01*
X174348943Y-103928534D01*
X174400463Y-104098373D01*
X174413500Y-104230742D01*
X174413500Y-105319258D01*
X174400463Y-105451627D01*
X174348943Y-105621466D01*
X174265278Y-105777991D01*
X174235948Y-105813729D01*
X174152686Y-105915186D01*
X174015489Y-106027779D01*
X173858967Y-106111442D01*
X173858965Y-106111443D01*
X173689126Y-106162963D01*
X173512500Y-106180359D01*
X173335873Y-106162963D01*
X173166034Y-106111443D01*
X173009509Y-106027778D01*
X172973771Y-105998448D01*
X172872314Y-105915186D01*
X172759721Y-105777989D01*
X172676058Y-105621467D01*
X172676057Y-105621465D01*
X172624537Y-105451626D01*
X172611500Y-105319257D01*
X172611501Y-104230742D01*
X172624538Y-104098373D01*
X172676058Y-103928534D01*
X172759723Y-103772009D01*
X172789053Y-103736271D01*
X172872315Y-103634814D01*
X172973772Y-103551552D01*
X173009510Y-103522222D01*
X173166035Y-103438557D01*
X173335874Y-103387037D01*
X173512500Y-103369641D01*
X173689127Y-103387037D01*
X173689127Y-103387037D01*
G37*
M02*
