G04 #@! TF.GenerationSoftware,KiCad,Pcbnew,(5.1.4-0-10_14)*
G04 #@! TF.CreationDate,2021-05-05T22:13:24+08:00*
G04 #@! TF.ProjectId,pcb-project,7063622d-7072-46f6-9a65-63742e6b6963,rev?*
G04 #@! TF.SameCoordinates,Original*
G04 #@! TF.FileFunction,Soldermask,Bot*
G04 #@! TF.FilePolarity,Negative*
%FSLAX46Y46*%
G04 Gerber Fmt 4.6, Leading zero omitted, Abs format (unit mm)*
G04 Created by KiCad (PCBNEW (5.1.4-0-10_14)) date 2021-05-05 22:13:24*
%MOMM*%
%LPD*%
G04 APERTURE LIST*
%ADD10C,0.100000*%
G04 APERTURE END LIST*
D10*
G36*
X173913500Y-138182250D02*
G01*
X172011500Y-138182250D01*
X172011500Y-136980250D01*
X173913500Y-136980250D01*
X173913500Y-138182250D01*
X173913500Y-138182250D01*
G37*
G36*
X167713500Y-138182250D02*
G01*
X165811500Y-138182250D01*
X165811500Y-136980250D01*
X167713500Y-136980250D01*
X167713500Y-138182250D01*
X167713500Y-138182250D01*
G37*
G36*
X198179434Y-133372436D02*
G01*
X198219284Y-133384524D01*
X198255999Y-133404149D01*
X198288186Y-133430564D01*
X198314601Y-133462751D01*
X198334226Y-133499466D01*
X198346314Y-133539316D01*
X198351000Y-133586891D01*
X198351000Y-134700609D01*
X198346314Y-134748184D01*
X198334226Y-134788034D01*
X198314601Y-134824749D01*
X198288186Y-134856936D01*
X198255999Y-134883351D01*
X198219284Y-134902976D01*
X198179434Y-134915064D01*
X198131859Y-134919750D01*
X197468141Y-134919750D01*
X197420566Y-134915064D01*
X197380716Y-134902976D01*
X197344001Y-134883351D01*
X197311814Y-134856936D01*
X197285399Y-134824749D01*
X197265774Y-134788034D01*
X197253686Y-134748184D01*
X197249000Y-134700609D01*
X197249000Y-133586891D01*
X197253686Y-133539316D01*
X197265774Y-133499466D01*
X197285399Y-133462751D01*
X197311814Y-133430564D01*
X197344001Y-133404149D01*
X197380716Y-133384524D01*
X197420566Y-133372436D01*
X197468141Y-133367750D01*
X198131859Y-133367750D01*
X198179434Y-133372436D01*
X198179434Y-133372436D01*
G37*
G36*
X196279434Y-133372436D02*
G01*
X196319284Y-133384524D01*
X196355999Y-133404149D01*
X196388186Y-133430564D01*
X196414601Y-133462751D01*
X196434226Y-133499466D01*
X196446314Y-133539316D01*
X196451000Y-133586891D01*
X196451000Y-134700609D01*
X196446314Y-134748184D01*
X196434226Y-134788034D01*
X196414601Y-134824749D01*
X196388186Y-134856936D01*
X196355999Y-134883351D01*
X196319284Y-134902976D01*
X196279434Y-134915064D01*
X196231859Y-134919750D01*
X195568141Y-134919750D01*
X195520566Y-134915064D01*
X195480716Y-134902976D01*
X195444001Y-134883351D01*
X195411814Y-134856936D01*
X195385399Y-134824749D01*
X195365774Y-134788034D01*
X195353686Y-134748184D01*
X195349000Y-134700609D01*
X195349000Y-133586891D01*
X195353686Y-133539316D01*
X195365774Y-133499466D01*
X195385399Y-133462751D01*
X195411814Y-133430564D01*
X195444001Y-133404149D01*
X195480716Y-133384524D01*
X195520566Y-133372436D01*
X195568141Y-133367750D01*
X196231859Y-133367750D01*
X196279434Y-133372436D01*
X196279434Y-133372436D01*
G37*
G36*
X173913500Y-134482250D02*
G01*
X172011500Y-134482250D01*
X172011500Y-133280250D01*
X173913500Y-133280250D01*
X173913500Y-134482250D01*
X173913500Y-134482250D01*
G37*
G36*
X167713500Y-134482250D02*
G01*
X165811500Y-134482250D01*
X165811500Y-133280250D01*
X167713500Y-133280250D01*
X167713500Y-134482250D01*
X167713500Y-134482250D01*
G37*
G36*
X240363500Y-133913500D02*
G01*
X239061500Y-133913500D01*
X239061500Y-132911500D01*
X240363500Y-132911500D01*
X240363500Y-133913500D01*
X240363500Y-133913500D01*
G37*
G36*
X221313500Y-133913500D02*
G01*
X220011500Y-133913500D01*
X220011500Y-132911500D01*
X221313500Y-132911500D01*
X221313500Y-133913500D01*
X221313500Y-133913500D01*
G37*
G36*
X232371474Y-129796184D02*
G01*
X232527089Y-129860642D01*
X232743623Y-129950333D01*
X233078548Y-130174123D01*
X233363377Y-130458952D01*
X233587167Y-130793877D01*
X233619562Y-130872086D01*
X233741316Y-131166026D01*
X233819900Y-131561094D01*
X233819900Y-131963906D01*
X233741316Y-132358974D01*
X233690451Y-132481772D01*
X233587167Y-132731123D01*
X233363377Y-133066048D01*
X233078548Y-133350877D01*
X232743623Y-133574667D01*
X232589474Y-133638517D01*
X232371474Y-133728816D01*
X231976406Y-133807400D01*
X231573594Y-133807400D01*
X231178526Y-133728816D01*
X230960526Y-133638517D01*
X230806377Y-133574667D01*
X230471452Y-133350877D01*
X230186623Y-133066048D01*
X229962833Y-132731123D01*
X229859549Y-132481772D01*
X229808684Y-132358974D01*
X229730100Y-131963906D01*
X229730100Y-131561094D01*
X229808684Y-131166026D01*
X229930438Y-130872086D01*
X229962833Y-130793877D01*
X230186623Y-130458952D01*
X230471452Y-130174123D01*
X230806377Y-129950333D01*
X231022911Y-129860642D01*
X231178526Y-129796184D01*
X231573594Y-129717600D01*
X231976406Y-129717600D01*
X232371474Y-129796184D01*
X232371474Y-129796184D01*
G37*
G36*
X213321474Y-129796184D02*
G01*
X213477089Y-129860642D01*
X213693623Y-129950333D01*
X214028548Y-130174123D01*
X214313377Y-130458952D01*
X214537167Y-130793877D01*
X214569562Y-130872086D01*
X214691316Y-131166026D01*
X214769900Y-131561094D01*
X214769900Y-131963906D01*
X214691316Y-132358974D01*
X214640451Y-132481772D01*
X214537167Y-132731123D01*
X214313377Y-133066048D01*
X214028548Y-133350877D01*
X213693623Y-133574667D01*
X213539474Y-133638517D01*
X213321474Y-133728816D01*
X212926406Y-133807400D01*
X212523594Y-133807400D01*
X212128526Y-133728816D01*
X211910526Y-133638517D01*
X211756377Y-133574667D01*
X211421452Y-133350877D01*
X211136623Y-133066048D01*
X210912833Y-132731123D01*
X210809549Y-132481772D01*
X210758684Y-132358974D01*
X210680100Y-131963906D01*
X210680100Y-131561094D01*
X210758684Y-131166026D01*
X210880438Y-130872086D01*
X210912833Y-130793877D01*
X211136623Y-130458952D01*
X211421452Y-130174123D01*
X211756377Y-129950333D01*
X211972911Y-129860642D01*
X212128526Y-129796184D01*
X212523594Y-129717600D01*
X212926406Y-129717600D01*
X213321474Y-129796184D01*
X213321474Y-129796184D01*
G37*
G36*
X237125104Y-130872085D02*
G01*
X237293626Y-130941889D01*
X237445291Y-131043228D01*
X237574272Y-131172209D01*
X237675611Y-131323874D01*
X237745415Y-131492396D01*
X237781000Y-131671297D01*
X237781000Y-131853703D01*
X237745415Y-132032604D01*
X237675611Y-132201126D01*
X237574272Y-132352791D01*
X237445291Y-132481772D01*
X237293626Y-132583111D01*
X237125104Y-132652915D01*
X236946203Y-132688500D01*
X236763797Y-132688500D01*
X236584896Y-132652915D01*
X236416374Y-132583111D01*
X236264709Y-132481772D01*
X236135728Y-132352791D01*
X236034389Y-132201126D01*
X235964585Y-132032604D01*
X235929000Y-131853703D01*
X235929000Y-131671297D01*
X235964585Y-131492396D01*
X236034389Y-131323874D01*
X236135728Y-131172209D01*
X236264709Y-131043228D01*
X236416374Y-130941889D01*
X236584896Y-130872085D01*
X236763797Y-130836500D01*
X236946203Y-130836500D01*
X237125104Y-130872085D01*
X237125104Y-130872085D01*
G37*
G36*
X226965104Y-130872085D02*
G01*
X227133626Y-130941889D01*
X227285291Y-131043228D01*
X227414272Y-131172209D01*
X227515611Y-131323874D01*
X227585415Y-131492396D01*
X227621000Y-131671297D01*
X227621000Y-131853703D01*
X227585415Y-132032604D01*
X227515611Y-132201126D01*
X227414272Y-132352791D01*
X227285291Y-132481772D01*
X227133626Y-132583111D01*
X226965104Y-132652915D01*
X226786203Y-132688500D01*
X226603797Y-132688500D01*
X226424896Y-132652915D01*
X226256374Y-132583111D01*
X226104709Y-132481772D01*
X225975728Y-132352791D01*
X225874389Y-132201126D01*
X225804585Y-132032604D01*
X225769000Y-131853703D01*
X225769000Y-131671297D01*
X225804585Y-131492396D01*
X225874389Y-131323874D01*
X225975728Y-131172209D01*
X226104709Y-131043228D01*
X226256374Y-130941889D01*
X226424896Y-130872085D01*
X226603797Y-130836500D01*
X226786203Y-130836500D01*
X226965104Y-130872085D01*
X226965104Y-130872085D01*
G37*
G36*
X218075104Y-130872085D02*
G01*
X218243626Y-130941889D01*
X218395291Y-131043228D01*
X218524272Y-131172209D01*
X218625611Y-131323874D01*
X218695415Y-131492396D01*
X218731000Y-131671297D01*
X218731000Y-131853703D01*
X218695415Y-132032604D01*
X218625611Y-132201126D01*
X218524272Y-132352791D01*
X218395291Y-132481772D01*
X218243626Y-132583111D01*
X218075104Y-132652915D01*
X217896203Y-132688500D01*
X217713797Y-132688500D01*
X217534896Y-132652915D01*
X217366374Y-132583111D01*
X217214709Y-132481772D01*
X217085728Y-132352791D01*
X216984389Y-132201126D01*
X216914585Y-132032604D01*
X216879000Y-131853703D01*
X216879000Y-131671297D01*
X216914585Y-131492396D01*
X216984389Y-131323874D01*
X217085728Y-131172209D01*
X217214709Y-131043228D01*
X217366374Y-130941889D01*
X217534896Y-130872085D01*
X217713797Y-130836500D01*
X217896203Y-130836500D01*
X218075104Y-130872085D01*
X218075104Y-130872085D01*
G37*
G36*
X207915104Y-130872085D02*
G01*
X208083626Y-130941889D01*
X208235291Y-131043228D01*
X208364272Y-131172209D01*
X208465611Y-131323874D01*
X208535415Y-131492396D01*
X208571000Y-131671297D01*
X208571000Y-131853703D01*
X208535415Y-132032604D01*
X208465611Y-132201126D01*
X208364272Y-132352791D01*
X208235291Y-132481772D01*
X208083626Y-132583111D01*
X207915104Y-132652915D01*
X207736203Y-132688500D01*
X207553797Y-132688500D01*
X207374896Y-132652915D01*
X207206374Y-132583111D01*
X207054709Y-132481772D01*
X206925728Y-132352791D01*
X206824389Y-132201126D01*
X206754585Y-132032604D01*
X206719000Y-131853703D01*
X206719000Y-131671297D01*
X206754585Y-131492396D01*
X206824389Y-131323874D01*
X206925728Y-131172209D01*
X207054709Y-131043228D01*
X207206374Y-130941889D01*
X207374896Y-130872085D01*
X207553797Y-130836500D01*
X207736203Y-130836500D01*
X207915104Y-130872085D01*
X207915104Y-130872085D01*
G37*
G36*
X183166934Y-130578686D02*
G01*
X183206784Y-130590774D01*
X183243499Y-130610399D01*
X183275686Y-130636814D01*
X183302101Y-130669001D01*
X183321726Y-130705716D01*
X183333814Y-130745566D01*
X183338500Y-130793141D01*
X183338500Y-131456859D01*
X183333814Y-131504434D01*
X183321726Y-131544284D01*
X183302101Y-131580999D01*
X183275686Y-131613186D01*
X183243499Y-131639601D01*
X183206784Y-131659226D01*
X183166934Y-131671314D01*
X183119359Y-131676000D01*
X182005641Y-131676000D01*
X181958066Y-131671314D01*
X181918216Y-131659226D01*
X181881501Y-131639601D01*
X181849314Y-131613186D01*
X181822899Y-131580999D01*
X181803274Y-131544284D01*
X181791186Y-131504434D01*
X181786500Y-131456859D01*
X181786500Y-130793141D01*
X181791186Y-130745566D01*
X181803274Y-130705716D01*
X181822899Y-130669001D01*
X181849314Y-130636814D01*
X181881501Y-130610399D01*
X181918216Y-130590774D01*
X181958066Y-130578686D01*
X182005641Y-130574000D01*
X183119359Y-130574000D01*
X183166934Y-130578686D01*
X183166934Y-130578686D01*
G37*
G36*
X196413500Y-131119750D02*
G01*
X187761500Y-131119750D01*
X187761500Y-129517750D01*
X196413500Y-129517750D01*
X196413500Y-131119750D01*
X196413500Y-131119750D01*
G37*
G36*
X202193662Y-129734894D02*
G01*
X202233108Y-129746860D01*
X202269453Y-129766287D01*
X202301315Y-129792435D01*
X202327463Y-129824297D01*
X202346890Y-129860642D01*
X202358856Y-129900088D01*
X202363500Y-129947243D01*
X202363500Y-130640257D01*
X202358856Y-130687412D01*
X202346890Y-130726858D01*
X202327463Y-130763203D01*
X202301315Y-130795065D01*
X202269453Y-130821213D01*
X202233108Y-130840640D01*
X202193662Y-130852606D01*
X202146507Y-130857250D01*
X201078493Y-130857250D01*
X201031338Y-130852606D01*
X200991892Y-130840640D01*
X200955547Y-130821213D01*
X200923685Y-130795065D01*
X200897537Y-130763203D01*
X200878110Y-130726858D01*
X200866144Y-130687412D01*
X200861500Y-130640257D01*
X200861500Y-129947243D01*
X200866144Y-129900088D01*
X200878110Y-129860642D01*
X200897537Y-129824297D01*
X200923685Y-129792435D01*
X200955547Y-129766287D01*
X200991892Y-129746860D01*
X201031338Y-129734894D01*
X201078493Y-129730250D01*
X202146507Y-129730250D01*
X202193662Y-129734894D01*
X202193662Y-129734894D01*
G37*
G36*
X221313500Y-130613500D02*
G01*
X220011500Y-130613500D01*
X220011500Y-129611500D01*
X221313500Y-129611500D01*
X221313500Y-130613500D01*
X221313500Y-130613500D01*
G37*
G36*
X240363500Y-130613500D02*
G01*
X239061500Y-130613500D01*
X239061500Y-129611500D01*
X240363500Y-129611500D01*
X240363500Y-130613500D01*
X240363500Y-130613500D01*
G37*
G36*
X210248205Y-126586381D02*
G01*
X210253645Y-126586500D01*
X210340828Y-126586500D01*
X210357097Y-126589736D01*
X210375956Y-126592015D01*
X210392532Y-126592746D01*
X210477223Y-126613510D01*
X210482518Y-126614684D01*
X210568027Y-126631693D01*
X210583362Y-126638045D01*
X210601401Y-126643955D01*
X210617521Y-126647907D01*
X210696504Y-126684780D01*
X210701494Y-126686977D01*
X210782045Y-126720342D01*
X210795841Y-126729560D01*
X210812393Y-126738882D01*
X210827426Y-126745900D01*
X210897694Y-126797471D01*
X210902192Y-126800622D01*
X210974656Y-126849041D01*
X210986383Y-126860768D01*
X211000809Y-126873148D01*
X211014179Y-126882961D01*
X211014180Y-126882962D01*
X211073021Y-126947233D01*
X211076829Y-126951214D01*
X211138459Y-127012844D01*
X211147674Y-127026635D01*
X211159396Y-127041578D01*
X211170605Y-127053821D01*
X211215799Y-127128374D01*
X211218746Y-127133001D01*
X211267158Y-127205455D01*
X211273505Y-127220777D01*
X211282092Y-127237731D01*
X211290691Y-127251917D01*
X211320478Y-127333868D01*
X211322452Y-127338948D01*
X211355807Y-127419473D01*
X211355807Y-127419474D01*
X211359041Y-127435733D01*
X211364158Y-127454042D01*
X211369825Y-127469634D01*
X211383055Y-127555845D01*
X211384001Y-127561213D01*
X211401000Y-127646673D01*
X211401000Y-127663252D01*
X211402444Y-127682192D01*
X211404963Y-127698604D01*
X211401120Y-127785749D01*
X211401000Y-127791189D01*
X211401000Y-127878325D01*
X211397766Y-127894583D01*
X211395488Y-127913441D01*
X211394756Y-127930031D01*
X211373988Y-128014737D01*
X211372812Y-128020037D01*
X211355807Y-128105527D01*
X211349457Y-128120857D01*
X211343549Y-128138893D01*
X211339595Y-128155020D01*
X211302711Y-128234026D01*
X211300511Y-128239023D01*
X211267158Y-128319545D01*
X211257944Y-128333335D01*
X211248622Y-128349887D01*
X211241602Y-128364924D01*
X211190011Y-128435220D01*
X211186866Y-128439710D01*
X211138461Y-128512154D01*
X211081460Y-128569155D01*
X211076811Y-128574063D01*
X210744208Y-128944750D01*
X209751723Y-130050876D01*
X209623679Y-130168102D01*
X209524630Y-130228146D01*
X209425583Y-130288189D01*
X209207866Y-130367323D01*
X208978895Y-130402461D01*
X208747470Y-130392254D01*
X208522481Y-130337093D01*
X208417727Y-130288189D01*
X208312579Y-130239102D01*
X208215838Y-130168102D01*
X208125823Y-130102039D01*
X208037099Y-130005127D01*
X207969398Y-129931179D01*
X207887564Y-129796185D01*
X207849311Y-129733083D01*
X207770177Y-129515366D01*
X207735039Y-129286395D01*
X207745246Y-129054970D01*
X207800407Y-128829981D01*
X207865395Y-128690774D01*
X207898398Y-128620080D01*
X207898400Y-128620077D01*
X208001114Y-128480122D01*
X208756245Y-127638527D01*
X209287787Y-127046121D01*
X209298681Y-127032089D01*
X209311539Y-127012846D01*
X209368573Y-126955812D01*
X209373223Y-126950903D01*
X209388278Y-126934124D01*
X209409701Y-126914511D01*
X209413682Y-126910703D01*
X209475346Y-126849039D01*
X209489143Y-126839820D01*
X209504102Y-126828085D01*
X209516321Y-126816898D01*
X209548385Y-126797461D01*
X209590830Y-126771731D01*
X209595421Y-126768808D01*
X209667955Y-126720342D01*
X209683300Y-126713986D01*
X209700248Y-126705401D01*
X209714416Y-126696812D01*
X209714417Y-126696812D01*
X209714418Y-126696811D01*
X209796312Y-126667045D01*
X209801410Y-126665063D01*
X209881973Y-126631693D01*
X209898252Y-126628455D01*
X209916542Y-126623344D01*
X209932135Y-126617677D01*
X210018300Y-126604454D01*
X210023663Y-126603509D01*
X210109173Y-126586500D01*
X210125766Y-126586500D01*
X210144709Y-126585055D01*
X210161106Y-126582539D01*
X210248205Y-126586381D01*
X210248205Y-126586381D01*
G37*
G36*
X229298205Y-126586381D02*
G01*
X229303645Y-126586500D01*
X229390828Y-126586500D01*
X229407097Y-126589736D01*
X229425956Y-126592015D01*
X229442532Y-126592746D01*
X229527223Y-126613510D01*
X229532518Y-126614684D01*
X229618027Y-126631693D01*
X229633362Y-126638045D01*
X229651401Y-126643955D01*
X229667521Y-126647907D01*
X229746504Y-126684780D01*
X229751494Y-126686977D01*
X229832045Y-126720342D01*
X229845841Y-126729560D01*
X229862393Y-126738882D01*
X229877426Y-126745900D01*
X229947694Y-126797471D01*
X229952192Y-126800622D01*
X230024656Y-126849041D01*
X230036383Y-126860768D01*
X230050809Y-126873148D01*
X230064179Y-126882961D01*
X230064180Y-126882962D01*
X230123021Y-126947233D01*
X230126829Y-126951214D01*
X230188459Y-127012844D01*
X230197674Y-127026635D01*
X230209396Y-127041578D01*
X230220605Y-127053821D01*
X230265799Y-127128374D01*
X230268746Y-127133001D01*
X230317158Y-127205455D01*
X230323505Y-127220777D01*
X230332092Y-127237731D01*
X230340691Y-127251917D01*
X230370478Y-127333868D01*
X230372452Y-127338948D01*
X230405807Y-127419473D01*
X230405807Y-127419474D01*
X230409041Y-127435733D01*
X230414158Y-127454042D01*
X230419825Y-127469634D01*
X230433055Y-127555845D01*
X230434001Y-127561213D01*
X230451000Y-127646673D01*
X230451000Y-127663252D01*
X230452444Y-127682192D01*
X230454963Y-127698604D01*
X230451120Y-127785749D01*
X230451000Y-127791189D01*
X230451000Y-127878325D01*
X230447766Y-127894583D01*
X230445488Y-127913441D01*
X230444756Y-127930031D01*
X230423988Y-128014737D01*
X230422812Y-128020037D01*
X230405807Y-128105527D01*
X230399457Y-128120857D01*
X230393549Y-128138893D01*
X230389595Y-128155020D01*
X230352711Y-128234026D01*
X230350511Y-128239023D01*
X230317158Y-128319545D01*
X230307944Y-128333335D01*
X230298622Y-128349887D01*
X230291602Y-128364924D01*
X230240011Y-128435220D01*
X230236866Y-128439710D01*
X230188461Y-128512154D01*
X230131460Y-128569155D01*
X230126811Y-128574063D01*
X229794208Y-128944750D01*
X228801723Y-130050876D01*
X228673679Y-130168102D01*
X228574630Y-130228146D01*
X228475583Y-130288189D01*
X228257866Y-130367323D01*
X228028895Y-130402461D01*
X227797470Y-130392254D01*
X227572481Y-130337093D01*
X227467727Y-130288189D01*
X227362579Y-130239102D01*
X227265838Y-130168102D01*
X227175823Y-130102039D01*
X227087099Y-130005127D01*
X227019398Y-129931179D01*
X226937564Y-129796185D01*
X226899311Y-129733083D01*
X226820177Y-129515366D01*
X226785039Y-129286395D01*
X226795246Y-129054970D01*
X226850407Y-128829981D01*
X226915395Y-128690774D01*
X226948398Y-128620080D01*
X226948400Y-128620077D01*
X227051114Y-128480122D01*
X227806245Y-127638527D01*
X228337787Y-127046121D01*
X228348681Y-127032089D01*
X228361539Y-127012846D01*
X228418573Y-126955812D01*
X228423223Y-126950903D01*
X228438278Y-126934124D01*
X228459701Y-126914511D01*
X228463682Y-126910703D01*
X228525346Y-126849039D01*
X228539143Y-126839820D01*
X228554102Y-126828085D01*
X228566321Y-126816898D01*
X228598385Y-126797461D01*
X228640830Y-126771731D01*
X228645421Y-126768808D01*
X228717955Y-126720342D01*
X228733300Y-126713986D01*
X228750248Y-126705401D01*
X228764416Y-126696812D01*
X228764417Y-126696812D01*
X228764418Y-126696811D01*
X228846312Y-126667045D01*
X228851410Y-126665063D01*
X228931973Y-126631693D01*
X228948252Y-126628455D01*
X228966542Y-126623344D01*
X228982135Y-126617677D01*
X229068300Y-126604454D01*
X229073663Y-126603509D01*
X229159173Y-126586500D01*
X229175766Y-126586500D01*
X229194709Y-126585055D01*
X229211106Y-126582539D01*
X229298205Y-126586381D01*
X229298205Y-126586381D01*
G37*
G36*
X183166934Y-128678686D02*
G01*
X183206784Y-128690774D01*
X183243499Y-128710399D01*
X183275686Y-128736814D01*
X183302101Y-128769001D01*
X183321726Y-128805716D01*
X183333814Y-128845566D01*
X183338500Y-128893141D01*
X183338500Y-129556859D01*
X183333814Y-129604434D01*
X183321726Y-129644284D01*
X183302101Y-129680999D01*
X183275686Y-129713186D01*
X183243499Y-129739601D01*
X183206784Y-129759226D01*
X183166934Y-129771314D01*
X183119359Y-129776000D01*
X182005641Y-129776000D01*
X181958066Y-129771314D01*
X181918216Y-129759226D01*
X181881501Y-129739601D01*
X181849314Y-129713186D01*
X181822899Y-129680999D01*
X181803274Y-129644284D01*
X181791186Y-129604434D01*
X181786500Y-129556859D01*
X181786500Y-128893141D01*
X181791186Y-128845566D01*
X181803274Y-128805716D01*
X181822899Y-128769001D01*
X181849314Y-128736814D01*
X181881501Y-128710399D01*
X181918216Y-128690774D01*
X181958066Y-128678686D01*
X182005641Y-128674000D01*
X183119359Y-128674000D01*
X183166934Y-128678686D01*
X183166934Y-128678686D01*
G37*
G36*
X202193662Y-127909894D02*
G01*
X202233108Y-127921860D01*
X202269453Y-127941287D01*
X202301315Y-127967435D01*
X202327463Y-127999297D01*
X202346890Y-128035642D01*
X202358856Y-128075088D01*
X202363500Y-128122243D01*
X202363500Y-128815257D01*
X202358856Y-128862412D01*
X202346890Y-128901858D01*
X202327463Y-128938203D01*
X202301315Y-128970065D01*
X202269453Y-128996213D01*
X202233108Y-129015640D01*
X202193662Y-129027606D01*
X202146507Y-129032250D01*
X201078493Y-129032250D01*
X201031338Y-129027606D01*
X200991892Y-129015640D01*
X200955547Y-128996213D01*
X200923685Y-128970065D01*
X200897537Y-128938203D01*
X200878110Y-128901858D01*
X200866144Y-128862412D01*
X200861500Y-128815257D01*
X200861500Y-128122243D01*
X200866144Y-128075088D01*
X200878110Y-128035642D01*
X200897537Y-127999297D01*
X200923685Y-127967435D01*
X200955547Y-127941287D01*
X200991892Y-127921860D01*
X201031338Y-127909894D01*
X201078493Y-127905250D01*
X202146507Y-127905250D01*
X202193662Y-127909894D01*
X202193662Y-127909894D01*
G37*
G36*
X187188500Y-128944750D02*
G01*
X185586500Y-128944750D01*
X185586500Y-120292750D01*
X187188500Y-120292750D01*
X187188500Y-128944750D01*
X187188500Y-128944750D01*
G37*
G36*
X198588500Y-128944750D02*
G01*
X196986500Y-128944750D01*
X196986500Y-120292750D01*
X198588500Y-120292750D01*
X198588500Y-128944750D01*
X198588500Y-128944750D01*
G37*
G36*
X234403127Y-125504761D02*
G01*
X234423900Y-125506500D01*
X234430827Y-125506500D01*
X234525754Y-125525382D01*
X234529348Y-125526042D01*
X234624730Y-125542124D01*
X234631203Y-125544585D01*
X234651228Y-125550341D01*
X234658027Y-125551693D01*
X234720414Y-125577534D01*
X234747443Y-125588730D01*
X234750844Y-125590081D01*
X234841255Y-125624461D01*
X234847127Y-125628140D01*
X234865636Y-125637687D01*
X234872045Y-125640342D01*
X234952563Y-125694142D01*
X234955554Y-125696078D01*
X235037557Y-125747459D01*
X235042584Y-125752200D01*
X235058896Y-125765191D01*
X235064652Y-125769037D01*
X235133110Y-125837495D01*
X235135689Y-125839999D01*
X235206090Y-125906389D01*
X235210095Y-125912019D01*
X235223559Y-125927944D01*
X235228459Y-125932844D01*
X235282244Y-126013339D01*
X235284291Y-126016307D01*
X235340380Y-126095145D01*
X235343214Y-126101458D01*
X235353308Y-126119693D01*
X235357158Y-126125455D01*
X235394220Y-126214930D01*
X235395624Y-126218185D01*
X235435265Y-126306473D01*
X235436815Y-126313225D01*
X235443152Y-126333062D01*
X235445807Y-126339473D01*
X235464692Y-126434417D01*
X235465438Y-126437901D01*
X235487098Y-126532251D01*
X235487098Y-126532254D01*
X235487300Y-126539154D01*
X235489647Y-126559870D01*
X235491000Y-126566674D01*
X235491000Y-126663486D01*
X235491053Y-126667084D01*
X235492188Y-126705777D01*
X235491295Y-126718725D01*
X235491000Y-126727297D01*
X235491000Y-126798326D01*
X235485081Y-126828085D01*
X235484604Y-126830479D01*
X235482500Y-126846250D01*
X235444238Y-127401045D01*
X235415376Y-127572230D01*
X235333038Y-127788755D01*
X235210041Y-127985057D01*
X235051111Y-128153590D01*
X234862355Y-128287880D01*
X234651027Y-128382765D01*
X234425249Y-128434598D01*
X234193698Y-128441389D01*
X234193697Y-128441389D01*
X234148012Y-128433686D01*
X233965270Y-128402876D01*
X233748745Y-128320538D01*
X233552443Y-128197541D01*
X233383910Y-128038611D01*
X233249620Y-127849855D01*
X233154735Y-127638527D01*
X233102902Y-127412749D01*
X233097812Y-127239223D01*
X233138704Y-126646294D01*
X233139000Y-126637696D01*
X233139000Y-126566675D01*
X233157882Y-126471750D01*
X233158544Y-126468145D01*
X233164231Y-126434417D01*
X233174624Y-126372770D01*
X233177085Y-126366299D01*
X233182842Y-126346267D01*
X233184193Y-126339474D01*
X233186843Y-126333076D01*
X233221264Y-126249976D01*
X233222553Y-126246730D01*
X233256962Y-126156245D01*
X233260636Y-126150381D01*
X233270187Y-126131865D01*
X233272842Y-126125455D01*
X233326657Y-126044915D01*
X233328577Y-126041949D01*
X233379959Y-125959943D01*
X233384711Y-125954904D01*
X233397689Y-125938607D01*
X233401537Y-125932848D01*
X233469993Y-125864392D01*
X233472546Y-125861762D01*
X233493023Y-125840048D01*
X233538889Y-125791410D01*
X233544521Y-125787403D01*
X233560447Y-125773938D01*
X233565346Y-125769039D01*
X233645824Y-125715266D01*
X233648806Y-125713210D01*
X233727645Y-125657120D01*
X233733955Y-125654287D01*
X233752194Y-125644191D01*
X233757951Y-125640344D01*
X233757954Y-125640343D01*
X233757955Y-125640342D01*
X233847429Y-125603281D01*
X233850687Y-125601875D01*
X233938973Y-125562235D01*
X233945725Y-125560685D01*
X233965562Y-125554348D01*
X233971973Y-125551693D01*
X234066899Y-125532811D01*
X234070446Y-125532051D01*
X234164751Y-125510401D01*
X234167130Y-125510331D01*
X234171665Y-125510198D01*
X234192381Y-125507851D01*
X234199174Y-125506500D01*
X234295959Y-125506500D01*
X234299584Y-125506447D01*
X234396302Y-125503610D01*
X234403127Y-125504761D01*
X234403127Y-125504761D01*
G37*
G36*
X215353127Y-125504761D02*
G01*
X215373900Y-125506500D01*
X215380827Y-125506500D01*
X215475754Y-125525382D01*
X215479348Y-125526042D01*
X215574730Y-125542124D01*
X215581203Y-125544585D01*
X215601228Y-125550341D01*
X215608027Y-125551693D01*
X215670414Y-125577534D01*
X215697443Y-125588730D01*
X215700844Y-125590081D01*
X215791255Y-125624461D01*
X215797127Y-125628140D01*
X215815636Y-125637687D01*
X215822045Y-125640342D01*
X215902563Y-125694142D01*
X215905554Y-125696078D01*
X215987557Y-125747459D01*
X215992584Y-125752200D01*
X216008896Y-125765191D01*
X216014652Y-125769037D01*
X216083110Y-125837495D01*
X216085689Y-125839999D01*
X216156090Y-125906389D01*
X216160095Y-125912019D01*
X216173559Y-125927944D01*
X216178459Y-125932844D01*
X216232244Y-126013339D01*
X216234291Y-126016307D01*
X216290380Y-126095145D01*
X216293214Y-126101458D01*
X216303308Y-126119693D01*
X216307158Y-126125455D01*
X216344220Y-126214930D01*
X216345624Y-126218185D01*
X216385265Y-126306473D01*
X216386815Y-126313225D01*
X216393152Y-126333062D01*
X216395807Y-126339473D01*
X216414692Y-126434417D01*
X216415438Y-126437901D01*
X216437098Y-126532251D01*
X216437098Y-126532254D01*
X216437300Y-126539154D01*
X216439647Y-126559870D01*
X216441000Y-126566674D01*
X216441000Y-126663486D01*
X216441053Y-126667084D01*
X216442188Y-126705777D01*
X216441295Y-126718725D01*
X216441000Y-126727297D01*
X216441000Y-126798326D01*
X216435081Y-126828085D01*
X216434604Y-126830479D01*
X216432500Y-126846250D01*
X216394238Y-127401045D01*
X216365376Y-127572230D01*
X216283038Y-127788755D01*
X216160041Y-127985057D01*
X216001111Y-128153590D01*
X215812355Y-128287880D01*
X215601027Y-128382765D01*
X215375249Y-128434598D01*
X215143698Y-128441389D01*
X215143697Y-128441389D01*
X215098012Y-128433686D01*
X214915270Y-128402876D01*
X214698745Y-128320538D01*
X214502443Y-128197541D01*
X214333910Y-128038611D01*
X214199620Y-127849855D01*
X214104735Y-127638527D01*
X214052902Y-127412749D01*
X214047812Y-127239223D01*
X214088704Y-126646294D01*
X214089000Y-126637696D01*
X214089000Y-126566675D01*
X214107882Y-126471750D01*
X214108544Y-126468145D01*
X214114231Y-126434417D01*
X214124624Y-126372770D01*
X214127085Y-126366299D01*
X214132842Y-126346267D01*
X214134193Y-126339474D01*
X214136843Y-126333076D01*
X214171264Y-126249976D01*
X214172553Y-126246730D01*
X214206962Y-126156245D01*
X214210636Y-126150381D01*
X214220187Y-126131865D01*
X214222842Y-126125455D01*
X214276657Y-126044915D01*
X214278577Y-126041949D01*
X214329959Y-125959943D01*
X214334711Y-125954904D01*
X214347689Y-125938607D01*
X214351537Y-125932848D01*
X214419993Y-125864392D01*
X214422546Y-125861762D01*
X214443023Y-125840048D01*
X214488889Y-125791410D01*
X214494521Y-125787403D01*
X214510447Y-125773938D01*
X214515346Y-125769039D01*
X214595824Y-125715266D01*
X214598806Y-125713210D01*
X214677645Y-125657120D01*
X214683955Y-125654287D01*
X214702194Y-125644191D01*
X214707951Y-125640344D01*
X214707954Y-125640343D01*
X214707955Y-125640342D01*
X214797429Y-125603281D01*
X214800687Y-125601875D01*
X214888973Y-125562235D01*
X214895725Y-125560685D01*
X214915562Y-125554348D01*
X214921973Y-125551693D01*
X215016899Y-125532811D01*
X215020446Y-125532051D01*
X215114751Y-125510401D01*
X215117130Y-125510331D01*
X215121665Y-125510198D01*
X215142381Y-125507851D01*
X215149174Y-125506500D01*
X215245959Y-125506500D01*
X215249584Y-125506447D01*
X215346302Y-125503610D01*
X215353127Y-125504761D01*
X215353127Y-125504761D01*
G37*
G36*
X181510684Y-123053686D02*
G01*
X181550534Y-123065774D01*
X181587249Y-123085399D01*
X181619436Y-123111814D01*
X181645851Y-123144001D01*
X181665476Y-123180716D01*
X181677564Y-123220566D01*
X181682250Y-123268141D01*
X181682250Y-124381859D01*
X181677564Y-124429434D01*
X181665476Y-124469284D01*
X181645851Y-124505999D01*
X181619436Y-124538186D01*
X181587249Y-124564601D01*
X181550534Y-124584226D01*
X181510684Y-124596314D01*
X181463109Y-124601000D01*
X180799391Y-124601000D01*
X180751816Y-124596314D01*
X180711966Y-124584226D01*
X180675251Y-124564601D01*
X180643064Y-124538186D01*
X180616649Y-124505999D01*
X180597024Y-124469284D01*
X180584936Y-124429434D01*
X180580250Y-124381859D01*
X180580250Y-123268141D01*
X180584936Y-123220566D01*
X180597024Y-123180716D01*
X180616649Y-123144001D01*
X180643064Y-123111814D01*
X180675251Y-123085399D01*
X180711966Y-123065774D01*
X180751816Y-123053686D01*
X180799391Y-123049000D01*
X181463109Y-123049000D01*
X181510684Y-123053686D01*
X181510684Y-123053686D01*
G37*
G36*
X179610684Y-123053686D02*
G01*
X179650534Y-123065774D01*
X179687249Y-123085399D01*
X179719436Y-123111814D01*
X179745851Y-123144001D01*
X179765476Y-123180716D01*
X179777564Y-123220566D01*
X179782250Y-123268141D01*
X179782250Y-124381859D01*
X179777564Y-124429434D01*
X179765476Y-124469284D01*
X179745851Y-124505999D01*
X179719436Y-124538186D01*
X179687249Y-124564601D01*
X179650534Y-124584226D01*
X179610684Y-124596314D01*
X179563109Y-124601000D01*
X178899391Y-124601000D01*
X178851816Y-124596314D01*
X178811966Y-124584226D01*
X178775251Y-124564601D01*
X178743064Y-124538186D01*
X178716649Y-124505999D01*
X178697024Y-124469284D01*
X178684936Y-124429434D01*
X178680250Y-124381859D01*
X178680250Y-123268141D01*
X178684936Y-123220566D01*
X178697024Y-123180716D01*
X178716649Y-123144001D01*
X178743064Y-123111814D01*
X178775251Y-123085399D01*
X178811966Y-123065774D01*
X178851816Y-123053686D01*
X178899391Y-123049000D01*
X179563109Y-123049000D01*
X179610684Y-123053686D01*
X179610684Y-123053686D01*
G37*
G36*
X164281104Y-121984597D02*
G01*
X164317644Y-121995682D01*
X164351321Y-122013683D01*
X164380841Y-122037909D01*
X164405067Y-122067429D01*
X164423068Y-122101106D01*
X164434153Y-122137646D01*
X164438500Y-122181788D01*
X164438500Y-123130712D01*
X164434153Y-123174854D01*
X164423068Y-123211394D01*
X164405067Y-123245071D01*
X164380841Y-123274591D01*
X164351321Y-123298817D01*
X164317644Y-123316818D01*
X164281104Y-123327903D01*
X164236962Y-123332250D01*
X162788038Y-123332250D01*
X162743896Y-123327903D01*
X162707356Y-123316818D01*
X162673679Y-123298817D01*
X162644159Y-123274591D01*
X162619933Y-123245071D01*
X162601932Y-123211394D01*
X162590847Y-123174854D01*
X162586500Y-123130712D01*
X162586500Y-122181788D01*
X162590847Y-122137646D01*
X162601932Y-122101106D01*
X162619933Y-122067429D01*
X162644159Y-122037909D01*
X162673679Y-122013683D01*
X162707356Y-121995682D01*
X162743896Y-121984597D01*
X162788038Y-121980250D01*
X164236962Y-121980250D01*
X164281104Y-121984597D01*
X164281104Y-121984597D01*
G37*
G36*
X202216934Y-120259936D02*
G01*
X202256784Y-120272024D01*
X202293499Y-120291649D01*
X202325686Y-120318064D01*
X202352101Y-120350251D01*
X202371726Y-120386966D01*
X202383814Y-120426816D01*
X202388500Y-120474391D01*
X202388500Y-121138109D01*
X202383814Y-121185684D01*
X202371726Y-121225534D01*
X202352101Y-121262249D01*
X202325686Y-121294436D01*
X202293499Y-121320851D01*
X202256784Y-121340476D01*
X202216934Y-121352564D01*
X202169359Y-121357250D01*
X201055641Y-121357250D01*
X201008066Y-121352564D01*
X200968216Y-121340476D01*
X200931501Y-121320851D01*
X200899314Y-121294436D01*
X200872899Y-121262249D01*
X200853274Y-121225534D01*
X200841186Y-121185684D01*
X200836500Y-121138109D01*
X200836500Y-120474391D01*
X200841186Y-120426816D01*
X200853274Y-120386966D01*
X200872899Y-120350251D01*
X200899314Y-120318064D01*
X200931501Y-120291649D01*
X200968216Y-120272024D01*
X201008066Y-120259936D01*
X201055641Y-120255250D01*
X202169359Y-120255250D01*
X202216934Y-120259936D01*
X202216934Y-120259936D01*
G37*
G36*
X164281104Y-119184597D02*
G01*
X164317644Y-119195682D01*
X164351321Y-119213683D01*
X164380841Y-119237909D01*
X164405067Y-119267429D01*
X164423068Y-119301106D01*
X164434153Y-119337646D01*
X164438500Y-119381788D01*
X164438500Y-120330712D01*
X164434153Y-120374854D01*
X164423068Y-120411394D01*
X164405067Y-120445071D01*
X164380841Y-120474591D01*
X164351321Y-120498817D01*
X164317644Y-120516818D01*
X164281104Y-120527903D01*
X164236962Y-120532250D01*
X162788038Y-120532250D01*
X162743896Y-120527903D01*
X162707356Y-120516818D01*
X162673679Y-120498817D01*
X162644159Y-120474591D01*
X162619933Y-120445071D01*
X162601932Y-120411394D01*
X162590847Y-120374854D01*
X162586500Y-120330712D01*
X162586500Y-119381788D01*
X162590847Y-119337646D01*
X162601932Y-119301106D01*
X162619933Y-119267429D01*
X162644159Y-119237909D01*
X162673679Y-119213683D01*
X162707356Y-119195682D01*
X162743896Y-119184597D01*
X162788038Y-119180250D01*
X164236962Y-119180250D01*
X164281104Y-119184597D01*
X164281104Y-119184597D01*
G37*
G36*
X196413500Y-119719750D02*
G01*
X187761500Y-119719750D01*
X187761500Y-118117750D01*
X196413500Y-118117750D01*
X196413500Y-119719750D01*
X196413500Y-119719750D01*
G37*
G36*
X202216934Y-118359936D02*
G01*
X202256784Y-118372024D01*
X202293499Y-118391649D01*
X202325686Y-118418064D01*
X202352101Y-118450251D01*
X202371726Y-118486966D01*
X202383814Y-118526816D01*
X202388500Y-118574391D01*
X202388500Y-119238109D01*
X202383814Y-119285684D01*
X202371726Y-119325534D01*
X202352101Y-119362249D01*
X202325686Y-119394436D01*
X202293499Y-119420851D01*
X202256784Y-119440476D01*
X202216934Y-119452564D01*
X202169359Y-119457250D01*
X201055641Y-119457250D01*
X201008066Y-119452564D01*
X200968216Y-119440476D01*
X200931501Y-119420851D01*
X200899314Y-119394436D01*
X200872899Y-119362249D01*
X200853274Y-119325534D01*
X200841186Y-119285684D01*
X200836500Y-119238109D01*
X200836500Y-118574391D01*
X200841186Y-118526816D01*
X200853274Y-118486966D01*
X200872899Y-118450251D01*
X200899314Y-118418064D01*
X200931501Y-118391649D01*
X200968216Y-118372024D01*
X201008066Y-118359936D01*
X201055641Y-118355250D01*
X202169359Y-118355250D01*
X202216934Y-118359936D01*
X202216934Y-118359936D01*
G37*
G36*
X184754434Y-116291186D02*
G01*
X184794284Y-116303274D01*
X184830999Y-116322899D01*
X184863186Y-116349314D01*
X184889601Y-116381501D01*
X184909226Y-116418216D01*
X184921314Y-116458066D01*
X184926000Y-116505641D01*
X184926000Y-117169359D01*
X184921314Y-117216934D01*
X184909226Y-117256784D01*
X184889601Y-117293499D01*
X184863186Y-117325686D01*
X184830999Y-117352101D01*
X184794284Y-117371726D01*
X184754434Y-117383814D01*
X184706859Y-117388500D01*
X183593141Y-117388500D01*
X183545566Y-117383814D01*
X183505716Y-117371726D01*
X183469001Y-117352101D01*
X183436814Y-117325686D01*
X183410399Y-117293499D01*
X183390774Y-117256784D01*
X183378686Y-117216934D01*
X183374000Y-117169359D01*
X183374000Y-116505641D01*
X183378686Y-116458066D01*
X183390774Y-116418216D01*
X183410399Y-116381501D01*
X183436814Y-116349314D01*
X183469001Y-116322899D01*
X183505716Y-116303274D01*
X183545566Y-116291186D01*
X183593141Y-116286500D01*
X184706859Y-116286500D01*
X184754434Y-116291186D01*
X184754434Y-116291186D01*
G37*
G36*
X180762412Y-116241144D02*
G01*
X180801858Y-116253110D01*
X180838203Y-116272537D01*
X180870065Y-116298685D01*
X180896213Y-116330547D01*
X180915640Y-116366892D01*
X180927606Y-116406338D01*
X180932250Y-116453493D01*
X180932250Y-117146507D01*
X180927606Y-117193662D01*
X180915640Y-117233108D01*
X180896213Y-117269453D01*
X180870065Y-117301315D01*
X180838203Y-117327463D01*
X180801858Y-117346890D01*
X180762412Y-117358856D01*
X180715257Y-117363500D01*
X179647243Y-117363500D01*
X179600088Y-117358856D01*
X179560642Y-117346890D01*
X179524297Y-117327463D01*
X179492435Y-117301315D01*
X179466287Y-117269453D01*
X179446860Y-117233108D01*
X179434894Y-117193662D01*
X179430250Y-117146507D01*
X179430250Y-116453493D01*
X179434894Y-116406338D01*
X179446860Y-116366892D01*
X179466287Y-116330547D01*
X179492435Y-116298685D01*
X179524297Y-116272537D01*
X179560642Y-116253110D01*
X179600088Y-116241144D01*
X179647243Y-116236500D01*
X180715257Y-116236500D01*
X180762412Y-116241144D01*
X180762412Y-116241144D01*
G37*
G36*
X168856162Y-116241144D02*
G01*
X168895608Y-116253110D01*
X168931953Y-116272537D01*
X168963815Y-116298685D01*
X168989963Y-116330547D01*
X169009390Y-116366892D01*
X169021356Y-116406338D01*
X169026000Y-116453493D01*
X169026000Y-117146507D01*
X169021356Y-117193662D01*
X169009390Y-117233108D01*
X168989963Y-117269453D01*
X168963815Y-117301315D01*
X168931953Y-117327463D01*
X168895608Y-117346890D01*
X168856162Y-117358856D01*
X168809007Y-117363500D01*
X167740993Y-117363500D01*
X167693838Y-117358856D01*
X167654392Y-117346890D01*
X167618047Y-117327463D01*
X167586185Y-117301315D01*
X167560037Y-117269453D01*
X167540610Y-117233108D01*
X167528644Y-117193662D01*
X167524000Y-117146507D01*
X167524000Y-116453493D01*
X167528644Y-116406338D01*
X167540610Y-116366892D01*
X167560037Y-116330547D01*
X167586185Y-116298685D01*
X167618047Y-116272537D01*
X167654392Y-116253110D01*
X167693838Y-116241144D01*
X167740993Y-116236500D01*
X168809007Y-116236500D01*
X168856162Y-116241144D01*
X168856162Y-116241144D01*
G37*
G36*
X172031162Y-116241144D02*
G01*
X172070608Y-116253110D01*
X172106953Y-116272537D01*
X172138815Y-116298685D01*
X172164963Y-116330547D01*
X172184390Y-116366892D01*
X172196356Y-116406338D01*
X172201000Y-116453493D01*
X172201000Y-117146507D01*
X172196356Y-117193662D01*
X172184390Y-117233108D01*
X172164963Y-117269453D01*
X172138815Y-117301315D01*
X172106953Y-117327463D01*
X172070608Y-117346890D01*
X172031162Y-117358856D01*
X171984007Y-117363500D01*
X170915993Y-117363500D01*
X170868838Y-117358856D01*
X170829392Y-117346890D01*
X170793047Y-117327463D01*
X170761185Y-117301315D01*
X170735037Y-117269453D01*
X170715610Y-117233108D01*
X170703644Y-117193662D01*
X170699000Y-117146507D01*
X170699000Y-116453493D01*
X170703644Y-116406338D01*
X170715610Y-116366892D01*
X170735037Y-116330547D01*
X170761185Y-116298685D01*
X170793047Y-116272537D01*
X170829392Y-116253110D01*
X170868838Y-116241144D01*
X170915993Y-116236500D01*
X171984007Y-116236500D01*
X172031162Y-116241144D01*
X172031162Y-116241144D01*
G37*
G36*
X168856162Y-114416144D02*
G01*
X168895608Y-114428110D01*
X168931953Y-114447537D01*
X168963815Y-114473685D01*
X168989963Y-114505547D01*
X169009390Y-114541892D01*
X169021356Y-114581338D01*
X169026000Y-114628493D01*
X169026000Y-115321507D01*
X169021356Y-115368662D01*
X169009390Y-115408108D01*
X168989963Y-115444453D01*
X168963815Y-115476315D01*
X168931953Y-115502463D01*
X168895608Y-115521890D01*
X168856162Y-115533856D01*
X168809007Y-115538500D01*
X167740993Y-115538500D01*
X167693838Y-115533856D01*
X167654392Y-115521890D01*
X167618047Y-115502463D01*
X167586185Y-115476315D01*
X167560037Y-115444453D01*
X167540610Y-115408108D01*
X167528644Y-115368662D01*
X167524000Y-115321507D01*
X167524000Y-114628493D01*
X167528644Y-114581338D01*
X167540610Y-114541892D01*
X167560037Y-114505547D01*
X167586185Y-114473685D01*
X167618047Y-114447537D01*
X167654392Y-114428110D01*
X167693838Y-114416144D01*
X167740993Y-114411500D01*
X168809007Y-114411500D01*
X168856162Y-114416144D01*
X168856162Y-114416144D01*
G37*
G36*
X180762412Y-114416144D02*
G01*
X180801858Y-114428110D01*
X180838203Y-114447537D01*
X180870065Y-114473685D01*
X180896213Y-114505547D01*
X180915640Y-114541892D01*
X180927606Y-114581338D01*
X180932250Y-114628493D01*
X180932250Y-115321507D01*
X180927606Y-115368662D01*
X180915640Y-115408108D01*
X180896213Y-115444453D01*
X180870065Y-115476315D01*
X180838203Y-115502463D01*
X180801858Y-115521890D01*
X180762412Y-115533856D01*
X180715257Y-115538500D01*
X179647243Y-115538500D01*
X179600088Y-115533856D01*
X179560642Y-115521890D01*
X179524297Y-115502463D01*
X179492435Y-115476315D01*
X179466287Y-115444453D01*
X179446860Y-115408108D01*
X179434894Y-115368662D01*
X179430250Y-115321507D01*
X179430250Y-114628493D01*
X179434894Y-114581338D01*
X179446860Y-114541892D01*
X179466287Y-114505547D01*
X179492435Y-114473685D01*
X179524297Y-114447537D01*
X179560642Y-114428110D01*
X179600088Y-114416144D01*
X179647243Y-114411500D01*
X180715257Y-114411500D01*
X180762412Y-114416144D01*
X180762412Y-114416144D01*
G37*
G36*
X172031162Y-114416144D02*
G01*
X172070608Y-114428110D01*
X172106953Y-114447537D01*
X172138815Y-114473685D01*
X172164963Y-114505547D01*
X172184390Y-114541892D01*
X172196356Y-114581338D01*
X172201000Y-114628493D01*
X172201000Y-115321507D01*
X172196356Y-115368662D01*
X172184390Y-115408108D01*
X172164963Y-115444453D01*
X172138815Y-115476315D01*
X172106953Y-115502463D01*
X172070608Y-115521890D01*
X172031162Y-115533856D01*
X171984007Y-115538500D01*
X170915993Y-115538500D01*
X170868838Y-115533856D01*
X170829392Y-115521890D01*
X170793047Y-115502463D01*
X170761185Y-115476315D01*
X170735037Y-115444453D01*
X170715610Y-115408108D01*
X170703644Y-115368662D01*
X170699000Y-115321507D01*
X170699000Y-114628493D01*
X170703644Y-114581338D01*
X170715610Y-114541892D01*
X170735037Y-114505547D01*
X170761185Y-114473685D01*
X170793047Y-114447537D01*
X170829392Y-114428110D01*
X170868838Y-114416144D01*
X170915993Y-114411500D01*
X171984007Y-114411500D01*
X172031162Y-114416144D01*
X172031162Y-114416144D01*
G37*
G36*
X184754434Y-114391186D02*
G01*
X184794284Y-114403274D01*
X184830999Y-114422899D01*
X184863186Y-114449314D01*
X184889601Y-114481501D01*
X184909226Y-114518216D01*
X184921314Y-114558066D01*
X184926000Y-114605641D01*
X184926000Y-115269359D01*
X184921314Y-115316934D01*
X184909226Y-115356784D01*
X184889601Y-115393499D01*
X184863186Y-115425686D01*
X184830999Y-115452101D01*
X184794284Y-115471726D01*
X184754434Y-115483814D01*
X184706859Y-115488500D01*
X183593141Y-115488500D01*
X183545566Y-115483814D01*
X183505716Y-115471726D01*
X183469001Y-115452101D01*
X183436814Y-115425686D01*
X183410399Y-115393499D01*
X183390774Y-115356784D01*
X183378686Y-115316934D01*
X183374000Y-115269359D01*
X183374000Y-114605641D01*
X183378686Y-114558066D01*
X183390774Y-114518216D01*
X183410399Y-114481501D01*
X183436814Y-114449314D01*
X183469001Y-114422899D01*
X183505716Y-114403274D01*
X183545566Y-114391186D01*
X183593141Y-114386500D01*
X184706859Y-114386500D01*
X184754434Y-114391186D01*
X184754434Y-114391186D01*
G37*
G36*
X240363500Y-114863500D02*
G01*
X239061500Y-114863500D01*
X239061500Y-113861500D01*
X240363500Y-113861500D01*
X240363500Y-114863500D01*
X240363500Y-114863500D01*
G37*
G36*
X221313500Y-114863500D02*
G01*
X220011500Y-114863500D01*
X220011500Y-113861500D01*
X221313500Y-113861500D01*
X221313500Y-114863500D01*
X221313500Y-114863500D01*
G37*
G36*
X213321474Y-110746184D02*
G01*
X213477813Y-110810942D01*
X213693623Y-110900333D01*
X214028548Y-111124123D01*
X214313377Y-111408952D01*
X214537167Y-111743877D01*
X214569562Y-111822086D01*
X214691316Y-112116026D01*
X214769900Y-112511094D01*
X214769900Y-112913906D01*
X214691316Y-113308974D01*
X214640451Y-113431772D01*
X214537167Y-113681123D01*
X214313377Y-114016048D01*
X214028548Y-114300877D01*
X213693623Y-114524667D01*
X213612990Y-114558066D01*
X213321474Y-114678816D01*
X212926406Y-114757400D01*
X212523594Y-114757400D01*
X212128526Y-114678816D01*
X211837010Y-114558066D01*
X211756377Y-114524667D01*
X211421452Y-114300877D01*
X211136623Y-114016048D01*
X210912833Y-113681123D01*
X210809549Y-113431772D01*
X210758684Y-113308974D01*
X210680100Y-112913906D01*
X210680100Y-112511094D01*
X210758684Y-112116026D01*
X210880438Y-111822086D01*
X210912833Y-111743877D01*
X211136623Y-111408952D01*
X211421452Y-111124123D01*
X211756377Y-110900333D01*
X211972187Y-110810942D01*
X212128526Y-110746184D01*
X212523594Y-110667600D01*
X212926406Y-110667600D01*
X213321474Y-110746184D01*
X213321474Y-110746184D01*
G37*
G36*
X232371474Y-110746184D02*
G01*
X232527813Y-110810942D01*
X232743623Y-110900333D01*
X233078548Y-111124123D01*
X233363377Y-111408952D01*
X233587167Y-111743877D01*
X233619562Y-111822086D01*
X233741316Y-112116026D01*
X233819900Y-112511094D01*
X233819900Y-112913906D01*
X233741316Y-113308974D01*
X233690451Y-113431772D01*
X233587167Y-113681123D01*
X233363377Y-114016048D01*
X233078548Y-114300877D01*
X232743623Y-114524667D01*
X232662990Y-114558066D01*
X232371474Y-114678816D01*
X231976406Y-114757400D01*
X231573594Y-114757400D01*
X231178526Y-114678816D01*
X230887010Y-114558066D01*
X230806377Y-114524667D01*
X230471452Y-114300877D01*
X230186623Y-114016048D01*
X229962833Y-113681123D01*
X229859549Y-113431772D01*
X229808684Y-113308974D01*
X229730100Y-112913906D01*
X229730100Y-112511094D01*
X229808684Y-112116026D01*
X229930438Y-111822086D01*
X229962833Y-111743877D01*
X230186623Y-111408952D01*
X230471452Y-111124123D01*
X230806377Y-110900333D01*
X231022187Y-110810942D01*
X231178526Y-110746184D01*
X231573594Y-110667600D01*
X231976406Y-110667600D01*
X232371474Y-110746184D01*
X232371474Y-110746184D01*
G37*
G36*
X207915104Y-111822085D02*
G01*
X208083626Y-111891889D01*
X208235291Y-111993228D01*
X208364272Y-112122209D01*
X208465611Y-112273874D01*
X208535415Y-112442396D01*
X208571000Y-112621297D01*
X208571000Y-112803703D01*
X208535415Y-112982604D01*
X208465611Y-113151126D01*
X208364272Y-113302791D01*
X208235291Y-113431772D01*
X208083626Y-113533111D01*
X207915104Y-113602915D01*
X207736203Y-113638500D01*
X207553797Y-113638500D01*
X207374896Y-113602915D01*
X207206374Y-113533111D01*
X207054709Y-113431772D01*
X206925728Y-113302791D01*
X206824389Y-113151126D01*
X206754585Y-112982604D01*
X206719000Y-112803703D01*
X206719000Y-112621297D01*
X206754585Y-112442396D01*
X206824389Y-112273874D01*
X206925728Y-112122209D01*
X207054709Y-111993228D01*
X207206374Y-111891889D01*
X207374896Y-111822085D01*
X207553797Y-111786500D01*
X207736203Y-111786500D01*
X207915104Y-111822085D01*
X207915104Y-111822085D01*
G37*
G36*
X218075104Y-111822085D02*
G01*
X218243626Y-111891889D01*
X218395291Y-111993228D01*
X218524272Y-112122209D01*
X218625611Y-112273874D01*
X218695415Y-112442396D01*
X218731000Y-112621297D01*
X218731000Y-112803703D01*
X218695415Y-112982604D01*
X218625611Y-113151126D01*
X218524272Y-113302791D01*
X218395291Y-113431772D01*
X218243626Y-113533111D01*
X218075104Y-113602915D01*
X217896203Y-113638500D01*
X217713797Y-113638500D01*
X217534896Y-113602915D01*
X217366374Y-113533111D01*
X217214709Y-113431772D01*
X217085728Y-113302791D01*
X216984389Y-113151126D01*
X216914585Y-112982604D01*
X216879000Y-112803703D01*
X216879000Y-112621297D01*
X216914585Y-112442396D01*
X216984389Y-112273874D01*
X217085728Y-112122209D01*
X217214709Y-111993228D01*
X217366374Y-111891889D01*
X217534896Y-111822085D01*
X217713797Y-111786500D01*
X217896203Y-111786500D01*
X218075104Y-111822085D01*
X218075104Y-111822085D01*
G37*
G36*
X226965104Y-111822085D02*
G01*
X227133626Y-111891889D01*
X227285291Y-111993228D01*
X227414272Y-112122209D01*
X227515611Y-112273874D01*
X227585415Y-112442396D01*
X227621000Y-112621297D01*
X227621000Y-112803703D01*
X227585415Y-112982604D01*
X227515611Y-113151126D01*
X227414272Y-113302791D01*
X227285291Y-113431772D01*
X227133626Y-113533111D01*
X226965104Y-113602915D01*
X226786203Y-113638500D01*
X226603797Y-113638500D01*
X226424896Y-113602915D01*
X226256374Y-113533111D01*
X226104709Y-113431772D01*
X225975728Y-113302791D01*
X225874389Y-113151126D01*
X225804585Y-112982604D01*
X225769000Y-112803703D01*
X225769000Y-112621297D01*
X225804585Y-112442396D01*
X225874389Y-112273874D01*
X225975728Y-112122209D01*
X226104709Y-111993228D01*
X226256374Y-111891889D01*
X226424896Y-111822085D01*
X226603797Y-111786500D01*
X226786203Y-111786500D01*
X226965104Y-111822085D01*
X226965104Y-111822085D01*
G37*
G36*
X237125104Y-111822085D02*
G01*
X237293626Y-111891889D01*
X237445291Y-111993228D01*
X237574272Y-112122209D01*
X237675611Y-112273874D01*
X237745415Y-112442396D01*
X237781000Y-112621297D01*
X237781000Y-112803703D01*
X237745415Y-112982604D01*
X237675611Y-113151126D01*
X237574272Y-113302791D01*
X237445291Y-113431772D01*
X237293626Y-113533111D01*
X237125104Y-113602915D01*
X236946203Y-113638500D01*
X236763797Y-113638500D01*
X236584896Y-113602915D01*
X236416374Y-113533111D01*
X236264709Y-113431772D01*
X236135728Y-113302791D01*
X236034389Y-113151126D01*
X235964585Y-112982604D01*
X235929000Y-112803703D01*
X235929000Y-112621297D01*
X235964585Y-112442396D01*
X236034389Y-112273874D01*
X236135728Y-112122209D01*
X236264709Y-111993228D01*
X236416374Y-111891889D01*
X236584896Y-111822085D01*
X236763797Y-111786500D01*
X236946203Y-111786500D01*
X237125104Y-111822085D01*
X237125104Y-111822085D01*
G37*
G36*
X196660684Y-110734936D02*
G01*
X196700534Y-110747024D01*
X196737249Y-110766649D01*
X196769436Y-110793064D01*
X196795851Y-110825251D01*
X196815476Y-110861966D01*
X196827564Y-110901816D01*
X196832250Y-110949391D01*
X196832250Y-111613109D01*
X196827564Y-111660684D01*
X196815476Y-111700534D01*
X196795851Y-111737249D01*
X196769436Y-111769436D01*
X196737249Y-111795851D01*
X196700534Y-111815476D01*
X196660684Y-111827564D01*
X196613109Y-111832250D01*
X195499391Y-111832250D01*
X195451816Y-111827564D01*
X195411966Y-111815476D01*
X195375251Y-111795851D01*
X195343064Y-111769436D01*
X195316649Y-111737249D01*
X195297024Y-111700534D01*
X195284936Y-111660684D01*
X195280250Y-111613109D01*
X195280250Y-110949391D01*
X195284936Y-110901816D01*
X195297024Y-110861966D01*
X195316649Y-110825251D01*
X195343064Y-110793064D01*
X195375251Y-110766649D01*
X195411966Y-110747024D01*
X195451816Y-110734936D01*
X195499391Y-110730250D01*
X196613109Y-110730250D01*
X196660684Y-110734936D01*
X196660684Y-110734936D01*
G37*
G36*
X193144750Y-111832250D02*
G01*
X191642750Y-111832250D01*
X191642750Y-110530250D01*
X193144750Y-110530250D01*
X193144750Y-111832250D01*
X193144750Y-111832250D01*
G37*
G36*
X190944750Y-111832250D02*
G01*
X189442750Y-111832250D01*
X189442750Y-110530250D01*
X190944750Y-110530250D01*
X190944750Y-111832250D01*
X190944750Y-111832250D01*
G37*
G36*
X187135684Y-110734936D02*
G01*
X187175534Y-110747024D01*
X187212249Y-110766649D01*
X187244436Y-110793064D01*
X187270851Y-110825251D01*
X187290476Y-110861966D01*
X187302564Y-110901816D01*
X187307250Y-110949391D01*
X187307250Y-111613109D01*
X187302564Y-111660684D01*
X187290476Y-111700534D01*
X187270851Y-111737249D01*
X187244436Y-111769436D01*
X187212249Y-111795851D01*
X187175534Y-111815476D01*
X187135684Y-111827564D01*
X187088109Y-111832250D01*
X185974391Y-111832250D01*
X185926816Y-111827564D01*
X185886966Y-111815476D01*
X185850251Y-111795851D01*
X185818064Y-111769436D01*
X185791649Y-111737249D01*
X185772024Y-111700534D01*
X185759936Y-111660684D01*
X185755250Y-111613109D01*
X185755250Y-110949391D01*
X185759936Y-110901816D01*
X185772024Y-110861966D01*
X185791649Y-110825251D01*
X185818064Y-110793064D01*
X185850251Y-110766649D01*
X185886966Y-110747024D01*
X185926816Y-110734936D01*
X185974391Y-110730250D01*
X187088109Y-110730250D01*
X187135684Y-110734936D01*
X187135684Y-110734936D01*
G37*
G36*
X240363500Y-111563500D02*
G01*
X239061500Y-111563500D01*
X239061500Y-110561500D01*
X240363500Y-110561500D01*
X240363500Y-111563500D01*
X240363500Y-111563500D01*
G37*
G36*
X221313500Y-111563500D02*
G01*
X220011500Y-111563500D01*
X220011500Y-110561500D01*
X221313500Y-110561500D01*
X221313500Y-111563500D01*
X221313500Y-111563500D01*
G37*
G36*
X229298205Y-107536381D02*
G01*
X229303645Y-107536500D01*
X229390828Y-107536500D01*
X229407097Y-107539736D01*
X229425956Y-107542015D01*
X229442532Y-107542746D01*
X229527223Y-107563510D01*
X229532518Y-107564684D01*
X229618027Y-107581693D01*
X229633362Y-107588045D01*
X229651401Y-107593955D01*
X229667521Y-107597907D01*
X229746504Y-107634780D01*
X229751494Y-107636977D01*
X229832045Y-107670342D01*
X229845841Y-107679560D01*
X229862393Y-107688882D01*
X229877426Y-107695900D01*
X229947694Y-107747471D01*
X229952192Y-107750622D01*
X230024656Y-107799041D01*
X230036383Y-107810768D01*
X230050809Y-107823148D01*
X230064179Y-107832961D01*
X230113687Y-107887037D01*
X230123021Y-107897233D01*
X230126829Y-107901214D01*
X230188459Y-107962844D01*
X230197674Y-107976635D01*
X230209396Y-107991578D01*
X230220605Y-108003821D01*
X230265799Y-108078374D01*
X230268746Y-108083001D01*
X230317158Y-108155455D01*
X230323505Y-108170777D01*
X230332092Y-108187731D01*
X230340691Y-108201917D01*
X230370478Y-108283868D01*
X230372452Y-108288948D01*
X230405807Y-108369473D01*
X230405807Y-108369474D01*
X230409041Y-108385733D01*
X230414158Y-108404042D01*
X230419825Y-108419634D01*
X230433055Y-108505845D01*
X230434001Y-108511213D01*
X230451000Y-108596673D01*
X230451000Y-108613252D01*
X230452444Y-108632192D01*
X230454963Y-108648604D01*
X230451120Y-108735749D01*
X230451000Y-108741189D01*
X230451000Y-108828325D01*
X230447766Y-108844583D01*
X230445488Y-108863441D01*
X230444756Y-108880031D01*
X230423988Y-108964737D01*
X230422812Y-108970037D01*
X230405807Y-109055527D01*
X230399457Y-109070857D01*
X230393549Y-109088893D01*
X230389595Y-109105020D01*
X230352711Y-109184026D01*
X230350511Y-109189023D01*
X230317158Y-109269545D01*
X230307944Y-109283335D01*
X230298622Y-109299887D01*
X230291602Y-109314924D01*
X230240011Y-109385220D01*
X230236866Y-109389710D01*
X230188461Y-109462154D01*
X230131460Y-109519155D01*
X230126811Y-109524063D01*
X229793220Y-109895851D01*
X228801723Y-111000876D01*
X228673679Y-111118102D01*
X228574630Y-111178146D01*
X228475583Y-111238189D01*
X228257866Y-111317323D01*
X228028895Y-111352461D01*
X227797470Y-111342254D01*
X227572481Y-111287093D01*
X227467727Y-111238189D01*
X227362579Y-111189102D01*
X227265838Y-111118102D01*
X227175823Y-111052039D01*
X227084239Y-110952003D01*
X227019398Y-110881179D01*
X226956050Y-110776680D01*
X226899311Y-110683083D01*
X226820177Y-110465366D01*
X226785039Y-110236395D01*
X226795246Y-110004970D01*
X226850407Y-109779981D01*
X226907937Y-109656750D01*
X226948398Y-109570080D01*
X226948400Y-109570077D01*
X227051114Y-109430122D01*
X227797409Y-108598375D01*
X228337787Y-107996121D01*
X228348681Y-107982089D01*
X228361539Y-107962846D01*
X228418573Y-107905812D01*
X228423223Y-107900903D01*
X228438278Y-107884124D01*
X228459701Y-107864511D01*
X228463682Y-107860703D01*
X228525346Y-107799039D01*
X228539143Y-107789820D01*
X228554102Y-107778085D01*
X228566321Y-107766898D01*
X228598385Y-107747461D01*
X228640830Y-107721731D01*
X228645421Y-107718808D01*
X228717955Y-107670342D01*
X228733300Y-107663986D01*
X228750248Y-107655401D01*
X228764416Y-107646812D01*
X228764417Y-107646812D01*
X228764418Y-107646811D01*
X228846312Y-107617045D01*
X228851410Y-107615063D01*
X228931973Y-107581693D01*
X228948252Y-107578455D01*
X228966542Y-107573344D01*
X228982135Y-107567677D01*
X229068300Y-107554454D01*
X229073663Y-107553509D01*
X229159173Y-107536500D01*
X229175766Y-107536500D01*
X229194709Y-107535055D01*
X229211106Y-107532539D01*
X229298205Y-107536381D01*
X229298205Y-107536381D01*
G37*
G36*
X210248205Y-107536381D02*
G01*
X210253645Y-107536500D01*
X210340828Y-107536500D01*
X210357097Y-107539736D01*
X210375956Y-107542015D01*
X210392532Y-107542746D01*
X210477223Y-107563510D01*
X210482518Y-107564684D01*
X210568027Y-107581693D01*
X210583362Y-107588045D01*
X210601401Y-107593955D01*
X210617521Y-107597907D01*
X210696504Y-107634780D01*
X210701494Y-107636977D01*
X210782045Y-107670342D01*
X210795841Y-107679560D01*
X210812393Y-107688882D01*
X210827426Y-107695900D01*
X210897694Y-107747471D01*
X210902192Y-107750622D01*
X210974656Y-107799041D01*
X210986383Y-107810768D01*
X211000809Y-107823148D01*
X211014179Y-107832961D01*
X211063687Y-107887037D01*
X211073021Y-107897233D01*
X211076829Y-107901214D01*
X211138459Y-107962844D01*
X211147674Y-107976635D01*
X211159396Y-107991578D01*
X211170605Y-108003821D01*
X211215799Y-108078374D01*
X211218746Y-108083001D01*
X211267158Y-108155455D01*
X211273505Y-108170777D01*
X211282092Y-108187731D01*
X211290691Y-108201917D01*
X211320478Y-108283868D01*
X211322452Y-108288948D01*
X211355807Y-108369473D01*
X211355807Y-108369474D01*
X211359041Y-108385733D01*
X211364158Y-108404042D01*
X211369825Y-108419634D01*
X211383055Y-108505845D01*
X211384001Y-108511213D01*
X211401000Y-108596673D01*
X211401000Y-108613252D01*
X211402444Y-108632192D01*
X211404963Y-108648604D01*
X211401120Y-108735749D01*
X211401000Y-108741189D01*
X211401000Y-108828325D01*
X211397766Y-108844583D01*
X211395488Y-108863441D01*
X211394756Y-108880031D01*
X211373988Y-108964737D01*
X211372812Y-108970037D01*
X211355807Y-109055527D01*
X211349457Y-109070857D01*
X211343549Y-109088893D01*
X211339595Y-109105020D01*
X211302711Y-109184026D01*
X211300511Y-109189023D01*
X211267158Y-109269545D01*
X211257944Y-109283335D01*
X211248622Y-109299887D01*
X211241602Y-109314924D01*
X211190011Y-109385220D01*
X211186866Y-109389710D01*
X211138461Y-109462154D01*
X211081460Y-109519155D01*
X211076811Y-109524063D01*
X210743220Y-109895851D01*
X209751723Y-111000876D01*
X209623679Y-111118102D01*
X209524630Y-111178146D01*
X209425583Y-111238189D01*
X209207866Y-111317323D01*
X208978895Y-111352461D01*
X208747470Y-111342254D01*
X208522481Y-111287093D01*
X208417727Y-111238189D01*
X208312579Y-111189102D01*
X208215838Y-111118102D01*
X208125823Y-111052039D01*
X208034239Y-110952003D01*
X207969398Y-110881179D01*
X207906050Y-110776680D01*
X207849311Y-110683083D01*
X207770177Y-110465366D01*
X207735039Y-110236395D01*
X207745246Y-110004970D01*
X207800407Y-109779981D01*
X207857937Y-109656750D01*
X207898398Y-109570080D01*
X207898400Y-109570077D01*
X208001114Y-109430122D01*
X208747409Y-108598375D01*
X209287787Y-107996121D01*
X209298681Y-107982089D01*
X209311539Y-107962846D01*
X209368573Y-107905812D01*
X209373223Y-107900903D01*
X209388278Y-107884124D01*
X209409701Y-107864511D01*
X209413682Y-107860703D01*
X209475346Y-107799039D01*
X209489143Y-107789820D01*
X209504102Y-107778085D01*
X209516321Y-107766898D01*
X209548385Y-107747461D01*
X209590830Y-107721731D01*
X209595421Y-107718808D01*
X209667955Y-107670342D01*
X209683300Y-107663986D01*
X209700248Y-107655401D01*
X209714416Y-107646812D01*
X209714417Y-107646812D01*
X209714418Y-107646811D01*
X209796312Y-107617045D01*
X209801410Y-107615063D01*
X209881973Y-107581693D01*
X209898252Y-107578455D01*
X209916542Y-107573344D01*
X209932135Y-107567677D01*
X210018300Y-107554454D01*
X210023663Y-107553509D01*
X210109173Y-107536500D01*
X210125766Y-107536500D01*
X210144709Y-107535055D01*
X210161106Y-107532539D01*
X210248205Y-107536381D01*
X210248205Y-107536381D01*
G37*
G36*
X173689127Y-107887037D02*
G01*
X173858966Y-107938557D01*
X174015491Y-108022222D01*
X174051229Y-108051552D01*
X174152686Y-108134814D01*
X174207754Y-108201916D01*
X174265278Y-108272009D01*
X174348943Y-108428534D01*
X174400463Y-108598373D01*
X174400463Y-108598375D01*
X174413500Y-108730740D01*
X174413500Y-109819260D01*
X174410319Y-109851558D01*
X174400463Y-109951627D01*
X174348943Y-110121466D01*
X174265278Y-110277991D01*
X174235948Y-110313729D01*
X174152686Y-110415186D01*
X174015489Y-110527779D01*
X173858967Y-110611442D01*
X173858965Y-110611443D01*
X173689126Y-110662963D01*
X173512500Y-110680359D01*
X173335873Y-110662963D01*
X173166034Y-110611443D01*
X173009509Y-110527778D01*
X172933466Y-110465371D01*
X172872314Y-110415186D01*
X172759721Y-110277989D01*
X172676058Y-110121467D01*
X172676057Y-110121465D01*
X172624537Y-109951626D01*
X172611500Y-109819257D01*
X172611501Y-108730742D01*
X172624538Y-108598373D01*
X172676058Y-108428534D01*
X172759723Y-108272009D01*
X172817247Y-108201916D01*
X172872315Y-108134814D01*
X172973772Y-108051552D01*
X173009510Y-108022222D01*
X173166035Y-107938557D01*
X173335874Y-107887037D01*
X173512500Y-107869641D01*
X173689127Y-107887037D01*
X173689127Y-107887037D01*
G37*
G36*
X166389127Y-107887037D02*
G01*
X166558966Y-107938557D01*
X166715491Y-108022222D01*
X166751229Y-108051552D01*
X166852686Y-108134814D01*
X166907754Y-108201916D01*
X166965278Y-108272009D01*
X167048943Y-108428534D01*
X167100463Y-108598373D01*
X167100463Y-108598375D01*
X167113500Y-108730740D01*
X167113500Y-109819260D01*
X167110319Y-109851558D01*
X167100463Y-109951627D01*
X167048943Y-110121466D01*
X166965278Y-110277991D01*
X166935948Y-110313729D01*
X166852686Y-110415186D01*
X166715489Y-110527779D01*
X166558967Y-110611442D01*
X166558965Y-110611443D01*
X166389126Y-110662963D01*
X166212500Y-110680359D01*
X166035873Y-110662963D01*
X165866034Y-110611443D01*
X165709509Y-110527778D01*
X165633466Y-110465371D01*
X165572314Y-110415186D01*
X165459721Y-110277989D01*
X165376058Y-110121467D01*
X165376057Y-110121465D01*
X165324537Y-109951626D01*
X165311500Y-109819257D01*
X165311501Y-108730742D01*
X165324538Y-108598373D01*
X165376058Y-108428534D01*
X165459723Y-108272009D01*
X165517247Y-108201916D01*
X165572315Y-108134814D01*
X165673772Y-108051552D01*
X165709510Y-108022222D01*
X165866035Y-107938557D01*
X166035874Y-107887037D01*
X166212500Y-107869641D01*
X166389127Y-107887037D01*
X166389127Y-107887037D01*
G37*
G36*
X171763500Y-110451000D02*
G01*
X167961500Y-110451000D01*
X167961500Y-108099000D01*
X171763500Y-108099000D01*
X171763500Y-110451000D01*
X171763500Y-110451000D01*
G37*
G36*
X190944750Y-110132250D02*
G01*
X189442750Y-110132250D01*
X189442750Y-108830250D01*
X190944750Y-108830250D01*
X190944750Y-110132250D01*
X190944750Y-110132250D01*
G37*
G36*
X193144750Y-110132250D02*
G01*
X191642750Y-110132250D01*
X191642750Y-108830250D01*
X193144750Y-108830250D01*
X193144750Y-110132250D01*
X193144750Y-110132250D01*
G37*
G36*
X196660684Y-108834936D02*
G01*
X196700534Y-108847024D01*
X196737249Y-108866649D01*
X196769436Y-108893064D01*
X196795851Y-108925251D01*
X196815476Y-108961966D01*
X196827564Y-109001816D01*
X196832250Y-109049391D01*
X196832250Y-109713109D01*
X196827564Y-109760684D01*
X196815476Y-109800534D01*
X196795851Y-109837249D01*
X196769436Y-109869436D01*
X196737249Y-109895851D01*
X196700534Y-109915476D01*
X196660684Y-109927564D01*
X196613109Y-109932250D01*
X195499391Y-109932250D01*
X195451816Y-109927564D01*
X195411966Y-109915476D01*
X195375251Y-109895851D01*
X195343064Y-109869436D01*
X195316649Y-109837249D01*
X195297024Y-109800534D01*
X195284936Y-109760684D01*
X195280250Y-109713109D01*
X195280250Y-109049391D01*
X195284936Y-109001816D01*
X195297024Y-108961966D01*
X195316649Y-108925251D01*
X195343064Y-108893064D01*
X195375251Y-108866649D01*
X195411966Y-108847024D01*
X195451816Y-108834936D01*
X195499391Y-108830250D01*
X196613109Y-108830250D01*
X196660684Y-108834936D01*
X196660684Y-108834936D01*
G37*
G36*
X187135684Y-108834936D02*
G01*
X187175534Y-108847024D01*
X187212249Y-108866649D01*
X187244436Y-108893064D01*
X187270851Y-108925251D01*
X187290476Y-108961966D01*
X187302564Y-109001816D01*
X187307250Y-109049391D01*
X187307250Y-109713109D01*
X187302564Y-109760684D01*
X187290476Y-109800534D01*
X187270851Y-109837249D01*
X187244436Y-109869436D01*
X187212249Y-109895851D01*
X187175534Y-109915476D01*
X187135684Y-109927564D01*
X187088109Y-109932250D01*
X185974391Y-109932250D01*
X185926816Y-109927564D01*
X185886966Y-109915476D01*
X185850251Y-109895851D01*
X185818064Y-109869436D01*
X185791649Y-109837249D01*
X185772024Y-109800534D01*
X185759936Y-109760684D01*
X185755250Y-109713109D01*
X185755250Y-109049391D01*
X185759936Y-109001816D01*
X185772024Y-108961966D01*
X185791649Y-108925251D01*
X185818064Y-108893064D01*
X185850251Y-108866649D01*
X185886966Y-108847024D01*
X185926816Y-108834936D01*
X185974391Y-108830250D01*
X187088109Y-108830250D01*
X187135684Y-108834936D01*
X187135684Y-108834936D01*
G37*
G36*
X215353127Y-106454761D02*
G01*
X215373900Y-106456500D01*
X215380827Y-106456500D01*
X215475754Y-106475382D01*
X215479348Y-106476042D01*
X215574730Y-106492124D01*
X215581203Y-106494585D01*
X215601228Y-106500341D01*
X215608027Y-106501693D01*
X215670414Y-106527534D01*
X215697443Y-106538730D01*
X215700844Y-106540081D01*
X215791255Y-106574461D01*
X215797127Y-106578140D01*
X215815636Y-106587687D01*
X215822045Y-106590342D01*
X215902563Y-106644142D01*
X215905554Y-106646078D01*
X215987557Y-106697459D01*
X215992584Y-106702200D01*
X216008896Y-106715191D01*
X216014652Y-106719037D01*
X216083110Y-106787495D01*
X216085689Y-106789999D01*
X216156090Y-106856389D01*
X216160095Y-106862019D01*
X216173559Y-106877944D01*
X216178459Y-106882844D01*
X216232244Y-106963339D01*
X216234291Y-106966307D01*
X216290380Y-107045145D01*
X216293214Y-107051458D01*
X216303308Y-107069693D01*
X216307158Y-107075455D01*
X216344220Y-107164930D01*
X216345624Y-107168185D01*
X216385265Y-107256473D01*
X216386815Y-107263225D01*
X216393152Y-107283062D01*
X216395807Y-107289473D01*
X216414692Y-107384417D01*
X216415438Y-107387901D01*
X216437098Y-107482251D01*
X216437098Y-107482254D01*
X216437300Y-107489154D01*
X216439647Y-107509870D01*
X216441000Y-107516674D01*
X216441000Y-107613486D01*
X216441053Y-107617084D01*
X216442188Y-107655777D01*
X216441295Y-107668725D01*
X216441000Y-107677297D01*
X216441000Y-107748326D01*
X216435081Y-107778085D01*
X216434604Y-107780479D01*
X216432500Y-107796250D01*
X216394238Y-108351045D01*
X216365376Y-108522230D01*
X216283038Y-108738755D01*
X216160041Y-108935057D01*
X216001111Y-109103590D01*
X215812355Y-109237880D01*
X215601027Y-109332765D01*
X215375249Y-109384598D01*
X215143698Y-109391389D01*
X215143697Y-109391389D01*
X215098012Y-109383686D01*
X214915270Y-109352876D01*
X214698745Y-109270538D01*
X214502443Y-109147541D01*
X214333910Y-108988611D01*
X214199620Y-108799855D01*
X214104735Y-108588527D01*
X214052902Y-108362749D01*
X214047812Y-108189223D01*
X214088704Y-107596294D01*
X214089000Y-107587696D01*
X214089000Y-107516675D01*
X214107882Y-107421750D01*
X214108544Y-107418145D01*
X214114231Y-107384417D01*
X214124624Y-107322770D01*
X214127085Y-107316299D01*
X214132842Y-107296267D01*
X214134193Y-107289474D01*
X214136843Y-107283076D01*
X214171264Y-107199976D01*
X214172553Y-107196730D01*
X214206962Y-107106245D01*
X214210636Y-107100381D01*
X214220187Y-107081865D01*
X214222842Y-107075455D01*
X214276657Y-106994915D01*
X214278577Y-106991949D01*
X214329959Y-106909943D01*
X214334711Y-106904904D01*
X214347689Y-106888607D01*
X214351537Y-106882848D01*
X214419993Y-106814392D01*
X214422546Y-106811762D01*
X214443023Y-106790048D01*
X214488889Y-106741410D01*
X214494521Y-106737403D01*
X214510447Y-106723938D01*
X214515346Y-106719039D01*
X214595824Y-106665266D01*
X214598806Y-106663210D01*
X214677645Y-106607120D01*
X214683955Y-106604287D01*
X214702194Y-106594191D01*
X214707951Y-106590344D01*
X214707954Y-106590343D01*
X214707955Y-106590342D01*
X214797429Y-106553281D01*
X214800687Y-106551875D01*
X214888973Y-106512235D01*
X214895725Y-106510685D01*
X214915562Y-106504348D01*
X214921973Y-106501693D01*
X215016899Y-106482811D01*
X215020446Y-106482051D01*
X215114751Y-106460401D01*
X215117130Y-106460331D01*
X215121665Y-106460198D01*
X215142381Y-106457851D01*
X215149174Y-106456500D01*
X215245959Y-106456500D01*
X215249584Y-106456447D01*
X215346302Y-106453610D01*
X215353127Y-106454761D01*
X215353127Y-106454761D01*
G37*
G36*
X234403127Y-106454761D02*
G01*
X234423900Y-106456500D01*
X234430827Y-106456500D01*
X234525754Y-106475382D01*
X234529348Y-106476042D01*
X234624730Y-106492124D01*
X234631203Y-106494585D01*
X234651228Y-106500341D01*
X234658027Y-106501693D01*
X234720414Y-106527534D01*
X234747443Y-106538730D01*
X234750844Y-106540081D01*
X234841255Y-106574461D01*
X234847127Y-106578140D01*
X234865636Y-106587687D01*
X234872045Y-106590342D01*
X234952563Y-106644142D01*
X234955554Y-106646078D01*
X235037557Y-106697459D01*
X235042584Y-106702200D01*
X235058896Y-106715191D01*
X235064652Y-106719037D01*
X235133110Y-106787495D01*
X235135689Y-106789999D01*
X235206090Y-106856389D01*
X235210095Y-106862019D01*
X235223559Y-106877944D01*
X235228459Y-106882844D01*
X235282244Y-106963339D01*
X235284291Y-106966307D01*
X235340380Y-107045145D01*
X235343214Y-107051458D01*
X235353308Y-107069693D01*
X235357158Y-107075455D01*
X235394220Y-107164930D01*
X235395624Y-107168185D01*
X235435265Y-107256473D01*
X235436815Y-107263225D01*
X235443152Y-107283062D01*
X235445807Y-107289473D01*
X235464692Y-107384417D01*
X235465438Y-107387901D01*
X235487098Y-107482251D01*
X235487098Y-107482254D01*
X235487300Y-107489154D01*
X235489647Y-107509870D01*
X235491000Y-107516674D01*
X235491000Y-107613486D01*
X235491053Y-107617084D01*
X235492188Y-107655777D01*
X235491295Y-107668725D01*
X235491000Y-107677297D01*
X235491000Y-107748326D01*
X235485081Y-107778085D01*
X235484604Y-107780479D01*
X235482500Y-107796250D01*
X235444238Y-108351045D01*
X235415376Y-108522230D01*
X235333038Y-108738755D01*
X235210041Y-108935057D01*
X235051111Y-109103590D01*
X234862355Y-109237880D01*
X234651027Y-109332765D01*
X234425249Y-109384598D01*
X234193698Y-109391389D01*
X234193697Y-109391389D01*
X234148012Y-109383686D01*
X233965270Y-109352876D01*
X233748745Y-109270538D01*
X233552443Y-109147541D01*
X233383910Y-108988611D01*
X233249620Y-108799855D01*
X233154735Y-108588527D01*
X233102902Y-108362749D01*
X233097812Y-108189223D01*
X233138704Y-107596294D01*
X233139000Y-107587696D01*
X233139000Y-107516675D01*
X233157882Y-107421750D01*
X233158544Y-107418145D01*
X233164231Y-107384417D01*
X233174624Y-107322770D01*
X233177085Y-107316299D01*
X233182842Y-107296267D01*
X233184193Y-107289474D01*
X233186843Y-107283076D01*
X233221264Y-107199976D01*
X233222553Y-107196730D01*
X233256962Y-107106245D01*
X233260636Y-107100381D01*
X233270187Y-107081865D01*
X233272842Y-107075455D01*
X233326657Y-106994915D01*
X233328577Y-106991949D01*
X233379959Y-106909943D01*
X233384711Y-106904904D01*
X233397689Y-106888607D01*
X233401537Y-106882848D01*
X233469993Y-106814392D01*
X233472546Y-106811762D01*
X233493023Y-106790048D01*
X233538889Y-106741410D01*
X233544521Y-106737403D01*
X233560447Y-106723938D01*
X233565346Y-106719039D01*
X233645824Y-106665266D01*
X233648806Y-106663210D01*
X233727645Y-106607120D01*
X233733955Y-106604287D01*
X233752194Y-106594191D01*
X233757951Y-106590344D01*
X233757954Y-106590343D01*
X233757955Y-106590342D01*
X233847429Y-106553281D01*
X233850687Y-106551875D01*
X233938973Y-106512235D01*
X233945725Y-106510685D01*
X233965562Y-106504348D01*
X233971973Y-106501693D01*
X234066899Y-106482811D01*
X234070446Y-106482051D01*
X234164751Y-106460401D01*
X234167130Y-106460331D01*
X234171665Y-106460198D01*
X234192381Y-106457851D01*
X234199174Y-106456500D01*
X234295959Y-106456500D01*
X234299584Y-106456447D01*
X234396302Y-106453610D01*
X234403127Y-106454761D01*
X234403127Y-106454761D01*
G37*
G36*
X166389127Y-103387037D02*
G01*
X166558966Y-103438557D01*
X166715491Y-103522222D01*
X166751229Y-103551552D01*
X166852686Y-103634814D01*
X166935948Y-103736271D01*
X166965278Y-103772009D01*
X167048943Y-103928534D01*
X167100463Y-104098373D01*
X167113500Y-104230742D01*
X167113500Y-105319258D01*
X167100463Y-105451627D01*
X167048943Y-105621466D01*
X166965278Y-105777991D01*
X166935948Y-105813729D01*
X166852686Y-105915186D01*
X166715489Y-106027779D01*
X166558967Y-106111442D01*
X166558965Y-106111443D01*
X166389126Y-106162963D01*
X166212500Y-106180359D01*
X166035873Y-106162963D01*
X165866034Y-106111443D01*
X165709509Y-106027778D01*
X165673771Y-105998448D01*
X165572314Y-105915186D01*
X165459721Y-105777989D01*
X165376058Y-105621467D01*
X165376057Y-105621465D01*
X165324537Y-105451626D01*
X165311500Y-105319257D01*
X165311501Y-104230742D01*
X165324538Y-104098373D01*
X165376058Y-103928534D01*
X165459723Y-103772009D01*
X165489053Y-103736271D01*
X165572315Y-103634814D01*
X165673772Y-103551552D01*
X165709510Y-103522222D01*
X165866035Y-103438557D01*
X166035874Y-103387037D01*
X166212500Y-103369641D01*
X166389127Y-103387037D01*
X166389127Y-103387037D01*
G37*
G36*
X173689127Y-103387037D02*
G01*
X173858966Y-103438557D01*
X174015491Y-103522222D01*
X174051229Y-103551552D01*
X174152686Y-103634814D01*
X174235948Y-103736271D01*
X174265278Y-103772009D01*
X174348943Y-103928534D01*
X174400463Y-104098373D01*
X174413500Y-104230742D01*
X174413500Y-105319258D01*
X174400463Y-105451627D01*
X174348943Y-105621466D01*
X174265278Y-105777991D01*
X174235948Y-105813729D01*
X174152686Y-105915186D01*
X174015489Y-106027779D01*
X173858967Y-106111442D01*
X173858965Y-106111443D01*
X173689126Y-106162963D01*
X173512500Y-106180359D01*
X173335873Y-106162963D01*
X173166034Y-106111443D01*
X173009509Y-106027778D01*
X172973771Y-105998448D01*
X172872314Y-105915186D01*
X172759721Y-105777989D01*
X172676058Y-105621467D01*
X172676057Y-105621465D01*
X172624537Y-105451626D01*
X172611500Y-105319257D01*
X172611501Y-104230742D01*
X172624538Y-104098373D01*
X172676058Y-103928534D01*
X172759723Y-103772009D01*
X172789053Y-103736271D01*
X172872315Y-103634814D01*
X172973772Y-103551552D01*
X173009510Y-103522222D01*
X173166035Y-103438557D01*
X173335874Y-103387037D01*
X173512500Y-103369641D01*
X173689127Y-103387037D01*
X173689127Y-103387037D01*
G37*
M02*
