G04 #@! TF.GenerationSoftware,KiCad,Pcbnew,(5.1.4-0-10_14)*
G04 #@! TF.CreationDate,2021-05-05T22:13:24+08:00*
G04 #@! TF.ProjectId,pcb-project,7063622d-7072-46f6-9a65-63742e6b6963,rev?*
G04 #@! TF.SameCoordinates,Original*
G04 #@! TF.FileFunction,Legend,Bot*
G04 #@! TF.FilePolarity,Positive*
%FSLAX46Y46*%
G04 Gerber Fmt 4.6, Leading zero omitted, Abs format (unit mm)*
G04 Created by KiCad (PCBNEW (5.1.4-0-10_14)) date 2021-05-05 22:13:24*
%MOMM*%
%LPD*%
G04 APERTURE LIST*
%ADD10C,0.150000*%
%ADD11C,0.120000*%
%ADD12O,1.802000X2.802000*%
%ADD13R,0.602000X2.352000*%
%ADD14R,1.502000X1.302000*%
%ADD15R,0.652000X1.602000*%
%ADD16R,1.602000X0.652000*%
%ADD17R,1.902000X1.202000*%
%ADD18C,0.100000*%
%ADD19C,1.127000*%
%ADD20C,1.852000*%
%ADD21C,2.352000*%
%ADD22C,4.089800*%
%ADD23C,2.352000*%
%ADD24C,1.352000*%
%ADD25R,1.302000X1.002000*%
%ADD26C,1.102000*%
G04 APERTURE END LIST*
D10*
X166012500Y-104775000D02*
X166012500Y-110225000D01*
X173712500Y-104775000D02*
X173712500Y-110225000D01*
X166012500Y-110225000D02*
X173712500Y-110225000D01*
D11*
X193293750Y-111981250D02*
X189293750Y-111981250D01*
X193293750Y-108681250D02*
X193293750Y-111981250D01*
D10*
X186912500Y-129218750D02*
X185637500Y-129218750D01*
X197262500Y-129793750D02*
X196587500Y-129793750D01*
X197262500Y-119443750D02*
X196587500Y-119443750D01*
X186912500Y-119443750D02*
X187587500Y-119443750D01*
X186912500Y-129793750D02*
X187587500Y-129793750D01*
X186912500Y-119443750D02*
X186912500Y-120118750D01*
X197262500Y-119443750D02*
X197262500Y-120118750D01*
X197262500Y-129793750D02*
X197262500Y-129118750D01*
X186912500Y-129793750D02*
X186912500Y-129218750D01*
X172462500Y-133131250D02*
X167262500Y-133131250D01*
X167262500Y-133131250D02*
X167262500Y-138331250D01*
X167262500Y-138331250D02*
X172462500Y-138331250D01*
X172462500Y-138331250D02*
X172462500Y-133131250D01*
X170862500Y-135731250D02*
G75*
G03X170862500Y-135731250I-1000000J0D01*
G01*
D11*
X200877500Y-129608314D02*
X200877500Y-129154186D01*
X202347500Y-129608314D02*
X202347500Y-129154186D01*
X180916250Y-115660436D02*
X180916250Y-116114564D01*
X179446250Y-115660436D02*
X179446250Y-116114564D01*
X170715000Y-116114564D02*
X170715000Y-115660436D01*
X172185000Y-116114564D02*
X172185000Y-115660436D01*
X167540000Y-116114564D02*
X167540000Y-115660436D01*
X169010000Y-116114564D02*
X169010000Y-115660436D01*
X162602500Y-121858314D02*
X162602500Y-120654186D01*
X164422500Y-121858314D02*
X164422500Y-120654186D01*
X240712500Y-134012500D02*
X240712500Y-130112500D01*
X238712500Y-134012500D02*
X238712500Y-130112500D01*
X240712500Y-134012500D02*
X238712500Y-134012500D01*
X240712500Y-114962500D02*
X240712500Y-111062500D01*
X238712500Y-114962500D02*
X238712500Y-111062500D01*
X240712500Y-114962500D02*
X238712500Y-114962500D01*
X221662500Y-134012500D02*
X221662500Y-130112500D01*
X219662500Y-134012500D02*
X219662500Y-130112500D01*
X221662500Y-134012500D02*
X219662500Y-134012500D01*
X221662500Y-114962500D02*
X221662500Y-111062500D01*
X219662500Y-114962500D02*
X219662500Y-111062500D01*
X221662500Y-114962500D02*
X219662500Y-114962500D01*
X183297500Y-129913748D02*
X183297500Y-130436252D01*
X181827500Y-129913748D02*
X181827500Y-130436252D01*
X197111252Y-134878750D02*
X196588748Y-134878750D01*
X197111252Y-133408750D02*
X196588748Y-133408750D01*
X180442502Y-124560000D02*
X179919998Y-124560000D01*
X180442502Y-123090000D02*
X179919998Y-123090000D01*
X200877500Y-120117502D02*
X200877500Y-119594998D01*
X202347500Y-120117502D02*
X202347500Y-119594998D01*
X187266250Y-110069998D02*
X187266250Y-110592502D01*
X185796250Y-110069998D02*
X185796250Y-110592502D01*
X195321250Y-110592502D02*
X195321250Y-110069998D01*
X196791250Y-110592502D02*
X196791250Y-110069998D01*
X183415000Y-116148752D02*
X183415000Y-115626248D01*
X184885000Y-116148752D02*
X184885000Y-115626248D01*
D10*
X171600595Y-106259380D02*
X171600595Y-107068904D01*
X171552976Y-107164142D01*
X171505357Y-107211761D01*
X171410119Y-107259380D01*
X171219642Y-107259380D01*
X171124404Y-107211761D01*
X171076785Y-107164142D01*
X171029166Y-107068904D01*
X171029166Y-106259380D01*
X170600595Y-107211761D02*
X170457738Y-107259380D01*
X170219642Y-107259380D01*
X170124404Y-107211761D01*
X170076785Y-107164142D01*
X170029166Y-107068904D01*
X170029166Y-106973666D01*
X170076785Y-106878428D01*
X170124404Y-106830809D01*
X170219642Y-106783190D01*
X170410119Y-106735571D01*
X170505357Y-106687952D01*
X170552976Y-106640333D01*
X170600595Y-106545095D01*
X170600595Y-106449857D01*
X170552976Y-106354619D01*
X170505357Y-106307000D01*
X170410119Y-106259380D01*
X170172023Y-106259380D01*
X170029166Y-106307000D01*
X169267261Y-106735571D02*
X169124404Y-106783190D01*
X169076785Y-106830809D01*
X169029166Y-106926047D01*
X169029166Y-107068904D01*
X169076785Y-107164142D01*
X169124404Y-107211761D01*
X169219642Y-107259380D01*
X169600595Y-107259380D01*
X169600595Y-106259380D01*
X169267261Y-106259380D01*
X169172023Y-106307000D01*
X169124404Y-106354619D01*
X169076785Y-106449857D01*
X169076785Y-106545095D01*
X169124404Y-106640333D01*
X169172023Y-106687952D01*
X169267261Y-106735571D01*
X169600595Y-106735571D01*
X168076785Y-107259380D02*
X168648214Y-107259380D01*
X168362500Y-107259380D02*
X168362500Y-106259380D01*
X168457738Y-106402238D01*
X168552976Y-106497476D01*
X168648214Y-106545095D01*
X191769940Y-107857440D02*
X191769940Y-108333630D01*
X192103273Y-107333630D02*
X191769940Y-107857440D01*
X191436607Y-107333630D01*
X190579464Y-108333630D02*
X191150892Y-108333630D01*
X190865178Y-108333630D02*
X190865178Y-107333630D01*
X190960416Y-107476488D01*
X191055654Y-107571726D01*
X191150892Y-107619345D01*
X192849404Y-131521130D02*
X192849404Y-132330654D01*
X192801785Y-132425892D01*
X192754166Y-132473511D01*
X192658928Y-132521130D01*
X192468452Y-132521130D01*
X192373214Y-132473511D01*
X192325595Y-132425892D01*
X192277976Y-132330654D01*
X192277976Y-131521130D01*
X191277976Y-132521130D02*
X191849404Y-132521130D01*
X191563690Y-132521130D02*
X191563690Y-131521130D01*
X191658928Y-131663988D01*
X191754166Y-131759226D01*
X191849404Y-131806845D01*
X171195833Y-140200011D02*
X171052976Y-140247630D01*
X170814880Y-140247630D01*
X170719642Y-140200011D01*
X170672023Y-140152392D01*
X170624404Y-140057154D01*
X170624404Y-139961916D01*
X170672023Y-139866678D01*
X170719642Y-139819059D01*
X170814880Y-139771440D01*
X171005357Y-139723821D01*
X171100595Y-139676202D01*
X171148214Y-139628583D01*
X171195833Y-139533345D01*
X171195833Y-139438107D01*
X171148214Y-139342869D01*
X171100595Y-139295250D01*
X171005357Y-139247630D01*
X170767261Y-139247630D01*
X170624404Y-139295250D01*
X170291071Y-139247630D02*
X170052976Y-140247630D01*
X169862500Y-139533345D01*
X169672023Y-140247630D01*
X169433928Y-139247630D01*
X168529166Y-140247630D02*
X169100595Y-140247630D01*
X168814880Y-140247630D02*
X168814880Y-139247630D01*
X168910119Y-139390488D01*
X169005357Y-139485726D01*
X169100595Y-139533345D01*
X203714880Y-129214583D02*
X203238690Y-128881250D01*
X203714880Y-128643154D02*
X202714880Y-128643154D01*
X202714880Y-129024107D01*
X202762500Y-129119345D01*
X202810119Y-129166964D01*
X202905357Y-129214583D01*
X203048214Y-129214583D01*
X203143452Y-129166964D01*
X203191071Y-129119345D01*
X203238690Y-129024107D01*
X203238690Y-128643154D01*
X203048214Y-130071726D02*
X203714880Y-130071726D01*
X202667261Y-129833630D02*
X203381547Y-129595535D01*
X203381547Y-130214583D01*
X178983630Y-115720833D02*
X178507440Y-115387500D01*
X178983630Y-115149404D02*
X177983630Y-115149404D01*
X177983630Y-115530357D01*
X178031250Y-115625595D01*
X178078869Y-115673214D01*
X178174107Y-115720833D01*
X178316964Y-115720833D01*
X178412202Y-115673214D01*
X178459821Y-115625595D01*
X178507440Y-115530357D01*
X178507440Y-115149404D01*
X177983630Y-116054166D02*
X177983630Y-116673214D01*
X178364583Y-116339880D01*
X178364583Y-116482738D01*
X178412202Y-116577976D01*
X178459821Y-116625595D01*
X178555059Y-116673214D01*
X178793154Y-116673214D01*
X178888392Y-116625595D01*
X178936011Y-116577976D01*
X178983630Y-116482738D01*
X178983630Y-116197023D01*
X178936011Y-116101785D01*
X178888392Y-116054166D01*
X173552380Y-115720833D02*
X173076190Y-115387500D01*
X173552380Y-115149404D02*
X172552380Y-115149404D01*
X172552380Y-115530357D01*
X172600000Y-115625595D01*
X172647619Y-115673214D01*
X172742857Y-115720833D01*
X172885714Y-115720833D01*
X172980952Y-115673214D01*
X173028571Y-115625595D01*
X173076190Y-115530357D01*
X173076190Y-115149404D01*
X172647619Y-116101785D02*
X172600000Y-116149404D01*
X172552380Y-116244642D01*
X172552380Y-116482738D01*
X172600000Y-116577976D01*
X172647619Y-116625595D01*
X172742857Y-116673214D01*
X172838095Y-116673214D01*
X172980952Y-116625595D01*
X173552380Y-116054166D01*
X173552380Y-116673214D01*
X170377380Y-115720833D02*
X169901190Y-115387500D01*
X170377380Y-115149404D02*
X169377380Y-115149404D01*
X169377380Y-115530357D01*
X169425000Y-115625595D01*
X169472619Y-115673214D01*
X169567857Y-115720833D01*
X169710714Y-115720833D01*
X169805952Y-115673214D01*
X169853571Y-115625595D01*
X169901190Y-115530357D01*
X169901190Y-115149404D01*
X170377380Y-116673214D02*
X170377380Y-116101785D01*
X170377380Y-116387500D02*
X169377380Y-116387500D01*
X169520238Y-116292261D01*
X169615476Y-116197023D01*
X169663095Y-116101785D01*
X165261071Y-120922916D02*
X165261071Y-120589583D01*
X165784880Y-120589583D02*
X164784880Y-120589583D01*
X164784880Y-121065773D01*
X165784880Y-121970535D02*
X165784880Y-121399107D01*
X165784880Y-121684821D02*
X164784880Y-121684821D01*
X164927738Y-121589583D01*
X165022976Y-121494345D01*
X165070595Y-121399107D01*
X242164880Y-131024404D02*
X241164880Y-131024404D01*
X241164880Y-131262500D01*
X241212500Y-131405357D01*
X241307738Y-131500595D01*
X241402976Y-131548214D01*
X241593452Y-131595833D01*
X241736309Y-131595833D01*
X241926785Y-131548214D01*
X242022023Y-131500595D01*
X242117261Y-131405357D01*
X242164880Y-131262500D01*
X242164880Y-131024404D01*
X241498214Y-132452976D02*
X242164880Y-132452976D01*
X241117261Y-132214880D02*
X241831547Y-131976785D01*
X241831547Y-132595833D01*
X242164880Y-111974404D02*
X241164880Y-111974404D01*
X241164880Y-112212500D01*
X241212500Y-112355357D01*
X241307738Y-112450595D01*
X241402976Y-112498214D01*
X241593452Y-112545833D01*
X241736309Y-112545833D01*
X241926785Y-112498214D01*
X242022023Y-112450595D01*
X242117261Y-112355357D01*
X242164880Y-112212500D01*
X242164880Y-111974404D01*
X241164880Y-112879166D02*
X241164880Y-113498214D01*
X241545833Y-113164880D01*
X241545833Y-113307738D01*
X241593452Y-113402976D01*
X241641071Y-113450595D01*
X241736309Y-113498214D01*
X241974404Y-113498214D01*
X242069642Y-113450595D01*
X242117261Y-113402976D01*
X242164880Y-113307738D01*
X242164880Y-113022023D01*
X242117261Y-112926785D01*
X242069642Y-112879166D01*
X223114880Y-131024404D02*
X222114880Y-131024404D01*
X222114880Y-131262500D01*
X222162500Y-131405357D01*
X222257738Y-131500595D01*
X222352976Y-131548214D01*
X222543452Y-131595833D01*
X222686309Y-131595833D01*
X222876785Y-131548214D01*
X222972023Y-131500595D01*
X223067261Y-131405357D01*
X223114880Y-131262500D01*
X223114880Y-131024404D01*
X222210119Y-131976785D02*
X222162500Y-132024404D01*
X222114880Y-132119642D01*
X222114880Y-132357738D01*
X222162500Y-132452976D01*
X222210119Y-132500595D01*
X222305357Y-132548214D01*
X222400595Y-132548214D01*
X222543452Y-132500595D01*
X223114880Y-131929166D01*
X223114880Y-132548214D01*
X223114880Y-111974404D02*
X222114880Y-111974404D01*
X222114880Y-112212500D01*
X222162500Y-112355357D01*
X222257738Y-112450595D01*
X222352976Y-112498214D01*
X222543452Y-112545833D01*
X222686309Y-112545833D01*
X222876785Y-112498214D01*
X222972023Y-112450595D01*
X223067261Y-112355357D01*
X223114880Y-112212500D01*
X223114880Y-111974404D01*
X223114880Y-113498214D02*
X223114880Y-112926785D01*
X223114880Y-113212500D02*
X222114880Y-113212500D01*
X222257738Y-113117261D01*
X222352976Y-113022023D01*
X222400595Y-112926785D01*
X181239642Y-130008333D02*
X181287261Y-129960714D01*
X181334880Y-129817857D01*
X181334880Y-129722619D01*
X181287261Y-129579761D01*
X181192023Y-129484523D01*
X181096785Y-129436904D01*
X180906309Y-129389285D01*
X180763452Y-129389285D01*
X180572976Y-129436904D01*
X180477738Y-129484523D01*
X180382500Y-129579761D01*
X180334880Y-129722619D01*
X180334880Y-129817857D01*
X180382500Y-129960714D01*
X180430119Y-130008333D01*
X180334880Y-130341666D02*
X180334880Y-131008333D01*
X181334880Y-130579761D01*
X197016666Y-132820892D02*
X197064285Y-132868511D01*
X197207142Y-132916130D01*
X197302380Y-132916130D01*
X197445238Y-132868511D01*
X197540476Y-132773273D01*
X197588095Y-132678035D01*
X197635714Y-132487559D01*
X197635714Y-132344702D01*
X197588095Y-132154226D01*
X197540476Y-132058988D01*
X197445238Y-131963750D01*
X197302380Y-131916130D01*
X197207142Y-131916130D01*
X197064285Y-131963750D01*
X197016666Y-132011369D01*
X196159523Y-131916130D02*
X196350000Y-131916130D01*
X196445238Y-131963750D01*
X196492857Y-132011369D01*
X196588095Y-132154226D01*
X196635714Y-132344702D01*
X196635714Y-132725654D01*
X196588095Y-132820892D01*
X196540476Y-132868511D01*
X196445238Y-132916130D01*
X196254761Y-132916130D01*
X196159523Y-132868511D01*
X196111904Y-132820892D01*
X196064285Y-132725654D01*
X196064285Y-132487559D01*
X196111904Y-132392321D01*
X196159523Y-132344702D01*
X196254761Y-132297083D01*
X196445238Y-132297083D01*
X196540476Y-132344702D01*
X196588095Y-132392321D01*
X196635714Y-132487559D01*
X180347916Y-122502142D02*
X180395535Y-122549761D01*
X180538392Y-122597380D01*
X180633630Y-122597380D01*
X180776488Y-122549761D01*
X180871726Y-122454523D01*
X180919345Y-122359285D01*
X180966964Y-122168809D01*
X180966964Y-122025952D01*
X180919345Y-121835476D01*
X180871726Y-121740238D01*
X180776488Y-121645000D01*
X180633630Y-121597380D01*
X180538392Y-121597380D01*
X180395535Y-121645000D01*
X180347916Y-121692619D01*
X179443154Y-121597380D02*
X179919345Y-121597380D01*
X179966964Y-122073571D01*
X179919345Y-122025952D01*
X179824107Y-121978333D01*
X179586011Y-121978333D01*
X179490773Y-122025952D01*
X179443154Y-122073571D01*
X179395535Y-122168809D01*
X179395535Y-122406904D01*
X179443154Y-122502142D01*
X179490773Y-122549761D01*
X179586011Y-122597380D01*
X179824107Y-122597380D01*
X179919345Y-122549761D01*
X179966964Y-122502142D01*
X203649642Y-119689583D02*
X203697261Y-119641964D01*
X203744880Y-119499107D01*
X203744880Y-119403869D01*
X203697261Y-119261011D01*
X203602023Y-119165773D01*
X203506785Y-119118154D01*
X203316309Y-119070535D01*
X203173452Y-119070535D01*
X202982976Y-119118154D01*
X202887738Y-119165773D01*
X202792500Y-119261011D01*
X202744880Y-119403869D01*
X202744880Y-119499107D01*
X202792500Y-119641964D01*
X202840119Y-119689583D01*
X203078214Y-120546726D02*
X203744880Y-120546726D01*
X202697261Y-120308630D02*
X203411547Y-120070535D01*
X203411547Y-120689583D01*
X185208392Y-110164583D02*
X185256011Y-110116964D01*
X185303630Y-109974107D01*
X185303630Y-109878869D01*
X185256011Y-109736011D01*
X185160773Y-109640773D01*
X185065535Y-109593154D01*
X184875059Y-109545535D01*
X184732202Y-109545535D01*
X184541726Y-109593154D01*
X184446488Y-109640773D01*
X184351250Y-109736011D01*
X184303630Y-109878869D01*
X184303630Y-109974107D01*
X184351250Y-110116964D01*
X184398869Y-110164583D01*
X184303630Y-110497916D02*
X184303630Y-111116964D01*
X184684583Y-110783630D01*
X184684583Y-110926488D01*
X184732202Y-111021726D01*
X184779821Y-111069345D01*
X184875059Y-111116964D01*
X185113154Y-111116964D01*
X185208392Y-111069345D01*
X185256011Y-111021726D01*
X185303630Y-110926488D01*
X185303630Y-110640773D01*
X185256011Y-110545535D01*
X185208392Y-110497916D01*
X198093392Y-110164583D02*
X198141011Y-110116964D01*
X198188630Y-109974107D01*
X198188630Y-109878869D01*
X198141011Y-109736011D01*
X198045773Y-109640773D01*
X197950535Y-109593154D01*
X197760059Y-109545535D01*
X197617202Y-109545535D01*
X197426726Y-109593154D01*
X197331488Y-109640773D01*
X197236250Y-109736011D01*
X197188630Y-109878869D01*
X197188630Y-109974107D01*
X197236250Y-110116964D01*
X197283869Y-110164583D01*
X197283869Y-110545535D02*
X197236250Y-110593154D01*
X197188630Y-110688392D01*
X197188630Y-110926488D01*
X197236250Y-111021726D01*
X197283869Y-111069345D01*
X197379107Y-111116964D01*
X197474345Y-111116964D01*
X197617202Y-111069345D01*
X198188630Y-110497916D01*
X198188630Y-111116964D01*
X186187142Y-115720833D02*
X186234761Y-115673214D01*
X186282380Y-115530357D01*
X186282380Y-115435119D01*
X186234761Y-115292261D01*
X186139523Y-115197023D01*
X186044285Y-115149404D01*
X185853809Y-115101785D01*
X185710952Y-115101785D01*
X185520476Y-115149404D01*
X185425238Y-115197023D01*
X185330000Y-115292261D01*
X185282380Y-115435119D01*
X185282380Y-115530357D01*
X185330000Y-115673214D01*
X185377619Y-115720833D01*
X186282380Y-116673214D02*
X186282380Y-116101785D01*
X186282380Y-116387500D02*
X185282380Y-116387500D01*
X185425238Y-116292261D01*
X185520476Y-116197023D01*
X185568095Y-116101785D01*
%LPC*%
D12*
X166212500Y-104775000D03*
X173512500Y-104775000D03*
X173512500Y-109275000D03*
X166212500Y-109275000D03*
D13*
X168262500Y-109275000D03*
X169062500Y-109275000D03*
X169862500Y-109275000D03*
X170662500Y-109275000D03*
X171462500Y-109275000D03*
D14*
X192393750Y-109481250D03*
X190193750Y-109481250D03*
X190193750Y-111181250D03*
X192393750Y-111181250D03*
D15*
X188087500Y-130318750D03*
X188887500Y-130318750D03*
X189687500Y-130318750D03*
X190487500Y-130318750D03*
X191287500Y-130318750D03*
X192087500Y-130318750D03*
X192887500Y-130318750D03*
X193687500Y-130318750D03*
X194487500Y-130318750D03*
X195287500Y-130318750D03*
X196087500Y-130318750D03*
D16*
X197787500Y-128618750D03*
X197787500Y-127818750D03*
X197787500Y-127018750D03*
X197787500Y-126218750D03*
X197787500Y-125418750D03*
X197787500Y-124618750D03*
X197787500Y-123818750D03*
X197787500Y-123018750D03*
X197787500Y-122218750D03*
X197787500Y-121418750D03*
X197787500Y-120618750D03*
D15*
X196087500Y-118918750D03*
X195287500Y-118918750D03*
X194487500Y-118918750D03*
X193687500Y-118918750D03*
X192887500Y-118918750D03*
X192087500Y-118918750D03*
X191287500Y-118918750D03*
X190487500Y-118918750D03*
X189687500Y-118918750D03*
X188887500Y-118918750D03*
X188087500Y-118918750D03*
D16*
X186387500Y-120618750D03*
X186387500Y-121418750D03*
X186387500Y-122218750D03*
X186387500Y-123018750D03*
X186387500Y-123818750D03*
X186387500Y-124618750D03*
X186387500Y-125418750D03*
X186387500Y-126218750D03*
X186387500Y-127018750D03*
X186387500Y-127818750D03*
X186387500Y-128618750D03*
D17*
X172962500Y-137581250D03*
X166762500Y-133881250D03*
X172962500Y-133881250D03*
X166762500Y-137581250D03*
D18*
G36*
X202115566Y-127906574D02*
G01*
X202142249Y-127910532D01*
X202168416Y-127917086D01*
X202193814Y-127926174D01*
X202218199Y-127937707D01*
X202241336Y-127951575D01*
X202263003Y-127967644D01*
X202282990Y-127985760D01*
X202301106Y-128005747D01*
X202317175Y-128027414D01*
X202331043Y-128050551D01*
X202342576Y-128074936D01*
X202351664Y-128100334D01*
X202358218Y-128126501D01*
X202362176Y-128153184D01*
X202363500Y-128180127D01*
X202363500Y-128757373D01*
X202362176Y-128784316D01*
X202358218Y-128810999D01*
X202351664Y-128837166D01*
X202342576Y-128862564D01*
X202331043Y-128886949D01*
X202317175Y-128910086D01*
X202301106Y-128931753D01*
X202282990Y-128951740D01*
X202263003Y-128969856D01*
X202241336Y-128985925D01*
X202218199Y-128999793D01*
X202193814Y-129011326D01*
X202168416Y-129020414D01*
X202142249Y-129026968D01*
X202115566Y-129030926D01*
X202088623Y-129032250D01*
X201136377Y-129032250D01*
X201109434Y-129030926D01*
X201082751Y-129026968D01*
X201056584Y-129020414D01*
X201031186Y-129011326D01*
X201006801Y-128999793D01*
X200983664Y-128985925D01*
X200961997Y-128969856D01*
X200942010Y-128951740D01*
X200923894Y-128931753D01*
X200907825Y-128910086D01*
X200893957Y-128886949D01*
X200882424Y-128862564D01*
X200873336Y-128837166D01*
X200866782Y-128810999D01*
X200862824Y-128784316D01*
X200861500Y-128757373D01*
X200861500Y-128180127D01*
X200862824Y-128153184D01*
X200866782Y-128126501D01*
X200873336Y-128100334D01*
X200882424Y-128074936D01*
X200893957Y-128050551D01*
X200907825Y-128027414D01*
X200923894Y-128005747D01*
X200942010Y-127985760D01*
X200961997Y-127967644D01*
X200983664Y-127951575D01*
X201006801Y-127937707D01*
X201031186Y-127926174D01*
X201056584Y-127917086D01*
X201082751Y-127910532D01*
X201109434Y-127906574D01*
X201136377Y-127905250D01*
X202088623Y-127905250D01*
X202115566Y-127906574D01*
X202115566Y-127906574D01*
G37*
D19*
X201612500Y-128468750D03*
D18*
G36*
X202115566Y-129731574D02*
G01*
X202142249Y-129735532D01*
X202168416Y-129742086D01*
X202193814Y-129751174D01*
X202218199Y-129762707D01*
X202241336Y-129776575D01*
X202263003Y-129792644D01*
X202282990Y-129810760D01*
X202301106Y-129830747D01*
X202317175Y-129852414D01*
X202331043Y-129875551D01*
X202342576Y-129899936D01*
X202351664Y-129925334D01*
X202358218Y-129951501D01*
X202362176Y-129978184D01*
X202363500Y-130005127D01*
X202363500Y-130582373D01*
X202362176Y-130609316D01*
X202358218Y-130635999D01*
X202351664Y-130662166D01*
X202342576Y-130687564D01*
X202331043Y-130711949D01*
X202317175Y-130735086D01*
X202301106Y-130756753D01*
X202282990Y-130776740D01*
X202263003Y-130794856D01*
X202241336Y-130810925D01*
X202218199Y-130824793D01*
X202193814Y-130836326D01*
X202168416Y-130845414D01*
X202142249Y-130851968D01*
X202115566Y-130855926D01*
X202088623Y-130857250D01*
X201136377Y-130857250D01*
X201109434Y-130855926D01*
X201082751Y-130851968D01*
X201056584Y-130845414D01*
X201031186Y-130836326D01*
X201006801Y-130824793D01*
X200983664Y-130810925D01*
X200961997Y-130794856D01*
X200942010Y-130776740D01*
X200923894Y-130756753D01*
X200907825Y-130735086D01*
X200893957Y-130711949D01*
X200882424Y-130687564D01*
X200873336Y-130662166D01*
X200866782Y-130635999D01*
X200862824Y-130609316D01*
X200861500Y-130582373D01*
X200861500Y-130005127D01*
X200862824Y-129978184D01*
X200866782Y-129951501D01*
X200873336Y-129925334D01*
X200882424Y-129899936D01*
X200893957Y-129875551D01*
X200907825Y-129852414D01*
X200923894Y-129830747D01*
X200942010Y-129810760D01*
X200961997Y-129792644D01*
X200983664Y-129776575D01*
X201006801Y-129762707D01*
X201031186Y-129751174D01*
X201056584Y-129742086D01*
X201082751Y-129735532D01*
X201109434Y-129731574D01*
X201136377Y-129730250D01*
X202088623Y-129730250D01*
X202115566Y-129731574D01*
X202115566Y-129731574D01*
G37*
D19*
X201612500Y-130293750D03*
D18*
G36*
X180684316Y-116237824D02*
G01*
X180710999Y-116241782D01*
X180737166Y-116248336D01*
X180762564Y-116257424D01*
X180786949Y-116268957D01*
X180810086Y-116282825D01*
X180831753Y-116298894D01*
X180851740Y-116317010D01*
X180869856Y-116336997D01*
X180885925Y-116358664D01*
X180899793Y-116381801D01*
X180911326Y-116406186D01*
X180920414Y-116431584D01*
X180926968Y-116457751D01*
X180930926Y-116484434D01*
X180932250Y-116511377D01*
X180932250Y-117088623D01*
X180930926Y-117115566D01*
X180926968Y-117142249D01*
X180920414Y-117168416D01*
X180911326Y-117193814D01*
X180899793Y-117218199D01*
X180885925Y-117241336D01*
X180869856Y-117263003D01*
X180851740Y-117282990D01*
X180831753Y-117301106D01*
X180810086Y-117317175D01*
X180786949Y-117331043D01*
X180762564Y-117342576D01*
X180737166Y-117351664D01*
X180710999Y-117358218D01*
X180684316Y-117362176D01*
X180657373Y-117363500D01*
X179705127Y-117363500D01*
X179678184Y-117362176D01*
X179651501Y-117358218D01*
X179625334Y-117351664D01*
X179599936Y-117342576D01*
X179575551Y-117331043D01*
X179552414Y-117317175D01*
X179530747Y-117301106D01*
X179510760Y-117282990D01*
X179492644Y-117263003D01*
X179476575Y-117241336D01*
X179462707Y-117218199D01*
X179451174Y-117193814D01*
X179442086Y-117168416D01*
X179435532Y-117142249D01*
X179431574Y-117115566D01*
X179430250Y-117088623D01*
X179430250Y-116511377D01*
X179431574Y-116484434D01*
X179435532Y-116457751D01*
X179442086Y-116431584D01*
X179451174Y-116406186D01*
X179462707Y-116381801D01*
X179476575Y-116358664D01*
X179492644Y-116336997D01*
X179510760Y-116317010D01*
X179530747Y-116298894D01*
X179552414Y-116282825D01*
X179575551Y-116268957D01*
X179599936Y-116257424D01*
X179625334Y-116248336D01*
X179651501Y-116241782D01*
X179678184Y-116237824D01*
X179705127Y-116236500D01*
X180657373Y-116236500D01*
X180684316Y-116237824D01*
X180684316Y-116237824D01*
G37*
D19*
X180181250Y-116800000D03*
D18*
G36*
X180684316Y-114412824D02*
G01*
X180710999Y-114416782D01*
X180737166Y-114423336D01*
X180762564Y-114432424D01*
X180786949Y-114443957D01*
X180810086Y-114457825D01*
X180831753Y-114473894D01*
X180851740Y-114492010D01*
X180869856Y-114511997D01*
X180885925Y-114533664D01*
X180899793Y-114556801D01*
X180911326Y-114581186D01*
X180920414Y-114606584D01*
X180926968Y-114632751D01*
X180930926Y-114659434D01*
X180932250Y-114686377D01*
X180932250Y-115263623D01*
X180930926Y-115290566D01*
X180926968Y-115317249D01*
X180920414Y-115343416D01*
X180911326Y-115368814D01*
X180899793Y-115393199D01*
X180885925Y-115416336D01*
X180869856Y-115438003D01*
X180851740Y-115457990D01*
X180831753Y-115476106D01*
X180810086Y-115492175D01*
X180786949Y-115506043D01*
X180762564Y-115517576D01*
X180737166Y-115526664D01*
X180710999Y-115533218D01*
X180684316Y-115537176D01*
X180657373Y-115538500D01*
X179705127Y-115538500D01*
X179678184Y-115537176D01*
X179651501Y-115533218D01*
X179625334Y-115526664D01*
X179599936Y-115517576D01*
X179575551Y-115506043D01*
X179552414Y-115492175D01*
X179530747Y-115476106D01*
X179510760Y-115457990D01*
X179492644Y-115438003D01*
X179476575Y-115416336D01*
X179462707Y-115393199D01*
X179451174Y-115368814D01*
X179442086Y-115343416D01*
X179435532Y-115317249D01*
X179431574Y-115290566D01*
X179430250Y-115263623D01*
X179430250Y-114686377D01*
X179431574Y-114659434D01*
X179435532Y-114632751D01*
X179442086Y-114606584D01*
X179451174Y-114581186D01*
X179462707Y-114556801D01*
X179476575Y-114533664D01*
X179492644Y-114511997D01*
X179510760Y-114492010D01*
X179530747Y-114473894D01*
X179552414Y-114457825D01*
X179575551Y-114443957D01*
X179599936Y-114432424D01*
X179625334Y-114423336D01*
X179651501Y-114416782D01*
X179678184Y-114412824D01*
X179705127Y-114411500D01*
X180657373Y-114411500D01*
X180684316Y-114412824D01*
X180684316Y-114412824D01*
G37*
D19*
X180181250Y-114975000D03*
D18*
G36*
X171953066Y-114412824D02*
G01*
X171979749Y-114416782D01*
X172005916Y-114423336D01*
X172031314Y-114432424D01*
X172055699Y-114443957D01*
X172078836Y-114457825D01*
X172100503Y-114473894D01*
X172120490Y-114492010D01*
X172138606Y-114511997D01*
X172154675Y-114533664D01*
X172168543Y-114556801D01*
X172180076Y-114581186D01*
X172189164Y-114606584D01*
X172195718Y-114632751D01*
X172199676Y-114659434D01*
X172201000Y-114686377D01*
X172201000Y-115263623D01*
X172199676Y-115290566D01*
X172195718Y-115317249D01*
X172189164Y-115343416D01*
X172180076Y-115368814D01*
X172168543Y-115393199D01*
X172154675Y-115416336D01*
X172138606Y-115438003D01*
X172120490Y-115457990D01*
X172100503Y-115476106D01*
X172078836Y-115492175D01*
X172055699Y-115506043D01*
X172031314Y-115517576D01*
X172005916Y-115526664D01*
X171979749Y-115533218D01*
X171953066Y-115537176D01*
X171926123Y-115538500D01*
X170973877Y-115538500D01*
X170946934Y-115537176D01*
X170920251Y-115533218D01*
X170894084Y-115526664D01*
X170868686Y-115517576D01*
X170844301Y-115506043D01*
X170821164Y-115492175D01*
X170799497Y-115476106D01*
X170779510Y-115457990D01*
X170761394Y-115438003D01*
X170745325Y-115416336D01*
X170731457Y-115393199D01*
X170719924Y-115368814D01*
X170710836Y-115343416D01*
X170704282Y-115317249D01*
X170700324Y-115290566D01*
X170699000Y-115263623D01*
X170699000Y-114686377D01*
X170700324Y-114659434D01*
X170704282Y-114632751D01*
X170710836Y-114606584D01*
X170719924Y-114581186D01*
X170731457Y-114556801D01*
X170745325Y-114533664D01*
X170761394Y-114511997D01*
X170779510Y-114492010D01*
X170799497Y-114473894D01*
X170821164Y-114457825D01*
X170844301Y-114443957D01*
X170868686Y-114432424D01*
X170894084Y-114423336D01*
X170920251Y-114416782D01*
X170946934Y-114412824D01*
X170973877Y-114411500D01*
X171926123Y-114411500D01*
X171953066Y-114412824D01*
X171953066Y-114412824D01*
G37*
D19*
X171450000Y-114975000D03*
D18*
G36*
X171953066Y-116237824D02*
G01*
X171979749Y-116241782D01*
X172005916Y-116248336D01*
X172031314Y-116257424D01*
X172055699Y-116268957D01*
X172078836Y-116282825D01*
X172100503Y-116298894D01*
X172120490Y-116317010D01*
X172138606Y-116336997D01*
X172154675Y-116358664D01*
X172168543Y-116381801D01*
X172180076Y-116406186D01*
X172189164Y-116431584D01*
X172195718Y-116457751D01*
X172199676Y-116484434D01*
X172201000Y-116511377D01*
X172201000Y-117088623D01*
X172199676Y-117115566D01*
X172195718Y-117142249D01*
X172189164Y-117168416D01*
X172180076Y-117193814D01*
X172168543Y-117218199D01*
X172154675Y-117241336D01*
X172138606Y-117263003D01*
X172120490Y-117282990D01*
X172100503Y-117301106D01*
X172078836Y-117317175D01*
X172055699Y-117331043D01*
X172031314Y-117342576D01*
X172005916Y-117351664D01*
X171979749Y-117358218D01*
X171953066Y-117362176D01*
X171926123Y-117363500D01*
X170973877Y-117363500D01*
X170946934Y-117362176D01*
X170920251Y-117358218D01*
X170894084Y-117351664D01*
X170868686Y-117342576D01*
X170844301Y-117331043D01*
X170821164Y-117317175D01*
X170799497Y-117301106D01*
X170779510Y-117282990D01*
X170761394Y-117263003D01*
X170745325Y-117241336D01*
X170731457Y-117218199D01*
X170719924Y-117193814D01*
X170710836Y-117168416D01*
X170704282Y-117142249D01*
X170700324Y-117115566D01*
X170699000Y-117088623D01*
X170699000Y-116511377D01*
X170700324Y-116484434D01*
X170704282Y-116457751D01*
X170710836Y-116431584D01*
X170719924Y-116406186D01*
X170731457Y-116381801D01*
X170745325Y-116358664D01*
X170761394Y-116336997D01*
X170779510Y-116317010D01*
X170799497Y-116298894D01*
X170821164Y-116282825D01*
X170844301Y-116268957D01*
X170868686Y-116257424D01*
X170894084Y-116248336D01*
X170920251Y-116241782D01*
X170946934Y-116237824D01*
X170973877Y-116236500D01*
X171926123Y-116236500D01*
X171953066Y-116237824D01*
X171953066Y-116237824D01*
G37*
D19*
X171450000Y-116800000D03*
D18*
G36*
X168778066Y-114412824D02*
G01*
X168804749Y-114416782D01*
X168830916Y-114423336D01*
X168856314Y-114432424D01*
X168880699Y-114443957D01*
X168903836Y-114457825D01*
X168925503Y-114473894D01*
X168945490Y-114492010D01*
X168963606Y-114511997D01*
X168979675Y-114533664D01*
X168993543Y-114556801D01*
X169005076Y-114581186D01*
X169014164Y-114606584D01*
X169020718Y-114632751D01*
X169024676Y-114659434D01*
X169026000Y-114686377D01*
X169026000Y-115263623D01*
X169024676Y-115290566D01*
X169020718Y-115317249D01*
X169014164Y-115343416D01*
X169005076Y-115368814D01*
X168993543Y-115393199D01*
X168979675Y-115416336D01*
X168963606Y-115438003D01*
X168945490Y-115457990D01*
X168925503Y-115476106D01*
X168903836Y-115492175D01*
X168880699Y-115506043D01*
X168856314Y-115517576D01*
X168830916Y-115526664D01*
X168804749Y-115533218D01*
X168778066Y-115537176D01*
X168751123Y-115538500D01*
X167798877Y-115538500D01*
X167771934Y-115537176D01*
X167745251Y-115533218D01*
X167719084Y-115526664D01*
X167693686Y-115517576D01*
X167669301Y-115506043D01*
X167646164Y-115492175D01*
X167624497Y-115476106D01*
X167604510Y-115457990D01*
X167586394Y-115438003D01*
X167570325Y-115416336D01*
X167556457Y-115393199D01*
X167544924Y-115368814D01*
X167535836Y-115343416D01*
X167529282Y-115317249D01*
X167525324Y-115290566D01*
X167524000Y-115263623D01*
X167524000Y-114686377D01*
X167525324Y-114659434D01*
X167529282Y-114632751D01*
X167535836Y-114606584D01*
X167544924Y-114581186D01*
X167556457Y-114556801D01*
X167570325Y-114533664D01*
X167586394Y-114511997D01*
X167604510Y-114492010D01*
X167624497Y-114473894D01*
X167646164Y-114457825D01*
X167669301Y-114443957D01*
X167693686Y-114432424D01*
X167719084Y-114423336D01*
X167745251Y-114416782D01*
X167771934Y-114412824D01*
X167798877Y-114411500D01*
X168751123Y-114411500D01*
X168778066Y-114412824D01*
X168778066Y-114412824D01*
G37*
D19*
X168275000Y-114975000D03*
D18*
G36*
X168778066Y-116237824D02*
G01*
X168804749Y-116241782D01*
X168830916Y-116248336D01*
X168856314Y-116257424D01*
X168880699Y-116268957D01*
X168903836Y-116282825D01*
X168925503Y-116298894D01*
X168945490Y-116317010D01*
X168963606Y-116336997D01*
X168979675Y-116358664D01*
X168993543Y-116381801D01*
X169005076Y-116406186D01*
X169014164Y-116431584D01*
X169020718Y-116457751D01*
X169024676Y-116484434D01*
X169026000Y-116511377D01*
X169026000Y-117088623D01*
X169024676Y-117115566D01*
X169020718Y-117142249D01*
X169014164Y-117168416D01*
X169005076Y-117193814D01*
X168993543Y-117218199D01*
X168979675Y-117241336D01*
X168963606Y-117263003D01*
X168945490Y-117282990D01*
X168925503Y-117301106D01*
X168903836Y-117317175D01*
X168880699Y-117331043D01*
X168856314Y-117342576D01*
X168830916Y-117351664D01*
X168804749Y-117358218D01*
X168778066Y-117362176D01*
X168751123Y-117363500D01*
X167798877Y-117363500D01*
X167771934Y-117362176D01*
X167745251Y-117358218D01*
X167719084Y-117351664D01*
X167693686Y-117342576D01*
X167669301Y-117331043D01*
X167646164Y-117317175D01*
X167624497Y-117301106D01*
X167604510Y-117282990D01*
X167586394Y-117263003D01*
X167570325Y-117241336D01*
X167556457Y-117218199D01*
X167544924Y-117193814D01*
X167535836Y-117168416D01*
X167529282Y-117142249D01*
X167525324Y-117115566D01*
X167524000Y-117088623D01*
X167524000Y-116511377D01*
X167525324Y-116484434D01*
X167529282Y-116457751D01*
X167535836Y-116431584D01*
X167544924Y-116406186D01*
X167556457Y-116381801D01*
X167570325Y-116358664D01*
X167586394Y-116336997D01*
X167604510Y-116317010D01*
X167624497Y-116298894D01*
X167646164Y-116282825D01*
X167669301Y-116268957D01*
X167693686Y-116257424D01*
X167719084Y-116248336D01*
X167745251Y-116241782D01*
X167771934Y-116237824D01*
X167798877Y-116236500D01*
X168751123Y-116236500D01*
X168778066Y-116237824D01*
X168778066Y-116237824D01*
G37*
D19*
X168275000Y-116800000D03*
D20*
X236855000Y-131762500D03*
X226695000Y-131762500D03*
D21*
X229275000Y-127762500D03*
D22*
X231775000Y-131762500D03*
D21*
X228620001Y-128492500D03*
D23*
X227965000Y-129222500D02*
X229275002Y-127762500D01*
D21*
X234315000Y-126682500D03*
X234295000Y-126972500D03*
D23*
X234275000Y-127262500D02*
X234315000Y-126682500D01*
D20*
X217805000Y-131762500D03*
X207645000Y-131762500D03*
D21*
X210225000Y-127762500D03*
D22*
X212725000Y-131762500D03*
D21*
X209570001Y-128492500D03*
D23*
X208915000Y-129222500D02*
X210225002Y-127762500D01*
D21*
X215265000Y-126682500D03*
X215245000Y-126972500D03*
D23*
X215225000Y-127262500D02*
X215265000Y-126682500D01*
D20*
X236855000Y-112712500D03*
X226695000Y-112712500D03*
D21*
X229275000Y-108712500D03*
D22*
X231775000Y-112712500D03*
D21*
X228620001Y-109442500D03*
D23*
X227965000Y-110172500D02*
X229275002Y-108712500D01*
D21*
X234315000Y-107632500D03*
X234295000Y-107922500D03*
D23*
X234275000Y-108212500D02*
X234315000Y-107632500D01*
D20*
X217805000Y-112712500D03*
X207645000Y-112712500D03*
D21*
X210225000Y-108712500D03*
D22*
X212725000Y-112712500D03*
D21*
X209570001Y-109442500D03*
D23*
X208915000Y-110172500D02*
X210225002Y-108712500D01*
D21*
X215265000Y-107632500D03*
X215245000Y-107922500D03*
D23*
X215225000Y-108212500D02*
X215265000Y-107632500D01*
D18*
G36*
X164194604Y-119181552D02*
G01*
X164220852Y-119185446D01*
X164246593Y-119191893D01*
X164271578Y-119200833D01*
X164295566Y-119212178D01*
X164318326Y-119225821D01*
X164339640Y-119241628D01*
X164359302Y-119259448D01*
X164377122Y-119279110D01*
X164392929Y-119300424D01*
X164406572Y-119323184D01*
X164417917Y-119347172D01*
X164426857Y-119372157D01*
X164433304Y-119397898D01*
X164437198Y-119424146D01*
X164438500Y-119450650D01*
X164438500Y-120261850D01*
X164437198Y-120288354D01*
X164433304Y-120314602D01*
X164426857Y-120340343D01*
X164417917Y-120365328D01*
X164406572Y-120389316D01*
X164392929Y-120412076D01*
X164377122Y-120433390D01*
X164359302Y-120453052D01*
X164339640Y-120470872D01*
X164318326Y-120486679D01*
X164295566Y-120500322D01*
X164271578Y-120511667D01*
X164246593Y-120520607D01*
X164220852Y-120527054D01*
X164194604Y-120530948D01*
X164168100Y-120532250D01*
X162856900Y-120532250D01*
X162830396Y-120530948D01*
X162804148Y-120527054D01*
X162778407Y-120520607D01*
X162753422Y-120511667D01*
X162729434Y-120500322D01*
X162706674Y-120486679D01*
X162685360Y-120470872D01*
X162665698Y-120453052D01*
X162647878Y-120433390D01*
X162632071Y-120412076D01*
X162618428Y-120389316D01*
X162607083Y-120365328D01*
X162598143Y-120340343D01*
X162591696Y-120314602D01*
X162587802Y-120288354D01*
X162586500Y-120261850D01*
X162586500Y-119450650D01*
X162587802Y-119424146D01*
X162591696Y-119397898D01*
X162598143Y-119372157D01*
X162607083Y-119347172D01*
X162618428Y-119323184D01*
X162632071Y-119300424D01*
X162647878Y-119279110D01*
X162665698Y-119259448D01*
X162685360Y-119241628D01*
X162706674Y-119225821D01*
X162729434Y-119212178D01*
X162753422Y-119200833D01*
X162778407Y-119191893D01*
X162804148Y-119185446D01*
X162830396Y-119181552D01*
X162856900Y-119180250D01*
X164168100Y-119180250D01*
X164194604Y-119181552D01*
X164194604Y-119181552D01*
G37*
D24*
X163512500Y-119856250D03*
D18*
G36*
X164194604Y-121981552D02*
G01*
X164220852Y-121985446D01*
X164246593Y-121991893D01*
X164271578Y-122000833D01*
X164295566Y-122012178D01*
X164318326Y-122025821D01*
X164339640Y-122041628D01*
X164359302Y-122059448D01*
X164377122Y-122079110D01*
X164392929Y-122100424D01*
X164406572Y-122123184D01*
X164417917Y-122147172D01*
X164426857Y-122172157D01*
X164433304Y-122197898D01*
X164437198Y-122224146D01*
X164438500Y-122250650D01*
X164438500Y-123061850D01*
X164437198Y-123088354D01*
X164433304Y-123114602D01*
X164426857Y-123140343D01*
X164417917Y-123165328D01*
X164406572Y-123189316D01*
X164392929Y-123212076D01*
X164377122Y-123233390D01*
X164359302Y-123253052D01*
X164339640Y-123270872D01*
X164318326Y-123286679D01*
X164295566Y-123300322D01*
X164271578Y-123311667D01*
X164246593Y-123320607D01*
X164220852Y-123327054D01*
X164194604Y-123330948D01*
X164168100Y-123332250D01*
X162856900Y-123332250D01*
X162830396Y-123330948D01*
X162804148Y-123327054D01*
X162778407Y-123320607D01*
X162753422Y-123311667D01*
X162729434Y-123300322D01*
X162706674Y-123286679D01*
X162685360Y-123270872D01*
X162665698Y-123253052D01*
X162647878Y-123233390D01*
X162632071Y-123212076D01*
X162618428Y-123189316D01*
X162607083Y-123165328D01*
X162598143Y-123140343D01*
X162591696Y-123114602D01*
X162587802Y-123088354D01*
X162586500Y-123061850D01*
X162586500Y-122250650D01*
X162587802Y-122224146D01*
X162591696Y-122197898D01*
X162598143Y-122172157D01*
X162607083Y-122147172D01*
X162618428Y-122123184D01*
X162632071Y-122100424D01*
X162647878Y-122079110D01*
X162665698Y-122059448D01*
X162685360Y-122041628D01*
X162706674Y-122025821D01*
X162729434Y-122012178D01*
X162753422Y-122000833D01*
X162778407Y-121991893D01*
X162804148Y-121985446D01*
X162830396Y-121981552D01*
X162856900Y-121980250D01*
X164168100Y-121980250D01*
X164194604Y-121981552D01*
X164194604Y-121981552D01*
G37*
D24*
X163512500Y-122656250D03*
D25*
X239712500Y-130112500D03*
X239712500Y-133412500D03*
X239712500Y-111062500D03*
X239712500Y-114362500D03*
X220662500Y-130112500D03*
X220662500Y-133412500D03*
X220662500Y-111062500D03*
X220662500Y-114362500D03*
D18*
G36*
X183090004Y-130575327D02*
G01*
X183116747Y-130579294D01*
X183142973Y-130585863D01*
X183168429Y-130594971D01*
X183192870Y-130606531D01*
X183216060Y-130620430D01*
X183237775Y-130636536D01*
X183257808Y-130654692D01*
X183275964Y-130674725D01*
X183292070Y-130696440D01*
X183305969Y-130719630D01*
X183317529Y-130744071D01*
X183326637Y-130769527D01*
X183333206Y-130795753D01*
X183337173Y-130822496D01*
X183338500Y-130849500D01*
X183338500Y-131400500D01*
X183337173Y-131427504D01*
X183333206Y-131454247D01*
X183326637Y-131480473D01*
X183317529Y-131505929D01*
X183305969Y-131530370D01*
X183292070Y-131553560D01*
X183275964Y-131575275D01*
X183257808Y-131595308D01*
X183237775Y-131613464D01*
X183216060Y-131629570D01*
X183192870Y-131643469D01*
X183168429Y-131655029D01*
X183142973Y-131664137D01*
X183116747Y-131670706D01*
X183090004Y-131674673D01*
X183063000Y-131676000D01*
X182062000Y-131676000D01*
X182034996Y-131674673D01*
X182008253Y-131670706D01*
X181982027Y-131664137D01*
X181956571Y-131655029D01*
X181932130Y-131643469D01*
X181908940Y-131629570D01*
X181887225Y-131613464D01*
X181867192Y-131595308D01*
X181849036Y-131575275D01*
X181832930Y-131553560D01*
X181819031Y-131530370D01*
X181807471Y-131505929D01*
X181798363Y-131480473D01*
X181791794Y-131454247D01*
X181787827Y-131427504D01*
X181786500Y-131400500D01*
X181786500Y-130849500D01*
X181787827Y-130822496D01*
X181791794Y-130795753D01*
X181798363Y-130769527D01*
X181807471Y-130744071D01*
X181819031Y-130719630D01*
X181832930Y-130696440D01*
X181849036Y-130674725D01*
X181867192Y-130654692D01*
X181887225Y-130636536D01*
X181908940Y-130620430D01*
X181932130Y-130606531D01*
X181956571Y-130594971D01*
X181982027Y-130585863D01*
X182008253Y-130579294D01*
X182034996Y-130575327D01*
X182062000Y-130574000D01*
X183063000Y-130574000D01*
X183090004Y-130575327D01*
X183090004Y-130575327D01*
G37*
D26*
X182562500Y-131125000D03*
D18*
G36*
X183090004Y-128675327D02*
G01*
X183116747Y-128679294D01*
X183142973Y-128685863D01*
X183168429Y-128694971D01*
X183192870Y-128706531D01*
X183216060Y-128720430D01*
X183237775Y-128736536D01*
X183257808Y-128754692D01*
X183275964Y-128774725D01*
X183292070Y-128796440D01*
X183305969Y-128819630D01*
X183317529Y-128844071D01*
X183326637Y-128869527D01*
X183333206Y-128895753D01*
X183337173Y-128922496D01*
X183338500Y-128949500D01*
X183338500Y-129500500D01*
X183337173Y-129527504D01*
X183333206Y-129554247D01*
X183326637Y-129580473D01*
X183317529Y-129605929D01*
X183305969Y-129630370D01*
X183292070Y-129653560D01*
X183275964Y-129675275D01*
X183257808Y-129695308D01*
X183237775Y-129713464D01*
X183216060Y-129729570D01*
X183192870Y-129743469D01*
X183168429Y-129755029D01*
X183142973Y-129764137D01*
X183116747Y-129770706D01*
X183090004Y-129774673D01*
X183063000Y-129776000D01*
X182062000Y-129776000D01*
X182034996Y-129774673D01*
X182008253Y-129770706D01*
X181982027Y-129764137D01*
X181956571Y-129755029D01*
X181932130Y-129743469D01*
X181908940Y-129729570D01*
X181887225Y-129713464D01*
X181867192Y-129695308D01*
X181849036Y-129675275D01*
X181832930Y-129653560D01*
X181819031Y-129630370D01*
X181807471Y-129605929D01*
X181798363Y-129580473D01*
X181791794Y-129554247D01*
X181787827Y-129527504D01*
X181786500Y-129500500D01*
X181786500Y-128949500D01*
X181787827Y-128922496D01*
X181791794Y-128895753D01*
X181798363Y-128869527D01*
X181807471Y-128844071D01*
X181819031Y-128819630D01*
X181832930Y-128796440D01*
X181849036Y-128774725D01*
X181867192Y-128754692D01*
X181887225Y-128736536D01*
X181908940Y-128720430D01*
X181932130Y-128706531D01*
X181956571Y-128694971D01*
X181982027Y-128685863D01*
X182008253Y-128679294D01*
X182034996Y-128675327D01*
X182062000Y-128674000D01*
X183063000Y-128674000D01*
X183090004Y-128675327D01*
X183090004Y-128675327D01*
G37*
D26*
X182562500Y-129225000D03*
D18*
G36*
X196202504Y-133369077D02*
G01*
X196229247Y-133373044D01*
X196255473Y-133379613D01*
X196280929Y-133388721D01*
X196305370Y-133400281D01*
X196328560Y-133414180D01*
X196350275Y-133430286D01*
X196370308Y-133448442D01*
X196388464Y-133468475D01*
X196404570Y-133490190D01*
X196418469Y-133513380D01*
X196430029Y-133537821D01*
X196439137Y-133563277D01*
X196445706Y-133589503D01*
X196449673Y-133616246D01*
X196451000Y-133643250D01*
X196451000Y-134644250D01*
X196449673Y-134671254D01*
X196445706Y-134697997D01*
X196439137Y-134724223D01*
X196430029Y-134749679D01*
X196418469Y-134774120D01*
X196404570Y-134797310D01*
X196388464Y-134819025D01*
X196370308Y-134839058D01*
X196350275Y-134857214D01*
X196328560Y-134873320D01*
X196305370Y-134887219D01*
X196280929Y-134898779D01*
X196255473Y-134907887D01*
X196229247Y-134914456D01*
X196202504Y-134918423D01*
X196175500Y-134919750D01*
X195624500Y-134919750D01*
X195597496Y-134918423D01*
X195570753Y-134914456D01*
X195544527Y-134907887D01*
X195519071Y-134898779D01*
X195494630Y-134887219D01*
X195471440Y-134873320D01*
X195449725Y-134857214D01*
X195429692Y-134839058D01*
X195411536Y-134819025D01*
X195395430Y-134797310D01*
X195381531Y-134774120D01*
X195369971Y-134749679D01*
X195360863Y-134724223D01*
X195354294Y-134697997D01*
X195350327Y-134671254D01*
X195349000Y-134644250D01*
X195349000Y-133643250D01*
X195350327Y-133616246D01*
X195354294Y-133589503D01*
X195360863Y-133563277D01*
X195369971Y-133537821D01*
X195381531Y-133513380D01*
X195395430Y-133490190D01*
X195411536Y-133468475D01*
X195429692Y-133448442D01*
X195449725Y-133430286D01*
X195471440Y-133414180D01*
X195494630Y-133400281D01*
X195519071Y-133388721D01*
X195544527Y-133379613D01*
X195570753Y-133373044D01*
X195597496Y-133369077D01*
X195624500Y-133367750D01*
X196175500Y-133367750D01*
X196202504Y-133369077D01*
X196202504Y-133369077D01*
G37*
D26*
X195900000Y-134143750D03*
D18*
G36*
X198102504Y-133369077D02*
G01*
X198129247Y-133373044D01*
X198155473Y-133379613D01*
X198180929Y-133388721D01*
X198205370Y-133400281D01*
X198228560Y-133414180D01*
X198250275Y-133430286D01*
X198270308Y-133448442D01*
X198288464Y-133468475D01*
X198304570Y-133490190D01*
X198318469Y-133513380D01*
X198330029Y-133537821D01*
X198339137Y-133563277D01*
X198345706Y-133589503D01*
X198349673Y-133616246D01*
X198351000Y-133643250D01*
X198351000Y-134644250D01*
X198349673Y-134671254D01*
X198345706Y-134697997D01*
X198339137Y-134724223D01*
X198330029Y-134749679D01*
X198318469Y-134774120D01*
X198304570Y-134797310D01*
X198288464Y-134819025D01*
X198270308Y-134839058D01*
X198250275Y-134857214D01*
X198228560Y-134873320D01*
X198205370Y-134887219D01*
X198180929Y-134898779D01*
X198155473Y-134907887D01*
X198129247Y-134914456D01*
X198102504Y-134918423D01*
X198075500Y-134919750D01*
X197524500Y-134919750D01*
X197497496Y-134918423D01*
X197470753Y-134914456D01*
X197444527Y-134907887D01*
X197419071Y-134898779D01*
X197394630Y-134887219D01*
X197371440Y-134873320D01*
X197349725Y-134857214D01*
X197329692Y-134839058D01*
X197311536Y-134819025D01*
X197295430Y-134797310D01*
X197281531Y-134774120D01*
X197269971Y-134749679D01*
X197260863Y-134724223D01*
X197254294Y-134697997D01*
X197250327Y-134671254D01*
X197249000Y-134644250D01*
X197249000Y-133643250D01*
X197250327Y-133616246D01*
X197254294Y-133589503D01*
X197260863Y-133563277D01*
X197269971Y-133537821D01*
X197281531Y-133513380D01*
X197295430Y-133490190D01*
X197311536Y-133468475D01*
X197329692Y-133448442D01*
X197349725Y-133430286D01*
X197371440Y-133414180D01*
X197394630Y-133400281D01*
X197419071Y-133388721D01*
X197444527Y-133379613D01*
X197470753Y-133373044D01*
X197497496Y-133369077D01*
X197524500Y-133367750D01*
X198075500Y-133367750D01*
X198102504Y-133369077D01*
X198102504Y-133369077D01*
G37*
D26*
X197800000Y-134143750D03*
D18*
G36*
X179533754Y-123050327D02*
G01*
X179560497Y-123054294D01*
X179586723Y-123060863D01*
X179612179Y-123069971D01*
X179636620Y-123081531D01*
X179659810Y-123095430D01*
X179681525Y-123111536D01*
X179701558Y-123129692D01*
X179719714Y-123149725D01*
X179735820Y-123171440D01*
X179749719Y-123194630D01*
X179761279Y-123219071D01*
X179770387Y-123244527D01*
X179776956Y-123270753D01*
X179780923Y-123297496D01*
X179782250Y-123324500D01*
X179782250Y-124325500D01*
X179780923Y-124352504D01*
X179776956Y-124379247D01*
X179770387Y-124405473D01*
X179761279Y-124430929D01*
X179749719Y-124455370D01*
X179735820Y-124478560D01*
X179719714Y-124500275D01*
X179701558Y-124520308D01*
X179681525Y-124538464D01*
X179659810Y-124554570D01*
X179636620Y-124568469D01*
X179612179Y-124580029D01*
X179586723Y-124589137D01*
X179560497Y-124595706D01*
X179533754Y-124599673D01*
X179506750Y-124601000D01*
X178955750Y-124601000D01*
X178928746Y-124599673D01*
X178902003Y-124595706D01*
X178875777Y-124589137D01*
X178850321Y-124580029D01*
X178825880Y-124568469D01*
X178802690Y-124554570D01*
X178780975Y-124538464D01*
X178760942Y-124520308D01*
X178742786Y-124500275D01*
X178726680Y-124478560D01*
X178712781Y-124455370D01*
X178701221Y-124430929D01*
X178692113Y-124405473D01*
X178685544Y-124379247D01*
X178681577Y-124352504D01*
X178680250Y-124325500D01*
X178680250Y-123324500D01*
X178681577Y-123297496D01*
X178685544Y-123270753D01*
X178692113Y-123244527D01*
X178701221Y-123219071D01*
X178712781Y-123194630D01*
X178726680Y-123171440D01*
X178742786Y-123149725D01*
X178760942Y-123129692D01*
X178780975Y-123111536D01*
X178802690Y-123095430D01*
X178825880Y-123081531D01*
X178850321Y-123069971D01*
X178875777Y-123060863D01*
X178902003Y-123054294D01*
X178928746Y-123050327D01*
X178955750Y-123049000D01*
X179506750Y-123049000D01*
X179533754Y-123050327D01*
X179533754Y-123050327D01*
G37*
D26*
X179231250Y-123825000D03*
D18*
G36*
X181433754Y-123050327D02*
G01*
X181460497Y-123054294D01*
X181486723Y-123060863D01*
X181512179Y-123069971D01*
X181536620Y-123081531D01*
X181559810Y-123095430D01*
X181581525Y-123111536D01*
X181601558Y-123129692D01*
X181619714Y-123149725D01*
X181635820Y-123171440D01*
X181649719Y-123194630D01*
X181661279Y-123219071D01*
X181670387Y-123244527D01*
X181676956Y-123270753D01*
X181680923Y-123297496D01*
X181682250Y-123324500D01*
X181682250Y-124325500D01*
X181680923Y-124352504D01*
X181676956Y-124379247D01*
X181670387Y-124405473D01*
X181661279Y-124430929D01*
X181649719Y-124455370D01*
X181635820Y-124478560D01*
X181619714Y-124500275D01*
X181601558Y-124520308D01*
X181581525Y-124538464D01*
X181559810Y-124554570D01*
X181536620Y-124568469D01*
X181512179Y-124580029D01*
X181486723Y-124589137D01*
X181460497Y-124595706D01*
X181433754Y-124599673D01*
X181406750Y-124601000D01*
X180855750Y-124601000D01*
X180828746Y-124599673D01*
X180802003Y-124595706D01*
X180775777Y-124589137D01*
X180750321Y-124580029D01*
X180725880Y-124568469D01*
X180702690Y-124554570D01*
X180680975Y-124538464D01*
X180660942Y-124520308D01*
X180642786Y-124500275D01*
X180626680Y-124478560D01*
X180612781Y-124455370D01*
X180601221Y-124430929D01*
X180592113Y-124405473D01*
X180585544Y-124379247D01*
X180581577Y-124352504D01*
X180580250Y-124325500D01*
X180580250Y-123324500D01*
X180581577Y-123297496D01*
X180585544Y-123270753D01*
X180592113Y-123244527D01*
X180601221Y-123219071D01*
X180612781Y-123194630D01*
X180626680Y-123171440D01*
X180642786Y-123149725D01*
X180660942Y-123129692D01*
X180680975Y-123111536D01*
X180702690Y-123095430D01*
X180725880Y-123081531D01*
X180750321Y-123069971D01*
X180775777Y-123060863D01*
X180802003Y-123054294D01*
X180828746Y-123050327D01*
X180855750Y-123049000D01*
X181406750Y-123049000D01*
X181433754Y-123050327D01*
X181433754Y-123050327D01*
G37*
D26*
X181131250Y-123825000D03*
D18*
G36*
X202140004Y-118356577D02*
G01*
X202166747Y-118360544D01*
X202192973Y-118367113D01*
X202218429Y-118376221D01*
X202242870Y-118387781D01*
X202266060Y-118401680D01*
X202287775Y-118417786D01*
X202307808Y-118435942D01*
X202325964Y-118455975D01*
X202342070Y-118477690D01*
X202355969Y-118500880D01*
X202367529Y-118525321D01*
X202376637Y-118550777D01*
X202383206Y-118577003D01*
X202387173Y-118603746D01*
X202388500Y-118630750D01*
X202388500Y-119181750D01*
X202387173Y-119208754D01*
X202383206Y-119235497D01*
X202376637Y-119261723D01*
X202367529Y-119287179D01*
X202355969Y-119311620D01*
X202342070Y-119334810D01*
X202325964Y-119356525D01*
X202307808Y-119376558D01*
X202287775Y-119394714D01*
X202266060Y-119410820D01*
X202242870Y-119424719D01*
X202218429Y-119436279D01*
X202192973Y-119445387D01*
X202166747Y-119451956D01*
X202140004Y-119455923D01*
X202113000Y-119457250D01*
X201112000Y-119457250D01*
X201084996Y-119455923D01*
X201058253Y-119451956D01*
X201032027Y-119445387D01*
X201006571Y-119436279D01*
X200982130Y-119424719D01*
X200958940Y-119410820D01*
X200937225Y-119394714D01*
X200917192Y-119376558D01*
X200899036Y-119356525D01*
X200882930Y-119334810D01*
X200869031Y-119311620D01*
X200857471Y-119287179D01*
X200848363Y-119261723D01*
X200841794Y-119235497D01*
X200837827Y-119208754D01*
X200836500Y-119181750D01*
X200836500Y-118630750D01*
X200837827Y-118603746D01*
X200841794Y-118577003D01*
X200848363Y-118550777D01*
X200857471Y-118525321D01*
X200869031Y-118500880D01*
X200882930Y-118477690D01*
X200899036Y-118455975D01*
X200917192Y-118435942D01*
X200937225Y-118417786D01*
X200958940Y-118401680D01*
X200982130Y-118387781D01*
X201006571Y-118376221D01*
X201032027Y-118367113D01*
X201058253Y-118360544D01*
X201084996Y-118356577D01*
X201112000Y-118355250D01*
X202113000Y-118355250D01*
X202140004Y-118356577D01*
X202140004Y-118356577D01*
G37*
D26*
X201612500Y-118906250D03*
D18*
G36*
X202140004Y-120256577D02*
G01*
X202166747Y-120260544D01*
X202192973Y-120267113D01*
X202218429Y-120276221D01*
X202242870Y-120287781D01*
X202266060Y-120301680D01*
X202287775Y-120317786D01*
X202307808Y-120335942D01*
X202325964Y-120355975D01*
X202342070Y-120377690D01*
X202355969Y-120400880D01*
X202367529Y-120425321D01*
X202376637Y-120450777D01*
X202383206Y-120477003D01*
X202387173Y-120503746D01*
X202388500Y-120530750D01*
X202388500Y-121081750D01*
X202387173Y-121108754D01*
X202383206Y-121135497D01*
X202376637Y-121161723D01*
X202367529Y-121187179D01*
X202355969Y-121211620D01*
X202342070Y-121234810D01*
X202325964Y-121256525D01*
X202307808Y-121276558D01*
X202287775Y-121294714D01*
X202266060Y-121310820D01*
X202242870Y-121324719D01*
X202218429Y-121336279D01*
X202192973Y-121345387D01*
X202166747Y-121351956D01*
X202140004Y-121355923D01*
X202113000Y-121357250D01*
X201112000Y-121357250D01*
X201084996Y-121355923D01*
X201058253Y-121351956D01*
X201032027Y-121345387D01*
X201006571Y-121336279D01*
X200982130Y-121324719D01*
X200958940Y-121310820D01*
X200937225Y-121294714D01*
X200917192Y-121276558D01*
X200899036Y-121256525D01*
X200882930Y-121234810D01*
X200869031Y-121211620D01*
X200857471Y-121187179D01*
X200848363Y-121161723D01*
X200841794Y-121135497D01*
X200837827Y-121108754D01*
X200836500Y-121081750D01*
X200836500Y-120530750D01*
X200837827Y-120503746D01*
X200841794Y-120477003D01*
X200848363Y-120450777D01*
X200857471Y-120425321D01*
X200869031Y-120400880D01*
X200882930Y-120377690D01*
X200899036Y-120355975D01*
X200917192Y-120335942D01*
X200937225Y-120317786D01*
X200958940Y-120301680D01*
X200982130Y-120287781D01*
X201006571Y-120276221D01*
X201032027Y-120267113D01*
X201058253Y-120260544D01*
X201084996Y-120256577D01*
X201112000Y-120255250D01*
X202113000Y-120255250D01*
X202140004Y-120256577D01*
X202140004Y-120256577D01*
G37*
D26*
X201612500Y-120806250D03*
D18*
G36*
X187058754Y-110731577D02*
G01*
X187085497Y-110735544D01*
X187111723Y-110742113D01*
X187137179Y-110751221D01*
X187161620Y-110762781D01*
X187184810Y-110776680D01*
X187206525Y-110792786D01*
X187226558Y-110810942D01*
X187244714Y-110830975D01*
X187260820Y-110852690D01*
X187274719Y-110875880D01*
X187286279Y-110900321D01*
X187295387Y-110925777D01*
X187301956Y-110952003D01*
X187305923Y-110978746D01*
X187307250Y-111005750D01*
X187307250Y-111556750D01*
X187305923Y-111583754D01*
X187301956Y-111610497D01*
X187295387Y-111636723D01*
X187286279Y-111662179D01*
X187274719Y-111686620D01*
X187260820Y-111709810D01*
X187244714Y-111731525D01*
X187226558Y-111751558D01*
X187206525Y-111769714D01*
X187184810Y-111785820D01*
X187161620Y-111799719D01*
X187137179Y-111811279D01*
X187111723Y-111820387D01*
X187085497Y-111826956D01*
X187058754Y-111830923D01*
X187031750Y-111832250D01*
X186030750Y-111832250D01*
X186003746Y-111830923D01*
X185977003Y-111826956D01*
X185950777Y-111820387D01*
X185925321Y-111811279D01*
X185900880Y-111799719D01*
X185877690Y-111785820D01*
X185855975Y-111769714D01*
X185835942Y-111751558D01*
X185817786Y-111731525D01*
X185801680Y-111709810D01*
X185787781Y-111686620D01*
X185776221Y-111662179D01*
X185767113Y-111636723D01*
X185760544Y-111610497D01*
X185756577Y-111583754D01*
X185755250Y-111556750D01*
X185755250Y-111005750D01*
X185756577Y-110978746D01*
X185760544Y-110952003D01*
X185767113Y-110925777D01*
X185776221Y-110900321D01*
X185787781Y-110875880D01*
X185801680Y-110852690D01*
X185817786Y-110830975D01*
X185835942Y-110810942D01*
X185855975Y-110792786D01*
X185877690Y-110776680D01*
X185900880Y-110762781D01*
X185925321Y-110751221D01*
X185950777Y-110742113D01*
X185977003Y-110735544D01*
X186003746Y-110731577D01*
X186030750Y-110730250D01*
X187031750Y-110730250D01*
X187058754Y-110731577D01*
X187058754Y-110731577D01*
G37*
D26*
X186531250Y-111281250D03*
D18*
G36*
X187058754Y-108831577D02*
G01*
X187085497Y-108835544D01*
X187111723Y-108842113D01*
X187137179Y-108851221D01*
X187161620Y-108862781D01*
X187184810Y-108876680D01*
X187206525Y-108892786D01*
X187226558Y-108910942D01*
X187244714Y-108930975D01*
X187260820Y-108952690D01*
X187274719Y-108975880D01*
X187286279Y-109000321D01*
X187295387Y-109025777D01*
X187301956Y-109052003D01*
X187305923Y-109078746D01*
X187307250Y-109105750D01*
X187307250Y-109656750D01*
X187305923Y-109683754D01*
X187301956Y-109710497D01*
X187295387Y-109736723D01*
X187286279Y-109762179D01*
X187274719Y-109786620D01*
X187260820Y-109809810D01*
X187244714Y-109831525D01*
X187226558Y-109851558D01*
X187206525Y-109869714D01*
X187184810Y-109885820D01*
X187161620Y-109899719D01*
X187137179Y-109911279D01*
X187111723Y-109920387D01*
X187085497Y-109926956D01*
X187058754Y-109930923D01*
X187031750Y-109932250D01*
X186030750Y-109932250D01*
X186003746Y-109930923D01*
X185977003Y-109926956D01*
X185950777Y-109920387D01*
X185925321Y-109911279D01*
X185900880Y-109899719D01*
X185877690Y-109885820D01*
X185855975Y-109869714D01*
X185835942Y-109851558D01*
X185817786Y-109831525D01*
X185801680Y-109809810D01*
X185787781Y-109786620D01*
X185776221Y-109762179D01*
X185767113Y-109736723D01*
X185760544Y-109710497D01*
X185756577Y-109683754D01*
X185755250Y-109656750D01*
X185755250Y-109105750D01*
X185756577Y-109078746D01*
X185760544Y-109052003D01*
X185767113Y-109025777D01*
X185776221Y-109000321D01*
X185787781Y-108975880D01*
X185801680Y-108952690D01*
X185817786Y-108930975D01*
X185835942Y-108910942D01*
X185855975Y-108892786D01*
X185877690Y-108876680D01*
X185900880Y-108862781D01*
X185925321Y-108851221D01*
X185950777Y-108842113D01*
X185977003Y-108835544D01*
X186003746Y-108831577D01*
X186030750Y-108830250D01*
X187031750Y-108830250D01*
X187058754Y-108831577D01*
X187058754Y-108831577D01*
G37*
D26*
X186531250Y-109381250D03*
D18*
G36*
X196583754Y-108831577D02*
G01*
X196610497Y-108835544D01*
X196636723Y-108842113D01*
X196662179Y-108851221D01*
X196686620Y-108862781D01*
X196709810Y-108876680D01*
X196731525Y-108892786D01*
X196751558Y-108910942D01*
X196769714Y-108930975D01*
X196785820Y-108952690D01*
X196799719Y-108975880D01*
X196811279Y-109000321D01*
X196820387Y-109025777D01*
X196826956Y-109052003D01*
X196830923Y-109078746D01*
X196832250Y-109105750D01*
X196832250Y-109656750D01*
X196830923Y-109683754D01*
X196826956Y-109710497D01*
X196820387Y-109736723D01*
X196811279Y-109762179D01*
X196799719Y-109786620D01*
X196785820Y-109809810D01*
X196769714Y-109831525D01*
X196751558Y-109851558D01*
X196731525Y-109869714D01*
X196709810Y-109885820D01*
X196686620Y-109899719D01*
X196662179Y-109911279D01*
X196636723Y-109920387D01*
X196610497Y-109926956D01*
X196583754Y-109930923D01*
X196556750Y-109932250D01*
X195555750Y-109932250D01*
X195528746Y-109930923D01*
X195502003Y-109926956D01*
X195475777Y-109920387D01*
X195450321Y-109911279D01*
X195425880Y-109899719D01*
X195402690Y-109885820D01*
X195380975Y-109869714D01*
X195360942Y-109851558D01*
X195342786Y-109831525D01*
X195326680Y-109809810D01*
X195312781Y-109786620D01*
X195301221Y-109762179D01*
X195292113Y-109736723D01*
X195285544Y-109710497D01*
X195281577Y-109683754D01*
X195280250Y-109656750D01*
X195280250Y-109105750D01*
X195281577Y-109078746D01*
X195285544Y-109052003D01*
X195292113Y-109025777D01*
X195301221Y-109000321D01*
X195312781Y-108975880D01*
X195326680Y-108952690D01*
X195342786Y-108930975D01*
X195360942Y-108910942D01*
X195380975Y-108892786D01*
X195402690Y-108876680D01*
X195425880Y-108862781D01*
X195450321Y-108851221D01*
X195475777Y-108842113D01*
X195502003Y-108835544D01*
X195528746Y-108831577D01*
X195555750Y-108830250D01*
X196556750Y-108830250D01*
X196583754Y-108831577D01*
X196583754Y-108831577D01*
G37*
D26*
X196056250Y-109381250D03*
D18*
G36*
X196583754Y-110731577D02*
G01*
X196610497Y-110735544D01*
X196636723Y-110742113D01*
X196662179Y-110751221D01*
X196686620Y-110762781D01*
X196709810Y-110776680D01*
X196731525Y-110792786D01*
X196751558Y-110810942D01*
X196769714Y-110830975D01*
X196785820Y-110852690D01*
X196799719Y-110875880D01*
X196811279Y-110900321D01*
X196820387Y-110925777D01*
X196826956Y-110952003D01*
X196830923Y-110978746D01*
X196832250Y-111005750D01*
X196832250Y-111556750D01*
X196830923Y-111583754D01*
X196826956Y-111610497D01*
X196820387Y-111636723D01*
X196811279Y-111662179D01*
X196799719Y-111686620D01*
X196785820Y-111709810D01*
X196769714Y-111731525D01*
X196751558Y-111751558D01*
X196731525Y-111769714D01*
X196709810Y-111785820D01*
X196686620Y-111799719D01*
X196662179Y-111811279D01*
X196636723Y-111820387D01*
X196610497Y-111826956D01*
X196583754Y-111830923D01*
X196556750Y-111832250D01*
X195555750Y-111832250D01*
X195528746Y-111830923D01*
X195502003Y-111826956D01*
X195475777Y-111820387D01*
X195450321Y-111811279D01*
X195425880Y-111799719D01*
X195402690Y-111785820D01*
X195380975Y-111769714D01*
X195360942Y-111751558D01*
X195342786Y-111731525D01*
X195326680Y-111709810D01*
X195312781Y-111686620D01*
X195301221Y-111662179D01*
X195292113Y-111636723D01*
X195285544Y-111610497D01*
X195281577Y-111583754D01*
X195280250Y-111556750D01*
X195280250Y-111005750D01*
X195281577Y-110978746D01*
X195285544Y-110952003D01*
X195292113Y-110925777D01*
X195301221Y-110900321D01*
X195312781Y-110875880D01*
X195326680Y-110852690D01*
X195342786Y-110830975D01*
X195360942Y-110810942D01*
X195380975Y-110792786D01*
X195402690Y-110776680D01*
X195425880Y-110762781D01*
X195450321Y-110751221D01*
X195475777Y-110742113D01*
X195502003Y-110735544D01*
X195528746Y-110731577D01*
X195555750Y-110730250D01*
X196556750Y-110730250D01*
X196583754Y-110731577D01*
X196583754Y-110731577D01*
G37*
D26*
X196056250Y-111281250D03*
D18*
G36*
X184677504Y-114387827D02*
G01*
X184704247Y-114391794D01*
X184730473Y-114398363D01*
X184755929Y-114407471D01*
X184780370Y-114419031D01*
X184803560Y-114432930D01*
X184825275Y-114449036D01*
X184845308Y-114467192D01*
X184863464Y-114487225D01*
X184879570Y-114508940D01*
X184893469Y-114532130D01*
X184905029Y-114556571D01*
X184914137Y-114582027D01*
X184920706Y-114608253D01*
X184924673Y-114634996D01*
X184926000Y-114662000D01*
X184926000Y-115213000D01*
X184924673Y-115240004D01*
X184920706Y-115266747D01*
X184914137Y-115292973D01*
X184905029Y-115318429D01*
X184893469Y-115342870D01*
X184879570Y-115366060D01*
X184863464Y-115387775D01*
X184845308Y-115407808D01*
X184825275Y-115425964D01*
X184803560Y-115442070D01*
X184780370Y-115455969D01*
X184755929Y-115467529D01*
X184730473Y-115476637D01*
X184704247Y-115483206D01*
X184677504Y-115487173D01*
X184650500Y-115488500D01*
X183649500Y-115488500D01*
X183622496Y-115487173D01*
X183595753Y-115483206D01*
X183569527Y-115476637D01*
X183544071Y-115467529D01*
X183519630Y-115455969D01*
X183496440Y-115442070D01*
X183474725Y-115425964D01*
X183454692Y-115407808D01*
X183436536Y-115387775D01*
X183420430Y-115366060D01*
X183406531Y-115342870D01*
X183394971Y-115318429D01*
X183385863Y-115292973D01*
X183379294Y-115266747D01*
X183375327Y-115240004D01*
X183374000Y-115213000D01*
X183374000Y-114662000D01*
X183375327Y-114634996D01*
X183379294Y-114608253D01*
X183385863Y-114582027D01*
X183394971Y-114556571D01*
X183406531Y-114532130D01*
X183420430Y-114508940D01*
X183436536Y-114487225D01*
X183454692Y-114467192D01*
X183474725Y-114449036D01*
X183496440Y-114432930D01*
X183519630Y-114419031D01*
X183544071Y-114407471D01*
X183569527Y-114398363D01*
X183595753Y-114391794D01*
X183622496Y-114387827D01*
X183649500Y-114386500D01*
X184650500Y-114386500D01*
X184677504Y-114387827D01*
X184677504Y-114387827D01*
G37*
D26*
X184150000Y-114937500D03*
D18*
G36*
X184677504Y-116287827D02*
G01*
X184704247Y-116291794D01*
X184730473Y-116298363D01*
X184755929Y-116307471D01*
X184780370Y-116319031D01*
X184803560Y-116332930D01*
X184825275Y-116349036D01*
X184845308Y-116367192D01*
X184863464Y-116387225D01*
X184879570Y-116408940D01*
X184893469Y-116432130D01*
X184905029Y-116456571D01*
X184914137Y-116482027D01*
X184920706Y-116508253D01*
X184924673Y-116534996D01*
X184926000Y-116562000D01*
X184926000Y-117113000D01*
X184924673Y-117140004D01*
X184920706Y-117166747D01*
X184914137Y-117192973D01*
X184905029Y-117218429D01*
X184893469Y-117242870D01*
X184879570Y-117266060D01*
X184863464Y-117287775D01*
X184845308Y-117307808D01*
X184825275Y-117325964D01*
X184803560Y-117342070D01*
X184780370Y-117355969D01*
X184755929Y-117367529D01*
X184730473Y-117376637D01*
X184704247Y-117383206D01*
X184677504Y-117387173D01*
X184650500Y-117388500D01*
X183649500Y-117388500D01*
X183622496Y-117387173D01*
X183595753Y-117383206D01*
X183569527Y-117376637D01*
X183544071Y-117367529D01*
X183519630Y-117355969D01*
X183496440Y-117342070D01*
X183474725Y-117325964D01*
X183454692Y-117307808D01*
X183436536Y-117287775D01*
X183420430Y-117266060D01*
X183406531Y-117242870D01*
X183394971Y-117218429D01*
X183385863Y-117192973D01*
X183379294Y-117166747D01*
X183375327Y-117140004D01*
X183374000Y-117113000D01*
X183374000Y-116562000D01*
X183375327Y-116534996D01*
X183379294Y-116508253D01*
X183385863Y-116482027D01*
X183394971Y-116456571D01*
X183406531Y-116432130D01*
X183420430Y-116408940D01*
X183436536Y-116387225D01*
X183454692Y-116367192D01*
X183474725Y-116349036D01*
X183496440Y-116332930D01*
X183519630Y-116319031D01*
X183544071Y-116307471D01*
X183569527Y-116298363D01*
X183595753Y-116291794D01*
X183622496Y-116287827D01*
X183649500Y-116286500D01*
X184650500Y-116286500D01*
X184677504Y-116287827D01*
X184677504Y-116287827D01*
G37*
D26*
X184150000Y-116837500D03*
M02*
