M48
; DRILL file {KiCad (5.1.4-0-10_14)} date 2021 May 07, Friday 18:38:11
; FORMAT={-:-/ absolute / inch / decimal}
; #@! TF.CreationDate,2021-05-07T18:38:11+08:00
; #@! TF.GenerationSoftware,Kicad,Pcbnew,(5.1.4-0-10_14)
; #@! TF.FileFunction,Plated,1,2,PTH
FMAT,2
INCH
T1C0.0157
T2C0.0276
T3C0.0591
%
G90
G05
T1
X3.889Y-3.6835
X4.1478Y-3.6807
X4.4429Y-4.5108
X4.7437Y-3.2433
X4.9217Y-3.2606
X4.9994Y-3.3945
X5.0039Y-3.9224
X5.028Y-3.435
X5.0351Y-3.8984
X5.1031Y-3.2598
X5.1373Y-3.8591
X5.1382Y-3.7817
X5.1909Y-3.6776
X5.2059Y-3.1732
X5.2457Y-4.122
X5.246Y-4.2008
X5.2461Y-4.1614
X5.2479Y-4.2401
X5.4358Y-4.2024
X5.5874Y-3.6287
X5.6228Y-3.7874
T2
X3.4594Y-3.598
X3.7665Y-3.598
X4.2417Y-3.602
X4.5488Y-3.602
X3.4594Y-4.3843
X3.7665Y-4.3843
X4.2457Y-4.3764
X4.5528Y-4.3764
T2
G00X3.8583Y-3.1264
M15
G01X3.8583Y-3.2248
M16
G05
G00X4.1457Y-3.1264
M15
G01X4.1457Y-3.2248
M16
G05
T3
G00X3.506Y-3.2388
M15
G01X3.4585Y-3.3135
M16
G05
G00X3.7104Y-3.2148
M15
G01X3.7088Y-3.2375
M16
G05
G00X4.2911Y-3.2388
M15
G01X4.2435Y-3.3135
M16
G05
G00X4.4954Y-3.2148
M15
G01X4.4939Y-3.2375
M16
G05
G00X3.506Y-4.0238
M15
G01X3.4585Y-4.0985
M16
G05
G00X3.7104Y-3.9998
M15
G01X3.7088Y-4.0226
M16
G05
G00X4.2911Y-4.0238
M15
G01X4.2435Y-4.0985
M16
G05
G00X4.4954Y-3.9998
M15
G01X4.4939Y-4.0226
M16
G05
T0
M30
