G04 #@! TF.GenerationSoftware,KiCad,Pcbnew,(5.1.4-0-10_14)*
G04 #@! TF.CreationDate,2021-05-07T18:37:14+08:00*
G04 #@! TF.ProjectId,rqm-pcb,72716d2d-7063-4622-9e6b-696361645f70,rev?*
G04 #@! TF.SameCoordinates,Original*
G04 #@! TF.FileFunction,Soldermask,Bot*
G04 #@! TF.FilePolarity,Negative*
%FSLAX46Y46*%
G04 Gerber Fmt 4.6, Leading zero omitted, Abs format (unit mm)*
G04 Created by KiCad (PCBNEW (5.1.4-0-10_14)) date 2021-05-07 18:37:14*
%MOMM*%
%LPD*%
G04 APERTURE LIST*
%ADD10C,0.100000*%
G04 APERTURE END LIST*
D10*
G36*
X138981000Y-112741000D02*
G01*
X137179000Y-112741000D01*
X137179000Y-111639000D01*
X138981000Y-111639000D01*
X138981000Y-112741000D01*
X138981000Y-112741000D01*
G37*
G36*
X132681000Y-112741000D02*
G01*
X130879000Y-112741000D01*
X130879000Y-111639000D01*
X132681000Y-111639000D01*
X132681000Y-112741000D01*
X132681000Y-112741000D01*
G37*
G36*
X95918228Y-110541703D02*
G01*
X96073100Y-110605853D01*
X96212481Y-110698985D01*
X96331015Y-110817519D01*
X96424147Y-110956900D01*
X96488297Y-111111772D01*
X96521000Y-111276184D01*
X96521000Y-111443816D01*
X96488297Y-111608228D01*
X96424147Y-111763100D01*
X96331015Y-111902481D01*
X96212481Y-112021015D01*
X96073100Y-112114147D01*
X95918228Y-112178297D01*
X95753816Y-112211000D01*
X95586184Y-112211000D01*
X95421772Y-112178297D01*
X95266900Y-112114147D01*
X95127519Y-112021015D01*
X95008985Y-111902481D01*
X94915853Y-111763100D01*
X94851703Y-111608228D01*
X94819000Y-111443816D01*
X94819000Y-111276184D01*
X94851703Y-111111772D01*
X94915853Y-110956900D01*
X95008985Y-110817519D01*
X95127519Y-110698985D01*
X95266900Y-110605853D01*
X95421772Y-110541703D01*
X95586184Y-110509000D01*
X95753816Y-110509000D01*
X95918228Y-110541703D01*
X95918228Y-110541703D01*
G37*
G36*
X88721000Y-112211000D02*
G01*
X87019000Y-112211000D01*
X87019000Y-110509000D01*
X88721000Y-110509000D01*
X88721000Y-112211000D01*
X88721000Y-112211000D01*
G37*
G36*
X90846000Y-112011000D02*
G01*
X89544000Y-112011000D01*
X89544000Y-110709000D01*
X90846000Y-110709000D01*
X90846000Y-112011000D01*
X90846000Y-112011000D01*
G37*
G36*
X115888228Y-110341703D02*
G01*
X116043100Y-110405853D01*
X116182481Y-110498985D01*
X116301015Y-110617519D01*
X116394147Y-110756900D01*
X116458297Y-110911772D01*
X116491000Y-111076184D01*
X116491000Y-111243816D01*
X116458297Y-111408228D01*
X116394147Y-111563100D01*
X116301015Y-111702481D01*
X116182481Y-111821015D01*
X116043100Y-111914147D01*
X115888228Y-111978297D01*
X115723816Y-112011000D01*
X115556184Y-112011000D01*
X115391772Y-111978297D01*
X115236900Y-111914147D01*
X115097519Y-111821015D01*
X114978985Y-111702481D01*
X114885853Y-111563100D01*
X114821703Y-111408228D01*
X114789000Y-111243816D01*
X114789000Y-111076184D01*
X114821703Y-110911772D01*
X114885853Y-110756900D01*
X114978985Y-110617519D01*
X115097519Y-110498985D01*
X115236900Y-110405853D01*
X115391772Y-110341703D01*
X115556184Y-110309000D01*
X115723816Y-110309000D01*
X115888228Y-110341703D01*
X115888228Y-110341703D01*
G37*
G36*
X108691000Y-112011000D02*
G01*
X106989000Y-112011000D01*
X106989000Y-110309000D01*
X108691000Y-110309000D01*
X108691000Y-112011000D01*
X108691000Y-112011000D01*
G37*
G36*
X93996000Y-112011000D02*
G01*
X92694000Y-112011000D01*
X92694000Y-110709000D01*
X93996000Y-110709000D01*
X93996000Y-112011000D01*
X93996000Y-112011000D01*
G37*
G36*
X126611242Y-110683404D02*
G01*
X126648337Y-110694657D01*
X126682515Y-110712925D01*
X126712481Y-110737519D01*
X126737075Y-110767485D01*
X126755343Y-110801663D01*
X126766596Y-110838758D01*
X126771000Y-110883474D01*
X126771000Y-111776526D01*
X126766596Y-111821242D01*
X126755343Y-111858337D01*
X126737075Y-111892515D01*
X126712481Y-111922481D01*
X126682515Y-111947075D01*
X126648337Y-111965343D01*
X126611242Y-111976596D01*
X126566526Y-111981000D01*
X125473474Y-111981000D01*
X125428758Y-111976596D01*
X125391663Y-111965343D01*
X125357485Y-111947075D01*
X125327519Y-111922481D01*
X125302925Y-111892515D01*
X125284657Y-111858337D01*
X125273404Y-111821242D01*
X125269000Y-111776526D01*
X125269000Y-110883474D01*
X125273404Y-110838758D01*
X125284657Y-110801663D01*
X125302925Y-110767485D01*
X125327519Y-110737519D01*
X125357485Y-110712925D01*
X125391663Y-110694657D01*
X125428758Y-110683404D01*
X125473474Y-110679000D01*
X126566526Y-110679000D01*
X126611242Y-110683404D01*
X126611242Y-110683404D01*
G37*
G36*
X113966000Y-111811000D02*
G01*
X112664000Y-111811000D01*
X112664000Y-110509000D01*
X113966000Y-110509000D01*
X113966000Y-111811000D01*
X113966000Y-111811000D01*
G37*
G36*
X110816000Y-111811000D02*
G01*
X109514000Y-111811000D01*
X109514000Y-110509000D01*
X110816000Y-110509000D01*
X110816000Y-111811000D01*
X110816000Y-111811000D01*
G37*
G36*
X126611242Y-108683404D02*
G01*
X126648337Y-108694657D01*
X126682515Y-108712925D01*
X126712481Y-108737519D01*
X126737075Y-108767485D01*
X126755343Y-108801663D01*
X126766596Y-108838758D01*
X126771000Y-108883474D01*
X126771000Y-109776526D01*
X126766596Y-109821242D01*
X126755343Y-109858337D01*
X126737075Y-109892515D01*
X126712481Y-109922481D01*
X126682515Y-109947075D01*
X126648337Y-109965343D01*
X126611242Y-109976596D01*
X126566526Y-109981000D01*
X125473474Y-109981000D01*
X125428758Y-109976596D01*
X125391663Y-109965343D01*
X125357485Y-109947075D01*
X125327519Y-109922481D01*
X125302925Y-109892515D01*
X125284657Y-109858337D01*
X125273404Y-109821242D01*
X125269000Y-109776526D01*
X125269000Y-108883474D01*
X125273404Y-108838758D01*
X125284657Y-108801663D01*
X125302925Y-108767485D01*
X125327519Y-108737519D01*
X125357485Y-108712925D01*
X125391663Y-108694657D01*
X125428758Y-108683404D01*
X125473474Y-108679000D01*
X126566526Y-108679000D01*
X126611242Y-108683404D01*
X126611242Y-108683404D01*
G37*
G36*
X132681000Y-108941000D02*
G01*
X130879000Y-108941000D01*
X130879000Y-107839000D01*
X132681000Y-107839000D01*
X132681000Y-108941000D01*
X132681000Y-108941000D01*
G37*
G36*
X138981000Y-108941000D02*
G01*
X137179000Y-108941000D01*
X137179000Y-107839000D01*
X138981000Y-107839000D01*
X138981000Y-108941000D01*
X138981000Y-108941000D01*
G37*
G36*
X92300675Y-104707885D02*
G01*
X92518675Y-104798184D01*
X92672824Y-104862034D01*
X93007749Y-105085824D01*
X93292578Y-105370653D01*
X93516368Y-105705578D01*
X93580218Y-105859727D01*
X93670517Y-106077727D01*
X93749101Y-106472795D01*
X93749101Y-106875607D01*
X93670517Y-107270675D01*
X93586523Y-107473454D01*
X93516368Y-107642824D01*
X93292578Y-107977749D01*
X93007749Y-108262578D01*
X92672824Y-108486368D01*
X92518675Y-108550218D01*
X92300675Y-108640517D01*
X91905607Y-108719101D01*
X91502795Y-108719101D01*
X91107727Y-108640517D01*
X90889727Y-108550218D01*
X90735578Y-108486368D01*
X90400653Y-108262578D01*
X90115824Y-107977749D01*
X89892034Y-107642824D01*
X89821879Y-107473454D01*
X89737885Y-107270675D01*
X89659301Y-106875607D01*
X89659301Y-106472795D01*
X89737885Y-106077727D01*
X89828184Y-105859727D01*
X89892034Y-105705578D01*
X90115824Y-105370653D01*
X90400653Y-105085824D01*
X90735578Y-104862034D01*
X90889727Y-104798184D01*
X91107727Y-104707885D01*
X91502795Y-104629301D01*
X91905607Y-104629301D01*
X92300675Y-104707885D01*
X92300675Y-104707885D01*
G37*
G36*
X112240675Y-104707885D02*
G01*
X112458675Y-104798184D01*
X112612824Y-104862034D01*
X112947749Y-105085824D01*
X113232578Y-105370653D01*
X113456368Y-105705578D01*
X113520218Y-105859727D01*
X113610517Y-106077727D01*
X113689101Y-106472795D01*
X113689101Y-106875607D01*
X113610517Y-107270675D01*
X113526523Y-107473454D01*
X113456368Y-107642824D01*
X113232578Y-107977749D01*
X112947749Y-108262578D01*
X112612824Y-108486368D01*
X112458675Y-108550218D01*
X112240675Y-108640517D01*
X111845607Y-108719101D01*
X111442795Y-108719101D01*
X111047727Y-108640517D01*
X110829727Y-108550218D01*
X110675578Y-108486368D01*
X110340653Y-108262578D01*
X110055824Y-107977749D01*
X109832034Y-107642824D01*
X109761879Y-107473454D01*
X109677885Y-107270675D01*
X109599301Y-106875607D01*
X109599301Y-106472795D01*
X109677885Y-106077727D01*
X109768184Y-105859727D01*
X109832034Y-105705578D01*
X110055824Y-105370653D01*
X110340653Y-105085824D01*
X110675578Y-104862034D01*
X110829727Y-104798184D01*
X111047727Y-104707885D01*
X111442795Y-104629301D01*
X111845607Y-104629301D01*
X112240675Y-104707885D01*
X112240675Y-104707885D01*
G37*
G36*
X86800153Y-105789630D02*
G01*
X86887276Y-105806960D01*
X86996699Y-105852285D01*
X87051412Y-105874948D01*
X87198134Y-105972984D01*
X87199129Y-105973649D01*
X87324753Y-106099273D01*
X87324755Y-106099276D01*
X87423454Y-106246990D01*
X87423454Y-106246991D01*
X87491442Y-106411126D01*
X87526101Y-106585372D01*
X87526101Y-106763030D01*
X87491442Y-106937276D01*
X87446117Y-107046699D01*
X87423454Y-107101412D01*
X87325418Y-107248134D01*
X87324753Y-107249129D01*
X87199129Y-107374753D01*
X87199126Y-107374755D01*
X87051412Y-107473454D01*
X86996699Y-107496117D01*
X86887276Y-107541442D01*
X86800153Y-107558772D01*
X86713032Y-107576101D01*
X86535370Y-107576101D01*
X86448249Y-107558772D01*
X86361126Y-107541442D01*
X86251703Y-107496117D01*
X86196990Y-107473454D01*
X86049276Y-107374755D01*
X86049273Y-107374753D01*
X85923649Y-107249129D01*
X85922984Y-107248134D01*
X85824948Y-107101412D01*
X85802285Y-107046699D01*
X85756960Y-106937276D01*
X85722301Y-106763030D01*
X85722301Y-106585372D01*
X85756960Y-106411126D01*
X85824948Y-106246991D01*
X85824948Y-106246990D01*
X85923647Y-106099276D01*
X85923649Y-106099273D01*
X86049273Y-105973649D01*
X86050268Y-105972984D01*
X86196990Y-105874948D01*
X86251703Y-105852285D01*
X86361126Y-105806960D01*
X86448249Y-105789630D01*
X86535370Y-105772301D01*
X86713032Y-105772301D01*
X86800153Y-105789630D01*
X86800153Y-105789630D01*
G37*
G36*
X106740153Y-105789630D02*
G01*
X106827276Y-105806960D01*
X106936699Y-105852285D01*
X106991412Y-105874948D01*
X107138134Y-105972984D01*
X107139129Y-105973649D01*
X107264753Y-106099273D01*
X107264755Y-106099276D01*
X107363454Y-106246990D01*
X107363454Y-106246991D01*
X107431442Y-106411126D01*
X107466101Y-106585372D01*
X107466101Y-106763030D01*
X107431442Y-106937276D01*
X107386117Y-107046699D01*
X107363454Y-107101412D01*
X107265418Y-107248134D01*
X107264753Y-107249129D01*
X107139129Y-107374753D01*
X107139126Y-107374755D01*
X106991412Y-107473454D01*
X106936699Y-107496117D01*
X106827276Y-107541442D01*
X106740153Y-107558772D01*
X106653032Y-107576101D01*
X106475370Y-107576101D01*
X106388249Y-107558772D01*
X106301126Y-107541442D01*
X106191703Y-107496117D01*
X106136990Y-107473454D01*
X105989276Y-107374755D01*
X105989273Y-107374753D01*
X105863649Y-107249129D01*
X105862984Y-107248134D01*
X105764948Y-107101412D01*
X105742285Y-107046699D01*
X105696960Y-106937276D01*
X105662301Y-106763030D01*
X105662301Y-106585372D01*
X105696960Y-106411126D01*
X105764948Y-106246991D01*
X105764948Y-106246990D01*
X105863647Y-106099276D01*
X105863649Y-106099273D01*
X105989273Y-105973649D01*
X105990268Y-105972984D01*
X106136990Y-105874948D01*
X106191703Y-105852285D01*
X106301126Y-105806960D01*
X106388249Y-105789630D01*
X106475370Y-105772301D01*
X106653032Y-105772301D01*
X106740153Y-105789630D01*
X106740153Y-105789630D01*
G37*
G36*
X116900153Y-105789630D02*
G01*
X116987276Y-105806960D01*
X117096699Y-105852285D01*
X117151412Y-105874948D01*
X117298134Y-105972984D01*
X117299129Y-105973649D01*
X117424753Y-106099273D01*
X117424755Y-106099276D01*
X117523454Y-106246990D01*
X117523454Y-106246991D01*
X117591442Y-106411126D01*
X117626101Y-106585372D01*
X117626101Y-106763030D01*
X117591442Y-106937276D01*
X117546117Y-107046699D01*
X117523454Y-107101412D01*
X117425418Y-107248134D01*
X117424753Y-107249129D01*
X117299129Y-107374753D01*
X117299126Y-107374755D01*
X117151412Y-107473454D01*
X117096699Y-107496117D01*
X116987276Y-107541442D01*
X116900153Y-107558772D01*
X116813032Y-107576101D01*
X116635370Y-107576101D01*
X116548249Y-107558772D01*
X116461126Y-107541442D01*
X116351703Y-107496117D01*
X116296990Y-107473454D01*
X116149276Y-107374755D01*
X116149273Y-107374753D01*
X116023649Y-107249129D01*
X116022984Y-107248134D01*
X115924948Y-107101412D01*
X115902285Y-107046699D01*
X115856960Y-106937276D01*
X115822301Y-106763030D01*
X115822301Y-106585372D01*
X115856960Y-106411126D01*
X115924948Y-106246991D01*
X115924948Y-106246990D01*
X116023647Y-106099276D01*
X116023649Y-106099273D01*
X116149273Y-105973649D01*
X116150268Y-105972984D01*
X116296990Y-105874948D01*
X116351703Y-105852285D01*
X116461126Y-105806960D01*
X116548249Y-105789630D01*
X116635370Y-105772301D01*
X116813032Y-105772301D01*
X116900153Y-105789630D01*
X116900153Y-105789630D01*
G37*
G36*
X96960153Y-105789630D02*
G01*
X97047276Y-105806960D01*
X97156699Y-105852285D01*
X97211412Y-105874948D01*
X97358134Y-105972984D01*
X97359129Y-105973649D01*
X97484753Y-106099273D01*
X97484755Y-106099276D01*
X97583454Y-106246990D01*
X97583454Y-106246991D01*
X97651442Y-106411126D01*
X97686101Y-106585372D01*
X97686101Y-106763030D01*
X97651442Y-106937276D01*
X97606117Y-107046699D01*
X97583454Y-107101412D01*
X97485418Y-107248134D01*
X97484753Y-107249129D01*
X97359129Y-107374753D01*
X97359126Y-107374755D01*
X97211412Y-107473454D01*
X97156699Y-107496117D01*
X97047276Y-107541442D01*
X96960153Y-107558772D01*
X96873032Y-107576101D01*
X96695370Y-107576101D01*
X96608249Y-107558772D01*
X96521126Y-107541442D01*
X96411703Y-107496117D01*
X96356990Y-107473454D01*
X96209276Y-107374755D01*
X96209273Y-107374753D01*
X96083649Y-107249129D01*
X96082984Y-107248134D01*
X95984948Y-107101412D01*
X95962285Y-107046699D01*
X95916960Y-106937276D01*
X95882301Y-106763030D01*
X95882301Y-106585372D01*
X95916960Y-106411126D01*
X95984948Y-106246991D01*
X95984948Y-106246990D01*
X96083647Y-106099276D01*
X96083649Y-106099273D01*
X96209273Y-105973649D01*
X96210268Y-105972984D01*
X96356990Y-105874948D01*
X96411703Y-105852285D01*
X96521126Y-105806960D01*
X96608249Y-105789630D01*
X96695370Y-105772301D01*
X96873032Y-105772301D01*
X96960153Y-105789630D01*
X96960153Y-105789630D01*
G37*
G36*
X89195495Y-100911437D02*
G01*
X89280672Y-100917954D01*
X89320454Y-100929080D01*
X89527476Y-100986978D01*
X89756071Y-101102826D01*
X89756073Y-101102827D01*
X89756074Y-101102828D01*
X89899025Y-101215017D01*
X89957673Y-101261044D01*
X90124535Y-101455554D01*
X90250244Y-101678879D01*
X90324588Y-101906000D01*
X90329969Y-101922440D01*
X90354387Y-102124965D01*
X90360645Y-102176868D01*
X90341096Y-102432396D01*
X90317942Y-102515184D01*
X90272071Y-102679201D01*
X90233760Y-102754797D01*
X90185251Y-102850517D01*
X88907655Y-104855939D01*
X88865658Y-104909451D01*
X88789081Y-105007027D01*
X88594574Y-105173887D01*
X88457956Y-105250788D01*
X88371246Y-105299597D01*
X88154169Y-105370653D01*
X88127685Y-105379322D01*
X87873258Y-105409998D01*
X87873257Y-105409998D01*
X87617730Y-105390449D01*
X87370926Y-105321424D01*
X87370925Y-105321424D01*
X87370923Y-105321423D01*
X87142336Y-105205579D01*
X87142334Y-105205578D01*
X87142331Y-105205576D01*
X86940729Y-105047358D01*
X86940725Y-105047355D01*
X86773868Y-104852851D01*
X86648159Y-104629524D01*
X86648158Y-104629523D01*
X86568434Y-104385965D01*
X86568433Y-104385962D01*
X86537757Y-104131535D01*
X86541623Y-104081000D01*
X86557306Y-103876007D01*
X86626331Y-103629203D01*
X86626331Y-103629202D01*
X86706971Y-103470081D01*
X86713151Y-103457886D01*
X87990746Y-101452463D01*
X88109320Y-101301376D01*
X88164546Y-101254000D01*
X88303831Y-101134513D01*
X88527149Y-101008807D01*
X88527155Y-101008805D01*
X88770712Y-100929081D01*
X88770713Y-100929081D01*
X88770716Y-100929080D01*
X89025142Y-100898404D01*
X89025144Y-100898404D01*
X89195495Y-100911437D01*
X89195495Y-100911437D01*
G37*
G36*
X109135495Y-100911437D02*
G01*
X109220672Y-100917954D01*
X109260454Y-100929080D01*
X109467476Y-100986978D01*
X109696071Y-101102826D01*
X109696073Y-101102827D01*
X109696074Y-101102828D01*
X109839025Y-101215017D01*
X109897673Y-101261044D01*
X110064535Y-101455554D01*
X110190244Y-101678879D01*
X110264588Y-101906000D01*
X110269969Y-101922440D01*
X110294387Y-102124965D01*
X110300645Y-102176868D01*
X110281096Y-102432396D01*
X110257942Y-102515184D01*
X110212071Y-102679201D01*
X110173760Y-102754797D01*
X110125251Y-102850517D01*
X108847655Y-104855939D01*
X108805658Y-104909451D01*
X108729081Y-105007027D01*
X108534574Y-105173887D01*
X108397956Y-105250788D01*
X108311246Y-105299597D01*
X108094169Y-105370653D01*
X108067685Y-105379322D01*
X107813258Y-105409998D01*
X107813257Y-105409998D01*
X107557730Y-105390449D01*
X107310926Y-105321424D01*
X107310925Y-105321424D01*
X107310923Y-105321423D01*
X107082336Y-105205579D01*
X107082334Y-105205578D01*
X107082331Y-105205576D01*
X106880729Y-105047358D01*
X106880725Y-105047355D01*
X106713868Y-104852851D01*
X106588159Y-104629524D01*
X106588158Y-104629523D01*
X106508434Y-104385965D01*
X106508433Y-104385962D01*
X106477757Y-104131535D01*
X106481623Y-104081000D01*
X106497306Y-103876007D01*
X106566331Y-103629203D01*
X106566331Y-103629202D01*
X106646971Y-103470081D01*
X106653151Y-103457886D01*
X107930746Y-101452463D01*
X108049320Y-101301376D01*
X108104546Y-101254000D01*
X108243831Y-101134513D01*
X108467149Y-101008807D01*
X108467155Y-101008805D01*
X108710712Y-100929081D01*
X108710713Y-100929081D01*
X108710716Y-100929080D01*
X108965142Y-100898404D01*
X108965144Y-100898404D01*
X109135495Y-100911437D01*
X109135495Y-100911437D01*
G37*
G36*
X126494983Y-103253434D02*
G01*
X126532372Y-103264776D01*
X126566826Y-103283191D01*
X126597025Y-103307975D01*
X126621809Y-103338174D01*
X126640224Y-103372628D01*
X126651566Y-103410017D01*
X126656000Y-103455035D01*
X126656000Y-104319965D01*
X126651566Y-104364983D01*
X126640224Y-104402372D01*
X126621809Y-104436826D01*
X126597025Y-104467025D01*
X126566826Y-104491809D01*
X126532372Y-104510224D01*
X126494983Y-104521566D01*
X126449965Y-104526000D01*
X125310035Y-104526000D01*
X125265017Y-104521566D01*
X125227628Y-104510224D01*
X125193174Y-104491809D01*
X125162975Y-104467025D01*
X125138191Y-104436826D01*
X125119776Y-104402372D01*
X125108434Y-104364983D01*
X125104000Y-104319965D01*
X125104000Y-103455035D01*
X125108434Y-103410017D01*
X125119776Y-103372628D01*
X125138191Y-103338174D01*
X125162975Y-103307975D01*
X125193174Y-103283191D01*
X125227628Y-103264776D01*
X125265017Y-103253434D01*
X125310035Y-103249000D01*
X126449965Y-103249000D01*
X126494983Y-103253434D01*
X126494983Y-103253434D01*
G37*
G36*
X144734983Y-103133434D02*
G01*
X144772372Y-103144776D01*
X144806826Y-103163191D01*
X144837025Y-103187975D01*
X144861809Y-103218174D01*
X144880224Y-103252628D01*
X144891566Y-103290017D01*
X144896000Y-103335035D01*
X144896000Y-104199965D01*
X144891566Y-104244983D01*
X144880224Y-104282372D01*
X144861809Y-104316826D01*
X144837025Y-104347025D01*
X144806826Y-104371809D01*
X144772372Y-104390224D01*
X144734983Y-104401566D01*
X144689965Y-104406000D01*
X143550035Y-104406000D01*
X143505017Y-104401566D01*
X143467628Y-104390224D01*
X143433174Y-104371809D01*
X143402975Y-104347025D01*
X143378191Y-104316826D01*
X143359776Y-104282372D01*
X143348434Y-104244983D01*
X143344000Y-104199965D01*
X143344000Y-103335035D01*
X143348434Y-103290017D01*
X143359776Y-103252628D01*
X143378191Y-103218174D01*
X143402975Y-103187975D01*
X143433174Y-103163191D01*
X143467628Y-103144776D01*
X143505017Y-103133434D01*
X143550035Y-103129000D01*
X144689965Y-103129000D01*
X144734983Y-103133434D01*
X144734983Y-103133434D01*
G37*
G36*
X139186000Y-104081000D02*
G01*
X130534000Y-104081000D01*
X130534000Y-102479000D01*
X139186000Y-102479000D01*
X139186000Y-104081000D01*
X139186000Y-104081000D01*
G37*
G36*
X114525580Y-100333014D02*
G01*
X114765192Y-100423914D01*
X114982466Y-100559814D01*
X115169053Y-100735489D01*
X115280410Y-100891751D01*
X115317781Y-100944191D01*
X115422936Y-101177898D01*
X115422937Y-101177902D01*
X115480477Y-101427629D01*
X115486259Y-101619595D01*
X115486258Y-101619603D01*
X115438117Y-102325772D01*
X115406336Y-102515184D01*
X115315436Y-102754796D01*
X115179536Y-102972070D01*
X115003861Y-103158657D01*
X114854949Y-103264776D01*
X114795159Y-103307385D01*
X114561452Y-103412540D01*
X114561448Y-103412541D01*
X114311722Y-103470081D01*
X114055567Y-103477795D01*
X114055563Y-103477795D01*
X113802822Y-103435388D01*
X113563210Y-103344488D01*
X113345936Y-103208588D01*
X113310039Y-103174790D01*
X113159349Y-103032913D01*
X113029367Y-102850516D01*
X113010621Y-102824211D01*
X112905466Y-102590504D01*
X112859734Y-102392025D01*
X112847925Y-102340773D01*
X112842143Y-102148809D01*
X112890285Y-101442629D01*
X112900788Y-101380035D01*
X112922066Y-101253218D01*
X113012966Y-101013606D01*
X113148866Y-100796332D01*
X113206151Y-100735489D01*
X113324541Y-100609745D01*
X113480803Y-100498388D01*
X113533243Y-100461017D01*
X113766950Y-100355862D01*
X113766954Y-100355861D01*
X114016680Y-100298321D01*
X114272835Y-100290607D01*
X114272839Y-100290607D01*
X114525580Y-100333014D01*
X114525580Y-100333014D01*
G37*
G36*
X94585580Y-100333014D02*
G01*
X94825192Y-100423914D01*
X95042466Y-100559814D01*
X95229053Y-100735489D01*
X95340410Y-100891751D01*
X95377781Y-100944191D01*
X95482936Y-101177898D01*
X95482937Y-101177902D01*
X95540477Y-101427629D01*
X95546259Y-101619595D01*
X95546258Y-101619603D01*
X95498117Y-102325772D01*
X95466336Y-102515184D01*
X95375436Y-102754796D01*
X95239536Y-102972070D01*
X95063861Y-103158657D01*
X94914949Y-103264776D01*
X94855159Y-103307385D01*
X94621452Y-103412540D01*
X94621448Y-103412541D01*
X94371722Y-103470081D01*
X94115567Y-103477795D01*
X94115563Y-103477795D01*
X93862822Y-103435388D01*
X93623210Y-103344488D01*
X93405936Y-103208588D01*
X93370039Y-103174790D01*
X93219349Y-103032913D01*
X93089367Y-102850516D01*
X93070621Y-102824211D01*
X92965466Y-102590504D01*
X92919734Y-102392025D01*
X92907925Y-102340773D01*
X92902143Y-102148809D01*
X92950285Y-101442629D01*
X92960788Y-101380035D01*
X92982066Y-101253218D01*
X93072966Y-101013606D01*
X93208866Y-100796332D01*
X93266151Y-100735489D01*
X93384541Y-100609745D01*
X93540803Y-100498388D01*
X93593243Y-100461017D01*
X93826950Y-100355862D01*
X93826954Y-100355861D01*
X94076680Y-100298321D01*
X94332835Y-100290607D01*
X94332839Y-100290607D01*
X94585580Y-100333014D01*
X94585580Y-100333014D01*
G37*
G36*
X126494983Y-101178434D02*
G01*
X126532372Y-101189776D01*
X126566826Y-101208191D01*
X126597025Y-101232975D01*
X126621809Y-101263174D01*
X126640224Y-101297628D01*
X126651566Y-101335017D01*
X126656000Y-101380035D01*
X126656000Y-102244965D01*
X126651566Y-102289983D01*
X126640224Y-102327372D01*
X126621809Y-102361826D01*
X126597025Y-102392025D01*
X126566826Y-102416809D01*
X126532372Y-102435224D01*
X126494983Y-102446566D01*
X126449965Y-102451000D01*
X125310035Y-102451000D01*
X125265017Y-102446566D01*
X125227628Y-102435224D01*
X125193174Y-102416809D01*
X125162975Y-102392025D01*
X125138191Y-102361826D01*
X125119776Y-102327372D01*
X125108434Y-102289983D01*
X125104000Y-102244965D01*
X125104000Y-101380035D01*
X125108434Y-101335017D01*
X125119776Y-101297628D01*
X125138191Y-101263174D01*
X125162975Y-101232975D01*
X125193174Y-101208191D01*
X125227628Y-101189776D01*
X125265017Y-101178434D01*
X125310035Y-101174000D01*
X126449965Y-101174000D01*
X126494983Y-101178434D01*
X126494983Y-101178434D01*
G37*
G36*
X144734983Y-101058434D02*
G01*
X144772372Y-101069776D01*
X144806826Y-101088191D01*
X144837025Y-101112975D01*
X144861809Y-101143174D01*
X144880224Y-101177628D01*
X144891566Y-101215017D01*
X144896000Y-101260035D01*
X144896000Y-102124965D01*
X144891566Y-102169983D01*
X144880224Y-102207372D01*
X144861809Y-102241826D01*
X144837025Y-102272025D01*
X144806826Y-102296809D01*
X144772372Y-102315224D01*
X144734983Y-102326566D01*
X144689965Y-102331000D01*
X143550035Y-102331000D01*
X143505017Y-102326566D01*
X143467628Y-102315224D01*
X143433174Y-102296809D01*
X143402975Y-102272025D01*
X143378191Y-102241826D01*
X143359776Y-102207372D01*
X143348434Y-102169983D01*
X143344000Y-102124965D01*
X143344000Y-101260035D01*
X143348434Y-101215017D01*
X143359776Y-101177628D01*
X143378191Y-101143174D01*
X143402975Y-101112975D01*
X143433174Y-101088191D01*
X143467628Y-101069776D01*
X143505017Y-101058434D01*
X143550035Y-101054000D01*
X144689965Y-101054000D01*
X144734983Y-101058434D01*
X144734983Y-101058434D01*
G37*
G36*
X129961000Y-101906000D02*
G01*
X128359000Y-101906000D01*
X128359000Y-93254000D01*
X129961000Y-93254000D01*
X129961000Y-101906000D01*
X129961000Y-101906000D01*
G37*
G36*
X141361000Y-101906000D02*
G01*
X139759000Y-101906000D01*
X139759000Y-93254000D01*
X141361000Y-93254000D01*
X141361000Y-101906000D01*
X141361000Y-101906000D01*
G37*
G36*
X126424983Y-98403434D02*
G01*
X126462372Y-98414776D01*
X126496826Y-98433191D01*
X126527025Y-98457975D01*
X126551809Y-98488174D01*
X126570224Y-98522628D01*
X126581566Y-98560017D01*
X126586000Y-98605035D01*
X126586000Y-99469965D01*
X126581566Y-99514983D01*
X126570224Y-99552372D01*
X126551809Y-99586826D01*
X126527025Y-99617025D01*
X126496826Y-99641809D01*
X126462372Y-99660224D01*
X126424983Y-99671566D01*
X126379965Y-99676000D01*
X125240035Y-99676000D01*
X125195017Y-99671566D01*
X125157628Y-99660224D01*
X125123174Y-99641809D01*
X125092975Y-99617025D01*
X125068191Y-99586826D01*
X125049776Y-99552372D01*
X125038434Y-99514983D01*
X125034000Y-99469965D01*
X125034000Y-98605035D01*
X125038434Y-98560017D01*
X125049776Y-98522628D01*
X125068191Y-98488174D01*
X125092975Y-98457975D01*
X125123174Y-98433191D01*
X125157628Y-98414776D01*
X125195017Y-98403434D01*
X125240035Y-98399000D01*
X126379965Y-98399000D01*
X126424983Y-98403434D01*
X126424983Y-98403434D01*
G37*
G36*
X144701242Y-97973404D02*
G01*
X144738337Y-97984657D01*
X144772515Y-98002925D01*
X144802481Y-98027519D01*
X144827075Y-98057485D01*
X144845343Y-98091663D01*
X144856596Y-98128758D01*
X144861000Y-98173474D01*
X144861000Y-99066526D01*
X144856596Y-99111242D01*
X144845343Y-99148337D01*
X144827075Y-99182515D01*
X144802481Y-99212481D01*
X144772515Y-99237075D01*
X144738337Y-99255343D01*
X144701242Y-99266596D01*
X144656526Y-99271000D01*
X143563474Y-99271000D01*
X143518758Y-99266596D01*
X143481663Y-99255343D01*
X143447485Y-99237075D01*
X143417519Y-99212481D01*
X143392925Y-99182515D01*
X143374657Y-99148337D01*
X143363404Y-99111242D01*
X143359000Y-99066526D01*
X143359000Y-98173474D01*
X143363404Y-98128758D01*
X143374657Y-98091663D01*
X143392925Y-98057485D01*
X143417519Y-98027519D01*
X143447485Y-98002925D01*
X143481663Y-97984657D01*
X143518758Y-97973404D01*
X143563474Y-97969000D01*
X144656526Y-97969000D01*
X144701242Y-97973404D01*
X144701242Y-97973404D01*
G37*
G36*
X126424983Y-96328434D02*
G01*
X126462372Y-96339776D01*
X126496826Y-96358191D01*
X126527025Y-96382975D01*
X126551809Y-96413174D01*
X126570224Y-96447628D01*
X126581566Y-96485017D01*
X126586000Y-96530035D01*
X126586000Y-97394965D01*
X126581566Y-97439983D01*
X126570224Y-97477372D01*
X126551809Y-97511826D01*
X126527025Y-97542025D01*
X126496826Y-97566809D01*
X126462372Y-97585224D01*
X126424983Y-97596566D01*
X126379965Y-97601000D01*
X125240035Y-97601000D01*
X125195017Y-97596566D01*
X125157628Y-97585224D01*
X125123174Y-97566809D01*
X125092975Y-97542025D01*
X125068191Y-97511826D01*
X125049776Y-97477372D01*
X125038434Y-97439983D01*
X125034000Y-97394965D01*
X125034000Y-96530035D01*
X125038434Y-96485017D01*
X125049776Y-96447628D01*
X125068191Y-96413174D01*
X125092975Y-96382975D01*
X125123174Y-96358191D01*
X125157628Y-96339776D01*
X125195017Y-96328434D01*
X125240035Y-96324000D01*
X126379965Y-96324000D01*
X126424983Y-96328434D01*
X126424983Y-96328434D01*
G37*
G36*
X144701242Y-95973404D02*
G01*
X144738337Y-95984657D01*
X144772515Y-96002925D01*
X144802481Y-96027519D01*
X144827075Y-96057485D01*
X144845343Y-96091663D01*
X144856596Y-96128758D01*
X144861000Y-96173474D01*
X144861000Y-97066526D01*
X144856596Y-97111242D01*
X144845343Y-97148337D01*
X144827075Y-97182515D01*
X144802481Y-97212481D01*
X144772515Y-97237075D01*
X144738337Y-97255343D01*
X144701242Y-97266596D01*
X144656526Y-97271000D01*
X143563474Y-97271000D01*
X143518758Y-97266596D01*
X143481663Y-97255343D01*
X143447485Y-97237075D01*
X143417519Y-97212481D01*
X143392925Y-97182515D01*
X143374657Y-97148337D01*
X143363404Y-97111242D01*
X143359000Y-97066526D01*
X143359000Y-96173474D01*
X143363404Y-96128758D01*
X143374657Y-96091663D01*
X143392925Y-96057485D01*
X143417519Y-96027519D01*
X143447485Y-96002925D01*
X143481663Y-95984657D01*
X143518758Y-95973404D01*
X143563474Y-95969000D01*
X144656526Y-95969000D01*
X144701242Y-95973404D01*
X144701242Y-95973404D01*
G37*
G36*
X126404983Y-93203434D02*
G01*
X126442372Y-93214776D01*
X126476826Y-93233191D01*
X126507025Y-93257975D01*
X126531809Y-93288174D01*
X126550224Y-93322628D01*
X126561566Y-93360017D01*
X126566000Y-93405035D01*
X126566000Y-94269965D01*
X126561566Y-94314983D01*
X126550224Y-94352372D01*
X126531809Y-94386826D01*
X126507025Y-94417025D01*
X126476826Y-94441809D01*
X126442372Y-94460224D01*
X126404983Y-94471566D01*
X126359965Y-94476000D01*
X125220035Y-94476000D01*
X125175017Y-94471566D01*
X125137628Y-94460224D01*
X125103174Y-94441809D01*
X125072975Y-94417025D01*
X125048191Y-94386826D01*
X125029776Y-94352372D01*
X125018434Y-94314983D01*
X125014000Y-94269965D01*
X125014000Y-93405035D01*
X125018434Y-93360017D01*
X125029776Y-93322628D01*
X125048191Y-93288174D01*
X125072975Y-93257975D01*
X125103174Y-93233191D01*
X125137628Y-93214776D01*
X125175017Y-93203434D01*
X125220035Y-93199000D01*
X126359965Y-93199000D01*
X126404983Y-93203434D01*
X126404983Y-93203434D01*
G37*
G36*
X144694983Y-93203434D02*
G01*
X144732372Y-93214776D01*
X144766826Y-93233191D01*
X144797025Y-93257975D01*
X144821809Y-93288174D01*
X144840224Y-93322628D01*
X144851566Y-93360017D01*
X144856000Y-93405035D01*
X144856000Y-94269965D01*
X144851566Y-94314983D01*
X144840224Y-94352372D01*
X144821809Y-94386826D01*
X144797025Y-94417025D01*
X144766826Y-94441809D01*
X144732372Y-94460224D01*
X144694983Y-94471566D01*
X144649965Y-94476000D01*
X143510035Y-94476000D01*
X143465017Y-94471566D01*
X143427628Y-94460224D01*
X143393174Y-94441809D01*
X143362975Y-94417025D01*
X143338191Y-94386826D01*
X143319776Y-94352372D01*
X143308434Y-94314983D01*
X143304000Y-94269965D01*
X143304000Y-93405035D01*
X143308434Y-93360017D01*
X143319776Y-93322628D01*
X143338191Y-93288174D01*
X143362975Y-93257975D01*
X143393174Y-93233191D01*
X143427628Y-93214776D01*
X143465017Y-93203434D01*
X143510035Y-93199000D01*
X144649965Y-93199000D01*
X144694983Y-93203434D01*
X144694983Y-93203434D01*
G37*
G36*
X139186000Y-92681000D02*
G01*
X130534000Y-92681000D01*
X130534000Y-91079000D01*
X139186000Y-91079000D01*
X139186000Y-92681000D01*
X139186000Y-92681000D01*
G37*
G36*
X144694983Y-91128434D02*
G01*
X144732372Y-91139776D01*
X144766826Y-91158191D01*
X144797025Y-91182975D01*
X144821809Y-91213174D01*
X144840224Y-91247628D01*
X144851566Y-91285017D01*
X144856000Y-91330035D01*
X144856000Y-92194965D01*
X144851566Y-92239983D01*
X144840224Y-92277372D01*
X144821809Y-92311826D01*
X144797025Y-92342025D01*
X144766826Y-92366809D01*
X144732372Y-92385224D01*
X144694983Y-92396566D01*
X144649965Y-92401000D01*
X143510035Y-92401000D01*
X143465017Y-92396566D01*
X143427628Y-92385224D01*
X143393174Y-92366809D01*
X143362975Y-92342025D01*
X143338191Y-92311826D01*
X143319776Y-92277372D01*
X143308434Y-92239983D01*
X143304000Y-92194965D01*
X143304000Y-91330035D01*
X143308434Y-91285017D01*
X143319776Y-91247628D01*
X143338191Y-91213174D01*
X143362975Y-91182975D01*
X143393174Y-91158191D01*
X143427628Y-91139776D01*
X143465017Y-91128434D01*
X143510035Y-91124000D01*
X144649965Y-91124000D01*
X144694983Y-91128434D01*
X144694983Y-91128434D01*
G37*
G36*
X126404983Y-91128434D02*
G01*
X126442372Y-91139776D01*
X126476826Y-91158191D01*
X126507025Y-91182975D01*
X126531809Y-91213174D01*
X126550224Y-91247628D01*
X126561566Y-91285017D01*
X126566000Y-91330035D01*
X126566000Y-92194965D01*
X126561566Y-92239983D01*
X126550224Y-92277372D01*
X126531809Y-92311826D01*
X126507025Y-92342025D01*
X126476826Y-92366809D01*
X126442372Y-92385224D01*
X126404983Y-92396566D01*
X126359965Y-92401000D01*
X125220035Y-92401000D01*
X125175017Y-92396566D01*
X125137628Y-92385224D01*
X125103174Y-92366809D01*
X125072975Y-92342025D01*
X125048191Y-92311826D01*
X125029776Y-92277372D01*
X125018434Y-92239983D01*
X125014000Y-92194965D01*
X125014000Y-91330035D01*
X125018434Y-91285017D01*
X125029776Y-91247628D01*
X125048191Y-91213174D01*
X125072975Y-91182975D01*
X125103174Y-91158191D01*
X125137628Y-91139776D01*
X125175017Y-91128434D01*
X125220035Y-91124000D01*
X126359965Y-91124000D01*
X126404983Y-91128434D01*
X126404983Y-91128434D01*
G37*
G36*
X108591000Y-92341000D02*
G01*
X106889000Y-92341000D01*
X106889000Y-90639000D01*
X108591000Y-90639000D01*
X108591000Y-92341000D01*
X108591000Y-92341000D01*
G37*
G36*
X115788228Y-90671703D02*
G01*
X115943100Y-90735853D01*
X116082481Y-90828985D01*
X116201015Y-90947519D01*
X116294147Y-91086900D01*
X116358297Y-91241772D01*
X116391000Y-91406184D01*
X116391000Y-91573816D01*
X116358297Y-91738228D01*
X116294147Y-91893100D01*
X116201015Y-92032481D01*
X116082481Y-92151015D01*
X115943100Y-92244147D01*
X115788228Y-92308297D01*
X115623816Y-92341000D01*
X115456184Y-92341000D01*
X115291772Y-92308297D01*
X115136900Y-92244147D01*
X114997519Y-92151015D01*
X114878985Y-92032481D01*
X114785853Y-91893100D01*
X114721703Y-91738228D01*
X114689000Y-91573816D01*
X114689000Y-91406184D01*
X114721703Y-91241772D01*
X114785853Y-91086900D01*
X114878985Y-90947519D01*
X114997519Y-90828985D01*
X115136900Y-90735853D01*
X115291772Y-90671703D01*
X115456184Y-90639000D01*
X115623816Y-90639000D01*
X115788228Y-90671703D01*
X115788228Y-90671703D01*
G37*
G36*
X95918228Y-90571703D02*
G01*
X96073100Y-90635853D01*
X96212481Y-90728985D01*
X96331015Y-90847519D01*
X96424147Y-90986900D01*
X96488297Y-91141772D01*
X96521000Y-91306184D01*
X96521000Y-91473816D01*
X96488297Y-91638228D01*
X96424147Y-91793100D01*
X96331015Y-91932481D01*
X96212481Y-92051015D01*
X96073100Y-92144147D01*
X95918228Y-92208297D01*
X95753816Y-92241000D01*
X95586184Y-92241000D01*
X95421772Y-92208297D01*
X95266900Y-92144147D01*
X95127519Y-92051015D01*
X95008985Y-91932481D01*
X94915853Y-91793100D01*
X94851703Y-91638228D01*
X94819000Y-91473816D01*
X94819000Y-91306184D01*
X94851703Y-91141772D01*
X94915853Y-90986900D01*
X95008985Y-90847519D01*
X95127519Y-90728985D01*
X95266900Y-90635853D01*
X95421772Y-90571703D01*
X95586184Y-90539000D01*
X95753816Y-90539000D01*
X95918228Y-90571703D01*
X95918228Y-90571703D01*
G37*
G36*
X88721000Y-92241000D02*
G01*
X87019000Y-92241000D01*
X87019000Y-90539000D01*
X88721000Y-90539000D01*
X88721000Y-92241000D01*
X88721000Y-92241000D01*
G37*
G36*
X110716000Y-92141000D02*
G01*
X109414000Y-92141000D01*
X109414000Y-90839000D01*
X110716000Y-90839000D01*
X110716000Y-92141000D01*
X110716000Y-92141000D01*
G37*
G36*
X113866000Y-92141000D02*
G01*
X112564000Y-92141000D01*
X112564000Y-90839000D01*
X113866000Y-90839000D01*
X113866000Y-92141000D01*
X113866000Y-92141000D01*
G37*
G36*
X93996000Y-92041000D02*
G01*
X92694000Y-92041000D01*
X92694000Y-90739000D01*
X93996000Y-90739000D01*
X93996000Y-92041000D01*
X93996000Y-92041000D01*
G37*
G36*
X90846000Y-92041000D02*
G01*
X89544000Y-92041000D01*
X89544000Y-90739000D01*
X90846000Y-90739000D01*
X90846000Y-92041000D01*
X90846000Y-92041000D01*
G37*
G36*
X92300675Y-84767885D02*
G01*
X92518675Y-84858184D01*
X92672824Y-84922034D01*
X93007749Y-85145824D01*
X93292578Y-85430653D01*
X93516368Y-85765578D01*
X93572338Y-85900702D01*
X93670517Y-86137727D01*
X93749101Y-86532795D01*
X93749101Y-86935607D01*
X93670517Y-87330675D01*
X93586523Y-87533454D01*
X93516368Y-87702824D01*
X93292578Y-88037749D01*
X93007749Y-88322578D01*
X92672824Y-88546368D01*
X92518675Y-88610218D01*
X92300675Y-88700517D01*
X91905607Y-88779101D01*
X91502795Y-88779101D01*
X91107727Y-88700517D01*
X90889727Y-88610218D01*
X90735578Y-88546368D01*
X90400653Y-88322578D01*
X90115824Y-88037749D01*
X89892034Y-87702824D01*
X89821879Y-87533454D01*
X89737885Y-87330675D01*
X89659301Y-86935607D01*
X89659301Y-86532795D01*
X89737885Y-86137727D01*
X89836064Y-85900702D01*
X89892034Y-85765578D01*
X90115824Y-85430653D01*
X90400653Y-85145824D01*
X90735578Y-84922034D01*
X90889727Y-84858184D01*
X91107727Y-84767885D01*
X91502795Y-84689301D01*
X91905607Y-84689301D01*
X92300675Y-84767885D01*
X92300675Y-84767885D01*
G37*
G36*
X112240675Y-84767885D02*
G01*
X112458675Y-84858184D01*
X112612824Y-84922034D01*
X112947749Y-85145824D01*
X113232578Y-85430653D01*
X113456368Y-85765578D01*
X113512338Y-85900702D01*
X113610517Y-86137727D01*
X113689101Y-86532795D01*
X113689101Y-86935607D01*
X113610517Y-87330675D01*
X113526523Y-87533454D01*
X113456368Y-87702824D01*
X113232578Y-88037749D01*
X112947749Y-88322578D01*
X112612824Y-88546368D01*
X112458675Y-88610218D01*
X112240675Y-88700517D01*
X111845607Y-88779101D01*
X111442795Y-88779101D01*
X111047727Y-88700517D01*
X110829727Y-88610218D01*
X110675578Y-88546368D01*
X110340653Y-88322578D01*
X110055824Y-88037749D01*
X109832034Y-87702824D01*
X109761879Y-87533454D01*
X109677885Y-87330675D01*
X109599301Y-86935607D01*
X109599301Y-86532795D01*
X109677885Y-86137727D01*
X109776064Y-85900702D01*
X109832034Y-85765578D01*
X110055824Y-85430653D01*
X110340653Y-85145824D01*
X110675578Y-84922034D01*
X110829727Y-84858184D01*
X111047727Y-84767885D01*
X111442795Y-84689301D01*
X111845607Y-84689301D01*
X112240675Y-84767885D01*
X112240675Y-84767885D01*
G37*
G36*
X136403496Y-86717056D02*
G01*
X134846447Y-88274105D01*
X133501530Y-86929188D01*
X135058579Y-85372139D01*
X136403496Y-86717056D01*
X136403496Y-86717056D01*
G37*
G36*
X116900153Y-85849630D02*
G01*
X116987276Y-85866960D01*
X117068735Y-85900702D01*
X117151412Y-85934948D01*
X117298134Y-86032984D01*
X117299129Y-86033649D01*
X117424753Y-86159273D01*
X117424755Y-86159276D01*
X117523454Y-86306990D01*
X117523454Y-86306991D01*
X117591442Y-86471126D01*
X117591442Y-86471128D01*
X117626101Y-86645370D01*
X117626101Y-86823032D01*
X117612736Y-86890224D01*
X117591442Y-86997276D01*
X117546117Y-87106699D01*
X117523454Y-87161412D01*
X117425418Y-87308134D01*
X117424753Y-87309129D01*
X117299129Y-87434753D01*
X117299126Y-87434755D01*
X117151412Y-87533454D01*
X117096699Y-87556117D01*
X116987276Y-87601442D01*
X116900153Y-87618771D01*
X116813032Y-87636101D01*
X116635370Y-87636101D01*
X116548249Y-87618772D01*
X116461126Y-87601442D01*
X116351703Y-87556117D01*
X116296990Y-87533454D01*
X116149276Y-87434755D01*
X116149273Y-87434753D01*
X116023649Y-87309129D01*
X116022984Y-87308134D01*
X115924948Y-87161412D01*
X115902285Y-87106699D01*
X115856960Y-86997276D01*
X115835666Y-86890224D01*
X115822301Y-86823032D01*
X115822301Y-86645370D01*
X115856960Y-86471128D01*
X115856960Y-86471126D01*
X115924948Y-86306991D01*
X115924948Y-86306990D01*
X116023647Y-86159276D01*
X116023649Y-86159273D01*
X116149273Y-86033649D01*
X116150268Y-86032984D01*
X116296990Y-85934948D01*
X116379667Y-85900702D01*
X116461126Y-85866960D01*
X116548249Y-85849631D01*
X116635370Y-85832301D01*
X116813032Y-85832301D01*
X116900153Y-85849630D01*
X116900153Y-85849630D01*
G37*
G36*
X106740153Y-85849630D02*
G01*
X106827276Y-85866960D01*
X106908735Y-85900702D01*
X106991412Y-85934948D01*
X107138134Y-86032984D01*
X107139129Y-86033649D01*
X107264753Y-86159273D01*
X107264755Y-86159276D01*
X107363454Y-86306990D01*
X107363454Y-86306991D01*
X107431442Y-86471126D01*
X107431442Y-86471128D01*
X107466101Y-86645370D01*
X107466101Y-86823032D01*
X107452736Y-86890224D01*
X107431442Y-86997276D01*
X107386117Y-87106699D01*
X107363454Y-87161412D01*
X107265418Y-87308134D01*
X107264753Y-87309129D01*
X107139129Y-87434753D01*
X107139126Y-87434755D01*
X106991412Y-87533454D01*
X106936699Y-87556117D01*
X106827276Y-87601442D01*
X106740153Y-87618771D01*
X106653032Y-87636101D01*
X106475370Y-87636101D01*
X106388249Y-87618772D01*
X106301126Y-87601442D01*
X106191703Y-87556117D01*
X106136990Y-87533454D01*
X105989276Y-87434755D01*
X105989273Y-87434753D01*
X105863649Y-87309129D01*
X105862984Y-87308134D01*
X105764948Y-87161412D01*
X105742285Y-87106699D01*
X105696960Y-86997276D01*
X105675666Y-86890224D01*
X105662301Y-86823032D01*
X105662301Y-86645370D01*
X105696960Y-86471128D01*
X105696960Y-86471126D01*
X105764948Y-86306991D01*
X105764948Y-86306990D01*
X105863647Y-86159276D01*
X105863649Y-86159273D01*
X105989273Y-86033649D01*
X105990268Y-86032984D01*
X106136990Y-85934948D01*
X106219667Y-85900702D01*
X106301126Y-85866960D01*
X106388249Y-85849631D01*
X106475370Y-85832301D01*
X106653032Y-85832301D01*
X106740153Y-85849630D01*
X106740153Y-85849630D01*
G37*
G36*
X96960153Y-85849630D02*
G01*
X97047276Y-85866960D01*
X97128735Y-85900702D01*
X97211412Y-85934948D01*
X97358134Y-86032984D01*
X97359129Y-86033649D01*
X97484753Y-86159273D01*
X97484755Y-86159276D01*
X97583454Y-86306990D01*
X97583454Y-86306991D01*
X97651442Y-86471126D01*
X97651442Y-86471128D01*
X97686101Y-86645370D01*
X97686101Y-86823032D01*
X97672736Y-86890224D01*
X97651442Y-86997276D01*
X97606117Y-87106699D01*
X97583454Y-87161412D01*
X97485418Y-87308134D01*
X97484753Y-87309129D01*
X97359129Y-87434753D01*
X97359126Y-87434755D01*
X97211412Y-87533454D01*
X97156699Y-87556117D01*
X97047276Y-87601442D01*
X96960153Y-87618771D01*
X96873032Y-87636101D01*
X96695370Y-87636101D01*
X96608249Y-87618772D01*
X96521126Y-87601442D01*
X96411703Y-87556117D01*
X96356990Y-87533454D01*
X96209276Y-87434755D01*
X96209273Y-87434753D01*
X96083649Y-87309129D01*
X96082984Y-87308134D01*
X95984948Y-87161412D01*
X95962285Y-87106699D01*
X95916960Y-86997276D01*
X95895666Y-86890224D01*
X95882301Y-86823032D01*
X95882301Y-86645370D01*
X95916960Y-86471128D01*
X95916960Y-86471126D01*
X95984948Y-86306991D01*
X95984948Y-86306990D01*
X96083647Y-86159276D01*
X96083649Y-86159273D01*
X96209273Y-86033649D01*
X96210268Y-86032984D01*
X96356990Y-85934948D01*
X96439667Y-85900702D01*
X96521126Y-85866960D01*
X96608249Y-85849630D01*
X96695370Y-85832301D01*
X96873032Y-85832301D01*
X96960153Y-85849630D01*
X96960153Y-85849630D01*
G37*
G36*
X86800153Y-85849630D02*
G01*
X86887276Y-85866960D01*
X86968735Y-85900702D01*
X87051412Y-85934948D01*
X87198134Y-86032984D01*
X87199129Y-86033649D01*
X87324753Y-86159273D01*
X87324755Y-86159276D01*
X87423454Y-86306990D01*
X87423454Y-86306991D01*
X87491442Y-86471126D01*
X87491442Y-86471128D01*
X87526101Y-86645370D01*
X87526101Y-86823032D01*
X87512736Y-86890224D01*
X87491442Y-86997276D01*
X87446117Y-87106699D01*
X87423454Y-87161412D01*
X87325418Y-87308134D01*
X87324753Y-87309129D01*
X87199129Y-87434753D01*
X87199126Y-87434755D01*
X87051412Y-87533454D01*
X86996699Y-87556117D01*
X86887276Y-87601442D01*
X86800153Y-87618772D01*
X86713032Y-87636101D01*
X86535370Y-87636101D01*
X86448249Y-87618772D01*
X86361126Y-87601442D01*
X86251703Y-87556117D01*
X86196990Y-87533454D01*
X86049276Y-87434755D01*
X86049273Y-87434753D01*
X85923649Y-87309129D01*
X85922984Y-87308134D01*
X85824948Y-87161412D01*
X85802285Y-87106699D01*
X85756960Y-86997276D01*
X85735666Y-86890224D01*
X85722301Y-86823032D01*
X85722301Y-86645370D01*
X85756960Y-86471128D01*
X85756960Y-86471126D01*
X85824948Y-86306991D01*
X85824948Y-86306990D01*
X85923647Y-86159276D01*
X85923649Y-86159273D01*
X86049273Y-86033649D01*
X86050268Y-86032984D01*
X86196990Y-85934948D01*
X86279667Y-85900702D01*
X86361126Y-85866960D01*
X86448249Y-85849630D01*
X86535370Y-85832301D01*
X86713032Y-85832301D01*
X86800153Y-85849630D01*
X86800153Y-85849630D01*
G37*
G36*
X130174983Y-85633434D02*
G01*
X130212372Y-85644776D01*
X130246826Y-85663191D01*
X130277025Y-85687975D01*
X130301809Y-85718174D01*
X130320224Y-85752628D01*
X130331566Y-85790017D01*
X130336000Y-85835035D01*
X130336000Y-86699965D01*
X130331566Y-86744983D01*
X130320224Y-86782372D01*
X130301809Y-86816826D01*
X130277025Y-86847025D01*
X130246826Y-86871809D01*
X130212372Y-86890224D01*
X130174983Y-86901566D01*
X130129965Y-86906000D01*
X128990035Y-86906000D01*
X128945017Y-86901566D01*
X128907628Y-86890224D01*
X128873174Y-86871809D01*
X128842975Y-86847025D01*
X128818191Y-86816826D01*
X128799776Y-86782372D01*
X128788434Y-86744983D01*
X128784000Y-86699965D01*
X128784000Y-85835035D01*
X128788434Y-85790017D01*
X128799776Y-85752628D01*
X128818191Y-85718174D01*
X128842975Y-85687975D01*
X128873174Y-85663191D01*
X128907628Y-85644776D01*
X128945017Y-85633434D01*
X128990035Y-85629000D01*
X130129965Y-85629000D01*
X130174983Y-85633434D01*
X130174983Y-85633434D01*
G37*
G36*
X141574983Y-85603434D02*
G01*
X141612372Y-85614776D01*
X141646826Y-85633191D01*
X141677025Y-85657975D01*
X141701809Y-85688174D01*
X141720224Y-85722628D01*
X141731566Y-85760017D01*
X141736000Y-85805035D01*
X141736000Y-86669965D01*
X141731566Y-86714983D01*
X141720224Y-86752372D01*
X141701809Y-86786826D01*
X141677025Y-86817025D01*
X141646826Y-86841809D01*
X141612372Y-86860224D01*
X141574983Y-86871566D01*
X141529965Y-86876000D01*
X140390035Y-86876000D01*
X140345017Y-86871566D01*
X140307628Y-86860224D01*
X140273174Y-86841809D01*
X140242975Y-86817025D01*
X140218191Y-86786826D01*
X140199776Y-86752372D01*
X140188434Y-86714983D01*
X140184000Y-86669965D01*
X140184000Y-85805035D01*
X140188434Y-85760017D01*
X140199776Y-85722628D01*
X140218191Y-85688174D01*
X140242975Y-85657975D01*
X140273174Y-85633191D01*
X140307628Y-85614776D01*
X140345017Y-85603434D01*
X140390035Y-85599000D01*
X141529965Y-85599000D01*
X141574983Y-85603434D01*
X141574983Y-85603434D01*
G37*
G36*
X125624983Y-85563434D02*
G01*
X125662372Y-85574776D01*
X125696826Y-85593191D01*
X125727025Y-85617975D01*
X125751809Y-85648174D01*
X125770224Y-85682628D01*
X125781566Y-85720017D01*
X125786000Y-85765035D01*
X125786000Y-86629965D01*
X125781566Y-86674983D01*
X125770224Y-86712372D01*
X125751809Y-86746826D01*
X125727025Y-86777025D01*
X125696826Y-86801809D01*
X125662372Y-86820224D01*
X125624983Y-86831566D01*
X125579965Y-86836000D01*
X124440035Y-86836000D01*
X124395017Y-86831566D01*
X124357628Y-86820224D01*
X124323174Y-86801809D01*
X124292975Y-86777025D01*
X124268191Y-86746826D01*
X124249776Y-86712372D01*
X124238434Y-86674983D01*
X124234000Y-86629965D01*
X124234000Y-85765035D01*
X124238434Y-85720017D01*
X124249776Y-85682628D01*
X124268191Y-85648174D01*
X124292975Y-85617975D01*
X124323174Y-85593191D01*
X124357628Y-85574776D01*
X124395017Y-85563434D01*
X124440035Y-85559000D01*
X125579965Y-85559000D01*
X125624983Y-85563434D01*
X125624983Y-85563434D01*
G37*
G36*
X134847861Y-85161421D02*
G01*
X133290812Y-86718470D01*
X131945895Y-85373553D01*
X133502944Y-83816504D01*
X134847861Y-85161421D01*
X134847861Y-85161421D01*
G37*
G36*
X138454105Y-84666447D02*
G01*
X136897056Y-86223496D01*
X135552139Y-84878579D01*
X137109188Y-83321530D01*
X138454105Y-84666447D01*
X138454105Y-84666447D01*
G37*
G36*
X109135495Y-80971437D02*
G01*
X109220672Y-80977954D01*
X109260454Y-80989080D01*
X109467476Y-81046978D01*
X109696071Y-81162826D01*
X109897673Y-81321044D01*
X110064535Y-81515554D01*
X110190244Y-81738879D01*
X110199087Y-81765896D01*
X110269969Y-81982440D01*
X110280167Y-82067023D01*
X110300645Y-82236868D01*
X110281096Y-82492396D01*
X110236878Y-82650500D01*
X110212071Y-82739201D01*
X110173760Y-82814797D01*
X110125251Y-82910517D01*
X108847655Y-84915939D01*
X108805658Y-84969451D01*
X108729081Y-85067027D01*
X108534574Y-85233887D01*
X108397956Y-85310788D01*
X108311246Y-85359597D01*
X108094169Y-85430653D01*
X108067685Y-85439322D01*
X107813258Y-85469998D01*
X107813257Y-85469998D01*
X107557730Y-85450449D01*
X107310926Y-85381424D01*
X107310925Y-85381424D01*
X107310923Y-85381423D01*
X107082336Y-85265579D01*
X107082334Y-85265578D01*
X107082331Y-85265576D01*
X106880729Y-85107358D01*
X106880725Y-85107355D01*
X106713868Y-84912851D01*
X106617599Y-84741826D01*
X106588158Y-84689523D01*
X106508434Y-84445965D01*
X106508433Y-84445962D01*
X106477757Y-84191535D01*
X106477757Y-84191534D01*
X106497306Y-83936007D01*
X106566331Y-83689203D01*
X106566331Y-83689202D01*
X106629994Y-83563580D01*
X106653151Y-83517886D01*
X107930746Y-81512463D01*
X108049320Y-81361376D01*
X108193253Y-81237902D01*
X108243831Y-81194513D01*
X108467149Y-81068807D01*
X108467155Y-81068805D01*
X108710712Y-80989081D01*
X108710713Y-80989081D01*
X108710716Y-80989080D01*
X108965142Y-80958404D01*
X108965144Y-80958404D01*
X109135495Y-80971437D01*
X109135495Y-80971437D01*
G37*
G36*
X89195495Y-80971437D02*
G01*
X89280672Y-80977954D01*
X89320454Y-80989080D01*
X89527476Y-81046978D01*
X89756071Y-81162826D01*
X89957673Y-81321044D01*
X90124535Y-81515554D01*
X90250244Y-81738879D01*
X90259087Y-81765896D01*
X90329969Y-81982440D01*
X90340167Y-82067023D01*
X90360645Y-82236868D01*
X90341096Y-82492396D01*
X90296878Y-82650500D01*
X90272071Y-82739201D01*
X90233760Y-82814797D01*
X90185251Y-82910517D01*
X88907655Y-84915939D01*
X88865658Y-84969451D01*
X88789081Y-85067027D01*
X88594574Y-85233887D01*
X88457956Y-85310788D01*
X88371246Y-85359597D01*
X88154169Y-85430653D01*
X88127685Y-85439322D01*
X87873258Y-85469998D01*
X87873257Y-85469998D01*
X87617730Y-85450449D01*
X87370926Y-85381424D01*
X87370925Y-85381424D01*
X87370923Y-85381423D01*
X87142336Y-85265579D01*
X87142334Y-85265578D01*
X87142331Y-85265576D01*
X86940729Y-85107358D01*
X86940725Y-85107355D01*
X86773868Y-84912851D01*
X86677599Y-84741826D01*
X86648158Y-84689523D01*
X86568434Y-84445965D01*
X86568433Y-84445962D01*
X86537757Y-84191535D01*
X86537757Y-84191534D01*
X86557306Y-83936007D01*
X86626331Y-83689203D01*
X86626331Y-83689202D01*
X86689994Y-83563580D01*
X86713151Y-83517886D01*
X87990746Y-81512463D01*
X88109320Y-81361376D01*
X88253253Y-81237902D01*
X88303831Y-81194513D01*
X88527149Y-81068807D01*
X88527155Y-81068805D01*
X88770712Y-80989081D01*
X88770713Y-80989081D01*
X88770716Y-80989080D01*
X89025142Y-80958404D01*
X89025144Y-80958404D01*
X89195495Y-80971437D01*
X89195495Y-80971437D01*
G37*
G36*
X130174983Y-83558434D02*
G01*
X130212372Y-83569776D01*
X130246826Y-83588191D01*
X130277025Y-83612975D01*
X130301809Y-83643174D01*
X130320224Y-83677628D01*
X130331566Y-83715017D01*
X130336000Y-83760035D01*
X130336000Y-84624965D01*
X130331566Y-84669983D01*
X130320224Y-84707372D01*
X130301809Y-84741826D01*
X130277025Y-84772025D01*
X130246826Y-84796809D01*
X130212372Y-84815224D01*
X130174983Y-84826566D01*
X130129965Y-84831000D01*
X128990035Y-84831000D01*
X128945017Y-84826566D01*
X128907628Y-84815224D01*
X128873174Y-84796809D01*
X128842975Y-84772025D01*
X128818191Y-84741826D01*
X128799776Y-84707372D01*
X128788434Y-84669983D01*
X128784000Y-84624965D01*
X128784000Y-83760035D01*
X128788434Y-83715017D01*
X128799776Y-83677628D01*
X128818191Y-83643174D01*
X128842975Y-83612975D01*
X128873174Y-83588191D01*
X128907628Y-83569776D01*
X128945017Y-83558434D01*
X128990035Y-83554000D01*
X130129965Y-83554000D01*
X130174983Y-83558434D01*
X130174983Y-83558434D01*
G37*
G36*
X141574983Y-83528434D02*
G01*
X141612372Y-83539776D01*
X141646826Y-83558191D01*
X141677025Y-83582975D01*
X141701809Y-83613174D01*
X141720224Y-83647628D01*
X141731566Y-83685017D01*
X141736000Y-83730035D01*
X141736000Y-84594965D01*
X141731566Y-84639983D01*
X141720224Y-84677372D01*
X141701809Y-84711826D01*
X141677025Y-84742025D01*
X141646826Y-84766809D01*
X141612372Y-84785224D01*
X141574983Y-84796566D01*
X141529965Y-84801000D01*
X140390035Y-84801000D01*
X140345017Y-84796566D01*
X140307628Y-84785224D01*
X140273174Y-84766809D01*
X140242975Y-84742025D01*
X140218191Y-84711826D01*
X140199776Y-84677372D01*
X140188434Y-84639983D01*
X140184000Y-84594965D01*
X140184000Y-83730035D01*
X140188434Y-83685017D01*
X140199776Y-83647628D01*
X140218191Y-83613174D01*
X140242975Y-83582975D01*
X140273174Y-83558191D01*
X140307628Y-83539776D01*
X140345017Y-83528434D01*
X140390035Y-83524000D01*
X141529965Y-83524000D01*
X141574983Y-83528434D01*
X141574983Y-83528434D01*
G37*
G36*
X125624983Y-83488434D02*
G01*
X125662372Y-83499776D01*
X125696826Y-83518191D01*
X125727025Y-83542975D01*
X125751809Y-83573174D01*
X125770224Y-83607628D01*
X125781566Y-83645017D01*
X125786000Y-83690035D01*
X125786000Y-84554965D01*
X125781566Y-84599983D01*
X125770224Y-84637372D01*
X125751809Y-84671826D01*
X125727025Y-84702025D01*
X125696826Y-84726809D01*
X125662372Y-84745224D01*
X125624983Y-84756566D01*
X125579965Y-84761000D01*
X124440035Y-84761000D01*
X124395017Y-84756566D01*
X124357628Y-84745224D01*
X124323174Y-84726809D01*
X124292975Y-84702025D01*
X124268191Y-84671826D01*
X124249776Y-84637372D01*
X124238434Y-84599983D01*
X124234000Y-84554965D01*
X124234000Y-83690035D01*
X124238434Y-83645017D01*
X124249776Y-83607628D01*
X124268191Y-83573174D01*
X124292975Y-83542975D01*
X124323174Y-83518191D01*
X124357628Y-83499776D01*
X124395017Y-83488434D01*
X124440035Y-83484000D01*
X125579965Y-83484000D01*
X125624983Y-83488434D01*
X125624983Y-83488434D01*
G37*
G36*
X136898470Y-83110812D02*
G01*
X135341421Y-84667861D01*
X133996504Y-83322944D01*
X135553553Y-81765895D01*
X136898470Y-83110812D01*
X136898470Y-83110812D01*
G37*
G36*
X103551000Y-83811000D02*
G01*
X99749000Y-83811000D01*
X99749000Y-82309000D01*
X103551000Y-82309000D01*
X103551000Y-83811000D01*
X103551000Y-83811000D01*
G37*
G36*
X94585580Y-80393014D02*
G01*
X94825192Y-80483914D01*
X95042466Y-80619814D01*
X95229053Y-80795489D01*
X95340410Y-80951751D01*
X95377781Y-81004191D01*
X95482936Y-81237898D01*
X95482937Y-81237902D01*
X95540477Y-81487629D01*
X95546259Y-81679595D01*
X95529656Y-81923129D01*
X95498117Y-82385772D01*
X95466336Y-82575184D01*
X95375436Y-82814796D01*
X95239536Y-83032070D01*
X95063861Y-83218657D01*
X94919504Y-83321530D01*
X94855159Y-83367385D01*
X94621452Y-83472540D01*
X94621448Y-83472541D01*
X94371722Y-83530081D01*
X94115567Y-83537795D01*
X94115563Y-83537795D01*
X93862822Y-83495388D01*
X93623210Y-83404488D01*
X93405936Y-83268588D01*
X93352904Y-83218657D01*
X93219349Y-83092913D01*
X93089367Y-82910516D01*
X93070621Y-82884211D01*
X92965466Y-82650504D01*
X92907925Y-82400772D01*
X92905161Y-82309000D01*
X92902143Y-82208809D01*
X92950285Y-81502629D01*
X92973986Y-81361376D01*
X92982066Y-81313218D01*
X93072966Y-81073606D01*
X93208866Y-80856332D01*
X93266151Y-80795489D01*
X93384541Y-80669745D01*
X93540803Y-80558388D01*
X93593243Y-80521017D01*
X93826950Y-80415862D01*
X93826954Y-80415861D01*
X94076680Y-80358321D01*
X94332835Y-80350607D01*
X94332839Y-80350607D01*
X94585580Y-80393014D01*
X94585580Y-80393014D01*
G37*
G36*
X114525580Y-80393014D02*
G01*
X114765192Y-80483914D01*
X114982466Y-80619814D01*
X115169053Y-80795489D01*
X115280410Y-80951751D01*
X115317781Y-81004191D01*
X115422936Y-81237898D01*
X115422937Y-81237902D01*
X115480477Y-81487629D01*
X115486259Y-81679595D01*
X115469656Y-81923129D01*
X115438117Y-82385772D01*
X115406336Y-82575184D01*
X115315436Y-82814796D01*
X115179536Y-83032070D01*
X115003861Y-83218657D01*
X114859504Y-83321530D01*
X114795159Y-83367385D01*
X114561452Y-83472540D01*
X114561448Y-83472541D01*
X114311722Y-83530081D01*
X114055567Y-83537795D01*
X114055563Y-83537795D01*
X113802822Y-83495388D01*
X113563210Y-83404488D01*
X113345936Y-83268588D01*
X113292904Y-83218657D01*
X113159349Y-83092913D01*
X113029367Y-82910516D01*
X113010621Y-82884211D01*
X112905466Y-82650504D01*
X112847925Y-82400772D01*
X112845161Y-82309000D01*
X112842143Y-82208809D01*
X112890285Y-81502629D01*
X112913986Y-81361376D01*
X112922066Y-81313218D01*
X113012966Y-81073606D01*
X113148866Y-80856332D01*
X113206151Y-80795489D01*
X113324541Y-80669745D01*
X113480803Y-80558388D01*
X113533243Y-80521017D01*
X113766950Y-80415862D01*
X113766954Y-80415861D01*
X114016680Y-80358321D01*
X114272835Y-80350607D01*
X114272839Y-80350607D01*
X114525580Y-80393014D01*
X114525580Y-80393014D01*
G37*
G36*
X98157022Y-78620590D02*
G01*
X98257681Y-78651125D01*
X98308012Y-78666392D01*
X98326823Y-78676447D01*
X98447164Y-78740771D01*
X98569133Y-78840867D01*
X98669229Y-78962835D01*
X98743608Y-79101987D01*
X98758875Y-79152318D01*
X98789410Y-79252977D01*
X98801000Y-79370655D01*
X98801000Y-81949345D01*
X98789410Y-82067023D01*
X98758875Y-82167682D01*
X98743608Y-82218013D01*
X98669229Y-82357165D01*
X98569133Y-82479133D01*
X98447165Y-82579229D01*
X98308013Y-82653608D01*
X98257682Y-82668875D01*
X98157023Y-82699410D01*
X98000000Y-82714875D01*
X97842978Y-82699410D01*
X97742319Y-82668875D01*
X97691988Y-82653608D01*
X97552836Y-82579229D01*
X97430868Y-82479133D01*
X97330772Y-82357165D01*
X97256393Y-82218013D01*
X97241126Y-82167682D01*
X97210591Y-82067023D01*
X97199001Y-81949345D01*
X97199000Y-79370656D01*
X97210590Y-79252978D01*
X97256392Y-79101989D01*
X97256392Y-79101988D01*
X97330771Y-78962836D01*
X97330772Y-78962835D01*
X97430867Y-78840867D01*
X97552835Y-78740771D01*
X97673176Y-78676447D01*
X97691987Y-78666392D01*
X97742318Y-78651125D01*
X97842977Y-78620590D01*
X98000000Y-78605125D01*
X98157022Y-78620590D01*
X98157022Y-78620590D01*
G37*
G36*
X105457022Y-78620590D02*
G01*
X105557681Y-78651125D01*
X105608012Y-78666392D01*
X105626823Y-78676447D01*
X105747164Y-78740771D01*
X105869133Y-78840867D01*
X105969229Y-78962835D01*
X106043608Y-79101987D01*
X106058875Y-79152318D01*
X106089410Y-79252977D01*
X106101000Y-79370655D01*
X106101000Y-81949345D01*
X106089410Y-82067023D01*
X106058875Y-82167682D01*
X106043608Y-82218013D01*
X105969229Y-82357165D01*
X105869133Y-82479133D01*
X105747165Y-82579229D01*
X105608013Y-82653608D01*
X105557682Y-82668875D01*
X105457023Y-82699410D01*
X105300000Y-82714875D01*
X105142978Y-82699410D01*
X105042319Y-82668875D01*
X104991988Y-82653608D01*
X104852836Y-82579229D01*
X104730868Y-82479133D01*
X104630772Y-82357165D01*
X104556393Y-82218013D01*
X104541126Y-82167682D01*
X104510591Y-82067023D01*
X104499001Y-81949345D01*
X104499000Y-79370656D01*
X104510590Y-79252978D01*
X104556392Y-79101989D01*
X104556392Y-79101988D01*
X104630771Y-78962836D01*
X104630772Y-78962835D01*
X104730867Y-78840867D01*
X104852835Y-78740771D01*
X104973176Y-78676447D01*
X104991987Y-78666392D01*
X105042318Y-78651125D01*
X105142977Y-78620590D01*
X105300000Y-78605125D01*
X105457022Y-78620590D01*
X105457022Y-78620590D01*
G37*
G36*
X132741242Y-78513404D02*
G01*
X132778337Y-78524657D01*
X132812515Y-78542925D01*
X132842481Y-78567519D01*
X132867075Y-78597485D01*
X132885343Y-78631663D01*
X132896596Y-78668758D01*
X132901000Y-78713474D01*
X132901000Y-79806526D01*
X132896596Y-79851242D01*
X132885343Y-79888337D01*
X132867075Y-79922515D01*
X132842481Y-79952481D01*
X132812515Y-79977075D01*
X132778337Y-79995343D01*
X132741242Y-80006596D01*
X132696526Y-80011000D01*
X131803474Y-80011000D01*
X131758758Y-80006596D01*
X131721663Y-79995343D01*
X131687485Y-79977075D01*
X131657519Y-79952481D01*
X131632925Y-79922515D01*
X131614657Y-79888337D01*
X131603404Y-79851242D01*
X131599000Y-79806526D01*
X131599000Y-78713474D01*
X131603404Y-78668758D01*
X131614657Y-78631663D01*
X131632925Y-78597485D01*
X131657519Y-78567519D01*
X131687485Y-78542925D01*
X131721663Y-78524657D01*
X131758758Y-78513404D01*
X131803474Y-78509000D01*
X132696526Y-78509000D01*
X132741242Y-78513404D01*
X132741242Y-78513404D01*
G37*
G36*
X134741242Y-78513404D02*
G01*
X134778337Y-78524657D01*
X134812515Y-78542925D01*
X134842481Y-78567519D01*
X134867075Y-78597485D01*
X134885343Y-78631663D01*
X134896596Y-78668758D01*
X134901000Y-78713474D01*
X134901000Y-79806526D01*
X134896596Y-79851242D01*
X134885343Y-79888337D01*
X134867075Y-79922515D01*
X134842481Y-79952481D01*
X134812515Y-79977075D01*
X134778337Y-79995343D01*
X134741242Y-80006596D01*
X134696526Y-80011000D01*
X133803474Y-80011000D01*
X133758758Y-80006596D01*
X133721663Y-79995343D01*
X133687485Y-79977075D01*
X133657519Y-79952481D01*
X133632925Y-79922515D01*
X133614657Y-79888337D01*
X133603404Y-79851242D01*
X133599000Y-79806526D01*
X133599000Y-78713474D01*
X133603404Y-78668758D01*
X133614657Y-78631663D01*
X133632925Y-78597485D01*
X133657519Y-78567519D01*
X133687485Y-78542925D01*
X133721663Y-78524657D01*
X133758758Y-78513404D01*
X133803474Y-78509000D01*
X134696526Y-78509000D01*
X134741242Y-78513404D01*
X134741242Y-78513404D01*
G37*
G36*
X126561242Y-78403404D02*
G01*
X126598337Y-78414657D01*
X126632515Y-78432925D01*
X126662481Y-78457519D01*
X126687075Y-78487485D01*
X126705343Y-78521663D01*
X126716596Y-78558758D01*
X126721000Y-78603474D01*
X126721000Y-79696526D01*
X126716596Y-79741242D01*
X126705343Y-79778337D01*
X126687075Y-79812515D01*
X126662481Y-79842481D01*
X126632515Y-79867075D01*
X126598337Y-79885343D01*
X126561242Y-79896596D01*
X126516526Y-79901000D01*
X125623474Y-79901000D01*
X125578758Y-79896596D01*
X125541663Y-79885343D01*
X125507485Y-79867075D01*
X125477519Y-79842481D01*
X125452925Y-79812515D01*
X125434657Y-79778337D01*
X125423404Y-79741242D01*
X125419000Y-79696526D01*
X125419000Y-78603474D01*
X125423404Y-78558758D01*
X125434657Y-78521663D01*
X125452925Y-78487485D01*
X125477519Y-78457519D01*
X125507485Y-78432925D01*
X125541663Y-78414657D01*
X125578758Y-78403404D01*
X125623474Y-78399000D01*
X126516526Y-78399000D01*
X126561242Y-78403404D01*
X126561242Y-78403404D01*
G37*
G36*
X128561242Y-78403404D02*
G01*
X128598337Y-78414657D01*
X128632515Y-78432925D01*
X128662481Y-78457519D01*
X128687075Y-78487485D01*
X128705343Y-78521663D01*
X128716596Y-78558758D01*
X128721000Y-78603474D01*
X128721000Y-79696526D01*
X128716596Y-79741242D01*
X128705343Y-79778337D01*
X128687075Y-79812515D01*
X128662481Y-79842481D01*
X128632515Y-79867075D01*
X128598337Y-79885343D01*
X128561242Y-79896596D01*
X128516526Y-79901000D01*
X127623474Y-79901000D01*
X127578758Y-79896596D01*
X127541663Y-79885343D01*
X127507485Y-79867075D01*
X127477519Y-79842481D01*
X127452925Y-79812515D01*
X127434657Y-79778337D01*
X127423404Y-79741242D01*
X127419000Y-79696526D01*
X127419000Y-78603474D01*
X127423404Y-78558758D01*
X127434657Y-78521663D01*
X127452925Y-78487485D01*
X127477519Y-78457519D01*
X127507485Y-78432925D01*
X127541663Y-78414657D01*
X127578758Y-78403404D01*
X127623474Y-78399000D01*
X128516526Y-78399000D01*
X128561242Y-78403404D01*
X128561242Y-78403404D01*
G37*
G36*
X100201000Y-78311000D02*
G01*
X97749000Y-78311000D01*
X97749000Y-77409000D01*
X100201000Y-77409000D01*
X100201000Y-78311000D01*
X100201000Y-78311000D01*
G37*
G36*
X105551000Y-78311000D02*
G01*
X103099000Y-78311000D01*
X103099000Y-77409000D01*
X105551000Y-77409000D01*
X105551000Y-78311000D01*
X105551000Y-78311000D01*
G37*
M02*
